<svg width="73" height="17" viewBox="0 0 73 17" fill="none" xmlns="http://www.w3.org/2000/svg">
<path d="M14.625 10.4023H10.4551L9.51855 13H8.16504L11.9658 3.04688H13.1143L16.9219 13H15.5752L14.625 10.4023ZM10.8516 9.32227H14.2354L12.54 4.66699L10.8516 9.32227ZM24.3252 9.38379C24.3252 10.514 24.0654 11.4232 23.5459 12.1113C23.0264 12.7949 22.3291 13.1367 21.4541 13.1367C20.5199 13.1367 19.7975 12.8063 19.2871 12.1455L19.2256 13H18.0635V2.5H19.3281V6.41699C19.8385 5.78353 20.5426 5.4668 21.4404 5.4668C22.3382 5.4668 23.0423 5.80632 23.5527 6.48535C24.0677 7.16439 24.3252 8.09408 24.3252 9.27441V9.38379ZM23.0605 9.24023C23.0605 8.37891 22.8942 7.71354 22.5615 7.24414C22.2288 6.77474 21.7503 6.54004 21.126 6.54004C20.292 6.54004 19.6927 6.92741 19.3281 7.70215V10.9014C19.7155 11.6761 20.3193 12.0635 21.1396 12.0635C21.7458 12.0635 22.2174 11.8288 22.5547 11.3594C22.8919 10.89 23.0605 10.1836 23.0605 9.24023ZM25.5898 9.2334C25.5898 8.50879 25.7311 7.8571 26.0137 7.27832C26.3008 6.69954 26.6973 6.25293 27.2031 5.93848C27.7135 5.62402 28.2946 5.4668 28.9463 5.4668C29.9535 5.4668 30.7669 5.81543 31.3867 6.5127C32.0111 7.20996 32.3232 8.13737 32.3232 9.29492V9.38379C32.3232 10.1038 32.1842 10.751 31.9062 11.3252C31.6328 11.8949 31.2386 12.3392 30.7236 12.6582C30.2132 12.9772 29.6253 13.1367 28.96 13.1367C27.9574 13.1367 27.1439 12.7881 26.5195 12.0908C25.8997 11.3936 25.5898 10.4707 25.5898 9.32227V9.2334ZM26.8613 9.38379C26.8613 10.2041 27.0505 10.8626 27.4287 11.3594C27.8115 11.8561 28.3219 12.1045 28.96 12.1045C29.6025 12.1045 30.113 11.8538 30.4912 11.3525C30.8695 10.8467 31.0586 10.1403 31.0586 9.2334C31.0586 8.4222 30.8649 7.76595 30.4775 7.26465C30.0947 6.75879 29.5843 6.50586 28.9463 6.50586C28.3219 6.50586 27.8184 6.75423 27.4355 7.25098C27.0527 7.74772 26.8613 8.45866 26.8613 9.38379ZM38.4756 12.2686C37.9834 12.8473 37.2611 13.1367 36.3086 13.1367C35.5202 13.1367 34.9186 12.9089 34.5039 12.4531C34.0938 11.9928 33.8864 11.3138 33.8818 10.416V5.60352H35.1465V10.3818C35.1465 11.5029 35.6022 12.0635 36.5137 12.0635C37.4798 12.0635 38.1224 11.7035 38.4414 10.9834V5.60352H39.7061V13H38.5029L38.4756 12.2686ZM43.3496 3.8125V5.60352H44.7305V6.58105H43.3496V11.168C43.3496 11.4642 43.4111 11.6875 43.5342 11.8379C43.6572 11.9837 43.8669 12.0566 44.1631 12.0566C44.3089 12.0566 44.5094 12.0293 44.7646 11.9746V13C44.432 13.0911 44.1084 13.1367 43.7939 13.1367C43.2288 13.1367 42.8027 12.9658 42.5156 12.624C42.2285 12.2822 42.085 11.7969 42.085 11.168V6.58105H40.7383V5.60352H42.085V3.8125H43.3496ZM56.8916 3.04688V9.81445C56.887 10.7533 56.5908 11.5212 56.0029 12.1182C55.4196 12.7152 54.6266 13.0501 53.624 13.123L53.2754 13.1367C52.1862 13.1367 51.318 12.8428 50.6709 12.2549C50.0238 11.667 49.6956 10.8581 49.6865 9.82812V3.04688H50.9854V9.78711C50.9854 10.5072 51.1836 11.0677 51.5801 11.4688C51.9766 11.8652 52.5417 12.0635 53.2754 12.0635C54.0182 12.0635 54.5856 11.8652 54.9775 11.4688C55.374 11.0723 55.5723 10.514 55.5723 9.79395V3.04688H56.8916ZM63.0713 11.0381C63.0713 10.6963 62.9414 10.432 62.6816 10.2451C62.4264 10.0537 61.9775 9.88965 61.335 9.75293C60.6969 9.61621 60.1888 9.45215 59.8105 9.26074C59.4368 9.06934 59.1589 8.84147 58.9766 8.57715C58.7988 8.31283 58.71 7.99837 58.71 7.63379C58.71 7.02767 58.9652 6.51497 59.4756 6.0957C59.9906 5.67643 60.6468 5.4668 61.4443 5.4668C62.2829 5.4668 62.9619 5.68327 63.4814 6.11621C64.0055 6.54915 64.2676 7.10286 64.2676 7.77734H62.9961C62.9961 7.43099 62.848 7.13249 62.5518 6.88184C62.2601 6.63118 61.891 6.50586 61.4443 6.50586C60.984 6.50586 60.624 6.60612 60.3643 6.80664C60.1045 7.00716 59.9746 7.26921 59.9746 7.59277C59.9746 7.89811 60.0954 8.12826 60.3369 8.2832C60.5785 8.43815 61.0137 8.58626 61.6426 8.72754C62.276 8.86882 62.7887 9.03743 63.1807 9.2334C63.5726 9.42936 63.862 9.66634 64.0488 9.94434C64.2402 10.2178 64.3359 10.5527 64.3359 10.9492C64.3359 11.61 64.0716 12.141 63.543 12.542C63.0143 12.9385 62.3285 13.1367 61.4854 13.1367C60.8929 13.1367 60.3688 13.0319 59.9131 12.8223C59.4574 12.6126 59.0996 12.321 58.8398 11.9473C58.5846 11.569 58.457 11.1611 58.457 10.7236H59.7217C59.7445 11.1475 59.9131 11.4847 60.2275 11.7354C60.5465 11.9814 60.9658 12.1045 61.4854 12.1045C61.9639 12.1045 62.3467 12.0088 62.6338 11.8174C62.9255 11.6214 63.0713 11.3617 63.0713 11.0381Z" fill="white"/>
</svg>
