<svg width="576" height="107" viewBox="0 0 576 107" fill="none" xmlns="http://www.w3.org/2000/svg">
<path d="M82.5114 41.9983C80.3515 42.0171 78.4679 41.6095 76.8605 40.7755C75.2532 39.9415 74.0107 38.7443 73.1331 37.1839C72.2715 35.6394 71.8316 33.8191 71.8134 31.7232C71.79 29.0513 72.3847 26.606 73.5974 24.3874C74.8101 22.1687 76.4748 20.4101 78.5916 19.1116C80.7243 17.8129 83.0946 17.1522 85.7025 17.1295C87.8464 17.1108 89.6335 17.4472 91.0635 18.1387C92.4936 18.8303 93.5497 19.7491 94.2317 20.8952C94.9137 22.0413 95.2608 23.3023 95.2728 24.6782C95.286 26.1982 94.939 27.6893 94.2318 29.1515C93.5245 30.6137 92.5269 31.8145 91.2391 32.7537C89.9671 33.6769 88.5151 34.1456 86.8832 34.1598L87.9725 32.4702C89.0259 32.173 89.9652 31.6288 90.7903 30.8376C91.6315 30.0462 92.2794 29.1205 92.7342 28.0605C93.189 27.0005 93.4117 25.9425 93.4025 24.8866C93.3926 23.7506 93.1196 22.721 92.5835 21.7976C92.0633 20.8581 91.2168 20.1135 90.0439 19.5637C88.887 18.9977 87.4045 18.7227 85.5966 18.7385C83.4526 18.7572 81.4893 19.3023 79.7066 20.3739C77.9398 21.4294 76.5442 22.8656 75.5201 24.6826C74.5117 26.4835 74.0169 28.4559 74.0356 30.5998C74.0605 33.4477 74.8634 35.6168 76.4445 37.107C78.0417 38.6131 80.3363 39.3531 83.3281 39.327C85.1201 39.3114 86.7892 38.9688 88.3354 38.2993C89.8817 37.6458 91.2574 36.6897 92.4625 35.4312C92.6904 35.8772 92.8064 36.3402 92.8106 36.8202C92.8186 37.7322 92.338 38.5844 91.3689 39.3769C90.3998 40.1694 89.1172 40.7966 87.5212 41.2585C85.9413 41.7363 84.2714 41.9829 82.5114 41.9983ZM81.6274 34.2057C80.6994 34.2138 79.9525 33.8763 79.3865 33.1932C78.8203 32.4941 78.5323 31.5686 78.5222 30.4166C78.5112 29.1527 78.7973 28.0141 79.3804 27.001C79.9795 25.9717 80.7885 25.1647 81.8074 24.5797C82.8423 23.9947 83.9678 23.6969 85.1837 23.6862C85.6957 23.6818 86.2161 23.7252 86.7449 23.8166C86.8754 24.1035 86.9424 24.4389 86.9457 24.8229C85.6658 24.8341 84.5798 25.0676 83.6877 25.5234C82.8115 25.963 82.1608 26.5687 81.7355 27.3405C81.3102 28.1122 81.1018 28.9861 81.1103 29.962C81.1162 30.634 81.2648 31.1607 81.5561 31.5422C81.8633 31.9075 82.2729 32.088 82.7849 32.0835C83.7929 32.0747 84.6037 31.4756 85.2173 30.2862C85.8308 29.0808 86.271 27.2609 86.5377 24.8265C86.7435 24.5687 86.9739 24.3826 87.2289 24.2684C87.4838 24.1382 87.7632 24.0717 88.0672 24.0691C88.3872 24.0663 88.6439 24.1521 88.8375 24.3264C89.031 24.5007 89.1291 24.7479 89.1319 25.0678C89.134 25.3078 89.089 25.6442 88.9967 26.0771C88.9205 26.5097 88.8285 26.9666 88.7207 27.4475C88.4895 28.4576 88.3052 29.3472 88.168 30.1164C88.0307 30.8857 87.9652 31.6383 87.9716 32.3742C87.974 32.6462 88.0081 32.8859 88.0739 33.0934C88.1396 33.2848 88.2449 33.4279 88.3897 33.5226C87.9293 33.9427 87.4272 34.1551 86.8832 34.1598C86.4032 34.164 86.034 34.0312 85.7757 33.7615C85.5332 33.4756 85.4097 33.0766 85.4052 32.5646C85.4028 32.2927 85.4325 32.0204 85.4941 31.7478L85.3015 31.6775C84.8923 32.4651 84.3617 33.0858 83.7097 33.5395C83.0735 33.9771 82.3794 34.1991 81.6274 34.2057ZM98.6674 36.7931C98.2194 36.797 97.8739 36.624 97.6308 36.2741C97.4039 35.9401 97.2876 35.4531 97.282 34.8131C97.2711 33.5651 97.8311 31.7202 98.9618 29.2782C100.109 26.8361 101.787 23.8854 103.997 20.4259L103.244 19.4245C103.705 19.1324 104.136 18.9207 104.534 18.7892C104.949 18.6576 105.389 18.5897 105.853 18.5857C106.509 18.58 106.918 18.7364 107.081 19.055C107.462 18.7316 107.877 18.568 108.325 18.5641C108.805 18.5599 109.166 18.7248 109.409 19.0587C109.652 19.3766 109.776 19.8795 109.782 20.5675C109.79 21.4154 109.787 22.0875 109.776 22.5836C109.78 24.8716 109.805 26.8155 109.851 28.4152C109.913 30.0147 110.078 31.5413 110.347 32.995C110.615 34.4487 111.04 35.4691 111.621 36.056C111.097 36.4766 110.483 36.69 109.779 36.6961C109.027 36.7027 108.441 36.4358 108.02 35.8954C107.615 35.3389 107.319 34.4135 107.132 33.1191C106.96 31.8085 106.864 29.9293 106.842 27.4814C106.83 26.0414 106.819 24.7855 106.81 23.7135C106.8 22.6256 106.8 21.6975 106.809 20.9294L106.521 20.9319C104.389 24.1667 102.813 26.8765 101.792 29.0615C100.771 31.2305 100.266 32.907 100.276 34.0909C100.28 34.5229 100.307 34.9067 100.358 35.2423C100.425 35.5777 100.515 35.8809 100.63 36.1519C100.36 36.3623 100.065 36.5169 99.7459 36.6157C99.4269 36.7304 99.0674 36.7896 98.6674 36.7931ZM100 30.0132L108.304 29.9407L108.007 31.6474L99.6551 31.7203L100 30.0132ZM116.772 36.6591C116.292 36.6633 115.922 36.5065 115.663 36.1887C115.405 35.887 115.273 35.4161 115.267 34.7761C115.262 34.1522 115.425 32.6627 115.756 30.3077C116.087 27.9367 116.466 25.4293 116.89 22.7855C116.982 22.2247 117.073 21.6879 117.164 21.1751C117.256 20.6462 117.339 20.1495 117.415 19.6848L116.349 18.4941C116.714 18.1709 117.152 17.9191 117.662 17.7386C118.189 17.542 118.668 17.4418 119.1 17.438C119.548 17.4341 119.869 17.5353 120.063 17.7416C120.256 17.932 120.355 18.2671 120.359 18.7471C120.361 18.9551 120.301 19.3956 120.179 20.0687C120.057 20.7418 119.911 21.4951 119.743 22.3286C119.237 24.9091 118.825 27.2008 118.507 29.2037C118.204 31.1904 118.059 32.9597 118.073 34.5116C118.075 34.8156 118.118 35.1033 118.2 35.3746C118.299 35.6297 118.42 35.8287 118.566 35.9714C118.327 36.1815 118.057 36.3439 117.754 36.4585C117.451 36.5892 117.124 36.656 116.772 36.6591ZM125.771 36.5805C125.291 36.5847 124.922 36.428 124.663 36.1102C124.404 35.8084 124.272 35.3376 124.267 34.6976C124.261 34.0736 124.424 32.5841 124.756 30.2292C125.087 27.8582 125.465 25.3508 125.89 22.707C125.981 22.1462 126.073 21.6093 126.164 21.0965C126.255 20.5677 126.339 20.071 126.415 19.6063L125.349 18.4155C125.714 18.0923 126.152 17.8405 126.662 17.6601C127.188 17.4634 127.668 17.3633 128.1 17.3595C128.548 17.3556 128.868 17.4568 129.062 17.6631C129.256 17.8534 129.355 18.1886 129.359 18.6686C129.361 18.8765 129.301 19.3171 129.179 19.9902C129.056 20.6633 128.911 21.4166 128.742 22.2501C128.237 24.8306 127.825 27.1223 127.506 29.1251C127.204 31.1118 127.059 32.8812 127.072 34.4331C127.075 34.7371 127.118 35.0247 127.2 35.296C127.298 35.5512 127.42 35.7501 127.565 35.8929C127.327 36.103 127.056 36.2653 126.753 36.38C126.451 36.5106 126.123 36.5775 125.771 36.5805ZM143.704 36.4241C143.208 36.4284 142.815 36.2878 142.524 36.0023C142.234 35.7169 142.085 35.1821 142.078 34.3982C142.071 33.6142 142.167 32.7173 142.367 31.7075C142.566 30.6978 142.858 29.3992 143.245 27.8117C143.6 26.3686 143.862 25.2222 144.031 24.3727C144.199 23.5072 144.281 22.7625 144.275 22.1385C144.27 21.5625 144.184 20.9153 144.018 20.1967L143.968 20.0051C144.238 19.7148 144.596 19.4876 145.043 19.3237C145.489 19.1438 145.928 19.052 146.36 19.0482C146.824 19.0442 147.161 19.1452 147.371 19.3514C147.581 19.5576 147.688 19.9007 147.692 20.3806C147.695 20.7646 147.62 21.2613 147.465 21.8707C147.326 22.4799 147.094 23.338 146.767 24.4449C146.177 26.4661 145.712 28.2302 145.373 29.7372C145.05 31.2281 144.904 32.7334 144.933 34.2532L145.712 35.5425C145.427 35.833 145.101 36.0518 144.734 36.1991C144.383 36.3461 144.04 36.4211 143.704 36.4241ZM142.383 25.3232C141.983 25.3266 141.694 25.2572 141.517 25.1147C141.34 24.9562 141.249 24.717 141.247 24.397C141.243 23.981 141.368 23.5879 141.62 23.2177C142.07 23.3578 142.798 23.4235 143.806 23.4147C144.414 23.4094 145.213 23.3144 146.204 23.1297C146.619 23.0621 147.051 23.0023 147.498 22.9504C147.946 22.8825 148.353 22.847 148.721 22.8437C149.137 22.8401 149.426 22.9176 149.587 23.0762C149.749 23.2348 149.831 23.4741 149.834 23.7941C149.837 24.2101 149.713 24.5872 149.46 24.9254C149.219 24.8635 148.891 24.8183 148.474 24.79C148.074 24.7455 147.698 24.7248 147.346 24.7278C147.01 24.7308 146.626 24.7661 146.195 24.8339C145.763 24.8856 145.348 24.9453 144.948 25.0128C143.798 25.2148 142.943 25.3183 142.383 25.3232ZM152.998 36.3429C152.438 36.3478 152.021 36.2075 151.747 35.9218C151.472 35.6362 151.332 35.2134 151.328 34.6535C151.323 34.0935 151.449 33.0443 151.708 31.506C151.967 29.9517 152.401 27.5158 153.012 24.1984C153.165 23.397 153.318 22.5956 153.471 21.7943C153.624 20.9769 153.769 20.1676 153.906 19.3664L152.84 18.1756C153.205 17.8524 153.643 17.6006 154.153 17.4201C154.68 17.2235 155.159 17.1234 155.591 17.1196C156.039 17.1157 156.36 17.2169 156.553 17.4232C156.747 17.6135 156.846 17.9487 156.85 18.4286C156.853 18.7326 156.808 19.133 156.717 19.6299C156.625 20.1107 156.471 20.8 156.255 21.698C155.838 23.4457 155.538 24.8003 155.354 25.762L155.595 25.8799C156.461 24.2883 157.467 23.1274 158.613 22.3974C159.758 21.6514 160.915 21.2733 162.083 21.2631C163.107 21.2541 163.877 21.5114 164.394 22.0349C164.91 22.5425 165.173 23.3402 165.183 24.4282C165.188 25.0681 165.122 25.7327 164.984 26.422C164.862 27.1111 164.678 27.9767 164.431 29.0189C164.137 30.2375 163.922 31.2394 163.785 32.0246C163.648 32.7939 163.582 33.5625 163.589 34.3304C163.594 34.9384 163.702 35.3535 163.912 35.5757C163.42 36.028 162.91 36.2564 162.382 36.261C161.822 36.2659 161.413 36.1255 161.154 35.8397C160.896 35.554 160.764 35.1311 160.759 34.5711C160.754 33.9632 160.812 33.2826 160.933 32.5295C161.071 31.7603 161.262 30.7666 161.507 29.5484C161.739 28.5384 161.907 27.6969 162.013 27.0239C162.135 26.3348 162.194 25.7423 162.19 25.2463C162.179 23.9504 161.685 23.3066 160.709 23.3152C159.733 23.3237 158.729 23.8124 157.698 24.7815C156.682 25.7504 155.838 27.0858 155.164 28.7877C154.491 30.4737 154.164 32.3486 154.182 34.4125C154.187 35.0045 154.286 35.4197 154.48 35.658C154.02 36.11 153.526 36.3383 152.998 36.3429ZM174.365 36.1565C172.669 36.1713 171.336 35.6629 170.367 34.6313C169.398 33.5997 168.906 32.172 168.89 30.348C168.875 28.6201 169.237 27.0569 169.977 25.6584C170.717 24.2599 171.747 23.1628 173.068 22.3673C174.389 21.5557 175.866 21.1428 177.498 21.1286C178.762 21.1175 179.748 21.4129 180.458 22.0148C181.183 22.6165 181.55 23.4533 181.56 24.5252C181.57 25.6612 181.17 26.6407 180.361 27.4638C179.552 28.2709 178.366 28.8973 176.801 29.343C175.253 29.7725 173.375 29.9969 171.167 30.0161L171.443 28.6697C173.827 28.6649 175.672 28.2968 176.978 27.5653C178.299 26.8178 178.955 25.788 178.943 24.4761C178.938 23.9161 178.766 23.4696 178.427 23.1365C178.088 22.8035 177.647 22.6393 177.103 22.6441C176.159 22.6523 175.282 23.012 174.472 23.7231C173.662 24.4182 173.023 25.3678 172.553 26.5719C172.083 27.7601 171.855 29.0581 171.867 30.4661C171.878 31.746 172.127 32.7519 172.613 33.4837C173.1 34.1994 173.759 34.5537 174.591 34.5464C175.631 34.5374 176.476 34.202 177.126 33.5403C177.776 32.8786 178.129 32.0035 178.183 30.915C178.807 30.9095 179.288 31.0253 179.626 31.2624C179.964 31.4834 180.135 31.842 180.14 32.3379C180.145 32.9779 179.895 33.5961 179.388 34.1926C178.881 34.773 178.181 35.2431 177.288 35.6029C176.411 35.9626 175.437 36.1471 174.365 36.1565ZM197.971 35.9505C196.211 35.9658 194.822 35.4659 193.805 34.4508C192.804 33.4355 192.296 32.0158 192.28 30.1919C192.265 28.464 192.635 26.9007 193.391 25.502C194.147 24.0874 195.185 22.9743 196.506 22.1627C197.827 21.3512 199.28 20.9385 200.864 20.9247C201.872 20.9159 202.665 21.0769 203.244 21.4079C203.839 21.7227 204.139 22.1681 204.144 22.7441C204.148 23.2241 203.959 23.6337 203.578 23.9731C203.213 24.2963 202.75 24.4603 202.19 24.4652C201.599 24.4704 201.061 24.3391 200.579 24.0713C200.097 23.8035 199.701 23.3669 199.392 22.7616C198.579 23.1207 197.855 23.671 197.222 24.4126C196.588 25.1541 196.092 26.0385 195.733 27.0657C195.39 28.0767 195.223 29.1582 195.233 30.3101C195.244 31.5741 195.485 32.564 195.955 33.28C196.441 33.9957 197.101 34.35 197.933 34.3427C198.604 34.3369 199.203 34.1636 199.728 33.8231C200.253 33.4825 200.665 33.0228 200.964 32.4442C201.263 31.8496 201.433 31.1921 201.475 30.4717C202.099 30.4662 202.58 30.582 202.918 30.8191C203.256 31.0562 203.427 31.4227 203.432 31.9187C203.438 32.6386 203.196 33.3048 202.705 33.9171C202.214 34.5294 201.547 35.0152 200.702 35.3746C199.873 35.7499 198.963 35.9418 197.971 35.9505ZM213.045 35.8189C211.893 35.829 210.875 35.5819 209.99 35.0775C209.122 34.5571 208.443 33.827 207.955 32.8872C207.483 31.9313 207.241 30.8214 207.23 29.5574C207.215 27.8615 207.554 26.3545 208.247 25.0364C208.955 23.7181 209.946 22.6855 211.22 21.9383C212.493 21.1912 213.938 20.8106 215.554 20.7965C216.226 20.7906 216.842 20.8492 217.403 20.9723C217.582 21.2268 217.689 21.6019 217.725 22.0976C216.125 22.1115 214.76 22.4434 213.63 23.0933C212.499 23.7432 211.643 24.6467 211.061 25.8038C210.479 26.945 210.195 28.2435 210.207 29.6994C210.22 31.1234 210.493 32.233 211.028 33.0284C211.563 33.8238 212.319 34.2172 213.295 34.2087C214.239 34.2004 215.084 33.9291 215.832 33.3945C216.595 32.8598 217.213 32.1024 217.684 31.1223C218.171 30.142 218.474 29.0033 218.59 27.7062C217.931 27.296 217.447 26.8442 217.138 26.3508C216.846 25.8574 216.697 25.2746 216.691 24.6027C216.688 24.2027 216.764 23.842 216.922 23.5206C217.095 23.1831 217.324 22.9251 217.611 22.7466C217.897 22.5521 218.224 22.4532 218.592 22.45C219.328 22.4436 219.907 22.7665 220.329 23.4189C220.751 24.0712 220.967 24.9814 220.977 26.1493C220.992 27.9093 220.646 29.5283 219.939 31.0066C219.248 32.4687 218.29 33.6371 217.066 34.5118C215.857 35.3704 214.517 35.8061 213.045 35.8189ZM230.19 35.0693C229.39 35.0763 228.629 35.0189 227.908 34.8972C227.713 34.5629 227.614 34.1877 227.61 33.7717C229.37 33.7564 230.911 33.4389 232.234 32.8194C233.572 32.1836 234.597 31.3107 235.307 30.2004C236.033 29.0741 236.39 27.7829 236.377 26.3269C236.368 25.239 236.129 24.393 235.659 23.7891C235.206 23.185 234.571 22.8866 233.755 22.8937C232.939 22.9008 232.183 23.2914 231.486 24.0655C230.804 24.8235 230.19 25.9409 229.643 27.4178C229.095 28.8786 228.607 30.6829 228.178 32.8307L228.674 23.6821L229.93 24.5831C230.479 23.3303 231.191 22.3641 232.065 21.6844C232.939 20.9887 233.88 20.6365 234.888 20.6277C235.752 20.6202 236.514 20.8455 237.174 21.3038C237.85 21.7619 238.367 22.4214 238.727 23.2823C239.102 24.1271 239.295 25.1094 239.305 26.2294C239.319 27.8453 238.924 29.3288 238.12 30.6799C237.331 32.0148 236.236 33.0804 234.835 33.8767C233.434 34.6569 231.885 35.0545 230.19 35.0693ZM226.584 39.9009C226.088 39.9053 225.71 39.7405 225.451 39.4068C225.192 39.089 225.06 38.5942 225.054 37.9222C225.049 37.2982 225.249 35.5284 225.656 32.6127C226.078 29.6809 226.594 26.4523 227.203 22.9269L226.137 21.7361C226.518 21.4288 226.964 21.1769 227.474 20.9804C227.985 20.784 228.456 20.6839 228.888 20.6801C229.336 20.6762 229.657 20.7774 229.851 20.9837C230.044 21.174 230.143 21.5092 230.147 21.9891C230.15 22.3091 230.098 22.7496 229.991 23.3106C229.9 23.8554 229.739 24.6408 229.507 25.6669C228.984 28.0395 228.571 30.1712 228.267 32.0619C227.98 33.9365 227.844 35.8418 227.861 37.7777C227.864 38.0817 227.914 38.3613 228.012 38.6164C228.111 38.8876 228.233 39.0865 228.378 39.2132C228.14 39.4393 227.869 39.6097 227.566 39.7244C227.263 39.839 226.936 39.8979 226.584 39.9009ZM242.82 39.7592C241.812 39.768 241.059 39.5986 240.56 39.2509C240.061 38.9033 239.808 38.4255 239.803 37.8175C239.801 37.5935 239.847 37.3531 239.941 37.0963C240.035 36.8554 240.145 36.6385 240.271 36.4454C240.611 36.8264 241.005 37.135 241.455 37.3711C241.905 37.6071 242.538 37.7216 243.354 37.7145C244.634 37.7033 246.07 37.1708 247.661 36.1169C249.268 35.0788 250.653 33.4106 251.817 31.1124C252.997 28.814 253.572 25.9049 253.541 22.385C253.535 21.729 253.515 21.2892 253.482 21.0655C253.848 20.8383 254.15 20.6836 254.39 20.6015C254.629 20.5035 254.884 20.4532 255.156 20.4508C255.972 20.4437 256.384 20.9201 256.393 21.8801C256.415 24.472 255.863 27.1569 254.735 29.9349C253.607 32.7128 252.003 35.0389 249.924 36.9131C247.86 38.7872 245.492 39.7359 242.82 39.7592ZM249.047 35.5047C247.703 35.5165 246.708 35.1651 246.062 34.4507C245.416 33.7364 245 32.8679 244.815 31.8455C244.646 30.807 244.53 29.4159 244.467 27.6724C244.441 26.5206 244.393 25.577 244.322 24.8416C244.252 24.0901 244.101 23.3874 243.872 22.7334C243.658 22.0793 243.325 21.5541 242.874 21.1581C243.382 20.7536 243.933 20.5488 244.525 20.5436C245.373 20.5362 245.991 20.8348 246.381 21.4395C246.786 22.028 247.032 22.7618 247.12 23.6411C247.223 24.5042 247.282 25.6878 247.295 27.1917C247.325 28.8075 247.392 30.087 247.496 31.0301C247.616 31.9731 247.912 32.7785 248.381 33.4465C248.867 34.0983 249.606 34.4198 250.598 34.4112L249.047 35.5047ZM261.263 35.3981C260.719 35.4029 260.31 35.2384 260.035 34.9048C259.76 34.5872 259.62 34.0924 259.614 33.4204C259.608 32.7645 259.812 31.3226 260.224 29.095C260.653 26.8511 261.114 24.751 261.609 22.7946L260.543 21.6039C260.972 21.2481 261.385 20.9725 261.784 20.777C262.198 20.5654 262.573 20.4581 262.909 20.4552C263.357 20.4513 263.686 20.5764 263.896 20.8306C264.106 21.0688 264.213 21.3798 264.216 21.7638C264.221 22.2598 264.137 22.8046 263.967 23.3981C263.812 23.9755 263.578 24.6575 263.264 25.4443L263.506 25.5622C263.991 24.3739 264.487 23.3935 264.992 22.6211C265.513 21.8485 266.036 21.2759 266.561 20.9033C267.102 20.5146 267.644 20.3179 268.188 20.3131C268.716 20.3085 269.109 20.4251 269.367 20.6628C269.641 20.8845 269.78 21.2353 269.784 21.7152C269.789 22.2432 269.585 22.669 269.171 22.9926C268.758 23.3163 268.216 23.481 267.544 23.4869C266.696 23.4943 265.876 23.9814 265.084 24.9484C264.293 25.9153 263.656 27.1689 263.173 28.7092C262.69 30.2495 262.456 31.8356 262.47 33.4675C262.476 34.0595 262.575 34.4746 262.769 34.713C262.293 35.1651 261.791 35.3935 261.263 35.3981ZM273.075 35.295C272.531 35.2998 272.122 35.1674 271.848 34.8977C271.573 34.6281 271.434 34.1973 271.429 33.6053C271.423 32.9494 271.565 31.7801 271.854 30.0975C272.159 28.4148 272.673 25.8822 273.396 22.4998L272.329 21.309C272.711 21.0017 273.148 20.7579 273.643 20.5775C274.153 20.3811 274.616 20.281 275.032 20.2774C275.512 20.2732 275.849 20.3743 276.043 20.5806C276.253 20.7708 276.36 21.1058 276.364 21.5858C276.365 21.6658 276.319 21.9062 276.226 22.3071C276.15 22.7077 276.05 23.1566 275.926 23.6537C275.448 25.69 275.048 27.5335 274.726 29.1844C274.42 30.8351 274.273 32.2285 274.283 33.3644C274.288 33.9724 274.436 34.3951 274.726 34.6326C274.201 35.0692 273.651 35.29 273.075 35.295ZM275.063 18.237C274.551 18.2415 274.142 18.1251 273.835 17.8877C273.529 17.6344 273.374 17.2997 273.371 16.8838C273.368 16.5638 273.453 16.267 273.627 15.9935C273.817 15.7198 274.071 15.5016 274.389 15.3388C274.708 15.16 275.075 15.0688 275.491 15.0652C276.019 15.0606 276.428 15.185 276.718 15.4385C277.024 15.6758 277.179 15.9945 277.183 16.3945C277.187 16.9065 276.991 17.3402 276.594 17.6957C276.197 18.0511 275.687 18.2316 275.063 18.237ZM282.112 40.2564C280.96 40.2664 280.022 40.0746 279.299 39.6809C278.591 39.3031 278.235 38.8102 278.23 38.2022C278.227 37.8822 278.328 37.5453 278.533 37.1915C278.738 36.8537 279.007 36.5633 279.341 36.3204C279.715 36.9572 280.167 37.4252 280.697 37.7246C281.244 38.0399 281.902 38.1941 282.67 38.1874C283.886 38.1768 285.121 37.646 286.376 36.595C287.631 35.56 288.664 33.799 289.474 31.3118C290.3 28.8085 290.615 25.5256 290.42 21.4632C290.785 21.14 291.071 20.9295 291.278 20.8316C291.502 20.7177 291.725 20.6597 291.949 20.6578C292.285 20.6549 292.534 20.7327 292.695 20.8913C292.872 21.0337 292.962 21.257 292.965 21.561C292.995 25.0008 292.654 28.1239 291.943 30.9302C291.231 33.7205 290.058 35.9629 288.425 37.6572C286.808 39.3674 284.704 40.2338 282.112 40.2564ZM283.838 34.5051C282.958 34.5128 282.172 34.2956 281.48 33.8536C280.804 33.3955 280.27 32.7522 279.879 31.9235C279.503 31.0788 279.311 30.1044 279.301 29.0005C279.287 27.3525 279.634 25.8614 280.342 24.5272C281.067 23.1928 282.106 22.1357 283.459 21.3559C284.828 20.5759 286.433 20.1779 288.273 20.1618C289.104 20.1546 289.857 20.212 290.53 20.3342C290.725 20.6365 290.824 21.0116 290.828 21.4596C289.084 21.4748 287.559 21.8001 286.252 22.4356C284.962 23.0548 283.969 23.9195 283.275 25.0296C282.58 26.1397 282.239 27.3988 282.252 28.8067C282.262 29.9747 282.502 30.8846 282.972 31.5365C283.457 32.1723 284.124 32.4865 284.972 32.4791C285.74 32.4724 286.545 32.1374 287.387 31.474C288.229 30.7946 288.947 29.6363 289.541 27.9991C290.135 26.3458 290.42 24.1673 290.396 21.4634L290.599 31.014L289.063 31.0274C288.513 32.1042 287.76 32.9508 286.805 33.5672C285.851 34.1835 284.861 34.4962 283.838 34.5051ZM298.024 35.0773C297.464 35.0822 297.047 34.9418 296.772 34.6562C296.498 34.3706 296.358 33.9478 296.353 33.3878C296.348 32.8279 296.475 31.7787 296.734 30.2404C296.992 28.6861 297.427 26.2502 298.038 22.9327C298.191 22.1314 298.344 21.33 298.497 20.5286C298.65 19.7113 298.795 18.902 298.932 18.1007L297.866 16.91C298.231 16.5868 298.669 16.335 299.179 16.1545C299.705 15.9579 300.184 15.8577 300.616 15.854C301.064 15.8501 301.385 15.9513 301.579 16.1576C301.773 16.3479 301.872 16.683 301.876 17.163C301.879 17.467 301.834 17.8674 301.742 18.3642C301.651 18.8451 301.497 19.5344 301.28 20.4323C300.864 22.18 300.563 23.5347 300.38 24.4964L300.621 24.6143C301.487 23.0226 302.493 21.8618 303.639 21.1318C304.784 20.3858 305.941 20.0077 307.109 19.9975C308.133 19.9885 308.903 20.2458 309.42 20.7693C309.936 21.2768 310.199 22.0746 310.209 23.1625C310.214 23.8025 310.148 24.4671 310.01 25.1563C309.888 25.8454 309.703 26.7111 309.457 27.7533C309.163 28.9719 308.948 29.9738 308.811 30.759C308.673 31.5283 308.608 32.2968 308.615 33.0648C308.62 33.6728 308.728 34.0879 308.938 34.3101C308.446 34.7624 307.936 34.9908 307.408 34.9954C306.848 35.0003 306.438 34.8599 306.18 34.5741C305.921 34.2884 305.79 33.8655 305.785 33.3055C305.78 32.6975 305.838 32.017 305.959 31.2639C306.096 30.4947 306.288 29.501 306.533 28.2828C306.764 27.2727 306.933 26.4312 307.039 25.7583C307.161 25.0692 307.22 24.4767 307.216 23.9807C307.204 22.6847 306.711 22.041 305.735 22.0495C304.759 22.0581 303.755 22.5468 302.723 23.5159C301.708 24.4848 300.863 25.8202 300.19 27.5221C299.517 29.2081 299.189 31.083 299.207 33.1469C299.212 33.7389 299.312 34.154 299.506 34.3924C299.046 34.8444 298.552 35.0727 298.024 35.0773ZM317.135 34.9105C316.639 34.9149 316.245 34.7743 315.955 34.4888C315.664 34.2033 315.516 33.6686 315.509 32.8847C315.502 32.1007 315.598 31.2038 315.797 30.194C315.997 29.1843 316.289 27.8857 316.675 26.2982C317.031 24.8551 317.293 23.7087 317.461 22.8592C317.63 21.9937 317.711 21.249 317.706 20.625C317.701 20.049 317.615 19.4018 317.449 18.6832L317.399 18.4916C317.669 18.2012 318.027 17.9741 318.473 17.8102C318.92 17.6303 319.359 17.5385 319.791 17.5347C320.255 17.5306 320.592 17.6317 320.802 17.8379C321.012 18.0441 321.119 18.3871 321.123 18.8671C321.126 19.2511 321.05 19.7478 320.896 20.3572C320.757 20.9664 320.525 21.8245 320.198 22.9314C319.608 24.9526 319.143 26.7167 318.804 28.2237C318.481 29.7146 318.334 31.2199 318.364 32.7397L319.143 34.029C318.858 34.3195 318.531 34.5383 318.165 34.6855C317.814 34.8326 317.471 34.9076 317.135 34.9105ZM315.814 23.8096C315.414 23.8131 315.125 23.7437 314.948 23.6012C314.77 23.4427 314.68 23.2035 314.678 22.8835C314.674 22.4675 314.799 22.0744 315.051 21.7042C315.501 21.8443 316.229 21.9099 317.237 21.9012C317.845 21.8958 318.644 21.8009 319.635 21.6162C320.05 21.5486 320.482 21.4888 320.929 21.4369C321.377 21.369 321.784 21.3334 322.152 21.3302C322.568 21.3266 322.857 21.4041 323.018 21.5627C323.18 21.7213 323.262 21.9606 323.265 22.2806C323.268 22.6966 323.144 23.0737 322.891 23.4119C322.65 23.35 322.322 23.3048 321.905 23.2765C321.505 23.232 321.129 23.2112 320.777 23.2143C320.441 23.2172 320.057 23.2526 319.626 23.3204C319.194 23.3721 318.779 23.4318 318.379 23.4992C317.229 23.7013 316.374 23.8048 315.814 23.8096ZM329.213 34.8051C327.629 34.819 326.379 34.6139 325.464 34.1898C324.548 33.7658 324.087 33.1698 324.08 32.4018C324.077 32.0819 324.171 31.777 324.36 31.4874C324.549 31.1977 324.819 30.9553 325.17 30.7603C325.577 31.5567 326.118 32.168 326.794 32.5942C327.469 33.0043 328.215 33.2058 329.031 33.1987C330.183 33.1886 331.109 32.9645 331.809 32.5264C332.51 32.0883 332.856 31.4612 332.849 30.6452C332.845 30.1493 332.577 29.7516 332.047 29.4522C331.532 29.1527 330.737 28.8236 329.662 28.465C328.667 28.1376 327.848 27.8248 327.206 27.5264C326.563 27.228 326.015 26.8247 325.563 26.3167C325.11 25.7926 324.881 25.1466 324.874 24.3786C324.866 23.4986 325.163 22.712 325.765 22.0187C326.367 21.3255 327.203 20.7821 328.271 20.3888C329.356 19.9953 330.602 19.7924 332.01 19.7802C333.29 19.769 334.34 19.9518 335.159 20.3287C335.994 20.7054 336.415 21.1898 336.42 21.7817C336.425 22.3577 336.237 22.8074 335.855 23.1307C335.474 23.4381 334.972 23.5945 334.348 23.5999C333.74 23.6052 333.218 23.4178 332.783 23.0375C332.347 22.6573 332.014 22.1002 331.784 21.3662C330.473 21.5216 329.444 21.8426 328.696 22.3292C327.964 22.7996 327.601 23.3708 327.607 24.0427C327.61 24.3787 327.741 24.6656 327.999 24.9034C328.273 25.141 328.611 25.346 329.012 25.5185C329.413 25.675 329.983 25.8781 330.721 26.1276C331.748 26.4707 332.575 26.7915 333.202 27.09C333.845 27.3884 334.392 27.7997 334.845 28.3237C335.313 28.8317 335.551 29.4776 335.558 30.2616C335.565 31.1096 335.316 31.8798 334.81 32.5722C334.304 33.2487 333.564 33.7831 332.592 34.1756C331.635 34.584 330.509 34.7938 329.213 34.8051ZM349.526 34.6279C348.982 34.6326 348.572 34.4682 348.297 34.1346C348.022 33.817 347.882 33.3222 347.876 32.6502C347.87 31.9942 348.074 30.5524 348.486 28.3247C348.915 26.0809 349.377 23.9808 349.872 22.0244L348.805 20.8336C349.234 20.4779 349.648 20.2023 350.046 20.0068C350.46 19.7952 350.835 19.6879 351.171 19.6849C351.619 19.681 351.948 19.8062 352.159 20.0603C352.369 20.2985 352.475 20.6096 352.479 20.9936C352.483 21.4896 352.4 22.0343 352.229 22.6278C352.074 23.2052 351.84 23.8873 351.527 24.674L351.768 24.7919C352.253 23.6036 352.749 22.6233 353.254 21.8508C353.775 21.0783 354.298 20.5057 354.823 20.1331C355.364 19.7444 355.906 19.5476 356.45 19.5429C356.978 19.5383 357.371 19.6548 357.629 19.8926C357.903 20.1142 358.042 20.465 358.046 20.945C358.051 21.473 357.847 21.8988 357.434 22.2224C357.02 22.546 356.478 22.7107 355.806 22.7166C354.958 22.724 354.138 23.2112 353.346 24.1781C352.555 25.1451 351.918 26.3987 351.435 27.939C350.953 29.4792 350.718 31.0653 350.733 32.6973C350.738 33.2892 350.838 33.7044 351.032 33.9427C350.556 34.3949 350.054 34.6233 349.526 34.6279ZM364.061 34.501C362.365 34.5158 361.032 34.0074 360.063 32.9759C359.094 31.9443 358.602 30.5165 358.586 28.6926C358.571 26.9646 358.933 25.4014 359.673 24.0029C360.413 22.6044 361.443 21.5074 362.764 20.7118C364.085 19.9003 365.562 19.4874 367.194 19.4731C368.458 19.4621 369.444 19.7575 370.154 20.3593C370.879 20.961 371.246 21.7978 371.256 22.8698C371.265 24.0058 370.866 24.9853 370.057 25.8084C369.248 26.6155 368.062 27.2418 366.497 27.6875C364.949 28.117 363.071 28.3414 360.863 28.3607L361.139 27.0142C363.523 27.0094 365.368 26.6413 366.674 25.9099C367.995 25.1623 368.65 24.1326 368.639 22.8206C368.634 22.2606 368.462 21.8141 368.123 21.4811C367.784 21.148 367.343 20.9839 366.799 20.9886C365.855 20.9969 364.978 21.3565 364.168 22.0676C363.358 22.7627 362.719 23.7123 362.249 24.9165C361.779 26.1046 361.551 27.4027 361.563 28.8106C361.574 30.0906 361.823 31.0964 362.309 31.8282C362.796 32.544 363.455 32.8983 364.287 32.891C365.327 32.8819 366.172 32.5465 366.822 31.8848C367.472 31.2231 367.825 30.348 367.879 29.2595C368.503 29.2541 368.984 29.3699 369.322 29.6069C369.66 29.828 369.831 30.1865 369.836 30.6825C369.841 31.3225 369.591 31.9407 369.084 32.5371C368.577 33.1176 367.877 33.5877 366.984 33.9475C366.107 34.3072 365.133 34.4917 364.061 34.501ZM378.782 34.3726C377.198 34.3864 375.948 34.1813 375.032 33.7573C374.116 33.3332 373.655 32.7372 373.648 31.9693C373.646 31.6493 373.739 31.3444 373.928 31.0548C374.118 30.7651 374.388 30.5228 374.738 30.3277C375.145 31.1242 375.686 31.7355 376.362 32.1616C377.038 32.5717 377.784 32.7732 378.6 32.7661C379.751 32.756 380.678 32.5319 381.378 32.0938C382.078 31.6557 382.425 31.0286 382.417 30.2127C382.413 29.7167 382.146 29.319 381.615 29.0196C381.1 28.7201 380.305 28.391 379.23 28.0324C378.235 27.7051 377.417 27.3922 376.774 27.0938C376.131 26.7954 375.584 26.3922 375.131 25.8841C374.679 25.36 374.449 24.714 374.442 23.946C374.435 23.0661 374.732 22.2794 375.334 21.5862C375.936 20.8929 376.771 20.3496 377.84 19.9562C378.924 19.5627 380.171 19.3599 381.579 19.3476C382.858 19.3364 383.908 19.5193 384.727 19.8961C385.563 20.2728 385.983 20.7572 385.988 21.3492C385.993 21.9252 385.805 22.3748 385.424 22.6981C385.043 23.0055 384.54 23.1619 383.916 23.1673C383.308 23.1726 382.786 22.9852 382.351 22.605C381.916 22.2247 381.583 21.6676 381.352 20.9336C380.042 21.0891 379.012 21.41 378.265 21.8966C377.533 22.367 377.17 22.9382 377.176 23.6102C377.179 23.9461 377.309 24.233 377.567 24.4708C377.841 24.7084 378.179 24.9135 378.581 25.086C378.982 25.2425 379.552 25.4455 380.29 25.6951C381.317 26.0381 382.144 26.3589 382.77 26.6575C383.413 26.9559 383.961 27.3671 384.413 27.8912C384.882 28.3991 385.119 29.045 385.126 29.829C385.134 30.677 384.884 31.4472 384.378 32.1396C383.872 32.8161 383.133 33.3505 382.16 33.7431C381.204 34.1514 380.078 34.3612 378.782 34.3726ZM394.505 34.2353C392.809 34.2501 391.476 33.7418 390.507 32.7102C389.538 31.6786 389.046 30.2508 389.03 28.4269C389.015 26.699 389.377 25.1357 390.117 23.7372C390.857 22.3387 391.887 21.2417 393.209 20.4461C394.529 19.6346 396.006 19.2217 397.638 19.2074C398.902 19.1964 399.888 19.4918 400.598 20.0936C401.323 20.6953 401.69 21.5322 401.7 22.6041C401.71 23.7401 401.31 24.7196 400.501 25.5427C399.692 26.3498 398.506 26.9762 396.942 27.4218C395.393 27.8513 393.515 28.0757 391.307 28.095L391.583 26.7486C393.967 26.7437 395.812 26.3756 397.118 25.6442C398.44 24.8967 399.095 23.8669 399.083 22.5549C399.078 21.995 398.906 21.5484 398.567 21.2154C398.229 20.8823 397.787 20.7182 397.243 20.7229C396.299 20.7312 395.422 21.0908 394.612 21.8019C393.802 22.497 393.163 23.4466 392.693 24.6508C392.224 25.8389 391.995 27.137 392.007 28.5449C392.018 29.8249 392.267 30.8307 392.753 31.5625C393.24 32.2783 393.899 32.6326 394.731 32.6253C395.771 32.6162 396.616 32.2808 397.266 31.6191C397.916 30.9574 398.269 30.0823 398.323 28.9938C398.947 28.9884 399.428 29.1042 399.766 29.3412C400.104 29.5623 400.275 29.9208 400.28 30.4168C400.285 31.0568 400.035 31.675 399.528 32.2714C399.021 32.8519 398.321 33.322 397.428 33.6818C396.551 34.0415 395.577 34.226 394.505 34.2353ZM406.922 34.127C406.378 34.1317 405.968 33.9673 405.693 33.6337C405.419 33.3161 405.278 32.8213 405.272 32.1493C405.267 31.4933 405.47 30.0515 405.883 27.8238C406.311 25.58 406.773 23.4799 407.268 21.5235L406.201 20.3327C406.63 19.977 407.044 19.7014 407.442 19.5059C407.856 19.2943 408.231 19.187 408.567 19.1841C409.015 19.1801 409.345 19.3053 409.555 19.5594C409.765 19.7976 409.872 20.1087 409.875 20.4927C409.879 20.9887 409.796 21.5334 409.625 22.1269C409.47 22.7043 409.236 23.3864 408.923 24.1731L409.164 24.291C409.65 23.1028 410.145 22.1224 410.65 21.35C411.172 20.5774 411.695 20.0048 412.22 19.6322C412.76 19.2435 413.302 19.0467 413.846 19.042C414.374 19.0374 414.767 19.1539 415.026 19.3917C415.299 19.6133 415.439 19.9641 415.443 20.4441C415.447 20.9721 415.243 21.3979 414.83 21.7215C414.417 22.0451 413.874 22.2099 413.202 22.2157C412.354 22.2231 411.534 22.7103 410.743 23.6772C409.951 24.6442 409.314 25.8978 408.831 27.4381C408.349 28.9783 408.115 30.5644 408.129 32.1964C408.134 32.7884 408.234 33.2035 408.428 33.4418C407.952 33.894 407.45 34.1224 406.922 34.127ZM420.822 34.0057C420.07 34.0122 419.484 33.8653 419.066 33.565C418.647 33.2646 418.347 32.7712 418.165 32.0848C417.983 31.3824 417.886 30.3912 417.875 29.1112C417.868 28.3432 417.871 27.7752 417.884 27.4071C417.888 25.999 417.862 24.8632 417.806 23.9996C417.767 23.1359 417.632 22.3211 417.401 21.5551C417.186 20.7729 416.829 20.136 416.328 19.6443C416.837 19.2399 417.403 19.0349 418.027 19.0295C418.699 19.0236 419.213 19.2512 419.569 19.7121C419.941 20.1728 420.204 20.9306 420.357 21.9853C420.51 23.024 420.595 24.5033 420.612 26.4232C420.619 27.2712 420.625 28.0152 420.631 28.6551C420.637 29.2791 420.641 29.8151 420.645 30.2631C420.649 30.6791 420.652 31.023 420.654 31.295C420.672 31.5509 420.674 31.7669 420.66 31.943L420.9 31.9409C422.764 29.2525 424.121 27.0646 424.971 25.3771C425.836 23.6895 426.265 22.4137 426.257 21.5498C426.25 20.7658 426.077 20.1033 425.736 19.5622C426.15 19.3346 426.493 19.1796 426.764 19.0973C427.051 18.9987 427.347 18.9482 427.651 18.9455C428.067 18.9419 428.396 19.099 428.639 19.4169C428.882 19.7348 429.005 20.1657 429.01 20.7097C429.016 21.3497 428.815 22.1995 428.408 23.2591C428.001 24.3027 427.38 25.5721 426.545 27.0675C425.71 28.5468 424.653 30.2681 423.374 32.2313L423.741 32.9482C423.439 33.2548 423.009 33.5066 422.451 33.7034C421.893 33.9003 421.35 34.0011 420.822 34.0057ZM437.699 33.8584C436.003 33.8732 434.67 33.3648 433.701 32.3332C432.732 31.3016 432.24 29.8739 432.224 28.05C432.209 26.322 432.571 24.7588 433.311 23.3603C434.051 21.9618 435.081 20.8647 436.402 20.0692C437.723 19.2576 439.2 18.8447 440.832 18.8305C442.095 18.8195 443.082 19.1149 443.791 19.7167C444.517 20.3184 444.884 21.1552 444.893 22.2272C444.903 23.3631 444.504 24.3426 443.695 25.1657C442.886 25.9728 441.699 26.5992 440.135 27.0449C438.587 27.4744 436.709 27.6988 434.501 27.7181L434.777 26.3716C437.161 26.3668 439.006 25.9987 440.312 25.2673C441.633 24.5197 442.288 23.4899 442.277 22.178C442.272 21.618 442.1 21.1715 441.761 20.8384C441.422 20.5054 440.981 20.3412 440.437 20.346C439.493 20.3542 438.616 20.7139 437.806 21.425C436.996 22.1201 436.356 23.0697 435.887 24.2738C435.417 25.462 435.189 26.76 435.201 28.168C435.212 29.4479 435.461 30.4538 435.947 31.1856C436.433 31.9014 437.093 32.2556 437.925 32.2484C438.964 32.2393 439.81 31.9039 440.46 31.2422C441.11 30.5805 441.462 29.7054 441.517 28.6169C442.141 28.6114 442.622 28.7272 442.96 28.9643C443.298 29.1854 443.469 29.5439 443.473 30.0399C443.479 30.6798 443.228 31.298 442.722 31.8945C442.215 32.4749 441.515 32.9451 440.622 33.3049C439.745 33.6645 438.771 33.849 437.699 33.8584ZM452.179 33.732C451.315 33.7396 450.545 33.5143 449.869 33.0562C449.209 32.5979 448.692 31.9464 448.316 31.1016C447.957 30.2407 447.772 29.2503 447.762 28.1304C447.748 26.5144 448.143 25.0389 448.948 23.7038C449.752 22.3528 450.855 21.2871 452.256 20.5069C453.657 19.7106 455.206 19.3051 456.902 19.2903C457.766 19.2827 458.518 19.3402 459.159 19.4626C459.354 19.7649 459.453 20.14 459.457 20.588C457.681 20.6035 456.132 20.929 454.809 21.5646C453.487 22.2002 452.47 23.0811 451.76 24.2073C451.05 25.3176 450.701 26.5927 450.714 28.0326C450.723 29.1206 450.954 29.9666 451.408 30.5706C451.861 31.1747 452.496 31.4732 453.312 31.4661C454.192 31.4584 455.052 31.0589 455.893 30.2675C456.734 29.4761 457.381 28.4144 457.834 27.0824L457.646 30.3482L457.164 30.1604C456.598 31.2854 455.878 32.1637 455.003 32.7953C454.145 33.4109 453.203 33.7231 452.179 33.732ZM458.851 33.6738C458.355 33.6781 457.978 33.5214 457.719 33.2037C457.46 32.9019 457.328 32.431 457.323 31.7911C457.317 31.1831 457.473 29.7657 457.79 27.5388C458.106 25.296 458.491 22.7165 458.946 19.8004C459.053 19.2395 459.144 18.7027 459.22 18.19C459.311 17.6612 459.395 17.1644 459.471 16.6997L458.405 15.509C458.786 15.1857 459.232 14.9338 459.742 14.7533C460.252 14.5568 460.724 14.4567 461.155 14.453C461.603 14.449 461.924 14.5503 462.118 14.7566C462.312 14.9469 462.411 15.282 462.415 15.762C462.418 16.082 462.35 16.5786 462.212 17.2518C462.09 17.9249 461.944 18.6622 461.775 19.4637C461.268 21.8043 460.862 23.9199 460.559 25.8106C460.255 27.6853 460.112 29.5906 460.128 31.5266C460.131 31.8146 460.173 32.0942 460.256 32.3655C460.354 32.6366 460.484 32.8435 460.645 32.9861C460.391 33.1963 460.112 33.3588 459.809 33.4734C459.523 33.6039 459.203 33.6707 458.851 33.6738ZM476.953 33.5158C476.345 33.5211 475.825 33.4457 475.391 33.2894C474.974 33.1331 474.635 32.832 474.375 32.3863C474.116 31.9405 473.982 31.2937 473.974 30.4457C473.965 29.3737 474.158 27.644 474.553 25.2565C474.964 22.8528 475.523 19.9598 476.23 16.5775L475.163 15.3868C475.544 15.0634 475.99 14.8115 476.501 14.6311C477.027 14.4345 477.498 14.3343 477.914 14.3307C478.378 14.3267 478.707 14.4278 478.901 14.6341C479.094 14.8244 479.193 15.1596 479.197 15.6396C479.2 15.9435 479.14 16.3681 479.017 16.9132C478.909 17.4421 478.74 18.1877 478.508 19.1497C478.214 20.3363 477.975 21.3544 477.791 22.2041L478.032 22.322C478.629 21.1007 479.373 20.1582 480.263 19.4944C481.153 18.8146 482.134 18.47 483.206 18.4607C484.07 18.4531 484.832 18.6705 485.492 19.1128C486.168 19.5389 486.685 20.1584 487.044 20.9713C487.419 21.768 487.611 22.7024 487.621 23.7744C487.636 25.5663 487.171 27.2024 486.224 28.6827C485.292 30.1629 484.007 31.3342 482.366 32.1965C480.742 33.0588 478.937 33.4985 476.953 33.5158ZM476.34 31.9611C477.923 31.8833 479.352 31.4948 480.626 30.7957C481.9 30.0965 482.892 29.1678 483.602 28.0096C484.327 26.8352 484.684 25.5521 484.672 24.1601C484.663 23.0722 484.431 22.2261 483.978 21.6221C483.525 21.018 482.89 20.7195 482.074 20.7267C481.082 20.7353 480.142 21.2155 479.254 22.1673C478.367 23.1191 477.65 24.4534 477.105 26.1702C476.576 27.8709 476.321 29.8012 476.34 31.9611ZM491.131 37.5923C490.123 37.6011 489.37 37.4316 488.871 37.084C488.372 36.7363 488.119 36.2585 488.114 35.6505C488.112 35.4265 488.158 35.1861 488.252 34.9293C488.346 34.6885 488.456 34.4715 488.582 34.2784C488.921 34.6594 489.316 34.968 489.766 35.2041C490.216 35.4402 490.849 35.5546 491.665 35.5475C492.945 35.5363 494.381 35.0038 495.972 33.9499C497.579 32.9118 498.964 31.2437 500.128 28.9454C501.308 26.647 501.883 23.7379 501.852 20.218C501.846 19.5621 501.826 19.1222 501.792 18.8985C502.158 18.6713 502.461 18.5167 502.7 18.4346C502.94 18.3365 503.195 18.2862 503.467 18.2839C504.283 18.2768 504.695 18.7532 504.704 19.7131C504.726 22.305 504.174 24.99 503.046 27.7679C501.918 30.5459 500.314 32.8719 498.235 34.7462C496.171 36.6202 493.803 37.5689 491.131 37.5923ZM497.358 33.3378C496.014 33.3495 495.019 32.9982 494.373 32.2838C493.727 31.5694 493.311 30.701 493.126 29.6785C492.957 28.64 492.841 27.2489 492.778 25.5054C492.752 24.3536 492.703 23.41 492.633 22.6746C492.562 21.9232 492.412 21.2205 492.183 20.5664C491.969 19.9123 491.636 19.3872 491.185 18.9911C491.693 18.5866 492.244 18.3818 492.835 18.3767C493.683 18.3693 494.302 18.6679 494.691 19.2725C495.097 19.861 495.343 20.5949 495.431 21.4741C495.534 22.3373 495.592 23.5208 495.606 25.0247C495.636 26.6405 495.703 27.92 495.807 28.8631C495.927 29.8061 496.222 30.6116 496.692 31.2795C497.178 31.9313 497.917 32.2528 498.909 32.2442L497.358 33.3378ZM165.937 84.2559C165.361 84.2609 164.936 84.1206 164.661 83.835C164.387 83.5494 164.247 83.0786 164.241 82.4226C164.233 81.5426 164.372 79.9814 164.656 77.7388C164.956 75.4961 165.455 72.1716 166.153 67.7653L169.038 68.2922L168.516 71.7289C168.077 74.6768 167.745 76.9278 167.519 78.4818C167.308 80.0357 167.205 81.0767 167.21 81.6046C167.218 82.4846 167.407 83.155 167.779 83.6158C167.175 84.037 166.561 84.2504 165.937 84.2559ZM171.569 69.5181C171.105 69.5222 170.624 69.5024 170.128 69.4587C169.647 69.3989 169.111 69.3236 168.518 69.2328C167.989 69.1574 167.437 69.0902 166.86 69.0312C166.3 68.9721 165.771 68.9447 165.275 68.949L161.417 69.5587C161.254 69.2562 161.17 68.8649 161.166 68.3849C161.16 67.6809 161.356 67.1912 161.753 66.9157C162.151 66.6402 162.75 66.499 163.55 66.492C163.998 66.4881 164.494 66.5158 165.039 66.575C165.599 66.6341 166.136 66.7015 166.648 66.777C167.321 66.8831 167.898 66.9661 168.379 67.0259C168.859 67.0697 169.347 67.0894 169.843 67.0851L173.702 66.4514C173.848 66.7381 173.924 67.1295 173.928 67.6255C173.933 68.2175 173.729 68.6833 173.316 69.0229C172.903 69.3465 172.321 69.5116 171.569 69.5181ZM176.994 84.1354C176.45 84.1401 176.041 83.9757 175.766 83.6421C175.491 83.3244 175.351 82.8297 175.345 82.1577C175.339 81.5017 175.542 80.0599 175.955 77.8322C176.383 75.5884 176.845 73.4883 177.34 71.5319L176.274 70.3411C176.702 69.9854 177.116 69.7097 177.514 69.5143C177.929 69.3026 178.304 69.1954 178.64 69.1924C179.088 69.1885 179.417 69.3137 179.627 69.5678C179.837 69.806 179.944 70.1171 179.947 70.5011C179.951 70.9971 179.868 71.5418 179.697 72.1353C179.542 72.7127 179.308 73.3948 178.995 74.1815L179.236 74.2994C179.722 73.1111 180.217 72.1308 180.723 71.3583C181.244 70.5858 181.767 70.0132 182.292 69.6406C182.832 69.2518 183.375 69.0551 183.919 69.0504C184.447 69.0458 184.84 69.1623 185.098 69.4001C185.372 69.6217 185.511 69.9725 185.515 70.4525C185.519 70.9805 185.315 71.4063 184.902 71.7299C184.489 72.0535 183.946 72.2182 183.274 72.2241C182.426 72.2315 181.607 72.7187 180.815 73.6856C180.023 74.6526 179.386 75.9062 178.904 77.4464C178.421 78.9867 178.187 80.5728 178.201 82.2048C178.206 82.7967 178.306 83.2119 178.5 83.4502C178.024 83.9024 177.522 84.1308 176.994 84.1354ZM190.425 84.0181C189.561 84.0257 188.791 83.8004 188.115 83.3423C187.455 82.884 186.937 82.2325 186.562 81.3878C186.203 80.5269 186.018 79.5364 186.008 78.4165C185.993 76.6885 186.387 75.109 187.191 73.678C187.994 72.2309 189.096 71.0933 190.497 70.265C191.898 69.4207 193.446 68.9912 195.142 68.9764C195.878 68.97 196.631 69.0274 197.4 69.1487C197.595 69.483 197.694 69.8582 197.698 70.2742C195.89 70.2899 194.325 70.6476 193.003 71.3472C191.681 72.0467 190.673 73.0076 189.98 74.2297C189.286 75.4358 188.946 76.7988 188.959 78.3187C188.969 79.4067 189.2 80.2527 189.654 80.8568C190.107 81.4608 190.741 81.7593 191.557 81.7522C193.045 81.7392 194.261 80.7846 195.205 78.8882C196.148 76.9759 196.843 74.1058 197.29 70.2777C197.464 70.0522 197.686 69.8742 197.957 69.7439C198.244 69.6134 198.531 69.5469 198.819 69.5443C199.219 69.5409 199.532 69.6341 199.758 69.8242C199.999 70.0141 200.122 70.277 200.125 70.613C200.128 70.981 200.076 71.4215 199.968 71.9344C199.877 72.4472 199.715 73.2007 199.484 74.1947C199.114 75.814 198.83 77.2165 198.633 78.4023C198.435 79.5881 198.341 80.7969 198.352 82.0289C198.357 82.5889 198.505 83.0036 198.795 83.2731C198.303 83.7254 197.769 83.9541 197.193 83.9591C196.649 83.9638 196.232 83.7995 195.941 83.466C195.65 83.1325 195.501 82.6458 195.496 82.0058C195.493 81.6538 195.545 81.1734 195.651 80.5644L195.41 80.4465C194.844 81.5715 194.124 82.4498 193.249 83.0815C192.39 83.697 191.449 84.0092 190.425 84.0181ZM208.378 83.8615C207.626 83.868 207.04 83.7211 206.622 83.4208C206.203 83.1204 205.903 82.627 205.721 81.9406C205.539 81.2382 205.442 80.247 205.431 78.967C205.424 78.199 205.427 77.631 205.44 77.2629C205.444 75.8548 205.418 74.719 205.362 73.8554C205.323 72.9917 205.188 72.1769 204.957 71.4109C204.742 70.6287 204.384 69.9918 203.884 69.5001C204.393 69.0957 204.959 68.8907 205.583 68.8853C206.255 68.8794 206.769 69.107 207.125 69.5679C207.497 70.0286 207.76 70.7864 207.913 71.8411C208.066 72.8798 208.151 74.3591 208.167 76.279C208.175 77.127 208.181 77.871 208.187 78.5109C208.192 79.1349 208.197 79.6709 208.201 80.1189C208.205 80.5349 208.208 80.8789 208.21 81.1508C208.228 81.4067 208.23 81.6227 208.216 81.7988L208.456 81.7967C210.32 79.1083 211.677 76.9204 212.527 75.2329C213.392 73.5453 213.821 72.2695 213.813 71.4056C213.806 70.6216 213.633 69.9591 213.292 69.418C213.706 69.1904 214.048 69.0354 214.32 68.9531C214.607 68.8545 214.902 68.804 215.206 68.8013C215.622 68.7977 215.952 68.9548 216.195 69.2727C216.437 69.5906 216.561 70.0215 216.566 70.5655C216.572 71.2055 216.371 72.0553 215.964 73.1149C215.557 74.1585 214.936 75.4279 214.101 76.9233C213.266 78.4026 212.209 80.1239 210.93 82.0871L211.297 82.804C210.995 83.1106 210.565 83.3624 210.007 83.5593C209.449 83.7561 208.906 83.8569 208.378 83.8615ZM225.254 83.7142C223.558 83.729 222.226 83.2206 221.257 82.189C220.288 81.1574 219.795 79.7297 219.78 77.9058C219.764 76.1778 220.127 74.6146 220.867 73.2161C221.606 71.8176 222.637 70.7205 223.958 69.925C225.279 69.1134 226.755 68.7005 228.387 68.6863C229.651 68.6753 230.638 68.9707 231.347 69.5725C232.073 70.1742 232.44 71.011 232.449 72.083C232.459 73.2189 232.06 74.1985 231.251 75.0215C230.442 75.8286 229.255 76.455 227.691 76.9007C226.143 77.3302 224.265 77.5546 222.057 77.5739L222.333 76.2274C224.717 76.2226 226.562 75.8545 227.868 75.1231C229.189 74.3755 229.844 73.3458 229.833 72.0338C229.828 71.4738 229.656 71.0273 229.317 70.6943C228.978 70.3612 228.537 70.197 227.993 70.2018C227.049 70.21 226.172 70.5697 225.362 71.2808C224.552 71.9759 223.912 72.9255 223.443 74.1296C222.973 75.3178 222.744 76.6158 222.757 78.0238C222.768 79.3037 223.017 80.3096 223.503 81.0414C223.989 81.7572 224.648 82.1114 225.48 82.1042C226.52 82.0951 227.365 81.7597 228.016 81.098C228.666 80.4363 229.018 79.5612 229.073 78.4727C229.697 78.4672 230.178 78.583 230.516 78.8201C230.854 79.0412 231.025 79.3997 231.029 79.8957C231.035 80.5356 230.784 81.1538 230.277 81.7503C229.771 82.3307 229.071 82.8009 228.178 83.1607C227.301 83.5203 226.326 83.7048 225.254 83.7142ZM237.455 83.6077C236.975 83.6119 236.606 83.4551 236.347 83.1374C236.089 82.8356 235.956 82.3648 235.951 81.7248C235.945 81.1008 236.108 79.6113 236.44 77.2563C236.771 74.8854 237.149 72.378 237.574 69.7342C237.665 69.1733 237.757 68.6365 237.848 68.1237C237.94 67.5949 238.023 67.0981 238.099 66.6335L237.033 65.4427C237.398 65.1195 237.836 64.8677 238.346 64.6872C238.873 64.4906 239.352 64.3904 239.784 64.3867C240.232 64.3828 240.553 64.484 240.746 64.6903C240.94 64.8806 241.039 65.2157 241.043 65.6957C241.045 65.9037 240.985 66.3443 240.863 67.0174C240.741 67.6904 240.595 68.4437 240.426 69.2772C239.921 71.8578 239.509 74.1494 239.19 76.1523C238.888 78.139 238.743 79.9083 238.757 81.4603C238.759 81.7643 238.802 82.0519 238.884 82.3232C238.982 82.5784 239.104 82.7773 239.249 82.92C239.011 83.1301 238.741 83.2925 238.438 83.4071C238.135 83.5378 237.807 83.6047 237.455 83.6077ZM259.684 83.4377C257.556 83.4563 255.906 83.2147 254.733 82.7129C253.577 82.211 252.995 81.496 252.987 80.5681C252.979 79.6561 253.094 78.255 253.334 76.3649C253.59 74.4746 254.029 71.6546 254.652 67.9051L253.895 66.4476C255.01 65.7659 255.959 65.4216 256.743 65.4147C257.431 65.4087 257.794 65.8136 257.833 66.6292C259.49 65.7828 261.062 65.353 262.55 65.34C263.83 65.3289 264.841 65.6481 265.583 66.2976C266.34 66.947 266.724 67.8397 266.734 68.9757C266.743 69.9996 266.399 70.9467 265.703 71.8168C265.022 72.6707 264.044 73.3833 262.769 73.9545C264.051 74.1833 265.056 74.6705 265.782 75.4162C266.509 76.1459 266.877 77.0707 266.886 78.1907C266.895 79.1826 266.591 80.0813 265.974 80.8868C265.373 81.676 264.522 82.2995 263.422 82.7571C262.322 83.1987 261.076 83.4256 259.684 83.4377ZM259.524 81.6631C260.836 81.6516 261.874 81.3385 262.636 80.7239C263.415 80.1091 263.8 79.2977 263.791 78.2897C263.783 77.2977 263.432 76.5328 262.739 75.9948C262.062 75.4407 261.1 75.1691 259.852 75.18C258.668 75.1903 257.422 75.3772 256.113 75.7406L256.29 74.083C257.794 74.0059 259.096 73.7625 260.196 73.3529C261.296 72.9433 262.14 72.4079 262.726 71.7467C263.328 71.0855 263.626 70.3308 263.618 69.4829C263.606 68.0909 262.792 67.402 261.176 67.4161C259.992 67.4264 258.819 67.6927 257.655 68.2149C257.195 70.555 256.815 72.7824 256.513 74.8971C256.228 76.9957 256.021 79.0455 255.895 81.0467C256.409 81.2342 256.986 81.3892 257.627 81.5116C258.284 81.6179 258.916 81.6684 259.524 81.6631ZM273.196 83.2958C272.716 83.3 272.347 83.1432 272.088 82.8255C271.829 82.5237 271.697 82.0529 271.692 81.4129C271.686 80.7889 271.849 79.2994 272.181 76.9444C272.512 74.5735 272.89 72.0661 273.315 69.4223C273.406 68.8614 273.498 68.3246 273.589 67.8118C273.68 67.283 273.764 66.7862 273.84 66.3216L272.774 65.1308C273.139 64.8076 273.577 64.5558 274.087 64.3753C274.613 64.1787 275.093 64.0785 275.525 64.0748C275.973 64.0709 276.293 64.1721 276.487 64.3784C276.681 64.5687 276.78 64.9038 276.784 65.3838C276.786 65.5918 276.726 66.0324 276.604 66.7055C276.481 67.3785 276.336 68.1318 276.167 68.9653C275.662 71.5459 275.25 73.8375 274.931 75.8404C274.629 77.8271 274.484 79.5964 274.497 81.1484C274.5 81.4524 274.543 81.74 274.625 82.0113C274.723 82.2665 274.845 82.4654 274.99 82.6081C274.752 82.8182 274.481 82.9806 274.178 83.0952C273.876 83.2259 273.548 83.2927 273.196 83.2958ZM286.012 83.184C284.86 83.194 283.842 82.9469 282.957 82.4426C282.089 81.9222 281.41 81.1921 280.922 80.2523C280.45 79.2964 280.208 78.1864 280.197 76.9225C280.182 75.2265 280.521 73.7195 281.213 72.4014C281.922 71.0832 282.913 70.0505 284.186 69.3034C285.46 68.5562 286.905 68.1756 288.521 68.1615C289.193 68.1556 289.809 68.2143 290.37 68.3374C290.549 68.5918 290.656 68.9669 290.692 69.4626C289.092 69.4766 287.727 69.8085 286.597 70.4584C285.466 71.1083 284.61 72.0118 284.028 73.1689C283.446 74.31 283.161 75.6086 283.174 77.0645C283.187 78.4885 283.46 79.5981 283.995 80.3935C284.53 81.1888 285.286 81.5823 286.262 81.5737C287.206 81.5655 288.051 81.2941 288.799 80.7596C289.562 80.2249 290.179 79.4675 290.651 78.4873C291.138 77.507 291.44 76.3683 291.557 75.0713C290.897 74.661 290.414 74.2092 290.105 73.7159C289.813 73.2224 289.664 72.6397 289.658 71.9677C289.654 71.5677 289.731 71.2071 289.889 70.8857C290.062 70.5482 290.291 70.2901 290.578 70.1116C290.864 69.9171 291.191 69.8183 291.559 69.8151C292.295 69.8086 292.874 70.1316 293.296 70.7839C293.717 71.4363 293.933 72.3464 293.944 73.5144C293.959 75.2743 293.613 76.8934 292.906 78.3716C292.215 79.8337 291.257 81.0021 290.032 81.8768C288.824 82.7354 287.484 83.1711 286.012 83.184ZM299.534 88.1062C298.382 88.1162 297.444 87.9244 296.721 87.5307C296.013 87.1529 295.657 86.6599 295.652 86.052C295.649 85.732 295.75 85.3951 295.955 85.0413C296.16 84.7035 296.429 84.4131 296.763 84.1702C297.137 84.807 297.589 85.275 298.12 85.5744C298.666 85.8897 299.324 86.0439 300.092 86.0372C301.308 86.0266 302.543 85.4958 303.798 84.4448C305.053 83.4098 306.086 81.6487 306.896 79.1616C307.722 76.6583 308.038 73.3754 307.842 69.3129C308.207 68.9897 308.493 68.7792 308.701 68.6814C308.924 68.5675 309.147 68.5095 309.371 68.5076C309.707 68.5046 309.956 68.5825 310.117 68.7411C310.294 68.8835 310.384 69.1068 310.387 69.4107C310.417 72.8506 310.076 75.9737 309.365 78.78C308.653 81.5703 307.481 83.8127 305.847 85.507C304.23 87.2171 302.126 88.0835 299.534 88.1062ZM301.26 82.3549C300.38 82.3626 299.594 82.1454 298.902 81.7034C298.226 81.2453 297.692 80.6019 297.301 79.7733C296.926 78.9286 296.733 77.9542 296.723 76.8503C296.709 75.2023 297.056 73.7112 297.764 72.377C298.489 71.0426 299.528 69.9855 300.881 69.2057C302.25 68.4257 303.855 68.0277 305.695 68.0116C306.527 68.0044 307.279 68.0618 307.952 68.1839C308.147 68.4863 308.246 68.8614 308.25 69.3094C306.506 69.3246 304.981 69.6499 303.674 70.2854C302.384 70.9046 301.391 71.7693 300.697 72.8794C300.003 73.9895 299.662 75.2486 299.674 76.6565C299.684 77.8245 299.924 78.7344 300.394 79.3863C300.879 80.0221 301.546 80.3363 302.394 80.3289C303.162 80.3222 303.967 79.9872 304.809 79.3238C305.651 78.6444 306.369 77.4861 306.963 75.8489C307.557 74.1956 307.842 72.0171 307.818 69.3132L308.021 78.8637L306.486 78.8771C305.935 79.954 305.182 80.8006 304.228 81.417C303.273 82.0333 302.284 82.3459 301.26 82.3549ZM315.658 87.9655C314.506 87.9755 313.569 87.7837 312.845 87.39C312.138 87.0121 311.781 86.5192 311.776 85.9112C311.773 85.5913 311.874 85.2544 312.079 84.9006C312.284 84.5628 312.554 84.2724 312.888 84.0295C313.261 84.6662 313.713 85.1343 314.244 85.4337C314.791 85.7489 315.448 85.9032 316.216 85.8965C317.432 85.8859 318.668 85.3551 319.922 84.3041C321.177 83.2691 322.21 81.508 323.02 79.0209C323.847 76.5176 324.162 73.2347 323.966 69.1722C324.332 68.849 324.618 68.6385 324.825 68.5407C325.048 68.4268 325.272 68.3688 325.496 68.3669C325.832 68.3639 326.08 68.4418 326.242 68.6004C326.419 68.7428 326.509 68.966 326.511 69.27C326.541 72.7099 326.201 75.833 325.489 78.6393C324.777 81.4296 323.605 83.6719 321.972 85.3663C320.355 87.0764 318.25 87.9428 315.658 87.9655ZM317.384 82.2142C316.504 82.2218 315.718 82.0047 315.026 81.5627C314.35 81.1046 313.817 80.4612 313.425 79.6326C313.05 78.7879 312.857 77.8135 312.848 76.7095C312.833 75.0616 313.18 73.5705 313.889 72.2363C314.613 70.9019 315.652 69.8448 317.005 69.065C318.375 68.285 319.979 67.887 321.819 67.8709C322.651 67.8637 323.404 67.9211 324.077 68.0432C324.271 68.3455 324.371 68.7207 324.374 69.1687C322.631 69.1839 321.105 69.5092 319.799 70.1446C318.508 70.7639 317.516 71.6286 316.821 72.7387C316.127 73.8488 315.786 75.1078 315.798 76.5158C315.808 77.6837 316.048 78.5937 316.518 79.2456C317.004 79.8814 317.67 80.1956 318.518 80.1882C319.286 80.1815 320.091 79.8465 320.934 79.1831C321.776 78.5037 322.494 77.3454 323.087 75.7082C323.681 74.0549 323.966 71.8763 323.942 69.1724L324.146 78.723L322.61 78.7364C322.059 79.8133 321.307 80.6599 320.352 81.2762C319.397 81.8926 318.408 82.2052 317.384 82.2142ZM335.242 82.7543C333.547 82.7691 332.214 82.2608 331.245 81.2292C330.276 80.1976 329.783 78.7698 329.768 76.9459C329.752 75.218 330.115 73.6547 330.855 72.2562C331.594 70.8577 332.625 69.7607 333.946 68.9651C335.267 68.1536 336.743 67.7407 338.375 67.7264C339.639 67.7154 340.626 68.0108 341.335 68.6126C342.061 69.2143 342.428 70.0512 342.437 71.1231C342.447 72.2591 342.048 73.2386 341.239 74.0617C340.43 74.8688 339.243 75.4952 337.679 75.9408C336.131 76.3704 334.253 76.5948 332.045 76.614L332.321 75.2676C334.705 75.2628 336.55 74.8946 337.856 74.1632C339.177 73.4157 339.832 72.3859 339.821 71.074C339.816 70.514 339.644 70.0675 339.305 69.7344C338.966 69.4013 338.525 69.2372 337.981 69.2419C337.037 69.2502 336.16 69.6098 335.35 70.3209C334.54 71.016 333.9 71.9656 333.431 73.1698C332.961 74.3579 332.732 75.656 332.745 77.0639C332.756 78.3439 333.005 79.3497 333.491 80.0815C333.977 80.7973 334.636 81.1516 335.468 81.1443C336.508 81.1352 337.353 80.7999 338.004 80.1382C338.654 79.4765 339.006 78.6013 339.061 77.5128C339.685 77.5074 340.166 77.6232 340.504 77.8602C340.842 78.0813 341.013 78.4398 341.017 78.9358C341.023 79.5758 340.772 80.194 340.265 80.7904C339.759 81.3709 339.059 81.841 338.166 82.2008C337.289 82.5605 336.314 82.745 335.242 82.7543ZM347.659 82.646C347.115 82.6507 346.706 82.4863 346.431 82.1527C346.156 81.8351 346.016 81.3403 346.01 80.6683C346.004 80.0123 346.208 78.5705 346.62 76.3428C347.049 74.099 347.51 71.9989 348.005 70.0425L346.939 68.8517C347.368 68.496 347.781 68.2204 348.18 68.0249C348.594 67.8133 348.969 67.706 349.305 67.7031C349.753 67.6991 350.082 67.8243 350.292 68.0785C350.502 68.3166 350.609 68.6277 350.612 69.0117C350.617 69.5077 350.534 70.0524 350.363 70.6459C350.208 71.2233 349.974 71.9054 349.661 72.6921L349.902 72.81C350.387 71.6218 350.883 70.6414 351.388 69.869C351.909 69.0964 352.432 68.5238 352.957 68.1512C353.498 67.7625 354.04 67.5657 354.584 67.561C355.112 67.5564 355.505 67.673 355.763 67.9107C356.037 68.1323 356.176 68.4831 356.18 68.9631C356.185 69.4911 355.981 69.9169 355.567 70.2405C355.154 70.5641 354.612 70.7289 353.94 70.7347C353.092 70.7421 352.272 71.2293 351.48 72.1962C350.689 73.1632 350.052 74.4168 349.569 75.9571C349.086 77.4973 348.852 79.0834 348.867 80.7154C348.872 81.3074 348.971 81.7225 349.165 81.9608C348.689 82.413 348.187 82.6414 347.659 82.646ZM361.775 82.5228C360.191 82.5366 358.942 82.3315 358.026 81.9075C357.11 81.4835 356.649 80.8875 356.642 80.1195C356.639 79.7995 356.733 79.4947 356.922 79.205C357.112 78.9154 357.382 78.673 357.732 78.4779C358.139 79.2744 358.68 79.8857 359.356 80.3118C360.032 80.7219 360.777 80.9234 361.593 80.9163C362.745 80.9063 363.671 80.6822 364.372 80.2441C365.072 79.8059 365.418 79.1789 365.411 78.3629C365.407 77.8669 365.139 77.4693 364.609 77.1699C364.094 76.8703 363.299 76.5413 362.224 76.1826C361.229 75.8553 360.41 75.5424 359.768 75.244C359.125 74.9456 358.578 74.5424 358.125 74.0343C357.673 73.5103 357.443 72.8642 357.436 72.0963C357.428 71.2163 357.726 70.4297 358.328 69.7364C358.93 69.0431 359.765 68.4998 360.833 68.1065C361.918 67.713 363.164 67.5101 364.572 67.4978C365.852 67.4866 366.902 67.6695 367.721 68.0464C368.557 68.4231 368.977 68.9074 368.982 69.4994C368.987 70.0754 368.799 70.5251 368.418 70.8484C368.036 71.1557 367.534 71.3121 366.91 71.3176C366.302 71.3229 365.78 71.1354 365.345 70.7552C364.909 70.375 364.577 69.8179 364.346 69.0839C363.035 69.2393 362.006 69.5603 361.258 70.0468C360.526 70.5172 360.163 71.0884 360.169 71.7604C360.172 72.0964 360.303 72.3833 360.561 72.621C360.835 72.8586 361.173 73.0637 361.574 73.2362C361.976 73.3927 362.545 73.5957 363.284 73.8453C364.311 74.1884 365.138 74.5092 365.764 74.8077C366.407 75.1061 366.954 75.5173 367.407 76.0414C367.875 76.5493 368.113 77.1953 368.12 77.9793C368.127 78.8272 367.878 79.5974 367.372 80.2899C366.866 80.9663 366.127 81.5008 365.154 81.8933C364.197 82.3017 363.071 82.5115 361.775 82.5228ZM387.32 82.3239C385.192 82.3424 383.542 82.1008 382.369 81.5991C381.213 81.0971 380.631 80.3822 380.622 79.4542C380.614 78.5422 380.73 77.1412 380.97 75.251C381.225 73.3607 381.665 70.5408 382.288 66.7912L381.531 65.3337C382.645 64.652 383.594 64.3077 384.378 64.3009C385.066 64.2949 385.43 64.6997 385.469 65.5154C387.126 64.6689 388.698 64.2392 390.186 64.2262C391.466 64.215 392.477 64.5342 393.218 65.1837C393.976 65.8332 394.36 66.7258 394.37 67.8618C394.379 68.8858 394.035 69.8328 393.339 70.7029C392.658 71.5569 391.68 72.2694 390.405 72.8406C391.687 73.0694 392.691 73.5567 393.418 74.3024C394.144 75.032 394.512 75.9569 394.522 77.0768C394.531 78.0688 394.227 78.9675 393.61 79.7729C393.009 80.5622 392.158 81.1856 391.058 81.6432C389.958 82.0848 388.712 82.3117 387.32 82.3239ZM387.16 80.5492C388.472 80.5378 389.509 80.2247 390.272 79.61C391.051 78.9952 391.436 78.1838 391.427 77.1758C391.418 76.1839 391.068 75.4189 390.375 74.8809C389.698 74.3268 388.736 74.0552 387.488 74.0661C386.304 74.0764 385.057 74.2633 383.748 74.6267L383.926 72.9691C385.429 72.892 386.731 72.6486 387.832 72.239C388.932 71.8294 389.776 71.294 390.362 70.6329C390.964 69.9716 391.262 69.217 391.254 68.369C391.242 66.9771 390.428 66.2881 388.812 66.3022C387.628 66.3126 386.454 66.5788 385.291 67.101C384.831 69.4411 384.451 71.6685 384.149 73.7832C383.863 75.8818 383.657 77.9317 383.531 79.9329C384.044 80.1204 384.622 80.2753 385.263 80.3978C385.92 80.504 386.552 80.5545 387.16 80.5492ZM404.912 82.1464C403.12 82.162 401.782 81.9337 400.898 81.4614C400.014 80.9891 399.567 80.2569 399.558 79.265C399.552 78.481 399.676 77.1359 399.931 75.2296C400.186 73.3073 400.625 70.4393 401.248 66.6257L400.491 65.1683C401.654 64.4861 402.587 64.142 403.291 64.1358C404.011 64.1295 404.374 64.5504 404.382 65.3983C404.384 65.6223 404.181 67.1362 403.773 69.9398C403.35 72.7916 403.034 75.0265 402.824 76.6444C402.614 78.2463 402.511 79.3672 402.517 80.0072C403.383 80.2716 404.297 80.3997 405.256 80.3913C406.584 80.3797 407.773 80.0253 408.823 79.3281C409.873 78.6149 410.689 77.6398 411.27 76.4026C411.851 75.1655 412.135 73.771 412.121 72.2191C412.104 70.1871 411.682 68.6468 410.857 67.5979C410.032 66.5331 408.843 66.0074 407.291 66.021C406.395 66.0288 405.684 66.131 405.158 66.3276C404.647 66.5081 404.002 66.8337 403.222 67.3045C403.143 67.3532 403.063 67.4099 402.984 67.4746C402.904 67.5233 402.817 67.5721 402.721 67.6209L402.566 66.3982C402.63 66.3497 402.693 66.3011 402.757 66.2526C402.837 66.2039 402.908 66.1552 402.972 66.1067C403.608 65.6371 404.149 65.2724 404.594 65.0125C405.04 64.7526 405.566 64.54 406.173 64.3747C406.795 64.1932 407.506 64.099 408.306 64.092C409.682 64.08 410.885 64.3816 411.914 64.9966C412.96 65.6115 413.768 66.4925 414.338 67.6395C414.908 68.7866 415.199 70.1361 415.213 71.6881C415.231 73.72 414.806 75.5238 413.94 77.0994C413.074 78.675 411.861 79.9096 410.3 80.8033C408.74 81.6809 406.944 82.1286 404.912 82.1464Z" fill="#FFFAFA"/>
</svg>
