<svg width="589" height="49" viewBox="0 0 589 49" fill="none" xmlns="http://www.w3.org/2000/svg">
<path d="M191.81 36.5169C191.218 36.5221 190.785 36.3739 190.51 36.0723C190.235 35.7706 190.095 35.2758 190.089 34.5879C190.081 33.6759 190.197 32.2828 190.437 30.4087C190.676 28.5345 191.137 25.3784 191.818 20.9403L191.061 19.4828C192.127 18.8015 193.076 18.4572 193.908 18.4499C194.612 18.4438 194.968 18.8647 194.975 19.7127C194.977 19.8567 194.909 20.3773 194.773 21.2745C194.637 22.1557 194.485 23.1411 194.319 24.2306C193.88 27.1625 193.555 29.3414 193.344 30.7673C193.148 32.1931 193.053 33.194 193.058 33.7699C193.062 34.2339 193.114 34.6415 193.213 34.9926C193.312 35.3438 193.458 35.6385 193.652 35.8768C193.016 36.2984 192.402 36.5118 191.81 36.5169ZM196.018 29.1359C195.202 29.143 194.2 28.9918 193.014 28.6821L193.335 27.0233C194.184 27.1438 195.201 27.199 196.385 27.1886L198.157 26.7412C198.157 26.7892 198.158 26.8452 198.158 26.9092C198.159 26.9572 198.167 27.0051 198.184 27.0529C198.184 27.1009 198.184 27.1489 198.185 27.1969C198.185 27.2449 198.186 27.2849 198.186 27.3169C198.191 27.8929 198.003 28.3426 197.622 28.6659C197.256 28.9731 196.722 29.1298 196.018 29.1359ZM198.594 21.8652C197.618 21.8737 196.674 21.8179 195.761 21.6979C194.864 21.5617 193.982 21.3374 193.115 21.0249L193.678 19.58C195.022 19.5682 196.166 19.4943 197.108 19.358C198.051 19.2218 199.305 18.9868 200.87 18.6532C200.966 18.6363 201.054 18.6196 201.134 18.6029C201.23 18.57 201.325 18.5452 201.421 18.5284C201.504 18.7997 201.547 19.1353 201.55 19.5353C201.557 20.3192 201.274 20.9057 200.701 21.2948C200.145 21.6676 199.442 21.8578 198.594 21.8652ZM207.85 36.3529C206.698 36.363 205.68 36.1159 204.795 35.6116C203.927 35.0911 203.248 34.361 202.76 33.4212C202.288 32.4653 202.046 31.3554 202.035 30.0915C202.02 28.3955 202.359 26.8885 203.052 25.5704C203.76 24.2522 204.751 23.2195 206.025 22.4723C207.298 21.7252 208.743 21.3446 210.359 21.3305C211.031 21.3246 211.647 21.3832 212.209 21.5063C212.387 21.7608 212.494 22.1359 212.53 22.6316C210.93 22.6455 209.565 22.9775 208.435 23.6274C207.305 24.2772 206.448 25.1807 205.866 26.3379C205.284 27.479 205 28.7775 205.012 30.2335C205.025 31.6574 205.299 32.7671 205.833 33.5624C206.368 34.3578 207.124 34.7512 208.1 34.7427C209.044 34.7345 209.89 34.4631 210.637 33.9285C211.4 33.3939 212.018 32.6364 212.489 31.6563C212.977 30.676 213.279 29.5373 213.395 28.2402C212.736 27.83 212.252 27.3782 211.943 26.8849C211.651 26.3914 211.502 25.8087 211.496 25.1367C211.493 24.7367 211.57 24.376 211.727 24.0546C211.9 23.7171 212.13 23.4591 212.416 23.2806C212.702 23.0861 213.029 22.9872 213.397 22.984C214.133 22.9776 214.712 23.3006 215.134 23.9529C215.556 24.6053 215.772 25.5154 215.782 26.6834C215.797 28.4433 215.451 30.0624 214.744 31.5406C214.053 33.0027 213.095 34.1711 211.871 35.0458C210.662 35.9044 209.322 36.3401 207.85 36.3529ZM221.424 36.2345C220.944 36.2387 220.575 36.0819 220.316 35.7641C220.057 35.4624 219.925 34.9915 219.92 34.3515C219.914 33.7276 220.077 32.2381 220.409 29.8831C220.74 27.5121 221.118 25.0047 221.543 22.3609C221.634 21.8001 221.725 21.2633 221.817 20.7505C221.908 20.2216 221.992 19.7249 222.068 19.2602L221.001 18.0695C221.367 17.7463 221.805 17.4945 222.315 17.314C222.841 17.1174 223.32 17.0172 223.752 17.0134C224.2 17.0095 224.521 17.1107 224.715 17.317C224.909 17.5074 225.008 17.8425 225.012 18.3225C225.014 18.5305 224.954 18.971 224.831 19.6441C224.709 20.3172 224.564 21.0705 224.395 21.904C223.89 24.4845 223.478 26.7762 223.159 28.7791C222.856 30.7658 222.712 32.5351 222.725 34.087C222.728 34.391 222.771 34.6787 222.853 34.95C222.951 35.2051 223.073 35.4041 223.218 35.5468C222.98 35.7569 222.709 35.9193 222.406 36.0339C222.103 36.1646 221.776 36.2314 221.424 36.2345ZM230.424 36.1559C229.944 36.1601 229.574 36.0034 229.316 35.6856C229.057 35.3838 228.925 34.913 228.919 34.273C228.914 33.649 229.077 32.1595 229.408 29.8046C229.74 27.4336 230.118 24.9262 230.543 22.2824C230.634 21.7216 230.725 21.1847 230.817 20.6719C230.908 20.1431 230.992 19.6464 231.068 19.1817L230.001 17.9909C230.366 17.6677 230.804 17.4159 231.315 17.2355C231.841 17.0389 232.32 16.9387 232.752 16.9349C233.2 16.931 233.521 17.0322 233.715 17.2385C233.908 17.4288 234.007 17.764 234.012 18.244C234.013 18.4519 233.953 18.8925 233.831 19.5656C233.709 20.2387 233.563 20.992 233.395 21.8255C232.889 24.406 232.477 26.6977 232.159 28.7005C231.856 30.6872 231.711 32.4566 231.725 34.0085C231.728 34.3125 231.77 34.6001 231.853 34.8714C231.951 35.1266 232.073 35.3255 232.218 35.4683C231.98 35.6784 231.709 35.8407 231.406 35.9554C231.103 36.086 230.776 36.1529 230.424 36.1559ZM243.239 36.0441C242.087 36.0542 241.069 35.807 240.185 35.3027C239.316 34.7823 238.638 34.0522 238.149 33.1124C237.677 32.1565 237.435 31.0466 237.424 29.7826C237.41 28.0867 237.748 26.5797 238.441 25.2616C239.149 23.9433 240.14 22.9106 241.414 22.1635C242.688 21.4164 244.132 21.0357 245.748 21.0216C246.42 21.0158 247.037 21.0744 247.598 21.1975C247.776 21.452 247.883 21.827 247.92 22.3227C246.32 22.3367 244.955 22.6686 243.824 23.3185C242.694 23.9684 241.838 24.8719 241.256 26.029C240.674 27.1702 240.389 28.4687 240.402 29.9246C240.414 31.3486 240.688 32.4582 241.223 33.2536C241.758 34.049 242.513 34.4424 243.489 34.4339C244.433 34.4256 245.279 34.1542 246.026 33.6197C246.79 33.085 247.407 32.3276 247.878 31.3474C248.366 30.3672 248.668 29.2285 248.785 27.9314C248.125 27.5211 247.641 27.0694 247.333 26.576C247.04 26.0826 246.891 25.4998 246.885 24.8279C246.882 24.4279 246.959 24.0672 247.116 23.7458C247.289 23.4083 247.519 23.1503 247.805 22.9718C248.092 22.7773 248.419 22.6784 248.787 22.6752C249.523 22.6688 250.102 22.9917 250.523 23.6441C250.945 24.2964 251.161 25.2066 251.171 26.3745C251.186 28.1345 250.841 29.7535 250.133 31.2318C249.442 32.6938 248.484 33.8623 247.26 34.737C246.051 35.5955 244.711 36.0313 243.239 36.0441ZM258.013 35.9152C257.549 35.9192 257.196 35.8263 256.955 35.6364C256.713 35.4625 256.535 35.1681 256.419 34.753C256.319 34.3219 256.266 33.7063 256.259 32.9064C256.252 32.0584 256.254 31.4184 256.266 30.9862C256.267 29.2262 256.239 27.8344 256.182 26.8108C256.125 25.7873 255.98 24.8045 255.748 23.8625C255.516 22.9205 255.141 22.1477 254.624 21.5442C255.132 21.1398 255.698 20.9348 256.322 20.9294C256.994 20.9235 257.508 21.151 257.864 21.6119C258.236 22.0727 258.499 22.8304 258.652 23.8851C258.805 24.9238 258.89 26.4032 258.907 28.3231L258.933 31.347C258.946 32.7389 258.945 33.571 258.931 33.8431L259.171 33.841C260.801 31.7627 261.993 29.8562 262.745 28.1216C263.498 26.3709 263.966 25.0228 264.15 24.0772C264.166 24.045 264.174 24.021 264.174 24.005C264.173 23.973 264.173 23.949 264.173 23.933C264.172 23.773 264.106 23.5815 263.976 23.3587C263.846 23.1198 263.716 22.8969 263.586 22.69C263.424 22.4834 263.319 22.3164 263.27 22.1888C263.572 21.9621 263.834 21.8078 264.058 21.7259C264.297 21.6278 264.544 21.5776 264.8 21.5754C265.264 21.5714 265.626 21.7202 265.884 22.022C266.159 22.3236 266.299 22.7464 266.303 23.2904C266.31 24.0103 266.141 24.8038 265.796 25.6709C265.452 26.5219 264.862 27.7191 264.027 29.2624C263.949 29.3911 263.87 29.5278 263.791 29.6725C263.712 29.8172 263.634 29.9699 263.555 30.1306C262.705 31.6901 261.979 32.8805 261.378 33.7017C260.777 34.523 260.214 35.0959 259.689 35.4205C259.18 35.745 258.621 35.9099 258.013 35.9152ZM266.317 35.8427C265.741 35.8477 265.292 35.7157 264.969 35.4465C264.647 35.1773 264.412 34.8113 264.264 34.3486C264.132 33.8697 264.038 33.2545 263.984 32.5029L263.15 22.2138C263.34 22.0042 263.579 21.8501 263.866 21.7516C264.153 21.6371 264.464 21.5783 264.8 21.5754L265.437 23.0099L265.915 33.7821L266.155 33.78C267.748 31.11 268.905 28.9319 269.626 27.2455C270.363 25.543 270.728 24.2598 270.72 23.3958C270.714 22.6118 270.548 21.9493 270.223 21.4081C270.621 21.1806 270.956 21.0257 271.227 20.9433C271.514 20.8448 271.818 20.7941 272.138 20.7913C272.554 20.7877 272.875 20.9449 273.102 21.2629C273.345 21.5808 273.469 22.0118 273.473 22.5558C273.479 23.1957 273.302 24.0453 272.943 25.1045C272.601 26.1475 272.068 27.4162 271.345 28.9106C270.622 30.4049 269.709 32.125 268.606 34.0707L268.996 34.7873C268.711 35.0938 268.313 35.3453 267.802 35.5417C267.292 35.7382 266.797 35.8385 266.317 35.8427ZM288.787 35.6466C287.475 35.6581 286.504 35.3545 285.875 34.736C285.245 34.1015 284.925 33.1202 284.913 31.7923C284.907 31.1363 284.949 30.4639 285.039 29.7751C285.145 29.0861 285.305 28.1727 285.52 27.0348C285.688 26.1533 285.817 25.4081 285.908 24.7993C285.999 24.1905 286.042 23.6461 286.038 23.1661C286.035 22.8141 286.008 22.4864 285.957 22.1828C285.906 21.8632 285.84 21.5758 285.758 21.3205C286.076 21.1257 286.411 20.9708 286.762 20.8557C287.113 20.7247 287.4 20.6581 287.624 20.6562C288.088 20.6521 288.425 20.7772 288.635 21.0314C288.861 21.2694 288.977 21.6604 288.982 22.2044C288.985 22.6044 288.926 23.1649 288.804 23.886C288.683 24.6071 288.499 25.5687 288.253 26.7709C288.085 27.6524 287.925 28.5099 287.772 29.3432C287.635 30.1605 287.568 30.7531 287.571 31.1211C287.579 32.033 287.777 32.7193 288.165 33.1799C288.553 33.6406 289.123 33.8676 289.875 33.8611C290.803 33.853 291.664 33.5014 292.458 32.8065C293.252 32.0955 293.876 31.13 294.329 29.91L294.193 33.5594L293.349 33.1347C292.843 33.8592 292.161 34.4571 291.301 34.9287C290.441 35.4002 289.603 35.6395 288.787 35.6466ZM295.219 35.5905C294.675 35.5952 294.265 35.4148 293.99 35.0492C293.731 34.6834 293.598 34.1086 293.591 33.3246C293.585 32.6846 293.727 31.5713 294.018 29.9848C294.308 28.3822 294.791 26.0659 295.469 23.0358L294.473 21.6045C294.79 21.3137 295.212 21.07 295.738 20.8734C296.264 20.6768 296.744 20.5766 297.176 20.5728C297.656 20.5687 297.992 20.6697 298.186 20.876C298.396 21.0662 298.503 21.4013 298.507 21.8813C298.508 21.9613 298.462 22.2017 298.369 22.6025C298.293 23.0032 298.193 23.4521 298.069 23.9492C297.576 26.1456 297.177 28.0291 296.87 29.5998C296.58 31.1704 296.44 32.5237 296.45 33.6597C296.455 34.2676 296.595 34.6904 296.869 34.9281C296.393 35.3642 295.843 35.585 295.219 35.5905ZM306.863 35.4889C305.279 35.5027 304.029 35.2976 303.113 34.8736C302.197 34.4495 301.736 33.8535 301.729 33.0856C301.727 32.7656 301.82 32.4608 302.01 32.1711C302.199 31.8814 302.469 31.6391 302.819 31.444C303.226 32.2405 303.768 32.8518 304.443 33.2779C305.119 33.688 305.865 33.8895 306.681 33.8824C307.833 33.8723 308.759 33.6483 309.459 33.2101C310.159 32.772 310.506 32.145 310.498 31.329C310.494 30.833 310.227 30.4353 309.696 30.1359C309.181 29.8364 308.387 29.5073 307.311 29.1487C306.316 28.8214 305.498 28.5085 304.855 28.2101C304.212 27.9117 303.665 27.5085 303.212 27.0004C302.76 26.4763 302.53 25.8303 302.524 25.0623C302.516 24.1824 302.813 23.3958 303.415 22.7025C304.017 22.0092 304.852 21.4659 305.921 21.0725C307.005 20.6791 308.252 20.4762 309.66 20.4639C310.94 20.4527 311.989 20.6356 312.809 21.0124C313.644 21.3892 314.064 21.8735 314.069 22.4655C314.074 23.0415 313.886 23.4911 313.505 23.8145C313.124 24.1218 312.621 24.2782 311.997 24.2836C311.389 24.2889 310.867 24.1015 310.432 23.7213C309.997 23.3411 309.664 22.7839 309.433 22.0499C308.123 22.2054 307.094 22.5264 306.346 23.0129C305.614 23.4833 305.251 24.0545 305.257 24.7265C305.26 25.0625 305.39 25.3493 305.648 25.5871C305.922 25.8247 306.26 26.0298 306.662 26.2023C307.063 26.3588 307.633 26.5618 308.371 26.8114C309.398 27.1544 310.225 27.4752 310.851 27.7738C311.494 28.0722 312.042 28.4834 312.494 29.0075C312.963 29.5154 313.2 30.1614 313.207 30.9453C313.215 31.7933 312.965 32.5635 312.459 33.2559C311.953 33.9324 311.214 34.4669 310.241 34.8594C309.285 35.2677 308.159 35.4776 306.863 35.4889ZM330.775 35.2802C329.623 35.2902 328.605 35.0431 327.72 34.5388C326.852 34.0184 326.173 33.2883 325.685 32.3485C325.213 31.3926 324.971 30.2827 324.96 29.0187C324.945 27.3228 325.284 25.8157 325.977 24.4977C326.685 23.1794 327.676 22.1467 328.95 21.3996C330.223 20.6525 331.668 20.2718 333.284 20.2577C333.956 20.2519 334.572 20.3105 335.134 20.4336C335.312 20.688 335.419 21.0631 335.455 21.5588C333.855 21.5728 332.49 21.9047 331.36 22.5546C330.23 23.2045 329.373 24.108 328.791 25.2651C328.209 26.4062 327.925 27.7048 327.937 29.1607C327.95 30.5847 328.224 31.6943 328.759 32.4897C329.293 33.285 330.049 33.6785 331.025 33.67C331.969 33.6617 332.815 33.3903 333.562 32.8558C334.325 32.3211 334.943 31.5637 335.414 30.5835C335.902 29.6032 336.204 28.4646 336.32 27.1675C335.661 26.7572 335.177 26.3054 334.868 25.8121C334.576 25.3186 334.427 24.7359 334.421 24.0639C334.418 23.664 334.495 23.3033 334.652 22.9819C334.825 22.6444 335.055 22.3864 335.341 22.2079C335.627 22.0133 335.954 21.9145 336.322 21.9113C337.058 21.9049 337.637 22.2278 338.059 22.8802C338.481 23.5325 338.697 24.4427 338.707 25.6106C338.722 27.3705 338.376 28.9896 337.669 30.4678C336.978 31.9299 336.02 33.0983 334.796 33.9731C333.587 34.8316 332.247 35.2673 330.775 35.2802ZM344.589 35.1596C344.029 35.1645 343.612 35.0322 343.338 34.7625C343.079 34.4928 342.947 34.0619 342.942 33.4699C342.936 32.766 343.131 31.3162 343.528 29.1207C343.941 26.909 344.41 24.7208 344.935 22.5561L343.845 21.3656C344.226 21.0263 344.671 20.7504 345.181 20.5379C345.708 20.3253 346.179 20.2172 346.595 20.2136C347.075 20.2094 347.411 20.3024 347.605 20.4928C347.799 20.6831 347.898 21.0262 347.902 21.5222C347.906 21.9382 347.838 22.4108 347.699 22.94C347.575 23.4691 347.403 23.9587 347.183 24.4086L347.424 24.5265C349.015 21.5845 351.098 20.1023 353.674 20.0798C354.714 20.0707 355.484 20.328 355.985 20.8517C356.501 21.3592 356.764 22.1569 356.774 23.2449C356.779 23.8848 356.713 24.5494 356.575 25.2387C356.453 25.9278 356.268 26.7934 356.022 27.8356C355.728 29.0542 355.513 30.0561 355.376 30.8413C355.238 31.6106 355.173 32.3792 355.18 33.1471C355.185 33.7231 355.293 34.1382 355.503 34.3924C355.027 34.8445 354.517 35.073 353.973 35.0778C353.429 35.0825 353.02 34.9501 352.745 34.6804C352.487 34.4107 352.355 33.9798 352.35 33.3878C352.345 32.7799 352.403 32.0993 352.524 31.3463C352.661 30.577 352.853 29.5833 353.098 28.3651C353.329 27.3551 353.498 26.5136 353.604 25.8406C353.726 25.1515 353.785 24.559 353.781 24.063C353.769 22.7671 353.276 22.1233 352.3 22.1319C351.164 22.1418 350.088 22.6952 349.074 23.7921C348.075 24.8728 347.272 26.2719 346.663 27.9893C346.07 29.7065 345.781 31.4531 345.796 33.229C345.801 33.821 345.901 34.2362 346.095 34.4745C345.619 34.9266 345.117 35.155 344.589 35.1596ZM371.407 22.3011C371.021 22.0805 370.739 21.8909 370.562 21.7325C370.384 21.574 370.295 21.4068 370.293 21.2308C370.291 21.0228 370.417 20.7417 370.67 20.3875C370.939 20.0171 371.24 19.6625 371.573 19.3236L380.686 24.0682C381.072 24.2729 381.346 24.4545 381.507 24.6131C381.684 24.7555 381.774 24.9228 381.776 25.1147C381.777 25.3387 381.652 25.6278 381.399 25.9821C381.146 26.3363 380.845 26.6829 380.496 27.022L371.407 22.3011ZM370.216 31.6479C369.864 31.6509 369.606 31.4372 369.442 31.0066C369.279 30.576 369.162 30.001 369.091 29.2816L378.366 24.9765C378.812 24.7646 379.139 24.6577 379.347 24.6559C379.523 24.6544 379.668 24.7011 379.781 24.7961C379.909 24.875 380.023 25.01 380.12 25.2012C380.315 25.5515 380.441 26.1584 380.496 27.022L371.245 31.3269C370.783 31.5389 370.44 31.6459 370.216 31.6479ZM389.476 22.1434C389.09 21.9228 388.809 21.7332 388.631 21.5748C388.454 21.4163 388.364 21.2491 388.363 21.0731C388.361 20.8651 388.487 20.584 388.739 20.2298C389.008 19.8594 389.309 19.5048 389.642 19.1659L398.756 23.9105C399.142 24.1152 399.415 24.2968 399.577 24.4554C399.754 24.5978 399.843 24.7651 399.845 24.9571C399.847 25.181 399.722 25.4702 399.469 25.8244C399.216 26.1786 398.915 26.5252 398.566 26.8643L389.476 22.1434ZM388.286 31.4902C387.934 31.4933 387.676 31.2795 387.512 30.8489C387.348 30.4183 387.231 29.8433 387.161 29.1239L396.436 24.8188C396.882 24.6069 397.209 24.5 397.417 24.4982C397.593 24.4967 397.737 24.5434 397.85 24.6385C397.979 24.7173 398.092 24.8524 398.19 25.0435C398.385 25.3938 398.51 26.0007 398.566 26.8643L389.315 31.1692C388.853 31.3812 388.51 31.4882 388.286 31.4902Z" fill="#FFFAFA"/>
</svg>
