<svg width="230" height="106" viewBox="0 0 230 106" fill="none" xmlns="http://www.w3.org/2000/svg">
<path d="M44.1074 15.3213C43.6738 15.9424 43.0674 16.4082 42.2881 16.7188C41.5146 17.0234 40.6123 17.1758 39.5811 17.1758C38.5381 17.1758 37.6123 16.9326 36.8037 16.4463C35.9951 15.9541 35.3682 15.2568 34.9229 14.3545C34.4834 13.4521 34.2578 12.4062 34.2461 11.2168V10.1006C34.2461 8.17285 34.6943 6.67871 35.5908 5.61816C36.4932 4.55762 37.7588 4.02734 39.3877 4.02734C40.7236 4.02734 41.7988 4.37012 42.6133 5.05566C43.4277 5.73535 43.9258 6.70215 44.1074 7.95605H42.4199C42.1035 6.2627 41.0957 5.41602 39.3965 5.41602C38.2656 5.41602 37.4072 5.81445 36.8213 6.61133C36.2412 7.40234 35.9482 8.55078 35.9424 10.0566V11.1025C35.9424 12.5381 36.2705 13.6807 36.9268 14.5303C37.583 15.374 38.4707 15.7959 39.5898 15.7959C40.2227 15.7959 40.7764 15.7256 41.251 15.585C41.7256 15.4443 42.1182 15.207 42.4287 14.873V11.999H39.4668V10.6279H44.1074V15.3213ZM51.2705 8.94922C51.0244 8.9082 50.7578 8.8877 50.4707 8.8877C49.4043 8.8877 48.6807 9.3418 48.2998 10.25V17H46.6738V7.49023H48.2559L48.2822 8.58887C48.8154 7.73926 49.5713 7.31445 50.5498 7.31445C50.8662 7.31445 51.1064 7.35547 51.2705 7.4375V8.94922ZM56.5439 17.1758C55.2549 17.1758 54.2061 16.7539 53.3975 15.9102C52.5889 15.0605 52.1846 13.9268 52.1846 12.5088V12.21C52.1846 11.2666 52.3633 10.4258 52.7207 9.6875C53.084 8.94336 53.5879 8.36328 54.2324 7.94727C54.8828 7.52539 55.5859 7.31445 56.3418 7.31445C57.5781 7.31445 58.5391 7.72168 59.2246 8.53613C59.9102 9.35059 60.2529 10.5166 60.2529 12.0342V12.7109H53.8105C53.834 13.6484 54.1064 14.4072 54.6279 14.9873C55.1553 15.5615 55.8232 15.8486 56.6318 15.8486C57.2061 15.8486 57.6924 15.7314 58.0908 15.4971C58.4893 15.2627 58.8379 14.9521 59.1367 14.5654L60.1299 15.3389C59.333 16.5635 58.1377 17.1758 56.5439 17.1758ZM56.3418 8.65039C55.6855 8.65039 55.1348 8.89062 54.6895 9.37109C54.2441 9.8457 53.9688 10.5137 53.8633 11.375H58.627V11.252C58.5801 10.4258 58.3574 9.78711 57.959 9.33594C57.5605 8.87891 57.0215 8.65039 56.3418 8.65039ZM68.0137 17C67.9199 16.8125 67.8438 16.4785 67.7852 15.998C67.0293 16.7832 66.127 17.1758 65.0781 17.1758C64.1406 17.1758 63.3701 16.9121 62.7666 16.3848C62.1689 15.8516 61.8701 15.1777 61.8701 14.3633C61.8701 13.373 62.2451 12.6055 62.9951 12.0605C63.751 11.5098 64.8115 11.2344 66.1768 11.2344H67.7588V10.4873C67.7588 9.91895 67.5889 9.46777 67.249 9.13379C66.9092 8.79395 66.4082 8.62402 65.7461 8.62402C65.166 8.62402 64.6797 8.77051 64.2871 9.06348C63.8945 9.35645 63.6982 9.71094 63.6982 10.127H62.0635C62.0635 9.65234 62.2305 9.19531 62.5645 8.75586C62.9043 8.31055 63.3613 7.95898 63.9355 7.70117C64.5156 7.44336 65.1514 7.31445 65.8428 7.31445C66.9385 7.31445 67.7969 7.58984 68.418 8.14062C69.0391 8.68555 69.3613 9.43848 69.3848 10.3994V14.7764C69.3848 15.6494 69.4961 16.3438 69.7188 16.8594V17H68.0137ZM65.3154 15.7607C65.8252 15.7607 66.3086 15.6289 66.7656 15.3652C67.2227 15.1016 67.5537 14.7588 67.7588 14.3369V12.3857H66.4844C64.4922 12.3857 63.4961 12.9688 63.4961 14.1348C63.4961 14.6445 63.666 15.043 64.0059 15.3301C64.3457 15.6172 64.7822 15.7607 65.3154 15.7607ZM74.1396 5.1875V7.49023H75.915V8.74707H74.1396V14.6445C74.1396 15.0254 74.2188 15.3125 74.377 15.5059C74.5352 15.6934 74.8047 15.7871 75.1855 15.7871C75.373 15.7871 75.6309 15.752 75.959 15.6816V17C75.5312 17.1172 75.1152 17.1758 74.7109 17.1758C73.9844 17.1758 73.4365 16.9561 73.0674 16.5166C72.6982 16.0771 72.5137 15.4531 72.5137 14.6445V8.74707H70.7822V7.49023H72.5137V5.1875H74.1396ZM84.2295 11.9902V17H82.542V4.20312H87.2617C88.6621 4.20312 89.7578 4.56055 90.5488 5.27539C91.3457 5.99023 91.7441 6.93652 91.7441 8.11426C91.7441 9.35645 91.3545 10.3145 90.5752 10.9883C89.8018 11.6562 88.6914 11.9902 87.2441 11.9902H84.2295ZM84.2295 10.6104H87.2617C88.1641 10.6104 88.8555 10.3994 89.3359 9.97754C89.8164 9.5498 90.0566 8.93457 90.0566 8.13184C90.0566 7.37012 89.8164 6.76074 89.3359 6.30371C88.8555 5.84668 88.1963 5.60938 87.3584 5.5918H84.2295V10.6104ZM97.4658 17.1758C96.1768 17.1758 95.1279 16.7539 94.3193 15.9102C93.5107 15.0605 93.1064 13.9268 93.1064 12.5088V12.21C93.1064 11.2666 93.2852 10.4258 93.6426 9.6875C94.0059 8.94336 94.5098 8.36328 95.1543 7.94727C95.8047 7.52539 96.5078 7.31445 97.2637 7.31445C98.5 7.31445 99.4609 7.72168 100.146 8.53613C100.832 9.35059 101.175 10.5166 101.175 12.0342V12.7109H94.7324C94.7559 13.6484 95.0283 14.4072 95.5498 14.9873C96.0771 15.5615 96.7451 15.8486 97.5537 15.8486C98.1279 15.8486 98.6143 15.7314 99.0127 15.4971C99.4111 15.2627 99.7598 14.9521 100.059 14.5654L101.052 15.3389C100.255 16.5635 99.0596 17.1758 97.4658 17.1758ZM97.2637 8.65039C96.6074 8.65039 96.0566 8.89062 95.6113 9.37109C95.166 9.8457 94.8906 10.5137 94.7852 11.375H99.5488V11.252C99.502 10.4258 99.2793 9.78711 98.8809 9.33594C98.4824 8.87891 97.9434 8.65039 97.2637 8.65039ZM102.634 12.1572C102.634 11.2256 102.815 10.3877 103.179 9.64355C103.548 8.89941 104.058 8.3252 104.708 7.9209C105.364 7.5166 106.111 7.31445 106.949 7.31445C108.244 7.31445 109.29 7.7627 110.087 8.65918C110.89 9.55566 111.291 10.748 111.291 12.2363V12.3506C111.291 13.2764 111.112 14.1084 110.755 14.8467C110.403 15.5791 109.896 16.1504 109.234 16.5605C108.578 16.9707 107.822 17.1758 106.967 17.1758C105.678 17.1758 104.632 16.7275 103.829 15.8311C103.032 14.9346 102.634 13.748 102.634 12.2715V12.1572ZM104.269 12.3506C104.269 13.4053 104.512 14.252 104.998 14.8906C105.49 15.5293 106.146 15.8486 106.967 15.8486C107.793 15.8486 108.449 15.5264 108.936 14.8818C109.422 14.2314 109.665 13.3232 109.665 12.1572C109.665 11.1143 109.416 10.2705 108.918 9.62598C108.426 8.97559 107.77 8.65039 106.949 8.65039C106.146 8.65039 105.499 8.96973 105.007 9.6084C104.515 10.2471 104.269 11.1611 104.269 12.3506ZM121.363 12.3506C121.363 13.7979 121.032 14.9639 120.37 15.8486C119.708 16.7334 118.812 17.1758 117.681 17.1758C116.526 17.1758 115.618 16.8096 114.956 16.0771V20.6562H113.33V7.49023H114.815L114.895 8.54492C115.557 7.72461 116.477 7.31445 117.654 7.31445C118.797 7.31445 119.699 7.74512 120.361 8.60645C121.029 9.46777 121.363 10.666 121.363 12.2012V12.3506ZM119.737 12.166C119.737 11.0938 119.509 10.2471 119.052 9.62598C118.595 9.00488 117.968 8.69434 117.171 8.69434C116.187 8.69434 115.448 9.13086 114.956 10.0039V14.5479C115.442 15.415 116.187 15.8486 117.188 15.8486C117.968 15.8486 118.586 15.541 119.043 14.9258C119.506 14.3047 119.737 13.3848 119.737 12.166ZM125.204 17H123.578V3.5H125.204V17ZM131.761 17.1758C130.472 17.1758 129.423 16.7539 128.614 15.9102C127.806 15.0605 127.401 13.9268 127.401 12.5088V12.21C127.401 11.2666 127.58 10.4258 127.938 9.6875C128.301 8.94336 128.805 8.36328 129.449 7.94727C130.1 7.52539 130.803 7.31445 131.559 7.31445C132.795 7.31445 133.756 7.72168 134.441 8.53613C135.127 9.35059 135.47 10.5166 135.47 12.0342V12.7109H129.027C129.051 13.6484 129.323 14.4072 129.845 14.9873C130.372 15.5615 131.04 15.8486 131.849 15.8486C132.423 15.8486 132.909 15.7314 133.308 15.4971C133.706 15.2627 134.055 14.9521 134.354 14.5654L135.347 15.3389C134.55 16.5635 133.354 17.1758 131.761 17.1758ZM131.559 8.65039C130.902 8.65039 130.352 8.89062 129.906 9.37109C129.461 9.8457 129.186 10.5137 129.08 11.375H133.844V11.252C133.797 10.4258 133.574 9.78711 133.176 9.33594C132.777 8.87891 132.238 8.65039 131.559 8.65039ZM142.896 14.4775C142.896 14.0381 142.729 13.6982 142.396 13.458C142.067 13.2119 141.49 13.001 140.664 12.8252C139.844 12.6494 139.19 12.4385 138.704 12.1924C138.224 11.9463 137.866 11.6533 137.632 11.3135C137.403 10.9736 137.289 10.5693 137.289 10.1006C137.289 9.32129 137.617 8.66211 138.273 8.12305C138.936 7.58398 139.779 7.31445 140.805 7.31445C141.883 7.31445 142.756 7.59277 143.424 8.14941C144.098 8.70605 144.435 9.41797 144.435 10.2852H142.8C142.8 9.83984 142.609 9.45605 142.229 9.13379C141.854 8.81152 141.379 8.65039 140.805 8.65039C140.213 8.65039 139.75 8.7793 139.416 9.03711C139.082 9.29492 138.915 9.63184 138.915 10.0479C138.915 10.4404 139.07 10.7363 139.381 10.9355C139.691 11.1348 140.251 11.3252 141.06 11.5068C141.874 11.6885 142.533 11.9053 143.037 12.1572C143.541 12.4092 143.913 12.7139 144.153 13.0713C144.399 13.4229 144.522 13.8535 144.522 14.3633C144.522 15.2129 144.183 15.8955 143.503 16.4111C142.823 16.9209 141.941 17.1758 140.857 17.1758C140.096 17.1758 139.422 17.041 138.836 16.7715C138.25 16.502 137.79 16.127 137.456 15.6465C137.128 15.1602 136.964 14.6357 136.964 14.0732H138.59C138.619 14.6182 138.836 15.0518 139.24 15.374C139.65 15.6904 140.189 15.8486 140.857 15.8486C141.473 15.8486 141.965 15.7256 142.334 15.4795C142.709 15.2275 142.896 14.8936 142.896 14.4775ZM151.053 19.5488L150.13 18.916C150.681 18.1484 150.968 17.3574 150.991 16.543V15.0752H152.582V16.3496C152.582 16.9414 152.436 17.5332 152.143 18.125C151.855 18.7168 151.492 19.1914 151.053 19.5488ZM164.342 15.3213C163.908 15.9424 163.302 16.4082 162.522 16.7188C161.749 17.0234 160.847 17.1758 159.815 17.1758C158.772 17.1758 157.847 16.9326 157.038 16.4463C156.229 15.9541 155.603 15.2568 155.157 14.3545C154.718 13.4521 154.492 12.4062 154.48 11.2168V10.1006C154.48 8.17285 154.929 6.67871 155.825 5.61816C156.728 4.55762 157.993 4.02734 159.622 4.02734C160.958 4.02734 162.033 4.37012 162.848 5.05566C163.662 5.73535 164.16 6.70215 164.342 7.95605H162.654C162.338 6.2627 161.33 5.41602 159.631 5.41602C158.5 5.41602 157.642 5.81445 157.056 6.61133C156.476 7.40234 156.183 8.55078 156.177 10.0566V11.1025C156.177 12.5381 156.505 13.6807 157.161 14.5303C157.817 15.374 158.705 15.7959 159.824 15.7959C160.457 15.7959 161.011 15.7256 161.485 15.585C161.96 15.4443 162.353 15.207 162.663 14.873V11.999H159.701V10.6279H164.342V15.3213ZM171.505 8.94922C171.259 8.9082 170.992 8.8877 170.705 8.8877C169.639 8.8877 168.915 9.3418 168.534 10.25V17H166.908V7.49023H168.49L168.517 8.58887C169.05 7.73926 169.806 7.31445 170.784 7.31445C171.101 7.31445 171.341 7.35547 171.505 7.4375V8.94922ZM176.778 17.1758C175.489 17.1758 174.44 16.7539 173.632 15.9102C172.823 15.0605 172.419 13.9268 172.419 12.5088V12.21C172.419 11.2666 172.598 10.4258 172.955 9.6875C173.318 8.94336 173.822 8.36328 174.467 7.94727C175.117 7.52539 175.82 7.31445 176.576 7.31445C177.812 7.31445 178.773 7.72168 179.459 8.53613C180.145 9.35059 180.487 10.5166 180.487 12.0342V12.7109H174.045C174.068 13.6484 174.341 14.4072 174.862 14.9873C175.39 15.5615 176.058 15.8486 176.866 15.8486C177.44 15.8486 177.927 15.7314 178.325 15.4971C178.724 15.2627 179.072 14.9521 179.371 14.5654L180.364 15.3389C179.567 16.5635 178.372 17.1758 176.778 17.1758ZM176.576 8.65039C175.92 8.65039 175.369 8.89062 174.924 9.37109C174.479 9.8457 174.203 10.5137 174.098 11.375H178.861V11.252C178.814 10.4258 178.592 9.78711 178.193 9.33594C177.795 8.87891 177.256 8.65039 176.576 8.65039ZM188.248 17C188.154 16.8125 188.078 16.4785 188.02 15.998C187.264 16.7832 186.361 17.1758 185.312 17.1758C184.375 17.1758 183.604 16.9121 183.001 16.3848C182.403 15.8516 182.104 15.1777 182.104 14.3633C182.104 13.373 182.479 12.6055 183.229 12.0605C183.985 11.5098 185.046 11.2344 186.411 11.2344H187.993V10.4873C187.993 9.91895 187.823 9.46777 187.483 9.13379C187.144 8.79395 186.643 8.62402 185.98 8.62402C185.4 8.62402 184.914 8.77051 184.521 9.06348C184.129 9.35645 183.933 9.71094 183.933 10.127H182.298C182.298 9.65234 182.465 9.19531 182.799 8.75586C183.139 8.31055 183.596 7.95898 184.17 7.70117C184.75 7.44336 185.386 7.31445 186.077 7.31445C187.173 7.31445 188.031 7.58984 188.652 8.14062C189.273 8.68555 189.596 9.43848 189.619 10.3994V14.7764C189.619 15.6494 189.73 16.3438 189.953 16.8594V17H188.248ZM185.55 15.7607C186.06 15.7607 186.543 15.6289 187 15.3652C187.457 15.1016 187.788 14.7588 187.993 14.3369V12.3857H186.719C184.727 12.3857 183.73 12.9688 183.73 14.1348C183.73 14.6445 183.9 15.043 184.24 15.3301C184.58 15.6172 185.017 15.7607 185.55 15.7607ZM194.374 5.1875V7.49023H196.149V8.74707H194.374V14.6445C194.374 15.0254 194.453 15.3125 194.611 15.5059C194.77 15.6934 195.039 15.7871 195.42 15.7871C195.607 15.7871 195.865 15.752 196.193 15.6816V17C195.766 17.1172 195.35 17.1758 194.945 17.1758C194.219 17.1758 193.671 16.9561 193.302 16.5166C192.933 16.0771 192.748 15.4531 192.748 14.6445V8.74707H191.017V7.49023H192.748V5.1875H194.374ZM20.5439 35.4775C20.5439 35.0381 20.377 34.6982 20.043 34.458C19.7148 34.2119 19.1377 34.001 18.3115 33.8252C17.4912 33.6494 16.8379 33.4385 16.3516 33.1924C15.8711 32.9463 15.5137 32.6533 15.2793 32.3135C15.0508 31.9736 14.9365 31.5693 14.9365 31.1006C14.9365 30.3213 15.2646 29.6621 15.9209 29.123C16.583 28.584 17.4268 28.3145 18.4521 28.3145C19.5303 28.3145 20.4033 28.5928 21.0713 29.1494C21.7451 29.7061 22.082 30.418 22.082 31.2852H20.4473C20.4473 30.8398 20.2568 30.4561 19.876 30.1338C19.501 29.8115 19.0264 29.6504 18.4521 29.6504C17.8604 29.6504 17.3975 29.7793 17.0635 30.0371C16.7295 30.2949 16.5625 30.6318 16.5625 31.0479C16.5625 31.4404 16.7178 31.7363 17.0283 31.9355C17.3389 32.1348 17.8984 32.3252 18.707 32.5068C19.5215 32.6885 20.1807 32.9053 20.6846 33.1572C21.1885 33.4092 21.5605 33.7139 21.8008 34.0713C22.0469 34.4229 22.1699 34.8535 22.1699 35.3633C22.1699 36.2129 21.8301 36.8955 21.1504 37.4111C20.4707 37.9209 19.5889 38.1758 18.5049 38.1758C17.7432 38.1758 17.0693 38.041 16.4834 37.7715C15.8975 37.502 15.4375 37.127 15.1035 36.6465C14.7754 36.1602 14.6113 35.6357 14.6113 35.0732H16.2373C16.2666 35.6182 16.4834 36.0518 16.8877 36.374C17.2979 36.6904 17.8369 36.8486 18.5049 36.8486C19.1201 36.8486 19.6123 36.7256 19.9814 36.4795C20.3564 36.2275 20.5439 35.8936 20.5439 35.4775ZM28.2344 38.1758C26.9453 38.1758 25.8965 37.7539 25.0879 36.9102C24.2793 36.0605 23.875 34.9268 23.875 33.5088V33.21C23.875 32.2666 24.0537 31.4258 24.4111 30.6875C24.7744 29.9434 25.2783 29.3633 25.9229 28.9473C26.5732 28.5254 27.2764 28.3145 28.0322 28.3145C29.2686 28.3145 30.2295 28.7217 30.915 29.5361C31.6006 30.3506 31.9434 31.5166 31.9434 33.0342V33.7109H25.501C25.5244 34.6484 25.7969 35.4072 26.3184 35.9873C26.8457 36.5615 27.5137 36.8486 28.3223 36.8486C28.8965 36.8486 29.3828 36.7314 29.7812 36.4971C30.1797 36.2627 30.5283 35.9521 30.8271 35.5654L31.8203 36.3389C31.0234 37.5635 29.8281 38.1758 28.2344 38.1758ZM28.0322 29.6504C27.376 29.6504 26.8252 29.8906 26.3799 30.3711C25.9346 30.8457 25.6592 31.5137 25.5537 32.375H30.3174V32.252C30.2705 31.4258 30.0479 30.7871 29.6494 30.3359C29.251 29.8789 28.7119 29.6504 28.0322 29.6504ZM38.4297 29.9492C38.1836 29.9082 37.917 29.8877 37.6299 29.8877C36.5635 29.8877 35.8398 30.3418 35.459 31.25V38H33.833V28.4902H35.415L35.4414 29.5889C35.9746 28.7393 36.7305 28.3145 37.709 28.3145C38.0254 28.3145 38.2656 28.3555 38.4297 28.4375V29.9492ZM43.2285 35.7939L45.584 28.4902H47.2451L43.835 38H42.5957L39.1504 28.4902H40.8115L43.2285 35.7939ZM50.5762 38H48.9502V28.4902H50.5762V38ZM48.8184 25.9678C48.8184 25.7041 48.8975 25.4814 49.0557 25.2998C49.2197 25.1182 49.46 25.0273 49.7764 25.0273C50.0928 25.0273 50.333 25.1182 50.4971 25.2998C50.6611 25.4814 50.7432 25.7041 50.7432 25.9678C50.7432 26.2314 50.6611 26.4512 50.4971 26.627C50.333 26.8027 50.0928 26.8906 49.7764 26.8906C49.46 26.8906 49.2197 26.8027 49.0557 26.627C48.8975 26.4512 48.8184 26.2314 48.8184 25.9678ZM57.001 36.8486C57.5811 36.8486 58.0879 36.6729 58.5215 36.3213C58.9551 35.9697 59.1953 35.5303 59.2422 35.0029H60.7803C60.751 35.5479 60.5635 36.0664 60.2178 36.5586C59.8721 37.0508 59.4092 37.4434 58.8291 37.7363C58.2549 38.0293 57.6455 38.1758 57.001 38.1758C55.7061 38.1758 54.6748 37.7451 53.9072 36.8838C53.1455 36.0166 52.7646 34.833 52.7646 33.333V33.0605C52.7646 32.1348 52.9346 31.3115 53.2744 30.5908C53.6143 29.8701 54.1006 29.3105 54.7334 28.9121C55.3721 28.5137 56.125 28.3145 56.9922 28.3145C58.0586 28.3145 58.9434 28.6338 59.6465 29.2725C60.3555 29.9111 60.7334 30.7402 60.7803 31.7598H59.2422C59.1953 31.1445 58.9609 30.6406 58.5391 30.248C58.123 29.8496 57.6074 29.6504 56.9922 29.6504C56.166 29.6504 55.5244 29.9492 55.0674 30.5469C54.6162 31.1387 54.3906 31.9971 54.3906 33.1221V33.4297C54.3906 34.5254 54.6162 35.3691 55.0674 35.9609C55.5186 36.5527 56.1631 36.8486 57.001 36.8486ZM66.5547 38.1758C65.2656 38.1758 64.2168 37.7539 63.4082 36.9102C62.5996 36.0605 62.1953 34.9268 62.1953 33.5088V33.21C62.1953 32.2666 62.374 31.4258 62.7314 30.6875C63.0947 29.9434 63.5986 29.3633 64.2432 28.9473C64.8936 28.5254 65.5967 28.3145 66.3525 28.3145C67.5889 28.3145 68.5498 28.7217 69.2354 29.5361C69.9209 30.3506 70.2637 31.5166 70.2637 33.0342V33.7109H63.8213C63.8447 34.6484 64.1172 35.4072 64.6387 35.9873C65.166 36.5615 65.834 36.8486 66.6426 36.8486C67.2168 36.8486 67.7031 36.7314 68.1016 36.4971C68.5 36.2627 68.8486 35.9521 69.1475 35.5654L70.1406 36.3389C69.3438 37.5635 68.1484 38.1758 66.5547 38.1758ZM66.3525 29.6504C65.6963 29.6504 65.1455 29.8906 64.7002 30.3711C64.2549 30.8457 63.9795 31.5137 63.874 32.375H68.6377V32.252C68.5908 31.4258 68.3682 30.7871 67.9697 30.3359C67.5713 29.8789 67.0322 29.6504 66.3525 29.6504ZM77.6904 35.4775C77.6904 35.0381 77.5234 34.6982 77.1895 34.458C76.8613 34.2119 76.2842 34.001 75.458 33.8252C74.6377 33.6494 73.9844 33.4385 73.498 33.1924C73.0176 32.9463 72.6602 32.6533 72.4258 32.3135C72.1973 31.9736 72.083 31.5693 72.083 31.1006C72.083 30.3213 72.4111 29.6621 73.0674 29.123C73.7295 28.584 74.5732 28.3145 75.5986 28.3145C76.6768 28.3145 77.5498 28.5928 78.2178 29.1494C78.8916 29.7061 79.2285 30.418 79.2285 31.2852H77.5938C77.5938 30.8398 77.4033 30.4561 77.0225 30.1338C76.6475 29.8115 76.1729 29.6504 75.5986 29.6504C75.0068 29.6504 74.5439 29.7793 74.21 30.0371C73.876 30.2949 73.709 30.6318 73.709 31.0479C73.709 31.4404 73.8643 31.7363 74.1748 31.9355C74.4854 32.1348 75.0449 32.3252 75.8535 32.5068C76.668 32.6885 77.3271 32.9053 77.8311 33.1572C78.335 33.4092 78.707 33.7139 78.9473 34.0713C79.1934 34.4229 79.3164 34.8535 79.3164 35.3633C79.3164 36.2129 78.9766 36.8955 78.2969 37.4111C77.6172 37.9209 76.7354 38.1758 75.6514 38.1758C74.8896 38.1758 74.2158 38.041 73.6299 37.7715C73.0439 37.502 72.584 37.127 72.25 36.6465C71.9219 36.1602 71.7578 35.6357 71.7578 35.0732H73.3838C73.4131 35.6182 73.6299 36.0518 74.0342 36.374C74.4443 36.6904 74.9834 36.8486 75.6514 36.8486C76.2666 36.8486 76.7588 36.7256 77.1279 36.4795C77.5029 36.2275 77.6904 35.8936 77.6904 35.4775ZM81.4697 37.1475C81.4697 36.8662 81.5518 36.6318 81.7158 36.4443C81.8857 36.2568 82.1377 36.1631 82.4717 36.1631C82.8057 36.1631 83.0576 36.2568 83.2275 36.4443C83.4033 36.6318 83.4912 36.8662 83.4912 37.1475C83.4912 37.417 83.4033 37.6426 83.2275 37.8242C83.0576 38.0059 82.8057 38.0967 82.4717 38.0967C82.1377 38.0967 81.8857 38.0059 81.7158 37.8242C81.5518 37.6426 81.4697 37.417 81.4697 37.1475ZM86.4355 38V25.2031H90.0479C91.1611 25.2031 92.1455 25.4492 93.001 25.9414C93.8564 26.4336 94.5156 27.1338 94.9785 28.042C95.4473 28.9502 95.6846 29.9932 95.6904 31.1709V31.9883C95.6904 33.1953 95.4561 34.2529 94.9873 35.1611C94.5244 36.0693 93.8594 36.7666 92.9922 37.2529C92.1309 37.7393 91.126 37.9883 89.9775 38H86.4355ZM88.123 26.5918V36.6201H89.8984C91.1992 36.6201 92.21 36.2158 92.9307 35.4072C93.6572 34.5986 94.0205 33.4473 94.0205 31.9531V31.2061C94.0205 29.7529 93.6777 28.625 92.9922 27.8223C92.3125 27.0137 91.3457 26.6035 90.0918 26.5918H88.123ZM101.939 38.1758C100.65 38.1758 99.6016 37.7539 98.793 36.9102C97.9844 36.0605 97.5801 34.9268 97.5801 33.5088V33.21C97.5801 32.2666 97.7588 31.4258 98.1162 30.6875C98.4795 29.9434 98.9834 29.3633 99.6279 28.9473C100.278 28.5254 100.981 28.3145 101.737 28.3145C102.974 28.3145 103.935 28.7217 104.62 29.5361C105.306 30.3506 105.648 31.5166 105.648 33.0342V33.7109H99.2061C99.2295 34.6484 99.502 35.4072 100.023 35.9873C100.551 36.5615 101.219 36.8486 102.027 36.8486C102.602 36.8486 103.088 36.7314 103.486 36.4971C103.885 36.2627 104.233 35.9521 104.532 35.5654L105.525 36.3389C104.729 37.5635 103.533 38.1758 101.939 38.1758ZM101.737 29.6504C101.081 29.6504 100.53 29.8906 100.085 30.3711C99.6396 30.8457 99.3643 31.5137 99.2588 32.375H104.022V32.252C103.976 31.4258 103.753 30.7871 103.354 30.3359C102.956 29.8789 102.417 29.6504 101.737 29.6504ZM108.083 38V29.7471H106.58V28.4902H108.083V27.6816C108.083 26.6211 108.385 25.7949 108.988 25.2031C109.598 24.6113 110.456 24.3154 111.563 24.3154C112.22 24.3154 113.049 24.4941 114.051 24.8516L113.778 26.2227C113.046 25.9297 112.349 25.7832 111.687 25.7832C110.989 25.7832 110.485 25.9414 110.175 26.2578C109.87 26.5684 109.718 27.0371 109.718 27.6641V28.4902H111.66V29.7471H109.718V38H108.083ZM114.859 38H113.225V28.4902H114.859V38ZM119.043 28.4902L119.096 29.6855C119.822 28.7715 120.771 28.3145 121.943 28.3145C123.953 28.3145 124.967 29.4482 124.984 31.7158V38H123.358V31.707C123.353 31.0215 123.194 30.5146 122.884 30.1865C122.579 29.8584 122.102 29.6943 121.451 29.6943C120.924 29.6943 120.461 29.835 120.062 30.1162C119.664 30.3975 119.354 30.7666 119.131 31.2236V38H117.505V28.4902H119.043ZM129.203 38H127.577V28.4902H129.203V38ZM127.445 25.9678C127.445 25.7041 127.524 25.4814 127.683 25.2998C127.847 25.1182 128.087 25.0273 128.403 25.0273C128.72 25.0273 128.96 25.1182 129.124 25.2998C129.288 25.4814 129.37 25.7041 129.37 25.9678C129.37 26.2314 129.288 26.4512 129.124 26.627C128.96 26.8027 128.72 26.8906 128.403 26.8906C128.087 26.8906 127.847 26.8027 127.683 26.627C127.524 26.4512 127.445 26.2314 127.445 25.9678ZM134.02 26.1875V28.4902H135.795V29.7471H134.02V35.6445C134.02 36.0254 134.099 36.3125 134.257 36.5059C134.415 36.6934 134.685 36.7871 135.065 36.7871C135.253 36.7871 135.511 36.752 135.839 36.6816V38C135.411 38.1172 134.995 38.1758 134.591 38.1758C133.864 38.1758 133.316 37.9561 132.947 37.5166C132.578 37.0771 132.394 36.4531 132.394 35.6445V29.7471H130.662V28.4902H132.394V26.1875H134.02ZM141.648 38.1758C140.359 38.1758 139.311 37.7539 138.502 36.9102C137.693 36.0605 137.289 34.9268 137.289 33.5088V33.21C137.289 32.2666 137.468 31.4258 137.825 30.6875C138.188 29.9434 138.692 29.3633 139.337 28.9473C139.987 28.5254 140.69 28.3145 141.446 28.3145C142.683 28.3145 143.644 28.7217 144.329 29.5361C145.015 30.3506 145.357 31.5166 145.357 33.0342V33.7109H138.915C138.938 34.6484 139.211 35.4072 139.732 35.9873C140.26 36.5615 140.928 36.8486 141.736 36.8486C142.311 36.8486 142.797 36.7314 143.195 36.4971C143.594 36.2627 143.942 35.9521 144.241 35.5654L145.234 36.3389C144.438 37.5635 143.242 38.1758 141.648 38.1758ZM141.446 29.6504C140.79 29.6504 140.239 29.8906 139.794 30.3711C139.349 30.8457 139.073 31.5137 138.968 32.375H143.731V32.252C143.685 31.4258 143.462 30.7871 143.063 30.3359C142.665 29.8789 142.126 29.6504 141.446 29.6504ZM149.014 38H147.388V24.5H149.014V38ZM154.735 35.6182L156.95 28.4902H158.69L154.867 39.4678C154.275 41.0498 153.335 41.8408 152.046 41.8408L151.738 41.8145L151.132 41.7002V40.3818L151.571 40.417C152.122 40.417 152.55 40.3057 152.854 40.083C153.165 39.8604 153.42 39.4531 153.619 38.8613L153.979 37.8945L150.587 28.4902H152.362L154.735 35.6182ZM174.713 32.0146C174.713 33.2686 174.502 34.3643 174.08 35.3018C173.658 36.2334 173.061 36.9453 172.287 37.4375C171.514 37.9297 170.611 38.1758 169.58 38.1758C168.572 38.1758 167.679 37.9297 166.899 37.4375C166.12 36.9395 165.514 36.2334 165.08 35.3193C164.652 34.3994 164.433 33.3359 164.421 32.1289V31.2061C164.421 29.9756 164.635 28.8887 165.062 27.9453C165.49 27.002 166.094 26.2812 166.873 25.7832C167.658 25.2793 168.555 25.0273 169.562 25.0273C170.588 25.0273 171.49 25.2764 172.27 25.7744C173.055 26.2666 173.658 26.9844 174.08 27.9277C174.502 28.8652 174.713 29.958 174.713 31.2061V32.0146ZM173.034 31.1885C173.034 29.6709 172.729 28.5078 172.12 27.6992C171.511 26.8848 170.658 26.4775 169.562 26.4775C168.496 26.4775 167.655 26.8848 167.04 27.6992C166.431 28.5078 166.117 29.6328 166.1 31.0742V32.0146C166.1 33.4854 166.407 34.6426 167.022 35.4863C167.644 36.3242 168.496 36.7432 169.58 36.7432C170.67 36.7432 171.514 36.3477 172.111 35.5566C172.709 34.7598 173.017 33.6201 173.034 32.1377V31.1885ZM178.527 28.4902L178.58 29.6855C179.307 28.7715 180.256 28.3145 181.428 28.3145C183.438 28.3145 184.451 29.4482 184.469 31.7158V38H182.843V31.707C182.837 31.0215 182.679 30.5146 182.368 30.1865C182.063 29.8584 181.586 29.6943 180.936 29.6943C180.408 29.6943 179.945 29.835 179.547 30.1162C179.148 30.3975 178.838 30.7666 178.615 31.2236V38H176.989V28.4902H178.527ZM190.867 38.1758C189.578 38.1758 188.529 37.7539 187.721 36.9102C186.912 36.0605 186.508 34.9268 186.508 33.5088V33.21C186.508 32.2666 186.687 31.4258 187.044 30.6875C187.407 29.9434 187.911 29.3633 188.556 28.9473C189.206 28.5254 189.909 28.3145 190.665 28.3145C191.901 28.3145 192.862 28.7217 193.548 29.5361C194.233 30.3506 194.576 31.5166 194.576 33.0342V33.7109H188.134C188.157 34.6484 188.43 35.4072 188.951 35.9873C189.479 36.5615 190.146 36.8486 190.955 36.8486C191.529 36.8486 192.016 36.7314 192.414 36.4971C192.812 36.2627 193.161 35.9521 193.46 35.5654L194.453 36.3389C193.656 37.5635 192.461 38.1758 190.867 38.1758ZM190.665 29.6504C190.009 29.6504 189.458 29.8906 189.013 30.3711C188.567 30.8457 188.292 31.5137 188.187 32.375H192.95V32.252C192.903 31.4258 192.681 30.7871 192.282 30.3359C191.884 29.8789 191.345 29.6504 190.665 29.6504ZM200.5 33.1572C200.5 32.2256 200.682 31.3877 201.045 30.6436C201.414 29.8994 201.924 29.3252 202.574 28.9209C203.23 28.5166 203.978 28.3145 204.815 28.3145C206.11 28.3145 207.156 28.7627 207.953 29.6592C208.756 30.5557 209.157 31.748 209.157 33.2363V33.3506C209.157 34.2764 208.979 35.1084 208.621 35.8467C208.27 36.5791 207.763 37.1504 207.101 37.5605C206.444 37.9707 205.688 38.1758 204.833 38.1758C203.544 38.1758 202.498 37.7275 201.695 36.8311C200.898 35.9346 200.5 34.748 200.5 33.2715V33.1572ZM202.135 33.3506C202.135 34.4053 202.378 35.252 202.864 35.8906C203.356 36.5293 204.013 36.8486 204.833 36.8486C205.659 36.8486 206.315 36.5264 206.802 35.8818C207.288 35.2314 207.531 34.3232 207.531 33.1572C207.531 32.1143 207.282 31.2705 206.784 30.626C206.292 29.9756 205.636 29.6504 204.815 29.6504C204.013 29.6504 203.365 29.9697 202.873 30.6084C202.381 31.2471 202.135 32.1611 202.135 33.3506ZM211.996 38V29.7471H210.493V28.4902H211.996V27.5146C211.996 26.4951 212.269 25.707 212.813 25.1504C213.358 24.5938 214.129 24.3154 215.125 24.3154C215.5 24.3154 215.872 24.3652 216.241 24.4648L216.153 25.7832C215.878 25.7305 215.585 25.7041 215.274 25.7041C214.747 25.7041 214.34 25.8594 214.053 26.1699C213.766 26.4746 213.622 26.9141 213.622 27.4883V28.4902H215.652V29.7471H213.622V38H211.996ZM14.3652 47.1875V49.4902H16.1406V50.7471H14.3652V56.6445C14.3652 57.0254 14.4443 57.3125 14.6025 57.5059C14.7607 57.6934 15.0303 57.7871 15.4111 57.7871C15.5986 57.7871 15.8564 57.752 16.1846 57.6816V59C15.7568 59.1172 15.3408 59.1758 14.9365 59.1758C14.21 59.1758 13.6621 58.9561 13.293 58.5166C12.9238 58.0771 12.7393 57.4531 12.7393 56.6445V50.7471H11.0078V49.4902H12.7393V47.1875H14.3652ZM19.6738 50.6416C20.3945 49.7568 21.332 49.3145 22.4863 49.3145C24.4961 49.3145 25.5098 50.4482 25.5273 52.7158V59H23.9014V52.707C23.8955 52.0215 23.7373 51.5146 23.4268 51.1865C23.1221 50.8584 22.6445 50.6943 21.9941 50.6943C21.4668 50.6943 21.0039 50.835 20.6055 51.1162C20.207 51.3975 19.8965 51.7666 19.6738 52.2236V59H18.0479V45.5H19.6738V50.6416ZM31.9082 59.1758C30.6191 59.1758 29.5703 58.7539 28.7617 57.9102C27.9531 57.0605 27.5488 55.9268 27.5488 54.5088V54.21C27.5488 53.2666 27.7275 52.4258 28.085 51.6875C28.4482 50.9434 28.9521 50.3633 29.5967 49.9473C30.2471 49.5254 30.9502 49.3145 31.7061 49.3145C32.9424 49.3145 33.9033 49.7217 34.5889 50.5361C35.2744 51.3506 35.6172 52.5166 35.6172 54.0342V54.7109H29.1748C29.1982 55.6484 29.4707 56.4072 29.9922 56.9873C30.5195 57.5615 31.1875 57.8486 31.9961 57.8486C32.5703 57.8486 33.0566 57.7314 33.4551 57.4971C33.8535 57.2627 34.2021 56.9521 34.501 56.5654L35.4941 57.3389C34.6973 58.5635 33.502 59.1758 31.9082 59.1758ZM31.7061 50.6504C31.0498 50.6504 30.499 50.8906 30.0537 51.3711C29.6084 51.8457 29.333 52.5137 29.2275 53.375H33.9912V53.252C33.9443 52.4258 33.7217 51.7871 33.3232 51.3359C32.9248 50.8789 32.3857 50.6504 31.7061 50.6504ZM50.0225 54.3506C50.0225 55.8037 49.6885 56.9727 49.0205 57.8574C48.3525 58.7363 47.4561 59.1758 46.3311 59.1758C45.1299 59.1758 44.2012 58.751 43.5449 57.9014L43.4658 59H41.9717V45.5H43.5977V50.5361C44.2539 49.7217 45.1592 49.3145 46.3135 49.3145C47.4678 49.3145 48.373 49.751 49.0293 50.624C49.6914 51.4971 50.0225 52.6924 50.0225 54.21V54.3506ZM48.3965 54.166C48.3965 53.0586 48.1826 52.2031 47.7549 51.5996C47.3271 50.9961 46.7119 50.6943 45.9092 50.6943C44.8369 50.6943 44.0664 51.1924 43.5977 52.1885V56.3018C44.0957 57.2979 44.8721 57.7959 45.9268 57.7959C46.7061 57.7959 47.3125 57.4941 47.7461 56.8906C48.1797 56.2871 48.3965 55.3789 48.3965 54.166ZM56.0254 59.1758C54.7363 59.1758 53.6875 58.7539 52.8789 57.9102C52.0703 57.0605 51.666 55.9268 51.666 54.5088V54.21C51.666 53.2666 51.8447 52.4258 52.2021 51.6875C52.5654 50.9434 53.0693 50.3633 53.7139 49.9473C54.3643 49.5254 55.0674 49.3145 55.8232 49.3145C57.0596 49.3145 58.0205 49.7217 58.7061 50.5361C59.3916 51.3506 59.7344 52.5166 59.7344 54.0342V54.7109H53.292C53.3154 55.6484 53.5879 56.4072 54.1094 56.9873C54.6367 57.5615 55.3047 57.8486 56.1133 57.8486C56.6875 57.8486 57.1738 57.7314 57.5723 57.4971C57.9707 57.2627 58.3193 56.9521 58.6182 56.5654L59.6113 57.3389C58.8145 58.5635 57.6191 59.1758 56.0254 59.1758ZM55.8232 50.6504C55.167 50.6504 54.6162 50.8906 54.1709 51.3711C53.7256 51.8457 53.4502 52.5137 53.3447 53.375H58.1084V53.252C58.0615 52.4258 57.8389 51.7871 57.4404 51.3359C57.042 50.8789 56.5029 50.6504 55.8232 50.6504ZM67.1611 56.4775C67.1611 56.0381 66.9941 55.6982 66.6602 55.458C66.332 55.2119 65.7549 55.001 64.9287 54.8252C64.1084 54.6494 63.4551 54.4385 62.9688 54.1924C62.4883 53.9463 62.1309 53.6533 61.8965 53.3135C61.668 52.9736 61.5537 52.5693 61.5537 52.1006C61.5537 51.3213 61.8818 50.6621 62.5381 50.123C63.2002 49.584 64.0439 49.3145 65.0693 49.3145C66.1475 49.3145 67.0205 49.5928 67.6885 50.1494C68.3623 50.7061 68.6992 51.418 68.6992 52.2852H67.0645C67.0645 51.8398 66.874 51.4561 66.4932 51.1338C66.1182 50.8115 65.6436 50.6504 65.0693 50.6504C64.4775 50.6504 64.0146 50.7793 63.6807 51.0371C63.3467 51.2949 63.1797 51.6318 63.1797 52.0479C63.1797 52.4404 63.335 52.7363 63.6455 52.9355C63.9561 53.1348 64.5156 53.3252 65.3242 53.5068C66.1387 53.6885 66.7979 53.9053 67.3018 54.1572C67.8057 54.4092 68.1777 54.7139 68.418 55.0713C68.6641 55.4229 68.7871 55.8535 68.7871 56.3633C68.7871 57.2129 68.4473 57.8955 67.7676 58.4111C67.0879 58.9209 66.2061 59.1758 65.1221 59.1758C64.3604 59.1758 63.6865 59.041 63.1006 58.7715C62.5146 58.502 62.0547 58.127 61.7207 57.6465C61.3926 57.1602 61.2285 56.6357 61.2285 56.0732H62.8545C62.8838 56.6182 63.1006 57.0518 63.5049 57.374C63.915 57.6904 64.4541 57.8486 65.1221 57.8486C65.7373 57.8486 66.2295 57.7256 66.5986 57.4795C66.9736 57.2275 67.1611 56.8936 67.1611 56.4775ZM73.1113 47.1875V49.4902H74.8867V50.7471H73.1113V56.6445C73.1113 57.0254 73.1904 57.3125 73.3486 57.5059C73.5068 57.6934 73.7764 57.7871 74.1572 57.7871C74.3447 57.7871 74.6025 57.752 74.9307 57.6816V59C74.5029 59.1172 74.0869 59.1758 73.6826 59.1758C72.9561 59.1758 72.4082 58.9561 72.0391 58.5166C71.6699 58.0771 71.4854 57.4531 71.4854 56.6445V50.7471H69.7539V49.4902H71.4854V47.1875H73.1113ZM83.4648 47.1875V49.4902H85.2402V50.7471H83.4648V56.6445C83.4648 57.0254 83.5439 57.3125 83.7021 57.5059C83.8604 57.6934 84.1299 57.7871 84.5107 57.7871C84.6982 57.7871 84.9561 57.752 85.2842 57.6816V59C84.8564 59.1172 84.4404 59.1758 84.0361 59.1758C83.3096 59.1758 82.7617 58.9561 82.3926 58.5166C82.0234 58.0771 81.8389 57.4531 81.8389 56.6445V50.7471H80.1074V49.4902H81.8389V47.1875H83.4648ZM91.7441 50.9492C91.498 50.9082 91.2314 50.8877 90.9443 50.8877C89.8779 50.8877 89.1543 51.3418 88.7734 52.25V59H87.1475V49.4902H88.7295L88.7559 50.5889C89.2891 49.7393 90.0449 49.3145 91.0234 49.3145C91.3398 49.3145 91.5801 49.3555 91.7441 49.4375V50.9492ZM98.7666 59C98.6729 58.8125 98.5967 58.4785 98.5381 57.998C97.7822 58.7832 96.8799 59.1758 95.8311 59.1758C94.8936 59.1758 94.123 58.9121 93.5195 58.3848C92.9219 57.8516 92.623 57.1777 92.623 56.3633C92.623 55.373 92.998 54.6055 93.748 54.0605C94.5039 53.5098 95.5645 53.2344 96.9297 53.2344H98.5117V52.4873C98.5117 51.9189 98.3418 51.4678 98.002 51.1338C97.6621 50.7939 97.1611 50.624 96.499 50.624C95.9189 50.624 95.4326 50.7705 95.04 51.0635C94.6475 51.3564 94.4512 51.7109 94.4512 52.127H92.8164C92.8164 51.6523 92.9834 51.1953 93.3174 50.7559C93.6572 50.3105 94.1143 49.959 94.6885 49.7012C95.2686 49.4434 95.9043 49.3145 96.5957 49.3145C97.6914 49.3145 98.5498 49.5898 99.1709 50.1406C99.792 50.6855 100.114 51.4385 100.138 52.3994V56.7764C100.138 57.6494 100.249 58.3438 100.472 58.8594V59H98.7666ZM96.0684 57.7607C96.5781 57.7607 97.0615 57.6289 97.5186 57.3652C97.9756 57.1016 98.3066 56.7588 98.5117 56.3369V54.3857H97.2373C95.2451 54.3857 94.249 54.9688 94.249 56.1348C94.249 56.6445 94.4189 57.043 94.7588 57.3301C95.0986 57.6172 95.5352 57.7607 96.0684 57.7607ZM105.684 56.7939L108.039 49.4902H109.7L106.29 59H105.051L101.605 49.4902H103.267L105.684 56.7939ZM115.088 59.1758C113.799 59.1758 112.75 58.7539 111.941 57.9102C111.133 57.0605 110.729 55.9268 110.729 54.5088V54.21C110.729 53.2666 110.907 52.4258 111.265 51.6875C111.628 50.9434 112.132 50.3633 112.776 49.9473C113.427 49.5254 114.13 49.3145 114.886 49.3145C116.122 49.3145 117.083 49.7217 117.769 50.5361C118.454 51.3506 118.797 52.5166 118.797 54.0342V54.7109H112.354C112.378 55.6484 112.65 56.4072 113.172 56.9873C113.699 57.5615 114.367 57.8486 115.176 57.8486C115.75 57.8486 116.236 57.7314 116.635 57.4971C117.033 57.2627 117.382 56.9521 117.681 56.5654L118.674 57.3389C117.877 58.5635 116.682 59.1758 115.088 59.1758ZM114.886 50.6504C114.229 50.6504 113.679 50.8906 113.233 51.3711C112.788 51.8457 112.513 52.5137 112.407 53.375H117.171V53.252C117.124 52.4258 116.901 51.7871 116.503 51.3359C116.104 50.8789 115.565 50.6504 114.886 50.6504ZM122.453 59H120.827V45.5H122.453V59ZM135.399 59C135.306 58.8125 135.229 58.4785 135.171 57.998C134.415 58.7832 133.513 59.1758 132.464 59.1758C131.526 59.1758 130.756 58.9121 130.152 58.3848C129.555 57.8516 129.256 57.1777 129.256 56.3633C129.256 55.373 129.631 54.6055 130.381 54.0605C131.137 53.5098 132.197 53.2344 133.562 53.2344H135.145V52.4873C135.145 51.9189 134.975 51.4678 134.635 51.1338C134.295 50.7939 133.794 50.624 133.132 50.624C132.552 50.624 132.065 50.7705 131.673 51.0635C131.28 51.3564 131.084 51.7109 131.084 52.127H129.449C129.449 51.6523 129.616 51.1953 129.95 50.7559C130.29 50.3105 130.747 49.959 131.321 49.7012C131.901 49.4434 132.537 49.3145 133.229 49.3145C134.324 49.3145 135.183 49.5898 135.804 50.1406C136.425 50.6855 136.747 51.4385 136.771 52.3994V56.7764C136.771 57.6494 136.882 58.3438 137.104 58.8594V59H135.399ZM132.701 57.7607C133.211 57.7607 133.694 57.6289 134.151 57.3652C134.608 57.1016 134.939 56.7588 135.145 56.3369V54.3857H133.87C131.878 54.3857 130.882 54.9688 130.882 56.1348C130.882 56.6445 131.052 57.043 131.392 57.3301C131.731 57.6172 132.168 57.7607 132.701 57.7607ZM138.933 54.166C138.933 52.6836 139.275 51.5059 139.961 50.6328C140.646 49.7539 141.555 49.3145 142.686 49.3145C143.846 49.3145 144.751 49.7246 145.401 50.5449L145.48 49.4902H146.966V58.7715C146.966 60.002 146.6 60.9717 145.867 61.6807C145.141 62.3896 144.162 62.7441 142.932 62.7441C142.246 62.7441 141.575 62.5977 140.919 62.3047C140.263 62.0117 139.762 61.6104 139.416 61.1006L140.26 60.125C140.957 60.9863 141.81 61.417 142.817 61.417C143.608 61.417 144.224 61.1943 144.663 60.749C145.108 60.3037 145.331 59.6768 145.331 58.8682V58.0508C144.681 58.8008 143.793 59.1758 142.668 59.1758C141.555 59.1758 140.652 58.7275 139.961 57.8311C139.275 56.9346 138.933 55.7129 138.933 54.166ZM140.567 54.3506C140.567 55.4229 140.787 56.2666 141.227 56.8818C141.666 57.4912 142.281 57.7959 143.072 57.7959C144.098 57.7959 144.851 57.3301 145.331 56.3984V52.0566C144.833 51.1484 144.086 50.6943 143.09 50.6943C142.299 50.6943 141.681 51.002 141.235 51.6172C140.79 52.2324 140.567 53.1436 140.567 54.3506ZM153.373 59.1758C152.084 59.1758 151.035 58.7539 150.227 57.9102C149.418 57.0605 149.014 55.9268 149.014 54.5088V54.21C149.014 53.2666 149.192 52.4258 149.55 51.6875C149.913 50.9434 150.417 50.3633 151.062 49.9473C151.712 49.5254 152.415 49.3145 153.171 49.3145C154.407 49.3145 155.368 49.7217 156.054 50.5361C156.739 51.3506 157.082 52.5166 157.082 54.0342V54.7109H150.64C150.663 55.6484 150.936 56.4072 151.457 56.9873C151.984 57.5615 152.652 57.8486 153.461 57.8486C154.035 57.8486 154.521 57.7314 154.92 57.4971C155.318 57.2627 155.667 56.9521 155.966 56.5654L156.959 57.3389C156.162 58.5635 154.967 59.1758 153.373 59.1758ZM153.171 50.6504C152.515 50.6504 151.964 50.8906 151.519 51.3711C151.073 51.8457 150.798 52.5137 150.692 53.375H155.456V53.252C155.409 52.4258 155.187 51.7871 154.788 51.3359C154.39 50.8789 153.851 50.6504 153.171 50.6504ZM160.51 49.4902L160.562 50.6855C161.289 49.7715 162.238 49.3145 163.41 49.3145C165.42 49.3145 166.434 50.4482 166.451 52.7158V59H164.825V52.707C164.819 52.0215 164.661 51.5146 164.351 51.1865C164.046 50.8584 163.568 50.6943 162.918 50.6943C162.391 50.6943 161.928 50.835 161.529 51.1162C161.131 51.3975 160.82 51.7666 160.598 52.2236V59H158.972V49.4902H160.51ZM172.718 57.8486C173.298 57.8486 173.805 57.6729 174.238 57.3213C174.672 56.9697 174.912 56.5303 174.959 56.0029H176.497C176.468 56.5479 176.28 57.0664 175.935 57.5586C175.589 58.0508 175.126 58.4434 174.546 58.7363C173.972 59.0293 173.362 59.1758 172.718 59.1758C171.423 59.1758 170.392 58.7451 169.624 57.8838C168.862 57.0166 168.481 55.833 168.481 54.333V54.0605C168.481 53.1348 168.651 52.3115 168.991 51.5908C169.331 50.8701 169.817 50.3105 170.45 49.9121C171.089 49.5137 171.842 49.3145 172.709 49.3145C173.775 49.3145 174.66 49.6338 175.363 50.2725C176.072 50.9111 176.45 51.7402 176.497 52.7598H174.959C174.912 52.1445 174.678 51.6406 174.256 51.248C173.84 50.8496 173.324 50.6504 172.709 50.6504C171.883 50.6504 171.241 50.9492 170.784 51.5469C170.333 52.1387 170.107 52.9971 170.107 54.1221V54.4297C170.107 55.5254 170.333 56.3691 170.784 56.9609C171.235 57.5527 171.88 57.8486 172.718 57.8486ZM180.092 59H178.466V49.4902H180.092V59ZM178.334 46.9678C178.334 46.7041 178.413 46.4814 178.571 46.2998C178.735 46.1182 178.976 46.0273 179.292 46.0273C179.608 46.0273 179.849 46.1182 180.013 46.2998C180.177 46.4814 180.259 46.7041 180.259 46.9678C180.259 47.2314 180.177 47.4512 180.013 47.627C179.849 47.8027 179.608 47.8906 179.292 47.8906C178.976 47.8906 178.735 47.8027 178.571 47.627C178.413 47.4512 178.334 47.2314 178.334 46.9678ZM186.648 59.1758C185.359 59.1758 184.311 58.7539 183.502 57.9102C182.693 57.0605 182.289 55.9268 182.289 54.5088V54.21C182.289 53.2666 182.468 52.4258 182.825 51.6875C183.188 50.9434 183.692 50.3633 184.337 49.9473C184.987 49.5254 185.69 49.3145 186.446 49.3145C187.683 49.3145 188.644 49.7217 189.329 50.5361C190.015 51.3506 190.357 52.5166 190.357 54.0342V54.7109H183.915C183.938 55.6484 184.211 56.4072 184.732 56.9873C185.26 57.5615 185.928 57.8486 186.736 57.8486C187.311 57.8486 187.797 57.7314 188.195 57.4971C188.594 57.2627 188.942 56.9521 189.241 56.5654L190.234 57.3389C189.438 58.5635 188.242 59.1758 186.648 59.1758ZM186.446 50.6504C185.79 50.6504 185.239 50.8906 184.794 51.3711C184.349 51.8457 184.073 52.5137 183.968 53.375H188.731V53.252C188.685 52.4258 188.462 51.7871 188.063 51.3359C187.665 50.8789 187.126 50.6504 186.446 50.6504ZM197.784 56.4775C197.784 56.0381 197.617 55.6982 197.283 55.458C196.955 55.2119 196.378 55.001 195.552 54.8252C194.731 54.6494 194.078 54.4385 193.592 54.1924C193.111 53.9463 192.754 53.6533 192.52 53.3135C192.291 52.9736 192.177 52.5693 192.177 52.1006C192.177 51.3213 192.505 50.6621 193.161 50.123C193.823 49.584 194.667 49.3145 195.692 49.3145C196.771 49.3145 197.644 49.5928 198.312 50.1494C198.985 50.7061 199.322 51.418 199.322 52.2852H197.688C197.688 51.8398 197.497 51.4561 197.116 51.1338C196.741 50.8115 196.267 50.6504 195.692 50.6504C195.101 50.6504 194.638 50.7793 194.304 51.0371C193.97 51.2949 193.803 51.6318 193.803 52.0479C193.803 52.4404 193.958 52.7363 194.269 52.9355C194.579 53.1348 195.139 53.3252 195.947 53.5068C196.762 53.6885 197.421 53.9053 197.925 54.1572C198.429 54.4092 198.801 54.7139 199.041 55.0713C199.287 55.4229 199.41 55.8535 199.41 56.3633C199.41 57.2129 199.07 57.8955 198.391 58.4111C197.711 58.9209 196.829 59.1758 195.745 59.1758C194.983 59.1758 194.31 59.041 193.724 58.7715C193.138 58.502 192.678 58.127 192.344 57.6465C192.016 57.1602 191.852 56.6357 191.852 56.0732H193.478C193.507 56.6182 193.724 57.0518 194.128 57.374C194.538 57.6904 195.077 57.8486 195.745 57.8486C196.36 57.8486 196.853 57.7256 197.222 57.4795C197.597 57.2275 197.784 56.8936 197.784 56.4775ZM207.76 59H206.134V49.4902H207.76V59ZM206.002 46.9678C206.002 46.7041 206.081 46.4814 206.239 46.2998C206.403 46.1182 206.644 46.0273 206.96 46.0273C207.276 46.0273 207.517 46.1182 207.681 46.2998C207.845 46.4814 207.927 46.7041 207.927 46.9678C207.927 47.2314 207.845 47.4512 207.681 47.627C207.517 47.8027 207.276 47.8906 206.96 47.8906C206.644 47.8906 206.403 47.8027 206.239 47.627C206.081 47.4512 206.002 47.2314 206.002 46.9678ZM211.908 49.4902L211.961 50.6855C212.688 49.7715 213.637 49.3145 214.809 49.3145C216.818 49.3145 217.832 50.4482 217.85 52.7158V59H216.224V52.707C216.218 52.0215 216.06 51.5146 215.749 51.1865C215.444 50.8584 214.967 50.6943 214.316 50.6943C213.789 50.6943 213.326 50.835 212.928 51.1162C212.529 51.3975 212.219 51.7666 211.996 52.2236V59H210.37V49.4902H211.908ZM69.4287 80V67.2031H73.6123C75.001 67.2031 76.0439 67.4902 76.7412 68.0645C77.4443 68.6387 77.7959 69.4883 77.7959 70.6133C77.7959 71.2109 77.626 71.7412 77.2861 72.2041C76.9463 72.6611 76.4834 73.0156 75.8975 73.2676C76.5889 73.4609 77.1338 73.8301 77.5322 74.375C77.9365 74.9141 78.1387 75.5586 78.1387 76.3086C78.1387 77.457 77.7666 78.3594 77.0225 79.0156C76.2783 79.6719 75.2266 80 73.8672 80H69.4287ZM71.1162 74.0146V78.6201H73.9023C74.6875 78.6201 75.3057 78.418 75.7568 78.0137C76.2139 77.6035 76.4424 77.041 76.4424 76.3262C76.4424 74.7852 75.6045 74.0146 73.9287 74.0146H71.1162ZM71.1162 72.6611H73.665C74.4033 72.6611 74.9922 72.4766 75.4316 72.1074C75.877 71.7383 76.0996 71.2373 76.0996 70.6045C76.0996 69.9014 75.8945 69.3916 75.4844 69.0752C75.0742 68.7529 74.4502 68.5918 73.6123 68.5918H71.1162V72.6611ZM86.2598 80C86.166 79.8125 86.0898 79.4785 86.0312 78.998C85.2754 79.7832 84.373 80.1758 83.3242 80.1758C82.3867 80.1758 81.6162 79.9121 81.0127 79.3848C80.415 78.8516 80.1162 78.1777 80.1162 77.3633C80.1162 76.373 80.4912 75.6055 81.2412 75.0605C81.9971 74.5098 83.0576 74.2344 84.4229 74.2344H86.0049V73.4873C86.0049 72.9189 85.835 72.4678 85.4951 72.1338C85.1553 71.7939 84.6543 71.624 83.9922 71.624C83.4121 71.624 82.9258 71.7705 82.5332 72.0635C82.1406 72.3564 81.9443 72.7109 81.9443 73.127H80.3096C80.3096 72.6523 80.4766 72.1953 80.8105 71.7559C81.1504 71.3105 81.6074 70.959 82.1816 70.7012C82.7617 70.4434 83.3975 70.3145 84.0889 70.3145C85.1846 70.3145 86.043 70.5898 86.6641 71.1406C87.2852 71.6855 87.6074 72.4385 87.6309 73.3994V77.7764C87.6309 78.6494 87.7422 79.3438 87.9648 79.8594V80H86.2598ZM83.5615 78.7607C84.0713 78.7607 84.5547 78.6289 85.0117 78.3652C85.4688 78.1016 85.7998 77.7588 86.0049 77.3369V75.3857H84.7305C82.7383 75.3857 81.7422 75.9688 81.7422 77.1348C81.7422 77.6445 81.9121 78.043 82.252 78.3301C82.5918 78.6172 83.0283 78.7607 83.5615 78.7607ZM91.7178 70.4902L91.7705 71.6855C92.4971 70.7715 93.4463 70.3145 94.6182 70.3145C96.6279 70.3145 97.6416 71.4482 97.6592 73.7158V80H96.0332V73.707C96.0273 73.0215 95.8691 72.5146 95.5586 72.1865C95.2539 71.8584 94.7764 71.6943 94.126 71.6943C93.5986 71.6943 93.1357 71.835 92.7373 72.1162C92.3389 72.3975 92.0283 72.7666 91.8057 73.2236V80H90.1797V70.4902H91.7178ZM99.7246 75.166C99.7246 73.6836 100.067 72.5059 100.753 71.6328C101.438 70.7539 102.347 70.3145 103.478 70.3145C104.638 70.3145 105.543 70.7246 106.193 71.5449L106.272 70.4902H107.758V79.7715C107.758 81.002 107.392 81.9717 106.659 82.6807C105.933 83.3896 104.954 83.7441 103.724 83.7441C103.038 83.7441 102.367 83.5977 101.711 83.3047C101.055 83.0117 100.554 82.6104 100.208 82.1006L101.052 81.125C101.749 81.9863 102.602 82.417 103.609 82.417C104.4 82.417 105.016 82.1943 105.455 81.749C105.9 81.3037 106.123 80.6768 106.123 79.8682V79.0508C105.473 79.8008 104.585 80.1758 103.46 80.1758C102.347 80.1758 101.444 79.7275 100.753 78.8311C100.067 77.9346 99.7246 76.7129 99.7246 75.166ZM101.359 75.3506C101.359 76.4229 101.579 77.2666 102.019 77.8818C102.458 78.4912 103.073 78.7959 103.864 78.7959C104.89 78.7959 105.643 78.3301 106.123 77.3984V73.0566C105.625 72.1484 104.878 71.6943 103.882 71.6943C103.091 71.6943 102.473 72.002 102.027 72.6172C101.582 73.2324 101.359 74.1436 101.359 75.3506ZM111.985 80H110.359V66.5H111.985V80ZM120.467 80C120.373 79.8125 120.297 79.4785 120.238 78.998C119.482 79.7832 118.58 80.1758 117.531 80.1758C116.594 80.1758 115.823 79.9121 115.22 79.3848C114.622 78.8516 114.323 78.1777 114.323 77.3633C114.323 76.373 114.698 75.6055 115.448 75.0605C116.204 74.5098 117.265 74.2344 118.63 74.2344H120.212V73.4873C120.212 72.9189 120.042 72.4678 119.702 72.1338C119.362 71.7939 118.861 71.624 118.199 71.624C117.619 71.624 117.133 71.7705 116.74 72.0635C116.348 72.3564 116.151 72.7109 116.151 73.127H114.517C114.517 72.6523 114.684 72.1953 115.018 71.7559C115.357 71.3105 115.814 70.959 116.389 70.7012C116.969 70.4434 117.604 70.3145 118.296 70.3145C119.392 70.3145 120.25 70.5898 120.871 71.1406C121.492 71.6855 121.814 72.4385 121.838 73.3994V77.7764C121.838 78.6494 121.949 79.3438 122.172 79.8594V80H120.467ZM117.769 78.7607C118.278 78.7607 118.762 78.6289 119.219 78.3652C119.676 78.1016 120.007 77.7588 120.212 77.3369V75.3857H118.938C116.945 75.3857 115.949 75.9688 115.949 77.1348C115.949 77.6445 116.119 78.043 116.459 78.3301C116.799 78.6172 117.235 78.7607 117.769 78.7607ZM123.991 75.166C123.991 73.707 124.337 72.5352 125.028 71.6504C125.72 70.7598 126.625 70.3145 127.744 70.3145C128.857 70.3145 129.739 70.6953 130.39 71.457V66.5H132.016V80H130.521L130.442 78.9805C129.792 79.7773 128.887 80.1758 127.727 80.1758C126.625 80.1758 125.726 79.7246 125.028 78.8223C124.337 77.9199 123.991 76.7422 123.991 75.2891V75.166ZM125.617 75.3506C125.617 76.4287 125.84 77.2725 126.285 77.8818C126.73 78.4912 127.346 78.7959 128.131 78.7959C129.162 78.7959 129.915 78.333 130.39 77.4072V73.0391C129.903 72.1426 129.156 71.6943 128.148 71.6943C127.352 71.6943 126.73 72.002 126.285 72.6172C125.84 73.2324 125.617 74.1436 125.617 75.3506ZM138.493 80.1758C137.204 80.1758 136.155 79.7539 135.347 78.9102C134.538 78.0605 134.134 76.9268 134.134 75.5088V75.21C134.134 74.2666 134.312 73.4258 134.67 72.6875C135.033 71.9434 135.537 71.3633 136.182 70.9473C136.832 70.5254 137.535 70.3145 138.291 70.3145C139.527 70.3145 140.488 70.7217 141.174 71.5361C141.859 72.3506 142.202 73.5166 142.202 75.0342V75.7109H135.76C135.783 76.6484 136.056 77.4072 136.577 77.9873C137.104 78.5615 137.772 78.8486 138.581 78.8486C139.155 78.8486 139.642 78.7314 140.04 78.4971C140.438 78.2627 140.787 77.9521 141.086 77.5654L142.079 78.3389C141.282 79.5635 140.087 80.1758 138.493 80.1758ZM138.291 71.6504C137.635 71.6504 137.084 71.8906 136.639 72.3711C136.193 72.8457 135.918 73.5137 135.812 74.375H140.576V74.252C140.529 73.4258 140.307 72.7871 139.908 72.3359C139.51 71.8789 138.971 71.6504 138.291 71.6504ZM149.629 77.4775C149.629 77.0381 149.462 76.6982 149.128 76.458C148.8 76.2119 148.223 76.001 147.396 75.8252C146.576 75.6494 145.923 75.4385 145.437 75.1924C144.956 74.9463 144.599 74.6533 144.364 74.3135C144.136 73.9736 144.021 73.5693 144.021 73.1006C144.021 72.3213 144.35 71.6621 145.006 71.123C145.668 70.584 146.512 70.3145 147.537 70.3145C148.615 70.3145 149.488 70.5928 150.156 71.1494C150.83 71.7061 151.167 72.418 151.167 73.2852H149.532C149.532 72.8398 149.342 72.4561 148.961 72.1338C148.586 71.8115 148.111 71.6504 147.537 71.6504C146.945 71.6504 146.482 71.7793 146.148 72.0371C145.814 72.2949 145.647 72.6318 145.647 73.0479C145.647 73.4404 145.803 73.7363 146.113 73.9355C146.424 74.1348 146.983 74.3252 147.792 74.5068C148.606 74.6885 149.266 74.9053 149.77 75.1572C150.273 75.4092 150.646 75.7139 150.886 76.0713C151.132 76.4229 151.255 76.8535 151.255 77.3633C151.255 78.2129 150.915 78.8955 150.235 79.4111C149.556 79.9209 148.674 80.1758 147.59 80.1758C146.828 80.1758 146.154 80.041 145.568 79.7715C144.982 79.502 144.522 79.127 144.188 78.6465C143.86 78.1602 143.696 77.6357 143.696 77.0732H145.322C145.352 77.6182 145.568 78.0518 145.973 78.374C146.383 78.6904 146.922 78.8486 147.59 78.8486C148.205 78.8486 148.697 78.7256 149.066 78.4795C149.441 78.2275 149.629 77.8936 149.629 77.4775ZM154.999 71.6416C155.72 70.7568 156.657 70.3145 157.812 70.3145C159.821 70.3145 160.835 71.4482 160.853 73.7158V80H159.227V73.707C159.221 73.0215 159.062 72.5146 158.752 72.1865C158.447 71.8584 157.97 71.6943 157.319 71.6943C156.792 71.6943 156.329 71.835 155.931 72.1162C155.532 72.3975 155.222 72.7666 154.999 73.2236V80H153.373V66.5H154.999V71.6416Z" fill="#020202"/>
</svg>
