<svg width="223" height="112" viewBox="0 0 223 112" fill="none" xmlns="http://www.w3.org/2000/svg">
<path d="M40.6074 15.3213C40.1738 15.9424 39.5674 16.4082 38.7881 16.7188C38.0146 17.0234 37.1123 17.1758 36.0811 17.1758C35.0381 17.1758 34.1123 16.9326 33.3037 16.4463C32.4951 15.9541 31.8682 15.2568 31.4229 14.3545C30.9834 13.4521 30.7578 12.4062 30.7461 11.2168V10.1006C30.7461 8.17285 31.1943 6.67871 32.0908 5.61816C32.9932 4.55762 34.2588 4.02734 35.8877 4.02734C37.2236 4.02734 38.2988 4.37012 39.1133 5.05566C39.9277 5.73535 40.4258 6.70215 40.6074 7.95605H38.9199C38.6035 6.2627 37.5957 5.41602 35.8965 5.41602C34.7656 5.41602 33.9072 5.81445 33.3213 6.61133C32.7412 7.40234 32.4482 8.55078 32.4424 10.0566V11.1025C32.4424 12.5381 32.7705 13.6807 33.4268 14.5303C34.083 15.374 34.9707 15.7959 36.0898 15.7959C36.7227 15.7959 37.2764 15.7256 37.751 15.585C38.2256 15.4443 38.6182 15.207 38.9287 14.873V11.999H35.9668V10.6279H40.6074V15.3213ZM47.7705 8.94922C47.5244 8.9082 47.2578 8.8877 46.9707 8.8877C45.9043 8.8877 45.1807 9.3418 44.7998 10.25V17H43.1738V7.49023H44.7559L44.7822 8.58887C45.3154 7.73926 46.0713 7.31445 47.0498 7.31445C47.3662 7.31445 47.6064 7.35547 47.7705 7.4375V8.94922ZM53.0439 17.1758C51.7549 17.1758 50.7061 16.7539 49.8975 15.9102C49.0889 15.0605 48.6846 13.9268 48.6846 12.5088V12.21C48.6846 11.2666 48.8633 10.4258 49.2207 9.6875C49.584 8.94336 50.0879 8.36328 50.7324 7.94727C51.3828 7.52539 52.0859 7.31445 52.8418 7.31445C54.0781 7.31445 55.0391 7.72168 55.7246 8.53613C56.4102 9.35059 56.7529 10.5166 56.7529 12.0342V12.7109H50.3105C50.334 13.6484 50.6064 14.4072 51.1279 14.9873C51.6553 15.5615 52.3232 15.8486 53.1318 15.8486C53.7061 15.8486 54.1924 15.7314 54.5908 15.4971C54.9893 15.2627 55.3379 14.9521 55.6367 14.5654L56.6299 15.3389C55.833 16.5635 54.6377 17.1758 53.0439 17.1758ZM52.8418 8.65039C52.1855 8.65039 51.6348 8.89062 51.1895 9.37109C50.7441 9.8457 50.4688 10.5137 50.3633 11.375H55.127V11.252C55.0801 10.4258 54.8574 9.78711 54.459 9.33594C54.0605 8.87891 53.5215 8.65039 52.8418 8.65039ZM64.5137 17C64.4199 16.8125 64.3438 16.4785 64.2852 15.998C63.5293 16.7832 62.627 17.1758 61.5781 17.1758C60.6406 17.1758 59.8701 16.9121 59.2666 16.3848C58.6689 15.8516 58.3701 15.1777 58.3701 14.3633C58.3701 13.373 58.7451 12.6055 59.4951 12.0605C60.251 11.5098 61.3115 11.2344 62.6768 11.2344H64.2588V10.4873C64.2588 9.91895 64.0889 9.46777 63.749 9.13379C63.4092 8.79395 62.9082 8.62402 62.2461 8.62402C61.666 8.62402 61.1797 8.77051 60.7871 9.06348C60.3945 9.35645 60.1982 9.71094 60.1982 10.127H58.5635C58.5635 9.65234 58.7305 9.19531 59.0645 8.75586C59.4043 8.31055 59.8613 7.95898 60.4355 7.70117C61.0156 7.44336 61.6514 7.31445 62.3428 7.31445C63.4385 7.31445 64.2969 7.58984 64.918 8.14062C65.5391 8.68555 65.8613 9.43848 65.8848 10.3994V14.7764C65.8848 15.6494 65.9961 16.3438 66.2188 16.8594V17H64.5137ZM61.8154 15.7607C62.3252 15.7607 62.8086 15.6289 63.2656 15.3652C63.7227 15.1016 64.0537 14.7588 64.2588 14.3369V12.3857H62.9844C60.9922 12.3857 59.9961 12.9688 59.9961 14.1348C59.9961 14.6445 60.166 15.043 60.5059 15.3301C60.8457 15.6172 61.2822 15.7607 61.8154 15.7607ZM70.6396 5.1875V7.49023H72.415V8.74707H70.6396V14.6445C70.6396 15.0254 70.7188 15.3125 70.877 15.5059C71.0352 15.6934 71.3047 15.7871 71.6855 15.7871C71.873 15.7871 72.1309 15.752 72.459 15.6816V17C72.0312 17.1172 71.6152 17.1758 71.2109 17.1758C70.4844 17.1758 69.9365 16.9561 69.5674 16.5166C69.1982 16.0771 69.0137 15.4531 69.0137 14.6445V8.74707H67.2822V7.49023H69.0137V5.1875H70.6396ZM80.7295 11.9902V17H79.042V4.20312H83.7617C85.1621 4.20312 86.2578 4.56055 87.0488 5.27539C87.8457 5.99023 88.2441 6.93652 88.2441 8.11426C88.2441 9.35645 87.8545 10.3145 87.0752 10.9883C86.3018 11.6562 85.1914 11.9902 83.7441 11.9902H80.7295ZM80.7295 10.6104H83.7617C84.6641 10.6104 85.3555 10.3994 85.8359 9.97754C86.3164 9.5498 86.5566 8.93457 86.5566 8.13184C86.5566 7.37012 86.3164 6.76074 85.8359 6.30371C85.3555 5.84668 84.6963 5.60938 83.8584 5.5918H80.7295V10.6104ZM93.9658 17.1758C92.6768 17.1758 91.6279 16.7539 90.8193 15.9102C90.0107 15.0605 89.6064 13.9268 89.6064 12.5088V12.21C89.6064 11.2666 89.7852 10.4258 90.1426 9.6875C90.5059 8.94336 91.0098 8.36328 91.6543 7.94727C92.3047 7.52539 93.0078 7.31445 93.7637 7.31445C95 7.31445 95.9609 7.72168 96.6465 8.53613C97.332 9.35059 97.6748 10.5166 97.6748 12.0342V12.7109H91.2324C91.2559 13.6484 91.5283 14.4072 92.0498 14.9873C92.5771 15.5615 93.2451 15.8486 94.0537 15.8486C94.6279 15.8486 95.1143 15.7314 95.5127 15.4971C95.9111 15.2627 96.2598 14.9521 96.5586 14.5654L97.5518 15.3389C96.7549 16.5635 95.5596 17.1758 93.9658 17.1758ZM93.7637 8.65039C93.1074 8.65039 92.5566 8.89062 92.1113 9.37109C91.666 9.8457 91.3906 10.5137 91.2852 11.375H96.0488V11.252C96.002 10.4258 95.7793 9.78711 95.3809 9.33594C94.9824 8.87891 94.4434 8.65039 93.7637 8.65039ZM99.1338 12.1572C99.1338 11.2256 99.3154 10.3877 99.6787 9.64355C100.048 8.89941 100.558 8.3252 101.208 7.9209C101.864 7.5166 102.611 7.31445 103.449 7.31445C104.744 7.31445 105.79 7.7627 106.587 8.65918C107.39 9.55566 107.791 10.748 107.791 12.2363V12.3506C107.791 13.2764 107.612 14.1084 107.255 14.8467C106.903 15.5791 106.396 16.1504 105.734 16.5605C105.078 16.9707 104.322 17.1758 103.467 17.1758C102.178 17.1758 101.132 16.7275 100.329 15.8311C99.5322 14.9346 99.1338 13.748 99.1338 12.2715V12.1572ZM100.769 12.3506C100.769 13.4053 101.012 14.252 101.498 14.8906C101.99 15.5293 102.646 15.8486 103.467 15.8486C104.293 15.8486 104.949 15.5264 105.436 14.8818C105.922 14.2314 106.165 13.3232 106.165 12.1572C106.165 11.1143 105.916 10.2705 105.418 9.62598C104.926 8.97559 104.27 8.65039 103.449 8.65039C102.646 8.65039 101.999 8.96973 101.507 9.6084C101.015 10.2471 100.769 11.1611 100.769 12.3506ZM117.863 12.3506C117.863 13.7979 117.532 14.9639 116.87 15.8486C116.208 16.7334 115.312 17.1758 114.181 17.1758C113.026 17.1758 112.118 16.8096 111.456 16.0771V20.6562H109.83V7.49023H111.315L111.395 8.54492C112.057 7.72461 112.977 7.31445 114.154 7.31445C115.297 7.31445 116.199 7.74512 116.861 8.60645C117.529 9.46777 117.863 10.666 117.863 12.2012V12.3506ZM116.237 12.166C116.237 11.0938 116.009 10.2471 115.552 9.62598C115.095 9.00488 114.468 8.69434 113.671 8.69434C112.687 8.69434 111.948 9.13086 111.456 10.0039V14.5479C111.942 15.415 112.687 15.8486 113.688 15.8486C114.468 15.8486 115.086 15.541 115.543 14.9258C116.006 14.3047 116.237 13.3848 116.237 12.166ZM121.704 17H120.078V3.5H121.704V17ZM128.261 17.1758C126.972 17.1758 125.923 16.7539 125.114 15.9102C124.306 15.0605 123.901 13.9268 123.901 12.5088V12.21C123.901 11.2666 124.08 10.4258 124.438 9.6875C124.801 8.94336 125.305 8.36328 125.949 7.94727C126.6 7.52539 127.303 7.31445 128.059 7.31445C129.295 7.31445 130.256 7.72168 130.941 8.53613C131.627 9.35059 131.97 10.5166 131.97 12.0342V12.7109H125.527C125.551 13.6484 125.823 14.4072 126.345 14.9873C126.872 15.5615 127.54 15.8486 128.349 15.8486C128.923 15.8486 129.409 15.7314 129.808 15.4971C130.206 15.2627 130.555 14.9521 130.854 14.5654L131.847 15.3389C131.05 16.5635 129.854 17.1758 128.261 17.1758ZM128.059 8.65039C127.402 8.65039 126.852 8.89062 126.406 9.37109C125.961 9.8457 125.686 10.5137 125.58 11.375H130.344V11.252C130.297 10.4258 130.074 9.78711 129.676 9.33594C129.277 8.87891 128.738 8.65039 128.059 8.65039ZM139.396 14.4775C139.396 14.0381 139.229 13.6982 138.896 13.458C138.567 13.2119 137.99 13.001 137.164 12.8252C136.344 12.6494 135.69 12.4385 135.204 12.1924C134.724 11.9463 134.366 11.6533 134.132 11.3135C133.903 10.9736 133.789 10.5693 133.789 10.1006C133.789 9.32129 134.117 8.66211 134.773 8.12305C135.436 7.58398 136.279 7.31445 137.305 7.31445C138.383 7.31445 139.256 7.59277 139.924 8.14941C140.598 8.70605 140.935 9.41797 140.935 10.2852H139.3C139.3 9.83984 139.109 9.45605 138.729 9.13379C138.354 8.81152 137.879 8.65039 137.305 8.65039C136.713 8.65039 136.25 8.7793 135.916 9.03711C135.582 9.29492 135.415 9.63184 135.415 10.0479C135.415 10.4404 135.57 10.7363 135.881 10.9355C136.191 11.1348 136.751 11.3252 137.56 11.5068C138.374 11.6885 139.033 11.9053 139.537 12.1572C140.041 12.4092 140.413 12.7139 140.653 13.0713C140.899 13.4229 141.022 13.8535 141.022 14.3633C141.022 15.2129 140.683 15.8955 140.003 16.4111C139.323 16.9209 138.441 17.1758 137.357 17.1758C136.596 17.1758 135.922 17.041 135.336 16.7715C134.75 16.502 134.29 16.127 133.956 15.6465C133.628 15.1602 133.464 14.6357 133.464 14.0732H135.09C135.119 14.6182 135.336 15.0518 135.74 15.374C136.15 15.6904 136.689 15.8486 137.357 15.8486C137.973 15.8486 138.465 15.7256 138.834 15.4795C139.209 15.2275 139.396 14.8936 139.396 14.4775ZM147.553 19.5488L146.63 18.916C147.181 18.1484 147.468 17.3574 147.491 16.543V15.0752H149.082V16.3496C149.082 16.9414 148.936 17.5332 148.643 18.125C148.355 18.7168 147.992 19.1914 147.553 19.5488ZM160.842 15.3213C160.408 15.9424 159.802 16.4082 159.022 16.7188C158.249 17.0234 157.347 17.1758 156.315 17.1758C155.272 17.1758 154.347 16.9326 153.538 16.4463C152.729 15.9541 152.103 15.2568 151.657 14.3545C151.218 13.4521 150.992 12.4062 150.98 11.2168V10.1006C150.98 8.17285 151.429 6.67871 152.325 5.61816C153.228 4.55762 154.493 4.02734 156.122 4.02734C157.458 4.02734 158.533 4.37012 159.348 5.05566C160.162 5.73535 160.66 6.70215 160.842 7.95605H159.154C158.838 6.2627 157.83 5.41602 156.131 5.41602C155 5.41602 154.142 5.81445 153.556 6.61133C152.976 7.40234 152.683 8.55078 152.677 10.0566V11.1025C152.677 12.5381 153.005 13.6807 153.661 14.5303C154.317 15.374 155.205 15.7959 156.324 15.7959C156.957 15.7959 157.511 15.7256 157.985 15.585C158.46 15.4443 158.853 15.207 159.163 14.873V11.999H156.201V10.6279H160.842V15.3213ZM168.005 8.94922C167.759 8.9082 167.492 8.8877 167.205 8.8877C166.139 8.8877 165.415 9.3418 165.034 10.25V17H163.408V7.49023H164.99L165.017 8.58887C165.55 7.73926 166.306 7.31445 167.284 7.31445C167.601 7.31445 167.841 7.35547 168.005 7.4375V8.94922ZM173.278 17.1758C171.989 17.1758 170.94 16.7539 170.132 15.9102C169.323 15.0605 168.919 13.9268 168.919 12.5088V12.21C168.919 11.2666 169.098 10.4258 169.455 9.6875C169.818 8.94336 170.322 8.36328 170.967 7.94727C171.617 7.52539 172.32 7.31445 173.076 7.31445C174.312 7.31445 175.273 7.72168 175.959 8.53613C176.645 9.35059 176.987 10.5166 176.987 12.0342V12.7109H170.545C170.568 13.6484 170.841 14.4072 171.362 14.9873C171.89 15.5615 172.558 15.8486 173.366 15.8486C173.94 15.8486 174.427 15.7314 174.825 15.4971C175.224 15.2627 175.572 14.9521 175.871 14.5654L176.864 15.3389C176.067 16.5635 174.872 17.1758 173.278 17.1758ZM173.076 8.65039C172.42 8.65039 171.869 8.89062 171.424 9.37109C170.979 9.8457 170.703 10.5137 170.598 11.375H175.361V11.252C175.314 10.4258 175.092 9.78711 174.693 9.33594C174.295 8.87891 173.756 8.65039 173.076 8.65039ZM184.748 17C184.654 16.8125 184.578 16.4785 184.52 15.998C183.764 16.7832 182.861 17.1758 181.812 17.1758C180.875 17.1758 180.104 16.9121 179.501 16.3848C178.903 15.8516 178.604 15.1777 178.604 14.3633C178.604 13.373 178.979 12.6055 179.729 12.0605C180.485 11.5098 181.546 11.2344 182.911 11.2344H184.493V10.4873C184.493 9.91895 184.323 9.46777 183.983 9.13379C183.644 8.79395 183.143 8.62402 182.48 8.62402C181.9 8.62402 181.414 8.77051 181.021 9.06348C180.629 9.35645 180.433 9.71094 180.433 10.127H178.798C178.798 9.65234 178.965 9.19531 179.299 8.75586C179.639 8.31055 180.096 7.95898 180.67 7.70117C181.25 7.44336 181.886 7.31445 182.577 7.31445C183.673 7.31445 184.531 7.58984 185.152 8.14062C185.773 8.68555 186.096 9.43848 186.119 10.3994V14.7764C186.119 15.6494 186.23 16.3438 186.453 16.8594V17H184.748ZM182.05 15.7607C182.56 15.7607 183.043 15.6289 183.5 15.3652C183.957 15.1016 184.288 14.7588 184.493 14.3369V12.3857H183.219C181.227 12.3857 180.23 12.9688 180.23 14.1348C180.23 14.6445 180.4 15.043 180.74 15.3301C181.08 15.6172 181.517 15.7607 182.05 15.7607ZM190.874 5.1875V7.49023H192.649V8.74707H190.874V14.6445C190.874 15.0254 190.953 15.3125 191.111 15.5059C191.27 15.6934 191.539 15.7871 191.92 15.7871C192.107 15.7871 192.365 15.752 192.693 15.6816V17C192.266 17.1172 191.85 17.1758 191.445 17.1758C190.719 17.1758 190.171 16.9561 189.802 16.5166C189.433 16.0771 189.248 15.4531 189.248 14.6445V8.74707H187.517V7.49023H189.248V5.1875H190.874ZM17.0439 35.4775C17.0439 35.0381 16.877 34.6982 16.543 34.458C16.2148 34.2119 15.6377 34.001 14.8115 33.8252C13.9912 33.6494 13.3379 33.4385 12.8516 33.1924C12.3711 32.9463 12.0137 32.6533 11.7793 32.3135C11.5508 31.9736 11.4365 31.5693 11.4365 31.1006C11.4365 30.3213 11.7646 29.6621 12.4209 29.123C13.083 28.584 13.9268 28.3145 14.9521 28.3145C16.0303 28.3145 16.9033 28.5928 17.5713 29.1494C18.2451 29.7061 18.582 30.418 18.582 31.2852H16.9473C16.9473 30.8398 16.7568 30.4561 16.376 30.1338C16.001 29.8115 15.5264 29.6504 14.9521 29.6504C14.3604 29.6504 13.8975 29.7793 13.5635 30.0371C13.2295 30.2949 13.0625 30.6318 13.0625 31.0479C13.0625 31.4404 13.2178 31.7363 13.5283 31.9355C13.8389 32.1348 14.3984 32.3252 15.207 32.5068C16.0215 32.6885 16.6807 32.9053 17.1846 33.1572C17.6885 33.4092 18.0605 33.7139 18.3008 34.0713C18.5469 34.4229 18.6699 34.8535 18.6699 35.3633C18.6699 36.2129 18.3301 36.8955 17.6504 37.4111C16.9707 37.9209 16.0889 38.1758 15.0049 38.1758C14.2432 38.1758 13.5693 38.041 12.9834 37.7715C12.3975 37.502 11.9375 37.127 11.6035 36.6465C11.2754 36.1602 11.1113 35.6357 11.1113 35.0732H12.7373C12.7666 35.6182 12.9834 36.0518 13.3877 36.374C13.7979 36.6904 14.3369 36.8486 15.0049 36.8486C15.6201 36.8486 16.1123 36.7256 16.4814 36.4795C16.8564 36.2275 17.0439 35.8936 17.0439 35.4775ZM24.7344 38.1758C23.4453 38.1758 22.3965 37.7539 21.5879 36.9102C20.7793 36.0605 20.375 34.9268 20.375 33.5088V33.21C20.375 32.2666 20.5537 31.4258 20.9111 30.6875C21.2744 29.9434 21.7783 29.3633 22.4229 28.9473C23.0732 28.5254 23.7764 28.3145 24.5322 28.3145C25.7686 28.3145 26.7295 28.7217 27.415 29.5361C28.1006 30.3506 28.4434 31.5166 28.4434 33.0342V33.7109H22.001C22.0244 34.6484 22.2969 35.4072 22.8184 35.9873C23.3457 36.5615 24.0137 36.8486 24.8223 36.8486C25.3965 36.8486 25.8828 36.7314 26.2812 36.4971C26.6797 36.2627 27.0283 35.9521 27.3271 35.5654L28.3203 36.3389C27.5234 37.5635 26.3281 38.1758 24.7344 38.1758ZM24.5322 29.6504C23.876 29.6504 23.3252 29.8906 22.8799 30.3711C22.4346 30.8457 22.1592 31.5137 22.0537 32.375H26.8174V32.252C26.7705 31.4258 26.5479 30.7871 26.1494 30.3359C25.751 29.8789 25.2119 29.6504 24.5322 29.6504ZM34.9297 29.9492C34.6836 29.9082 34.417 29.8877 34.1299 29.8877C33.0635 29.8877 32.3398 30.3418 31.959 31.25V38H30.333V28.4902H31.915L31.9414 29.5889C32.4746 28.7393 33.2305 28.3145 34.209 28.3145C34.5254 28.3145 34.7656 28.3555 34.9297 28.4375V29.9492ZM39.7285 35.7939L42.084 28.4902H43.7451L40.335 38H39.0957L35.6504 28.4902H37.3115L39.7285 35.7939ZM47.0762 38H45.4502V28.4902H47.0762V38ZM45.3184 25.9678C45.3184 25.7041 45.3975 25.4814 45.5557 25.2998C45.7197 25.1182 45.96 25.0273 46.2764 25.0273C46.5928 25.0273 46.833 25.1182 46.9971 25.2998C47.1611 25.4814 47.2432 25.7041 47.2432 25.9678C47.2432 26.2314 47.1611 26.4512 46.9971 26.627C46.833 26.8027 46.5928 26.8906 46.2764 26.8906C45.96 26.8906 45.7197 26.8027 45.5557 26.627C45.3975 26.4512 45.3184 26.2314 45.3184 25.9678ZM53.501 36.8486C54.0811 36.8486 54.5879 36.6729 55.0215 36.3213C55.4551 35.9697 55.6953 35.5303 55.7422 35.0029H57.2803C57.251 35.5479 57.0635 36.0664 56.7178 36.5586C56.3721 37.0508 55.9092 37.4434 55.3291 37.7363C54.7549 38.0293 54.1455 38.1758 53.501 38.1758C52.2061 38.1758 51.1748 37.7451 50.4072 36.8838C49.6455 36.0166 49.2646 34.833 49.2646 33.333V33.0605C49.2646 32.1348 49.4346 31.3115 49.7744 30.5908C50.1143 29.8701 50.6006 29.3105 51.2334 28.9121C51.8721 28.5137 52.625 28.3145 53.4922 28.3145C54.5586 28.3145 55.4434 28.6338 56.1465 29.2725C56.8555 29.9111 57.2334 30.7402 57.2803 31.7598H55.7422C55.6953 31.1445 55.4609 30.6406 55.0391 30.248C54.623 29.8496 54.1074 29.6504 53.4922 29.6504C52.666 29.6504 52.0244 29.9492 51.5674 30.5469C51.1162 31.1387 50.8906 31.9971 50.8906 33.1221V33.4297C50.8906 34.5254 51.1162 35.3691 51.5674 35.9609C52.0186 36.5527 52.6631 36.8486 53.501 36.8486ZM63.0547 38.1758C61.7656 38.1758 60.7168 37.7539 59.9082 36.9102C59.0996 36.0605 58.6953 34.9268 58.6953 33.5088V33.21C58.6953 32.2666 58.874 31.4258 59.2314 30.6875C59.5947 29.9434 60.0986 29.3633 60.7432 28.9473C61.3936 28.5254 62.0967 28.3145 62.8525 28.3145C64.0889 28.3145 65.0498 28.7217 65.7354 29.5361C66.4209 30.3506 66.7637 31.5166 66.7637 33.0342V33.7109H60.3213C60.3447 34.6484 60.6172 35.4072 61.1387 35.9873C61.666 36.5615 62.334 36.8486 63.1426 36.8486C63.7168 36.8486 64.2031 36.7314 64.6016 36.4971C65 36.2627 65.3486 35.9521 65.6475 35.5654L66.6406 36.3389C65.8438 37.5635 64.6484 38.1758 63.0547 38.1758ZM62.8525 29.6504C62.1963 29.6504 61.6455 29.8906 61.2002 30.3711C60.7549 30.8457 60.4795 31.5137 60.374 32.375H65.1377V32.252C65.0908 31.4258 64.8682 30.7871 64.4697 30.3359C64.0713 29.8789 63.5322 29.6504 62.8525 29.6504ZM74.1904 35.4775C74.1904 35.0381 74.0234 34.6982 73.6895 34.458C73.3613 34.2119 72.7842 34.001 71.958 33.8252C71.1377 33.6494 70.4844 33.4385 69.998 33.1924C69.5176 32.9463 69.1602 32.6533 68.9258 32.3135C68.6973 31.9736 68.583 31.5693 68.583 31.1006C68.583 30.3213 68.9111 29.6621 69.5674 29.123C70.2295 28.584 71.0732 28.3145 72.0986 28.3145C73.1768 28.3145 74.0498 28.5928 74.7178 29.1494C75.3916 29.7061 75.7285 30.418 75.7285 31.2852H74.0938C74.0938 30.8398 73.9033 30.4561 73.5225 30.1338C73.1475 29.8115 72.6729 29.6504 72.0986 29.6504C71.5068 29.6504 71.0439 29.7793 70.71 30.0371C70.376 30.2949 70.209 30.6318 70.209 31.0479C70.209 31.4404 70.3643 31.7363 70.6748 31.9355C70.9854 32.1348 71.5449 32.3252 72.3535 32.5068C73.168 32.6885 73.8271 32.9053 74.3311 33.1572C74.835 33.4092 75.207 33.7139 75.4473 34.0713C75.6934 34.4229 75.8164 34.8535 75.8164 35.3633C75.8164 36.2129 75.4766 36.8955 74.7969 37.4111C74.1172 37.9209 73.2354 38.1758 72.1514 38.1758C71.3896 38.1758 70.7158 38.041 70.1299 37.7715C69.5439 37.502 69.084 37.127 68.75 36.6465C68.4219 36.1602 68.2578 35.6357 68.2578 35.0732H69.8838C69.9131 35.6182 70.1299 36.0518 70.5342 36.374C70.9443 36.6904 71.4834 36.8486 72.1514 36.8486C72.7666 36.8486 73.2588 36.7256 73.6279 36.4795C74.0029 36.2275 74.1904 35.8936 74.1904 35.4775ZM77.9697 37.1475C77.9697 36.8662 78.0518 36.6318 78.2158 36.4443C78.3857 36.2568 78.6377 36.1631 78.9717 36.1631C79.3057 36.1631 79.5576 36.2568 79.7275 36.4443C79.9033 36.6318 79.9912 36.8662 79.9912 37.1475C79.9912 37.417 79.9033 37.6426 79.7275 37.8242C79.5576 38.0059 79.3057 38.0967 78.9717 38.0967C78.6377 38.0967 78.3857 38.0059 78.2158 37.8242C78.0518 37.6426 77.9697 37.417 77.9697 37.1475ZM82.9355 38V25.2031H86.5479C87.6611 25.2031 88.6455 25.4492 89.501 25.9414C90.3564 26.4336 91.0156 27.1338 91.4785 28.042C91.9473 28.9502 92.1846 29.9932 92.1904 31.1709V31.9883C92.1904 33.1953 91.9561 34.2529 91.4873 35.1611C91.0244 36.0693 90.3594 36.7666 89.4922 37.2529C88.6309 37.7393 87.626 37.9883 86.4775 38H82.9355ZM84.623 26.5918V36.6201H86.3984C87.6992 36.6201 88.71 36.2158 89.4307 35.4072C90.1572 34.5986 90.5205 33.4473 90.5205 31.9531V31.2061C90.5205 29.7529 90.1777 28.625 89.4922 27.8223C88.8125 27.0137 87.8457 26.6035 86.5918 26.5918H84.623ZM98.4395 38.1758C97.1504 38.1758 96.1016 37.7539 95.293 36.9102C94.4844 36.0605 94.0801 34.9268 94.0801 33.5088V33.21C94.0801 32.2666 94.2588 31.4258 94.6162 30.6875C94.9795 29.9434 95.4834 29.3633 96.1279 28.9473C96.7783 28.5254 97.4814 28.3145 98.2373 28.3145C99.4736 28.3145 100.435 28.7217 101.12 29.5361C101.806 30.3506 102.148 31.5166 102.148 33.0342V33.7109H95.7061C95.7295 34.6484 96.002 35.4072 96.5234 35.9873C97.0508 36.5615 97.7188 36.8486 98.5273 36.8486C99.1016 36.8486 99.5879 36.7314 99.9863 36.4971C100.385 36.2627 100.733 35.9521 101.032 35.5654L102.025 36.3389C101.229 37.5635 100.033 38.1758 98.4395 38.1758ZM98.2373 29.6504C97.5811 29.6504 97.0303 29.8906 96.585 30.3711C96.1396 30.8457 95.8643 31.5137 95.7588 32.375H100.522V32.252C100.476 31.4258 100.253 30.7871 99.8545 30.3359C99.4561 29.8789 98.917 29.6504 98.2373 29.6504ZM104.583 38V29.7471H103.08V28.4902H104.583V27.6816C104.583 26.6211 104.885 25.7949 105.488 25.2031C106.098 24.6113 106.956 24.3154 108.063 24.3154C108.72 24.3154 109.549 24.4941 110.551 24.8516L110.278 26.2227C109.546 25.9297 108.849 25.7832 108.187 25.7832C107.489 25.7832 106.985 25.9414 106.675 26.2578C106.37 26.5684 106.218 27.0371 106.218 27.6641V28.4902H108.16V29.7471H106.218V38H104.583ZM111.359 38H109.725V28.4902H111.359V38ZM115.543 28.4902L115.596 29.6855C116.322 28.7715 117.271 28.3145 118.443 28.3145C120.453 28.3145 121.467 29.4482 121.484 31.7158V38H119.858V31.707C119.853 31.0215 119.694 30.5146 119.384 30.1865C119.079 29.8584 118.602 29.6943 117.951 29.6943C117.424 29.6943 116.961 29.835 116.562 30.1162C116.164 30.3975 115.854 30.7666 115.631 31.2236V38H114.005V28.4902H115.543ZM125.703 38H124.077V28.4902H125.703V38ZM123.945 25.9678C123.945 25.7041 124.024 25.4814 124.183 25.2998C124.347 25.1182 124.587 25.0273 124.903 25.0273C125.22 25.0273 125.46 25.1182 125.624 25.2998C125.788 25.4814 125.87 25.7041 125.87 25.9678C125.87 26.2314 125.788 26.4512 125.624 26.627C125.46 26.8027 125.22 26.8906 124.903 26.8906C124.587 26.8906 124.347 26.8027 124.183 26.627C124.024 26.4512 123.945 26.2314 123.945 25.9678ZM130.52 26.1875V28.4902H132.295V29.7471H130.52V35.6445C130.52 36.0254 130.599 36.3125 130.757 36.5059C130.915 36.6934 131.185 36.7871 131.565 36.7871C131.753 36.7871 132.011 36.752 132.339 36.6816V38C131.911 38.1172 131.495 38.1758 131.091 38.1758C130.364 38.1758 129.816 37.9561 129.447 37.5166C129.078 37.0771 128.894 36.4531 128.894 35.6445V29.7471H127.162V28.4902H128.894V26.1875H130.52ZM138.148 38.1758C136.859 38.1758 135.811 37.7539 135.002 36.9102C134.193 36.0605 133.789 34.9268 133.789 33.5088V33.21C133.789 32.2666 133.968 31.4258 134.325 30.6875C134.688 29.9434 135.192 29.3633 135.837 28.9473C136.487 28.5254 137.19 28.3145 137.946 28.3145C139.183 28.3145 140.144 28.7217 140.829 29.5361C141.515 30.3506 141.857 31.5166 141.857 33.0342V33.7109H135.415C135.438 34.6484 135.711 35.4072 136.232 35.9873C136.76 36.5615 137.428 36.8486 138.236 36.8486C138.811 36.8486 139.297 36.7314 139.695 36.4971C140.094 36.2627 140.442 35.9521 140.741 35.5654L141.734 36.3389C140.938 37.5635 139.742 38.1758 138.148 38.1758ZM137.946 29.6504C137.29 29.6504 136.739 29.8906 136.294 30.3711C135.849 30.8457 135.573 31.5137 135.468 32.375H140.231V32.252C140.185 31.4258 139.962 30.7871 139.563 30.3359C139.165 29.8789 138.626 29.6504 137.946 29.6504ZM145.514 38H143.888V24.5H145.514V38ZM151.235 35.6182L153.45 28.4902H155.19L151.367 39.4678C150.775 41.0498 149.835 41.8408 148.546 41.8408L148.238 41.8145L147.632 41.7002V40.3818L148.071 40.417C148.622 40.417 149.05 40.3057 149.354 40.083C149.665 39.8604 149.92 39.4531 150.119 38.8613L150.479 37.8945L147.087 28.4902H148.862L151.235 35.6182ZM171.213 32.0146C171.213 33.2686 171.002 34.3643 170.58 35.3018C170.158 36.2334 169.561 36.9453 168.787 37.4375C168.014 37.9297 167.111 38.1758 166.08 38.1758C165.072 38.1758 164.179 37.9297 163.399 37.4375C162.62 36.9395 162.014 36.2334 161.58 35.3193C161.152 34.3994 160.933 33.3359 160.921 32.1289V31.2061C160.921 29.9756 161.135 28.8887 161.562 27.9453C161.99 27.002 162.594 26.2812 163.373 25.7832C164.158 25.2793 165.055 25.0273 166.062 25.0273C167.088 25.0273 167.99 25.2764 168.77 25.7744C169.555 26.2666 170.158 26.9844 170.58 27.9277C171.002 28.8652 171.213 29.958 171.213 31.2061V32.0146ZM169.534 31.1885C169.534 29.6709 169.229 28.5078 168.62 27.6992C168.011 26.8848 167.158 26.4775 166.062 26.4775C164.996 26.4775 164.155 26.8848 163.54 27.6992C162.931 28.5078 162.617 29.6328 162.6 31.0742V32.0146C162.6 33.4854 162.907 34.6426 163.522 35.4863C164.144 36.3242 164.996 36.7432 166.08 36.7432C167.17 36.7432 168.014 36.3477 168.611 35.5566C169.209 34.7598 169.517 33.6201 169.534 32.1377V31.1885ZM175.027 28.4902L175.08 29.6855C175.807 28.7715 176.756 28.3145 177.928 28.3145C179.938 28.3145 180.951 29.4482 180.969 31.7158V38H179.343V31.707C179.337 31.0215 179.179 30.5146 178.868 30.1865C178.563 29.8584 178.086 29.6943 177.436 29.6943C176.908 29.6943 176.445 29.835 176.047 30.1162C175.648 30.3975 175.338 30.7666 175.115 31.2236V38H173.489V28.4902H175.027ZM187.367 38.1758C186.078 38.1758 185.029 37.7539 184.221 36.9102C183.412 36.0605 183.008 34.9268 183.008 33.5088V33.21C183.008 32.2666 183.187 31.4258 183.544 30.6875C183.907 29.9434 184.411 29.3633 185.056 28.9473C185.706 28.5254 186.409 28.3145 187.165 28.3145C188.401 28.3145 189.362 28.7217 190.048 29.5361C190.733 30.3506 191.076 31.5166 191.076 33.0342V33.7109H184.634C184.657 34.6484 184.93 35.4072 185.451 35.9873C185.979 36.5615 186.646 36.8486 187.455 36.8486C188.029 36.8486 188.516 36.7314 188.914 36.4971C189.312 36.2627 189.661 35.9521 189.96 35.5654L190.953 36.3389C190.156 37.5635 188.961 38.1758 187.367 38.1758ZM187.165 29.6504C186.509 29.6504 185.958 29.8906 185.513 30.3711C185.067 30.8457 184.792 31.5137 184.687 32.375H189.45V32.252C189.403 31.4258 189.181 30.7871 188.782 30.3359C188.384 29.8789 187.845 29.6504 187.165 29.6504ZM197 33.1572C197 32.2256 197.182 31.3877 197.545 30.6436C197.914 29.8994 198.424 29.3252 199.074 28.9209C199.73 28.5166 200.478 28.3145 201.315 28.3145C202.61 28.3145 203.656 28.7627 204.453 29.6592C205.256 30.5557 205.657 31.748 205.657 33.2363V33.3506C205.657 34.2764 205.479 35.1084 205.121 35.8467C204.77 36.5791 204.263 37.1504 203.601 37.5605C202.944 37.9707 202.188 38.1758 201.333 38.1758C200.044 38.1758 198.998 37.7275 198.195 36.8311C197.398 35.9346 197 34.748 197 33.2715V33.1572ZM198.635 33.3506C198.635 34.4053 198.878 35.252 199.364 35.8906C199.856 36.5293 200.513 36.8486 201.333 36.8486C202.159 36.8486 202.815 36.5264 203.302 35.8818C203.788 35.2314 204.031 34.3232 204.031 33.1572C204.031 32.1143 203.782 31.2705 203.284 30.626C202.792 29.9756 202.136 29.6504 201.315 29.6504C200.513 29.6504 199.865 29.9697 199.373 30.6084C198.881 31.2471 198.635 32.1611 198.635 33.3506ZM208.496 38V29.7471H206.993V28.4902H208.496V27.5146C208.496 26.4951 208.769 25.707 209.313 25.1504C209.858 24.5938 210.629 24.3154 211.625 24.3154C212 24.3154 212.372 24.3652 212.741 24.4648L212.653 25.7832C212.378 25.7305 212.085 25.7041 211.774 25.7041C211.247 25.7041 210.84 25.8594 210.553 26.1699C210.266 26.4746 210.122 26.9141 210.122 27.4883V28.4902H212.152V29.7471H210.122V38H208.496ZM10.8652 47.1875V49.4902H12.6406V50.7471H10.8652V56.6445C10.8652 57.0254 10.9443 57.3125 11.1025 57.5059C11.2607 57.6934 11.5303 57.7871 11.9111 57.7871C12.0986 57.7871 12.3564 57.752 12.6846 57.6816V59C12.2568 59.1172 11.8408 59.1758 11.4365 59.1758C10.71 59.1758 10.1621 58.9561 9.79297 58.5166C9.42383 58.0771 9.23926 57.4531 9.23926 56.6445V50.7471H7.50781V49.4902H9.23926V47.1875H10.8652ZM16.1738 50.6416C16.8945 49.7568 17.832 49.3145 18.9863 49.3145C20.9961 49.3145 22.0098 50.4482 22.0273 52.7158V59H20.4014V52.707C20.3955 52.0215 20.2373 51.5146 19.9268 51.1865C19.6221 50.8584 19.1445 50.6943 18.4941 50.6943C17.9668 50.6943 17.5039 50.835 17.1055 51.1162C16.707 51.3975 16.3965 51.7666 16.1738 52.2236V59H14.5479V45.5H16.1738V50.6416ZM28.4082 59.1758C27.1191 59.1758 26.0703 58.7539 25.2617 57.9102C24.4531 57.0605 24.0488 55.9268 24.0488 54.5088V54.21C24.0488 53.2666 24.2275 52.4258 24.585 51.6875C24.9482 50.9434 25.4521 50.3633 26.0967 49.9473C26.7471 49.5254 27.4502 49.3145 28.2061 49.3145C29.4424 49.3145 30.4033 49.7217 31.0889 50.5361C31.7744 51.3506 32.1172 52.5166 32.1172 54.0342V54.7109H25.6748C25.6982 55.6484 25.9707 56.4072 26.4922 56.9873C27.0195 57.5615 27.6875 57.8486 28.4961 57.8486C29.0703 57.8486 29.5566 57.7314 29.9551 57.4971C30.3535 57.2627 30.7021 56.9521 31.001 56.5654L31.9941 57.3389C31.1973 58.5635 30.002 59.1758 28.4082 59.1758ZM28.2061 50.6504C27.5498 50.6504 26.999 50.8906 26.5537 51.3711C26.1084 51.8457 25.833 52.5137 25.7275 53.375H30.4912V53.252C30.4443 52.4258 30.2217 51.7871 29.8232 51.3359C29.4248 50.8789 28.8857 50.6504 28.2061 50.6504ZM46.5225 54.3506C46.5225 55.8037 46.1885 56.9727 45.5205 57.8574C44.8525 58.7363 43.9561 59.1758 42.8311 59.1758C41.6299 59.1758 40.7012 58.751 40.0449 57.9014L39.9658 59H38.4717V45.5H40.0977V50.5361C40.7539 49.7217 41.6592 49.3145 42.8135 49.3145C43.9678 49.3145 44.873 49.751 45.5293 50.624C46.1914 51.4971 46.5225 52.6924 46.5225 54.21V54.3506ZM44.8965 54.166C44.8965 53.0586 44.6826 52.2031 44.2549 51.5996C43.8271 50.9961 43.2119 50.6943 42.4092 50.6943C41.3369 50.6943 40.5664 51.1924 40.0977 52.1885V56.3018C40.5957 57.2979 41.3721 57.7959 42.4268 57.7959C43.2061 57.7959 43.8125 57.4941 44.2461 56.8906C44.6797 56.2871 44.8965 55.3789 44.8965 54.166ZM52.5254 59.1758C51.2363 59.1758 50.1875 58.7539 49.3789 57.9102C48.5703 57.0605 48.166 55.9268 48.166 54.5088V54.21C48.166 53.2666 48.3447 52.4258 48.7021 51.6875C49.0654 50.9434 49.5693 50.3633 50.2139 49.9473C50.8643 49.5254 51.5674 49.3145 52.3232 49.3145C53.5596 49.3145 54.5205 49.7217 55.2061 50.5361C55.8916 51.3506 56.2344 52.5166 56.2344 54.0342V54.7109H49.792C49.8154 55.6484 50.0879 56.4072 50.6094 56.9873C51.1367 57.5615 51.8047 57.8486 52.6133 57.8486C53.1875 57.8486 53.6738 57.7314 54.0723 57.4971C54.4707 57.2627 54.8193 56.9521 55.1182 56.5654L56.1113 57.3389C55.3145 58.5635 54.1191 59.1758 52.5254 59.1758ZM52.3232 50.6504C51.667 50.6504 51.1162 50.8906 50.6709 51.3711C50.2256 51.8457 49.9502 52.5137 49.8447 53.375H54.6084V53.252C54.5615 52.4258 54.3389 51.7871 53.9404 51.3359C53.542 50.8789 53.0029 50.6504 52.3232 50.6504ZM63.6611 56.4775C63.6611 56.0381 63.4941 55.6982 63.1602 55.458C62.832 55.2119 62.2549 55.001 61.4287 54.8252C60.6084 54.6494 59.9551 54.4385 59.4688 54.1924C58.9883 53.9463 58.6309 53.6533 58.3965 53.3135C58.168 52.9736 58.0537 52.5693 58.0537 52.1006C58.0537 51.3213 58.3818 50.6621 59.0381 50.123C59.7002 49.584 60.5439 49.3145 61.5693 49.3145C62.6475 49.3145 63.5205 49.5928 64.1885 50.1494C64.8623 50.7061 65.1992 51.418 65.1992 52.2852H63.5645C63.5645 51.8398 63.374 51.4561 62.9932 51.1338C62.6182 50.8115 62.1436 50.6504 61.5693 50.6504C60.9775 50.6504 60.5146 50.7793 60.1807 51.0371C59.8467 51.2949 59.6797 51.6318 59.6797 52.0479C59.6797 52.4404 59.835 52.7363 60.1455 52.9355C60.4561 53.1348 61.0156 53.3252 61.8242 53.5068C62.6387 53.6885 63.2979 53.9053 63.8018 54.1572C64.3057 54.4092 64.6777 54.7139 64.918 55.0713C65.1641 55.4229 65.2871 55.8535 65.2871 56.3633C65.2871 57.2129 64.9473 57.8955 64.2676 58.4111C63.5879 58.9209 62.7061 59.1758 61.6221 59.1758C60.8604 59.1758 60.1865 59.041 59.6006 58.7715C59.0146 58.502 58.5547 58.127 58.2207 57.6465C57.8926 57.1602 57.7285 56.6357 57.7285 56.0732H59.3545C59.3838 56.6182 59.6006 57.0518 60.0049 57.374C60.415 57.6904 60.9541 57.8486 61.6221 57.8486C62.2373 57.8486 62.7295 57.7256 63.0986 57.4795C63.4736 57.2275 63.6611 56.8936 63.6611 56.4775ZM69.6113 47.1875V49.4902H71.3867V50.7471H69.6113V56.6445C69.6113 57.0254 69.6904 57.3125 69.8486 57.5059C70.0068 57.6934 70.2764 57.7871 70.6572 57.7871C70.8447 57.7871 71.1025 57.752 71.4307 57.6816V59C71.0029 59.1172 70.5869 59.1758 70.1826 59.1758C69.4561 59.1758 68.9082 58.9561 68.5391 58.5166C68.1699 58.0771 67.9854 57.4531 67.9854 56.6445V50.7471H66.2539V49.4902H67.9854V47.1875H69.6113ZM79.9648 47.1875V49.4902H81.7402V50.7471H79.9648V56.6445C79.9648 57.0254 80.0439 57.3125 80.2021 57.5059C80.3604 57.6934 80.6299 57.7871 81.0107 57.7871C81.1982 57.7871 81.4561 57.752 81.7842 57.6816V59C81.3564 59.1172 80.9404 59.1758 80.5361 59.1758C79.8096 59.1758 79.2617 58.9561 78.8926 58.5166C78.5234 58.0771 78.3389 57.4531 78.3389 56.6445V50.7471H76.6074V49.4902H78.3389V47.1875H79.9648ZM88.2441 50.9492C87.998 50.9082 87.7314 50.8877 87.4443 50.8877C86.3779 50.8877 85.6543 51.3418 85.2734 52.25V59H83.6475V49.4902H85.2295L85.2559 50.5889C85.7891 49.7393 86.5449 49.3145 87.5234 49.3145C87.8398 49.3145 88.0801 49.3555 88.2441 49.4375V50.9492ZM95.2666 59C95.1729 58.8125 95.0967 58.4785 95.0381 57.998C94.2822 58.7832 93.3799 59.1758 92.3311 59.1758C91.3936 59.1758 90.623 58.9121 90.0195 58.3848C89.4219 57.8516 89.123 57.1777 89.123 56.3633C89.123 55.373 89.498 54.6055 90.248 54.0605C91.0039 53.5098 92.0645 53.2344 93.4297 53.2344H95.0117V52.4873C95.0117 51.9189 94.8418 51.4678 94.502 51.1338C94.1621 50.7939 93.6611 50.624 92.999 50.624C92.4189 50.624 91.9326 50.7705 91.54 51.0635C91.1475 51.3564 90.9512 51.7109 90.9512 52.127H89.3164C89.3164 51.6523 89.4834 51.1953 89.8174 50.7559C90.1572 50.3105 90.6143 49.959 91.1885 49.7012C91.7686 49.4434 92.4043 49.3145 93.0957 49.3145C94.1914 49.3145 95.0498 49.5898 95.6709 50.1406C96.292 50.6855 96.6143 51.4385 96.6377 52.3994V56.7764C96.6377 57.6494 96.749 58.3438 96.9717 58.8594V59H95.2666ZM92.5684 57.7607C93.0781 57.7607 93.5615 57.6289 94.0186 57.3652C94.4756 57.1016 94.8066 56.7588 95.0117 56.3369V54.3857H93.7373C91.7451 54.3857 90.749 54.9688 90.749 56.1348C90.749 56.6445 90.9189 57.043 91.2588 57.3301C91.5986 57.6172 92.0352 57.7607 92.5684 57.7607ZM102.184 56.7939L104.539 49.4902H106.2L102.79 59H101.551L98.1055 49.4902H99.7666L102.184 56.7939ZM111.588 59.1758C110.299 59.1758 109.25 58.7539 108.441 57.9102C107.633 57.0605 107.229 55.9268 107.229 54.5088V54.21C107.229 53.2666 107.407 52.4258 107.765 51.6875C108.128 50.9434 108.632 50.3633 109.276 49.9473C109.927 49.5254 110.63 49.3145 111.386 49.3145C112.622 49.3145 113.583 49.7217 114.269 50.5361C114.954 51.3506 115.297 52.5166 115.297 54.0342V54.7109H108.854C108.878 55.6484 109.15 56.4072 109.672 56.9873C110.199 57.5615 110.867 57.8486 111.676 57.8486C112.25 57.8486 112.736 57.7314 113.135 57.4971C113.533 57.2627 113.882 56.9521 114.181 56.5654L115.174 57.3389C114.377 58.5635 113.182 59.1758 111.588 59.1758ZM111.386 50.6504C110.729 50.6504 110.179 50.8906 109.733 51.3711C109.288 51.8457 109.013 52.5137 108.907 53.375H113.671V53.252C113.624 52.4258 113.401 51.7871 113.003 51.3359C112.604 50.8789 112.065 50.6504 111.386 50.6504ZM118.953 59H117.327V45.5H118.953V59ZM131.899 59C131.806 58.8125 131.729 58.4785 131.671 57.998C130.915 58.7832 130.013 59.1758 128.964 59.1758C128.026 59.1758 127.256 58.9121 126.652 58.3848C126.055 57.8516 125.756 57.1777 125.756 56.3633C125.756 55.373 126.131 54.6055 126.881 54.0605C127.637 53.5098 128.697 53.2344 130.062 53.2344H131.645V52.4873C131.645 51.9189 131.475 51.4678 131.135 51.1338C130.795 50.7939 130.294 50.624 129.632 50.624C129.052 50.624 128.565 50.7705 128.173 51.0635C127.78 51.3564 127.584 51.7109 127.584 52.127H125.949C125.949 51.6523 126.116 51.1953 126.45 50.7559C126.79 50.3105 127.247 49.959 127.821 49.7012C128.401 49.4434 129.037 49.3145 129.729 49.3145C130.824 49.3145 131.683 49.5898 132.304 50.1406C132.925 50.6855 133.247 51.4385 133.271 52.3994V56.7764C133.271 57.6494 133.382 58.3438 133.604 58.8594V59H131.899ZM129.201 57.7607C129.711 57.7607 130.194 57.6289 130.651 57.3652C131.108 57.1016 131.439 56.7588 131.645 56.3369V54.3857H130.37C128.378 54.3857 127.382 54.9688 127.382 56.1348C127.382 56.6445 127.552 57.043 127.892 57.3301C128.231 57.6172 128.668 57.7607 129.201 57.7607ZM135.433 54.166C135.433 52.6836 135.775 51.5059 136.461 50.6328C137.146 49.7539 138.055 49.3145 139.186 49.3145C140.346 49.3145 141.251 49.7246 141.901 50.5449L141.98 49.4902H143.466V58.7715C143.466 60.002 143.1 60.9717 142.367 61.6807C141.641 62.3896 140.662 62.7441 139.432 62.7441C138.746 62.7441 138.075 62.5977 137.419 62.3047C136.763 62.0117 136.262 61.6104 135.916 61.1006L136.76 60.125C137.457 60.9863 138.31 61.417 139.317 61.417C140.108 61.417 140.724 61.1943 141.163 60.749C141.608 60.3037 141.831 59.6768 141.831 58.8682V58.0508C141.181 58.8008 140.293 59.1758 139.168 59.1758C138.055 59.1758 137.152 58.7275 136.461 57.8311C135.775 56.9346 135.433 55.7129 135.433 54.166ZM137.067 54.3506C137.067 55.4229 137.287 56.2666 137.727 56.8818C138.166 57.4912 138.781 57.7959 139.572 57.7959C140.598 57.7959 141.351 57.3301 141.831 56.3984V52.0566C141.333 51.1484 140.586 50.6943 139.59 50.6943C138.799 50.6943 138.181 51.002 137.735 51.6172C137.29 52.2324 137.067 53.1436 137.067 54.3506ZM149.873 59.1758C148.584 59.1758 147.535 58.7539 146.727 57.9102C145.918 57.0605 145.514 55.9268 145.514 54.5088V54.21C145.514 53.2666 145.692 52.4258 146.05 51.6875C146.413 50.9434 146.917 50.3633 147.562 49.9473C148.212 49.5254 148.915 49.3145 149.671 49.3145C150.907 49.3145 151.868 49.7217 152.554 50.5361C153.239 51.3506 153.582 52.5166 153.582 54.0342V54.7109H147.14C147.163 55.6484 147.436 56.4072 147.957 56.9873C148.484 57.5615 149.152 57.8486 149.961 57.8486C150.535 57.8486 151.021 57.7314 151.42 57.4971C151.818 57.2627 152.167 56.9521 152.466 56.5654L153.459 57.3389C152.662 58.5635 151.467 59.1758 149.873 59.1758ZM149.671 50.6504C149.015 50.6504 148.464 50.8906 148.019 51.3711C147.573 51.8457 147.298 52.5137 147.192 53.375H151.956V53.252C151.909 52.4258 151.687 51.7871 151.288 51.3359C150.89 50.8789 150.351 50.6504 149.671 50.6504ZM157.01 49.4902L157.062 50.6855C157.789 49.7715 158.738 49.3145 159.91 49.3145C161.92 49.3145 162.934 50.4482 162.951 52.7158V59H161.325V52.707C161.319 52.0215 161.161 51.5146 160.851 51.1865C160.546 50.8584 160.068 50.6943 159.418 50.6943C158.891 50.6943 158.428 50.835 158.029 51.1162C157.631 51.3975 157.32 51.7666 157.098 52.2236V59H155.472V49.4902H157.01ZM169.218 57.8486C169.798 57.8486 170.305 57.6729 170.738 57.3213C171.172 56.9697 171.412 56.5303 171.459 56.0029H172.997C172.968 56.5479 172.78 57.0664 172.435 57.5586C172.089 58.0508 171.626 58.4434 171.046 58.7363C170.472 59.0293 169.862 59.1758 169.218 59.1758C167.923 59.1758 166.892 58.7451 166.124 57.8838C165.362 57.0166 164.981 55.833 164.981 54.333V54.0605C164.981 53.1348 165.151 52.3115 165.491 51.5908C165.831 50.8701 166.317 50.3105 166.95 49.9121C167.589 49.5137 168.342 49.3145 169.209 49.3145C170.275 49.3145 171.16 49.6338 171.863 50.2725C172.572 50.9111 172.95 51.7402 172.997 52.7598H171.459C171.412 52.1445 171.178 51.6406 170.756 51.248C170.34 50.8496 169.824 50.6504 169.209 50.6504C168.383 50.6504 167.741 50.9492 167.284 51.5469C166.833 52.1387 166.607 52.9971 166.607 54.1221V54.4297C166.607 55.5254 166.833 56.3691 167.284 56.9609C167.735 57.5527 168.38 57.8486 169.218 57.8486ZM176.592 59H174.966V49.4902H176.592V59ZM174.834 46.9678C174.834 46.7041 174.913 46.4814 175.071 46.2998C175.235 46.1182 175.476 46.0273 175.792 46.0273C176.108 46.0273 176.349 46.1182 176.513 46.2998C176.677 46.4814 176.759 46.7041 176.759 46.9678C176.759 47.2314 176.677 47.4512 176.513 47.627C176.349 47.8027 176.108 47.8906 175.792 47.8906C175.476 47.8906 175.235 47.8027 175.071 47.627C174.913 47.4512 174.834 47.2314 174.834 46.9678ZM183.148 59.1758C181.859 59.1758 180.811 58.7539 180.002 57.9102C179.193 57.0605 178.789 55.9268 178.789 54.5088V54.21C178.789 53.2666 178.968 52.4258 179.325 51.6875C179.688 50.9434 180.192 50.3633 180.837 49.9473C181.487 49.5254 182.19 49.3145 182.946 49.3145C184.183 49.3145 185.144 49.7217 185.829 50.5361C186.515 51.3506 186.857 52.5166 186.857 54.0342V54.7109H180.415C180.438 55.6484 180.711 56.4072 181.232 56.9873C181.76 57.5615 182.428 57.8486 183.236 57.8486C183.811 57.8486 184.297 57.7314 184.695 57.4971C185.094 57.2627 185.442 56.9521 185.741 56.5654L186.734 57.3389C185.938 58.5635 184.742 59.1758 183.148 59.1758ZM182.946 50.6504C182.29 50.6504 181.739 50.8906 181.294 51.3711C180.849 51.8457 180.573 52.5137 180.468 53.375H185.231V53.252C185.185 52.4258 184.962 51.7871 184.563 51.3359C184.165 50.8789 183.626 50.6504 182.946 50.6504ZM194.284 56.4775C194.284 56.0381 194.117 55.6982 193.783 55.458C193.455 55.2119 192.878 55.001 192.052 54.8252C191.231 54.6494 190.578 54.4385 190.092 54.1924C189.611 53.9463 189.254 53.6533 189.02 53.3135C188.791 52.9736 188.677 52.5693 188.677 52.1006C188.677 51.3213 189.005 50.6621 189.661 50.123C190.323 49.584 191.167 49.3145 192.192 49.3145C193.271 49.3145 194.144 49.5928 194.812 50.1494C195.485 50.7061 195.822 51.418 195.822 52.2852H194.188C194.188 51.8398 193.997 51.4561 193.616 51.1338C193.241 50.8115 192.767 50.6504 192.192 50.6504C191.601 50.6504 191.138 50.7793 190.804 51.0371C190.47 51.2949 190.303 51.6318 190.303 52.0479C190.303 52.4404 190.458 52.7363 190.769 52.9355C191.079 53.1348 191.639 53.3252 192.447 53.5068C193.262 53.6885 193.921 53.9053 194.425 54.1572C194.929 54.4092 195.301 54.7139 195.541 55.0713C195.787 55.4229 195.91 55.8535 195.91 56.3633C195.91 57.2129 195.57 57.8955 194.891 58.4111C194.211 58.9209 193.329 59.1758 192.245 59.1758C191.483 59.1758 190.81 59.041 190.224 58.7715C189.638 58.502 189.178 58.127 188.844 57.6465C188.516 57.1602 188.352 56.6357 188.352 56.0732H189.978C190.007 56.6182 190.224 57.0518 190.628 57.374C191.038 57.6904 191.577 57.8486 192.245 57.8486C192.86 57.8486 193.353 57.7256 193.722 57.4795C194.097 57.2275 194.284 56.8936 194.284 56.4775ZM204.26 59H202.634V49.4902H204.26V59ZM202.502 46.9678C202.502 46.7041 202.581 46.4814 202.739 46.2998C202.903 46.1182 203.144 46.0273 203.46 46.0273C203.776 46.0273 204.017 46.1182 204.181 46.2998C204.345 46.4814 204.427 46.7041 204.427 46.9678C204.427 47.2314 204.345 47.4512 204.181 47.627C204.017 47.8027 203.776 47.8906 203.46 47.8906C203.144 47.8906 202.903 47.8027 202.739 47.627C202.581 47.4512 202.502 47.2314 202.502 46.9678ZM208.408 49.4902L208.461 50.6855C209.188 49.7715 210.137 49.3145 211.309 49.3145C213.318 49.3145 214.332 50.4482 214.35 52.7158V59H212.724V52.707C212.718 52.0215 212.56 51.5146 212.249 51.1865C211.944 50.8584 211.467 50.6943 210.816 50.6943C210.289 50.6943 209.826 50.835 209.428 51.1162C209.029 51.3975 208.719 51.7666 208.496 52.2236V59H206.87V49.4902H208.408ZM65.9287 80V67.2031H70.1123C71.501 67.2031 72.5439 67.4902 73.2412 68.0645C73.9443 68.6387 74.2959 69.4883 74.2959 70.6133C74.2959 71.2109 74.126 71.7412 73.7861 72.2041C73.4463 72.6611 72.9834 73.0156 72.3975 73.2676C73.0889 73.4609 73.6338 73.8301 74.0322 74.375C74.4365 74.9141 74.6387 75.5586 74.6387 76.3086C74.6387 77.457 74.2666 78.3594 73.5225 79.0156C72.7783 79.6719 71.7266 80 70.3672 80H65.9287ZM67.6162 74.0146V78.6201H70.4023C71.1875 78.6201 71.8057 78.418 72.2568 78.0137C72.7139 77.6035 72.9424 77.041 72.9424 76.3262C72.9424 74.7852 72.1045 74.0146 70.4287 74.0146H67.6162ZM67.6162 72.6611H70.165C70.9033 72.6611 71.4922 72.4766 71.9316 72.1074C72.377 71.7383 72.5996 71.2373 72.5996 70.6045C72.5996 69.9014 72.3945 69.3916 71.9844 69.0752C71.5742 68.7529 70.9502 68.5918 70.1123 68.5918H67.6162V72.6611ZM82.7598 80C82.666 79.8125 82.5898 79.4785 82.5312 78.998C81.7754 79.7832 80.873 80.1758 79.8242 80.1758C78.8867 80.1758 78.1162 79.9121 77.5127 79.3848C76.915 78.8516 76.6162 78.1777 76.6162 77.3633C76.6162 76.373 76.9912 75.6055 77.7412 75.0605C78.4971 74.5098 79.5576 74.2344 80.9229 74.2344H82.5049V73.4873C82.5049 72.9189 82.335 72.4678 81.9951 72.1338C81.6553 71.7939 81.1543 71.624 80.4922 71.624C79.9121 71.624 79.4258 71.7705 79.0332 72.0635C78.6406 72.3564 78.4443 72.7109 78.4443 73.127H76.8096C76.8096 72.6523 76.9766 72.1953 77.3105 71.7559C77.6504 71.3105 78.1074 70.959 78.6816 70.7012C79.2617 70.4434 79.8975 70.3145 80.5889 70.3145C81.6846 70.3145 82.543 70.5898 83.1641 71.1406C83.7852 71.6855 84.1074 72.4385 84.1309 73.3994V77.7764C84.1309 78.6494 84.2422 79.3438 84.4648 79.8594V80H82.7598ZM80.0615 78.7607C80.5713 78.7607 81.0547 78.6289 81.5117 78.3652C81.9688 78.1016 82.2998 77.7588 82.5049 77.3369V75.3857H81.2305C79.2383 75.3857 78.2422 75.9688 78.2422 77.1348C78.2422 77.6445 78.4121 78.043 78.752 78.3301C79.0918 78.6172 79.5283 78.7607 80.0615 78.7607ZM88.2178 70.4902L88.2705 71.6855C88.9971 70.7715 89.9463 70.3145 91.1182 70.3145C93.1279 70.3145 94.1416 71.4482 94.1592 73.7158V80H92.5332V73.707C92.5273 73.0215 92.3691 72.5146 92.0586 72.1865C91.7539 71.8584 91.2764 71.6943 90.626 71.6943C90.0986 71.6943 89.6357 71.835 89.2373 72.1162C88.8389 72.3975 88.5283 72.7666 88.3057 73.2236V80H86.6797V70.4902H88.2178ZM96.2246 75.166C96.2246 73.6836 96.5674 72.5059 97.2529 71.6328C97.9385 70.7539 98.8467 70.3145 99.9775 70.3145C101.138 70.3145 102.043 70.7246 102.693 71.5449L102.772 70.4902H104.258V79.7715C104.258 81.002 103.892 81.9717 103.159 82.6807C102.433 83.3896 101.454 83.7441 100.224 83.7441C99.5381 83.7441 98.8672 83.5977 98.2109 83.3047C97.5547 83.0117 97.0537 82.6104 96.708 82.1006L97.5518 81.125C98.249 81.9863 99.1016 82.417 100.109 82.417C100.9 82.417 101.516 82.1943 101.955 81.749C102.4 81.3037 102.623 80.6768 102.623 79.8682V79.0508C101.973 79.8008 101.085 80.1758 99.96 80.1758C98.8467 80.1758 97.9443 79.7275 97.2529 78.8311C96.5674 77.9346 96.2246 76.7129 96.2246 75.166ZM97.8594 75.3506C97.8594 76.4229 98.0791 77.2666 98.5186 77.8818C98.958 78.4912 99.5732 78.7959 100.364 78.7959C101.39 78.7959 102.143 78.3301 102.623 77.3984V73.0566C102.125 72.1484 101.378 71.6943 100.382 71.6943C99.5908 71.6943 98.9727 72.002 98.5273 72.6172C98.082 73.2324 97.8594 74.1436 97.8594 75.3506ZM108.485 80H106.859V66.5H108.485V80ZM116.967 80C116.873 79.8125 116.797 79.4785 116.738 78.998C115.982 79.7832 115.08 80.1758 114.031 80.1758C113.094 80.1758 112.323 79.9121 111.72 79.3848C111.122 78.8516 110.823 78.1777 110.823 77.3633C110.823 76.373 111.198 75.6055 111.948 75.0605C112.704 74.5098 113.765 74.2344 115.13 74.2344H116.712V73.4873C116.712 72.9189 116.542 72.4678 116.202 72.1338C115.862 71.7939 115.361 71.624 114.699 71.624C114.119 71.624 113.633 71.7705 113.24 72.0635C112.848 72.3564 112.651 72.7109 112.651 73.127H111.017C111.017 72.6523 111.184 72.1953 111.518 71.7559C111.857 71.3105 112.314 70.959 112.889 70.7012C113.469 70.4434 114.104 70.3145 114.796 70.3145C115.892 70.3145 116.75 70.5898 117.371 71.1406C117.992 71.6855 118.314 72.4385 118.338 73.3994V77.7764C118.338 78.6494 118.449 79.3438 118.672 79.8594V80H116.967ZM114.269 78.7607C114.778 78.7607 115.262 78.6289 115.719 78.3652C116.176 78.1016 116.507 77.7588 116.712 77.3369V75.3857H115.438C113.445 75.3857 112.449 75.9688 112.449 77.1348C112.449 77.6445 112.619 78.043 112.959 78.3301C113.299 78.6172 113.735 78.7607 114.269 78.7607ZM120.491 75.166C120.491 73.707 120.837 72.5352 121.528 71.6504C122.22 70.7598 123.125 70.3145 124.244 70.3145C125.357 70.3145 126.239 70.6953 126.89 71.457V66.5H128.516V80H127.021L126.942 78.9805C126.292 79.7773 125.387 80.1758 124.227 80.1758C123.125 80.1758 122.226 79.7246 121.528 78.8223C120.837 77.9199 120.491 76.7422 120.491 75.2891V75.166ZM122.117 75.3506C122.117 76.4287 122.34 77.2725 122.785 77.8818C123.23 78.4912 123.846 78.7959 124.631 78.7959C125.662 78.7959 126.415 78.333 126.89 77.4072V73.0391C126.403 72.1426 125.656 71.6943 124.648 71.6943C123.852 71.6943 123.23 72.002 122.785 72.6172C122.34 73.2324 122.117 74.1436 122.117 75.3506ZM134.993 80.1758C133.704 80.1758 132.655 79.7539 131.847 78.9102C131.038 78.0605 130.634 76.9268 130.634 75.5088V75.21C130.634 74.2666 130.812 73.4258 131.17 72.6875C131.533 71.9434 132.037 71.3633 132.682 70.9473C133.332 70.5254 134.035 70.3145 134.791 70.3145C136.027 70.3145 136.988 70.7217 137.674 71.5361C138.359 72.3506 138.702 73.5166 138.702 75.0342V75.7109H132.26C132.283 76.6484 132.556 77.4072 133.077 77.9873C133.604 78.5615 134.272 78.8486 135.081 78.8486C135.655 78.8486 136.142 78.7314 136.54 78.4971C136.938 78.2627 137.287 77.9521 137.586 77.5654L138.579 78.3389C137.782 79.5635 136.587 80.1758 134.993 80.1758ZM134.791 71.6504C134.135 71.6504 133.584 71.8906 133.139 72.3711C132.693 72.8457 132.418 73.5137 132.312 74.375H137.076V74.252C137.029 73.4258 136.807 72.7871 136.408 72.3359C136.01 71.8789 135.471 71.6504 134.791 71.6504ZM146.129 77.4775C146.129 77.0381 145.962 76.6982 145.628 76.458C145.3 76.2119 144.723 76.001 143.896 75.8252C143.076 75.6494 142.423 75.4385 141.937 75.1924C141.456 74.9463 141.099 74.6533 140.864 74.3135C140.636 73.9736 140.521 73.5693 140.521 73.1006C140.521 72.3213 140.85 71.6621 141.506 71.123C142.168 70.584 143.012 70.3145 144.037 70.3145C145.115 70.3145 145.988 70.5928 146.656 71.1494C147.33 71.7061 147.667 72.418 147.667 73.2852H146.032C146.032 72.8398 145.842 72.4561 145.461 72.1338C145.086 71.8115 144.611 71.6504 144.037 71.6504C143.445 71.6504 142.982 71.7793 142.648 72.0371C142.314 72.2949 142.147 72.6318 142.147 73.0479C142.147 73.4404 142.303 73.7363 142.613 73.9355C142.924 74.1348 143.483 74.3252 144.292 74.5068C145.106 74.6885 145.766 74.9053 146.27 75.1572C146.773 75.4092 147.146 75.7139 147.386 76.0713C147.632 76.4229 147.755 76.8535 147.755 77.3633C147.755 78.2129 147.415 78.8955 146.735 79.4111C146.056 79.9209 145.174 80.1758 144.09 80.1758C143.328 80.1758 142.654 80.041 142.068 79.7715C141.482 79.502 141.022 79.127 140.688 78.6465C140.36 78.1602 140.196 77.6357 140.196 77.0732H141.822C141.852 77.6182 142.068 78.0518 142.473 78.374C142.883 78.6904 143.422 78.8486 144.09 78.8486C144.705 78.8486 145.197 78.7256 145.566 78.4795C145.941 78.2275 146.129 77.8936 146.129 77.4775ZM151.499 71.6416C152.22 70.7568 153.157 70.3145 154.312 70.3145C156.321 70.3145 157.335 71.4482 157.353 73.7158V80H155.727V73.707C155.721 73.0215 155.562 72.5146 155.252 72.1865C154.947 71.8584 154.47 71.6943 153.819 71.6943C153.292 71.6943 152.829 71.835 152.431 72.1162C152.032 72.3975 151.722 72.7666 151.499 73.2236V80H149.873V66.5H151.499V71.6416Z" fill="#020202"/>
</svg>
