<svg width="235" height="106" viewBox="0 0 235 106" fill="none" xmlns="http://www.w3.org/2000/svg">
<path d="M46.6074 15.3213C46.1738 15.9424 45.5674 16.4082 44.7881 16.7188C44.0146 17.0234 43.1123 17.1758 42.0811 17.1758C41.0381 17.1758 40.1123 16.9326 39.3037 16.4463C38.4951 15.9541 37.8682 15.2568 37.4229 14.3545C36.9834 13.4521 36.7578 12.4062 36.7461 11.2168V10.1006C36.7461 8.17285 37.1943 6.67871 38.0908 5.61816C38.9932 4.55762 40.2588 4.02734 41.8877 4.02734C43.2236 4.02734 44.2988 4.37012 45.1133 5.05566C45.9277 5.73535 46.4258 6.70215 46.6074 7.95605H44.9199C44.6035 6.2627 43.5957 5.41602 41.8965 5.41602C40.7656 5.41602 39.9072 5.81445 39.3213 6.61133C38.7412 7.40234 38.4482 8.55078 38.4424 10.0566V11.1025C38.4424 12.5381 38.7705 13.6807 39.4268 14.5303C40.083 15.374 40.9707 15.7959 42.0898 15.7959C42.7227 15.7959 43.2764 15.7256 43.751 15.585C44.2256 15.4443 44.6182 15.207 44.9287 14.873V11.999H41.9668V10.6279H46.6074V15.3213ZM53.7705 8.94922C53.5244 8.9082 53.2578 8.8877 52.9707 8.8877C51.9043 8.8877 51.1807 9.3418 50.7998 10.25V17H49.1738V7.49023H50.7559L50.7822 8.58887C51.3154 7.73926 52.0713 7.31445 53.0498 7.31445C53.3662 7.31445 53.6064 7.35547 53.7705 7.4375V8.94922ZM59.0439 17.1758C57.7549 17.1758 56.7061 16.7539 55.8975 15.9102C55.0889 15.0605 54.6846 13.9268 54.6846 12.5088V12.21C54.6846 11.2666 54.8633 10.4258 55.2207 9.6875C55.584 8.94336 56.0879 8.36328 56.7324 7.94727C57.3828 7.52539 58.0859 7.31445 58.8418 7.31445C60.0781 7.31445 61.0391 7.72168 61.7246 8.53613C62.4102 9.35059 62.7529 10.5166 62.7529 12.0342V12.7109H56.3105C56.334 13.6484 56.6064 14.4072 57.1279 14.9873C57.6553 15.5615 58.3232 15.8486 59.1318 15.8486C59.7061 15.8486 60.1924 15.7314 60.5908 15.4971C60.9893 15.2627 61.3379 14.9521 61.6367 14.5654L62.6299 15.3389C61.833 16.5635 60.6377 17.1758 59.0439 17.1758ZM58.8418 8.65039C58.1855 8.65039 57.6348 8.89062 57.1895 9.37109C56.7441 9.8457 56.4688 10.5137 56.3633 11.375H61.127V11.252C61.0801 10.4258 60.8574 9.78711 60.459 9.33594C60.0605 8.87891 59.5215 8.65039 58.8418 8.65039ZM70.5137 17C70.4199 16.8125 70.3438 16.4785 70.2852 15.998C69.5293 16.7832 68.627 17.1758 67.5781 17.1758C66.6406 17.1758 65.8701 16.9121 65.2666 16.3848C64.6689 15.8516 64.3701 15.1777 64.3701 14.3633C64.3701 13.373 64.7451 12.6055 65.4951 12.0605C66.251 11.5098 67.3115 11.2344 68.6768 11.2344H70.2588V10.4873C70.2588 9.91895 70.0889 9.46777 69.749 9.13379C69.4092 8.79395 68.9082 8.62402 68.2461 8.62402C67.666 8.62402 67.1797 8.77051 66.7871 9.06348C66.3945 9.35645 66.1982 9.71094 66.1982 10.127H64.5635C64.5635 9.65234 64.7305 9.19531 65.0645 8.75586C65.4043 8.31055 65.8613 7.95898 66.4355 7.70117C67.0156 7.44336 67.6514 7.31445 68.3428 7.31445C69.4385 7.31445 70.2969 7.58984 70.918 8.14062C71.5391 8.68555 71.8613 9.43848 71.8848 10.3994V14.7764C71.8848 15.6494 71.9961 16.3438 72.2188 16.8594V17H70.5137ZM67.8154 15.7607C68.3252 15.7607 68.8086 15.6289 69.2656 15.3652C69.7227 15.1016 70.0537 14.7588 70.2588 14.3369V12.3857H68.9844C66.9922 12.3857 65.9961 12.9688 65.9961 14.1348C65.9961 14.6445 66.166 15.043 66.5059 15.3301C66.8457 15.6172 67.2822 15.7607 67.8154 15.7607ZM76.6396 5.1875V7.49023H78.415V8.74707H76.6396V14.6445C76.6396 15.0254 76.7188 15.3125 76.877 15.5059C77.0352 15.6934 77.3047 15.7871 77.6855 15.7871C77.873 15.7871 78.1309 15.752 78.459 15.6816V17C78.0312 17.1172 77.6152 17.1758 77.2109 17.1758C76.4844 17.1758 75.9365 16.9561 75.5674 16.5166C75.1982 16.0771 75.0137 15.4531 75.0137 14.6445V8.74707H73.2822V7.49023H75.0137V5.1875H76.6396ZM86.7295 11.9902V17H85.042V4.20312H89.7617C91.1621 4.20312 92.2578 4.56055 93.0488 5.27539C93.8457 5.99023 94.2441 6.93652 94.2441 8.11426C94.2441 9.35645 93.8545 10.3145 93.0752 10.9883C92.3018 11.6562 91.1914 11.9902 89.7441 11.9902H86.7295ZM86.7295 10.6104H89.7617C90.6641 10.6104 91.3555 10.3994 91.8359 9.97754C92.3164 9.5498 92.5566 8.93457 92.5566 8.13184C92.5566 7.37012 92.3164 6.76074 91.8359 6.30371C91.3555 5.84668 90.6963 5.60938 89.8584 5.5918H86.7295V10.6104ZM99.9658 17.1758C98.6768 17.1758 97.6279 16.7539 96.8193 15.9102C96.0107 15.0605 95.6064 13.9268 95.6064 12.5088V12.21C95.6064 11.2666 95.7852 10.4258 96.1426 9.6875C96.5059 8.94336 97.0098 8.36328 97.6543 7.94727C98.3047 7.52539 99.0078 7.31445 99.7637 7.31445C101 7.31445 101.961 7.72168 102.646 8.53613C103.332 9.35059 103.675 10.5166 103.675 12.0342V12.7109H97.2324C97.2559 13.6484 97.5283 14.4072 98.0498 14.9873C98.5771 15.5615 99.2451 15.8486 100.054 15.8486C100.628 15.8486 101.114 15.7314 101.513 15.4971C101.911 15.2627 102.26 14.9521 102.559 14.5654L103.552 15.3389C102.755 16.5635 101.56 17.1758 99.9658 17.1758ZM99.7637 8.65039C99.1074 8.65039 98.5566 8.89062 98.1113 9.37109C97.666 9.8457 97.3906 10.5137 97.2852 11.375H102.049V11.252C102.002 10.4258 101.779 9.78711 101.381 9.33594C100.982 8.87891 100.443 8.65039 99.7637 8.65039ZM105.134 12.1572C105.134 11.2256 105.315 10.3877 105.679 9.64355C106.048 8.89941 106.558 8.3252 107.208 7.9209C107.864 7.5166 108.611 7.31445 109.449 7.31445C110.744 7.31445 111.79 7.7627 112.587 8.65918C113.39 9.55566 113.791 10.748 113.791 12.2363V12.3506C113.791 13.2764 113.612 14.1084 113.255 14.8467C112.903 15.5791 112.396 16.1504 111.734 16.5605C111.078 16.9707 110.322 17.1758 109.467 17.1758C108.178 17.1758 107.132 16.7275 106.329 15.8311C105.532 14.9346 105.134 13.748 105.134 12.2715V12.1572ZM106.769 12.3506C106.769 13.4053 107.012 14.252 107.498 14.8906C107.99 15.5293 108.646 15.8486 109.467 15.8486C110.293 15.8486 110.949 15.5264 111.436 14.8818C111.922 14.2314 112.165 13.3232 112.165 12.1572C112.165 11.1143 111.916 10.2705 111.418 9.62598C110.926 8.97559 110.27 8.65039 109.449 8.65039C108.646 8.65039 107.999 8.96973 107.507 9.6084C107.015 10.2471 106.769 11.1611 106.769 12.3506ZM123.863 12.3506C123.863 13.7979 123.532 14.9639 122.87 15.8486C122.208 16.7334 121.312 17.1758 120.181 17.1758C119.026 17.1758 118.118 16.8096 117.456 16.0771V20.6562H115.83V7.49023H117.315L117.395 8.54492C118.057 7.72461 118.977 7.31445 120.154 7.31445C121.297 7.31445 122.199 7.74512 122.861 8.60645C123.529 9.46777 123.863 10.666 123.863 12.2012V12.3506ZM122.237 12.166C122.237 11.0938 122.009 10.2471 121.552 9.62598C121.095 9.00488 120.468 8.69434 119.671 8.69434C118.687 8.69434 117.948 9.13086 117.456 10.0039V14.5479C117.942 15.415 118.687 15.8486 119.688 15.8486C120.468 15.8486 121.086 15.541 121.543 14.9258C122.006 14.3047 122.237 13.3848 122.237 12.166ZM127.704 17H126.078V3.5H127.704V17ZM134.261 17.1758C132.972 17.1758 131.923 16.7539 131.114 15.9102C130.306 15.0605 129.901 13.9268 129.901 12.5088V12.21C129.901 11.2666 130.08 10.4258 130.438 9.6875C130.801 8.94336 131.305 8.36328 131.949 7.94727C132.6 7.52539 133.303 7.31445 134.059 7.31445C135.295 7.31445 136.256 7.72168 136.941 8.53613C137.627 9.35059 137.97 10.5166 137.97 12.0342V12.7109H131.527C131.551 13.6484 131.823 14.4072 132.345 14.9873C132.872 15.5615 133.54 15.8486 134.349 15.8486C134.923 15.8486 135.409 15.7314 135.808 15.4971C136.206 15.2627 136.555 14.9521 136.854 14.5654L137.847 15.3389C137.05 16.5635 135.854 17.1758 134.261 17.1758ZM134.059 8.65039C133.402 8.65039 132.852 8.89062 132.406 9.37109C131.961 9.8457 131.686 10.5137 131.58 11.375H136.344V11.252C136.297 10.4258 136.074 9.78711 135.676 9.33594C135.277 8.87891 134.738 8.65039 134.059 8.65039ZM145.396 14.4775C145.396 14.0381 145.229 13.6982 144.896 13.458C144.567 13.2119 143.99 13.001 143.164 12.8252C142.344 12.6494 141.69 12.4385 141.204 12.1924C140.724 11.9463 140.366 11.6533 140.132 11.3135C139.903 10.9736 139.789 10.5693 139.789 10.1006C139.789 9.32129 140.117 8.66211 140.773 8.12305C141.436 7.58398 142.279 7.31445 143.305 7.31445C144.383 7.31445 145.256 7.59277 145.924 8.14941C146.598 8.70605 146.935 9.41797 146.935 10.2852H145.3C145.3 9.83984 145.109 9.45605 144.729 9.13379C144.354 8.81152 143.879 8.65039 143.305 8.65039C142.713 8.65039 142.25 8.7793 141.916 9.03711C141.582 9.29492 141.415 9.63184 141.415 10.0479C141.415 10.4404 141.57 10.7363 141.881 10.9355C142.191 11.1348 142.751 11.3252 143.56 11.5068C144.374 11.6885 145.033 11.9053 145.537 12.1572C146.041 12.4092 146.413 12.7139 146.653 13.0713C146.899 13.4229 147.022 13.8535 147.022 14.3633C147.022 15.2129 146.683 15.8955 146.003 16.4111C145.323 16.9209 144.441 17.1758 143.357 17.1758C142.596 17.1758 141.922 17.041 141.336 16.7715C140.75 16.502 140.29 16.127 139.956 15.6465C139.628 15.1602 139.464 14.6357 139.464 14.0732H141.09C141.119 14.6182 141.336 15.0518 141.74 15.374C142.15 15.6904 142.689 15.8486 143.357 15.8486C143.973 15.8486 144.465 15.7256 144.834 15.4795C145.209 15.2275 145.396 14.8936 145.396 14.4775ZM153.553 19.5488L152.63 18.916C153.181 18.1484 153.468 17.3574 153.491 16.543V15.0752H155.082V16.3496C155.082 16.9414 154.936 17.5332 154.643 18.125C154.355 18.7168 153.992 19.1914 153.553 19.5488ZM166.842 15.3213C166.408 15.9424 165.802 16.4082 165.022 16.7188C164.249 17.0234 163.347 17.1758 162.315 17.1758C161.272 17.1758 160.347 16.9326 159.538 16.4463C158.729 15.9541 158.103 15.2568 157.657 14.3545C157.218 13.4521 156.992 12.4062 156.98 11.2168V10.1006C156.98 8.17285 157.429 6.67871 158.325 5.61816C159.228 4.55762 160.493 4.02734 162.122 4.02734C163.458 4.02734 164.533 4.37012 165.348 5.05566C166.162 5.73535 166.66 6.70215 166.842 7.95605H165.154C164.838 6.2627 163.83 5.41602 162.131 5.41602C161 5.41602 160.142 5.81445 159.556 6.61133C158.976 7.40234 158.683 8.55078 158.677 10.0566V11.1025C158.677 12.5381 159.005 13.6807 159.661 14.5303C160.317 15.374 161.205 15.7959 162.324 15.7959C162.957 15.7959 163.511 15.7256 163.985 15.585C164.46 15.4443 164.853 15.207 165.163 14.873V11.999H162.201V10.6279H166.842V15.3213ZM174.005 8.94922C173.759 8.9082 173.492 8.8877 173.205 8.8877C172.139 8.8877 171.415 9.3418 171.034 10.25V17H169.408V7.49023H170.99L171.017 8.58887C171.55 7.73926 172.306 7.31445 173.284 7.31445C173.601 7.31445 173.841 7.35547 174.005 7.4375V8.94922ZM179.278 17.1758C177.989 17.1758 176.94 16.7539 176.132 15.9102C175.323 15.0605 174.919 13.9268 174.919 12.5088V12.21C174.919 11.2666 175.098 10.4258 175.455 9.6875C175.818 8.94336 176.322 8.36328 176.967 7.94727C177.617 7.52539 178.32 7.31445 179.076 7.31445C180.312 7.31445 181.273 7.72168 181.959 8.53613C182.645 9.35059 182.987 10.5166 182.987 12.0342V12.7109H176.545C176.568 13.6484 176.841 14.4072 177.362 14.9873C177.89 15.5615 178.558 15.8486 179.366 15.8486C179.94 15.8486 180.427 15.7314 180.825 15.4971C181.224 15.2627 181.572 14.9521 181.871 14.5654L182.864 15.3389C182.067 16.5635 180.872 17.1758 179.278 17.1758ZM179.076 8.65039C178.42 8.65039 177.869 8.89062 177.424 9.37109C176.979 9.8457 176.703 10.5137 176.598 11.375H181.361V11.252C181.314 10.4258 181.092 9.78711 180.693 9.33594C180.295 8.87891 179.756 8.65039 179.076 8.65039ZM190.748 17C190.654 16.8125 190.578 16.4785 190.52 15.998C189.764 16.7832 188.861 17.1758 187.812 17.1758C186.875 17.1758 186.104 16.9121 185.501 16.3848C184.903 15.8516 184.604 15.1777 184.604 14.3633C184.604 13.373 184.979 12.6055 185.729 12.0605C186.485 11.5098 187.546 11.2344 188.911 11.2344H190.493V10.4873C190.493 9.91895 190.323 9.46777 189.983 9.13379C189.644 8.79395 189.143 8.62402 188.48 8.62402C187.9 8.62402 187.414 8.77051 187.021 9.06348C186.629 9.35645 186.433 9.71094 186.433 10.127H184.798C184.798 9.65234 184.965 9.19531 185.299 8.75586C185.639 8.31055 186.096 7.95898 186.67 7.70117C187.25 7.44336 187.886 7.31445 188.577 7.31445C189.673 7.31445 190.531 7.58984 191.152 8.14062C191.773 8.68555 192.096 9.43848 192.119 10.3994V14.7764C192.119 15.6494 192.23 16.3438 192.453 16.8594V17H190.748ZM188.05 15.7607C188.56 15.7607 189.043 15.6289 189.5 15.3652C189.957 15.1016 190.288 14.7588 190.493 14.3369V12.3857H189.219C187.227 12.3857 186.23 12.9688 186.23 14.1348C186.23 14.6445 186.4 15.043 186.74 15.3301C187.08 15.6172 187.517 15.7607 188.05 15.7607ZM196.874 5.1875V7.49023H198.649V8.74707H196.874V14.6445C196.874 15.0254 196.953 15.3125 197.111 15.5059C197.27 15.6934 197.539 15.7871 197.92 15.7871C198.107 15.7871 198.365 15.752 198.693 15.6816V17C198.266 17.1172 197.85 17.1758 197.445 17.1758C196.719 17.1758 196.171 16.9561 195.802 16.5166C195.433 16.0771 195.248 15.4531 195.248 14.6445V8.74707H193.517V7.49023H195.248V5.1875H196.874ZM8.1377 35.4775C8.1377 35.0381 7.9707 34.6982 7.63672 34.458C7.30859 34.2119 6.73145 34.001 5.90527 33.8252C5.08496 33.6494 4.43164 33.4385 3.94531 33.1924C3.46484 32.9463 3.10742 32.6533 2.87305 32.3135C2.64453 31.9736 2.53027 31.5693 2.53027 31.1006C2.53027 30.3213 2.8584 29.6621 3.51465 29.123C4.17676 28.584 5.02051 28.3145 6.0459 28.3145C7.12402 28.3145 7.99707 28.5928 8.66504 29.1494C9.33887 29.7061 9.67578 30.418 9.67578 31.2852H8.04102C8.04102 30.8398 7.85059 30.4561 7.46973 30.1338C7.09473 29.8115 6.62012 29.6504 6.0459 29.6504C5.4541 29.6504 4.99121 29.7793 4.65723 30.0371C4.32324 30.2949 4.15625 30.6318 4.15625 31.0479C4.15625 31.4404 4.31152 31.7363 4.62207 31.9355C4.93262 32.1348 5.49219 32.3252 6.30078 32.5068C7.11523 32.6885 7.77441 32.9053 8.27832 33.1572C8.78223 33.4092 9.1543 33.7139 9.39453 34.0713C9.64062 34.4229 9.76367 34.8535 9.76367 35.3633C9.76367 36.2129 9.42383 36.8955 8.74414 37.4111C8.06445 37.9209 7.18262 38.1758 6.09863 38.1758C5.33691 38.1758 4.66309 38.041 4.07715 37.7715C3.49121 37.502 3.03125 37.127 2.69727 36.6465C2.36914 36.1602 2.20508 35.6357 2.20508 35.0732H3.83105C3.86035 35.6182 4.07715 36.0518 4.48145 36.374C4.8916 36.6904 5.43066 36.8486 6.09863 36.8486C6.71387 36.8486 7.20605 36.7256 7.5752 36.4795C7.9502 36.2275 8.1377 35.8936 8.1377 35.4775ZM15.8281 38.1758C14.5391 38.1758 13.4902 37.7539 12.6816 36.9102C11.873 36.0605 11.4688 34.9268 11.4688 33.5088V33.21C11.4688 32.2666 11.6475 31.4258 12.0049 30.6875C12.3682 29.9434 12.8721 29.3633 13.5166 28.9473C14.167 28.5254 14.8701 28.3145 15.626 28.3145C16.8623 28.3145 17.8232 28.7217 18.5088 29.5361C19.1943 30.3506 19.5371 31.5166 19.5371 33.0342V33.7109H13.0947C13.1182 34.6484 13.3906 35.4072 13.9121 35.9873C14.4395 36.5615 15.1074 36.8486 15.916 36.8486C16.4902 36.8486 16.9766 36.7314 17.375 36.4971C17.7734 36.2627 18.1221 35.9521 18.4209 35.5654L19.4141 36.3389C18.6172 37.5635 17.4219 38.1758 15.8281 38.1758ZM15.626 29.6504C14.9697 29.6504 14.4189 29.8906 13.9736 30.3711C13.5283 30.8457 13.2529 31.5137 13.1475 32.375H17.9111V32.252C17.8643 31.4258 17.6416 30.7871 17.2432 30.3359C16.8447 29.8789 16.3057 29.6504 15.626 29.6504ZM26.0234 29.9492C25.7773 29.9082 25.5107 29.8877 25.2236 29.8877C24.1572 29.8877 23.4336 30.3418 23.0527 31.25V38H21.4268V28.4902H23.0088L23.0352 29.5889C23.5684 28.7393 24.3242 28.3145 25.3027 28.3145C25.6191 28.3145 25.8594 28.3555 26.0234 28.4375V29.9492ZM30.8223 35.7939L33.1777 28.4902H34.8389L31.4287 38H30.1895L26.7441 28.4902H28.4053L30.8223 35.7939ZM38.1699 38H36.5439V28.4902H38.1699V38ZM36.4121 25.9678C36.4121 25.7041 36.4912 25.4814 36.6494 25.2998C36.8135 25.1182 37.0537 25.0273 37.3701 25.0273C37.6865 25.0273 37.9268 25.1182 38.0908 25.2998C38.2549 25.4814 38.3369 25.7041 38.3369 25.9678C38.3369 26.2314 38.2549 26.4512 38.0908 26.627C37.9268 26.8027 37.6865 26.8906 37.3701 26.8906C37.0537 26.8906 36.8135 26.8027 36.6494 26.627C36.4912 26.4512 36.4121 26.2314 36.4121 25.9678ZM44.5947 36.8486C45.1748 36.8486 45.6816 36.6729 46.1152 36.3213C46.5488 35.9697 46.7891 35.5303 46.8359 35.0029H48.374C48.3447 35.5479 48.1572 36.0664 47.8115 36.5586C47.4658 37.0508 47.0029 37.4434 46.4229 37.7363C45.8486 38.0293 45.2393 38.1758 44.5947 38.1758C43.2998 38.1758 42.2686 37.7451 41.501 36.8838C40.7393 36.0166 40.3584 34.833 40.3584 33.333V33.0605C40.3584 32.1348 40.5283 31.3115 40.8682 30.5908C41.208 29.8701 41.6943 29.3105 42.3271 28.9121C42.9658 28.5137 43.7188 28.3145 44.5859 28.3145C45.6523 28.3145 46.5371 28.6338 47.2402 29.2725C47.9492 29.9111 48.3271 30.7402 48.374 31.7598H46.8359C46.7891 31.1445 46.5547 30.6406 46.1328 30.248C45.7168 29.8496 45.2012 29.6504 44.5859 29.6504C43.7598 29.6504 43.1182 29.9492 42.6611 30.5469C42.21 31.1387 41.9844 31.9971 41.9844 33.1221V33.4297C41.9844 34.5254 42.21 35.3691 42.6611 35.9609C43.1123 36.5527 43.7568 36.8486 44.5947 36.8486ZM54.1484 38.1758C52.8594 38.1758 51.8105 37.7539 51.002 36.9102C50.1934 36.0605 49.7891 34.9268 49.7891 33.5088V33.21C49.7891 32.2666 49.9678 31.4258 50.3252 30.6875C50.6885 29.9434 51.1924 29.3633 51.8369 28.9473C52.4873 28.5254 53.1904 28.3145 53.9463 28.3145C55.1826 28.3145 56.1436 28.7217 56.8291 29.5361C57.5146 30.3506 57.8574 31.5166 57.8574 33.0342V33.7109H51.415C51.4385 34.6484 51.7109 35.4072 52.2324 35.9873C52.7598 36.5615 53.4277 36.8486 54.2363 36.8486C54.8105 36.8486 55.2969 36.7314 55.6953 36.4971C56.0938 36.2627 56.4424 35.9521 56.7412 35.5654L57.7344 36.3389C56.9375 37.5635 55.7422 38.1758 54.1484 38.1758ZM53.9463 29.6504C53.29 29.6504 52.7393 29.8906 52.2939 30.3711C51.8486 30.8457 51.5732 31.5137 51.4678 32.375H56.2314V32.252C56.1846 31.4258 55.9619 30.7871 55.5635 30.3359C55.165 29.8789 54.626 29.6504 53.9463 29.6504ZM65.2842 35.4775C65.2842 35.0381 65.1172 34.6982 64.7832 34.458C64.4551 34.2119 63.8779 34.001 63.0518 33.8252C62.2314 33.6494 61.5781 33.4385 61.0918 33.1924C60.6113 32.9463 60.2539 32.6533 60.0195 32.3135C59.791 31.9736 59.6768 31.5693 59.6768 31.1006C59.6768 30.3213 60.0049 29.6621 60.6611 29.123C61.3232 28.584 62.167 28.3145 63.1924 28.3145C64.2705 28.3145 65.1436 28.5928 65.8115 29.1494C66.4854 29.7061 66.8223 30.418 66.8223 31.2852H65.1875C65.1875 30.8398 64.9971 30.4561 64.6162 30.1338C64.2412 29.8115 63.7666 29.6504 63.1924 29.6504C62.6006 29.6504 62.1377 29.7793 61.8037 30.0371C61.4697 30.2949 61.3027 30.6318 61.3027 31.0479C61.3027 31.4404 61.458 31.7363 61.7686 31.9355C62.0791 32.1348 62.6387 32.3252 63.4473 32.5068C64.2617 32.6885 64.9209 32.9053 65.4248 33.1572C65.9287 33.4092 66.3008 33.7139 66.541 34.0713C66.7871 34.4229 66.9102 34.8535 66.9102 35.3633C66.9102 36.2129 66.5703 36.8955 65.8906 37.4111C65.2109 37.9209 64.3291 38.1758 63.2451 38.1758C62.4834 38.1758 61.8096 38.041 61.2236 37.7715C60.6377 37.502 60.1777 37.127 59.8438 36.6465C59.5156 36.1602 59.3516 35.6357 59.3516 35.0732H60.9775C61.0068 35.6182 61.2236 36.0518 61.6279 36.374C62.0381 36.6904 62.5771 36.8486 63.2451 36.8486C63.8604 36.8486 64.3525 36.7256 64.7217 36.4795C65.0967 36.2275 65.2842 35.8936 65.2842 35.4775ZM69.0635 37.1475C69.0635 36.8662 69.1455 36.6318 69.3096 36.4443C69.4795 36.2568 69.7314 36.1631 70.0654 36.1631C70.3994 36.1631 70.6514 36.2568 70.8213 36.4443C70.9971 36.6318 71.085 36.8662 71.085 37.1475C71.085 37.417 70.9971 37.6426 70.8213 37.8242C70.6514 38.0059 70.3994 38.0967 70.0654 38.0967C69.7314 38.0967 69.4795 38.0059 69.3096 37.8242C69.1455 37.6426 69.0635 37.417 69.0635 37.1475ZM74.0293 38V25.2031H77.6416C78.7549 25.2031 79.7393 25.4492 80.5947 25.9414C81.4502 26.4336 82.1094 27.1338 82.5723 28.042C83.041 28.9502 83.2783 29.9932 83.2842 31.1709V31.9883C83.2842 33.1953 83.0498 34.2529 82.5811 35.1611C82.1182 36.0693 81.4531 36.7666 80.5859 37.2529C79.7246 37.7393 78.7197 37.9883 77.5713 38H74.0293ZM75.7168 26.5918V36.6201H77.4922C78.793 36.6201 79.8037 36.2158 80.5244 35.4072C81.251 34.5986 81.6143 33.4473 81.6143 31.9531V31.2061C81.6143 29.7529 81.2715 28.625 80.5859 27.8223C79.9062 27.0137 78.9395 26.6035 77.6855 26.5918H75.7168ZM89.5332 38.1758C88.2441 38.1758 87.1953 37.7539 86.3867 36.9102C85.5781 36.0605 85.1738 34.9268 85.1738 33.5088V33.21C85.1738 32.2666 85.3525 31.4258 85.71 30.6875C86.0732 29.9434 86.5771 29.3633 87.2217 28.9473C87.8721 28.5254 88.5752 28.3145 89.3311 28.3145C90.5674 28.3145 91.5283 28.7217 92.2139 29.5361C92.8994 30.3506 93.2422 31.5166 93.2422 33.0342V33.7109H86.7998C86.8232 34.6484 87.0957 35.4072 87.6172 35.9873C88.1445 36.5615 88.8125 36.8486 89.6211 36.8486C90.1953 36.8486 90.6816 36.7314 91.0801 36.4971C91.4785 36.2627 91.8271 35.9521 92.126 35.5654L93.1191 36.3389C92.3223 37.5635 91.127 38.1758 89.5332 38.1758ZM89.3311 29.6504C88.6748 29.6504 88.124 29.8906 87.6787 30.3711C87.2334 30.8457 86.958 31.5137 86.8525 32.375H91.6162V32.252C91.5693 31.4258 91.3467 30.7871 90.9482 30.3359C90.5498 29.8789 90.0107 29.6504 89.3311 29.6504ZM95.6768 38V29.7471H94.1738V28.4902H95.6768V27.6816C95.6768 26.6211 95.9785 25.7949 96.582 25.2031C97.1914 24.6113 98.0498 24.3154 99.1572 24.3154C99.8135 24.3154 100.643 24.4941 101.645 24.8516L101.372 26.2227C100.64 25.9297 99.9424 25.7832 99.2803 25.7832C98.583 25.7832 98.0791 25.9414 97.7686 26.2578C97.4639 26.5684 97.3115 27.0371 97.3115 27.6641V28.4902H99.2539V29.7471H97.3115V38H95.6768ZM102.453 38H100.818V28.4902H102.453V38ZM106.637 28.4902L106.689 29.6855C107.416 28.7715 108.365 28.3145 109.537 28.3145C111.547 28.3145 112.561 29.4482 112.578 31.7158V38H110.952V31.707C110.946 31.0215 110.788 30.5146 110.478 30.1865C110.173 29.8584 109.695 29.6943 109.045 29.6943C108.518 29.6943 108.055 29.835 107.656 30.1162C107.258 30.3975 106.947 30.7666 106.725 31.2236V38H105.099V28.4902H106.637ZM116.797 38H115.171V28.4902H116.797V38ZM115.039 25.9678C115.039 25.7041 115.118 25.4814 115.276 25.2998C115.44 25.1182 115.681 25.0273 115.997 25.0273C116.313 25.0273 116.554 25.1182 116.718 25.2998C116.882 25.4814 116.964 25.7041 116.964 25.9678C116.964 26.2314 116.882 26.4512 116.718 26.627C116.554 26.8027 116.313 26.8906 115.997 26.8906C115.681 26.8906 115.44 26.8027 115.276 26.627C115.118 26.4512 115.039 26.2314 115.039 25.9678ZM121.613 26.1875V28.4902H123.389V29.7471H121.613V35.6445C121.613 36.0254 121.692 36.3125 121.851 36.5059C122.009 36.6934 122.278 36.7871 122.659 36.7871C122.847 36.7871 123.104 36.752 123.433 36.6816V38C123.005 38.1172 122.589 38.1758 122.185 38.1758C121.458 38.1758 120.91 37.9561 120.541 37.5166C120.172 37.0771 119.987 36.4531 119.987 35.6445V29.7471H118.256V28.4902H119.987V26.1875H121.613ZM129.242 38.1758C127.953 38.1758 126.904 37.7539 126.096 36.9102C125.287 36.0605 124.883 34.9268 124.883 33.5088V33.21C124.883 32.2666 125.062 31.4258 125.419 30.6875C125.782 29.9434 126.286 29.3633 126.931 28.9473C127.581 28.5254 128.284 28.3145 129.04 28.3145C130.276 28.3145 131.237 28.7217 131.923 29.5361C132.608 30.3506 132.951 31.5166 132.951 33.0342V33.7109H126.509C126.532 34.6484 126.805 35.4072 127.326 35.9873C127.854 36.5615 128.521 36.8486 129.33 36.8486C129.904 36.8486 130.391 36.7314 130.789 36.4971C131.188 36.2627 131.536 35.9521 131.835 35.5654L132.828 36.3389C132.031 37.5635 130.836 38.1758 129.242 38.1758ZM129.04 29.6504C128.384 29.6504 127.833 29.8906 127.388 30.3711C126.942 30.8457 126.667 31.5137 126.562 32.375H131.325V32.252C131.278 31.4258 131.056 30.7871 130.657 30.3359C130.259 29.8789 129.72 29.6504 129.04 29.6504ZM136.607 38H134.981V24.5H136.607V38ZM142.329 35.6182L144.544 28.4902H146.284L142.461 39.4678C141.869 41.0498 140.929 41.8408 139.64 41.8408L139.332 41.8145L138.726 41.7002V40.3818L139.165 40.417C139.716 40.417 140.144 40.3057 140.448 40.083C140.759 39.8604 141.014 39.4531 141.213 38.8613L141.573 37.8945L138.181 28.4902H139.956L142.329 35.6182ZM162.307 32.0146C162.307 33.2686 162.096 34.3643 161.674 35.3018C161.252 36.2334 160.654 36.9453 159.881 37.4375C159.107 37.9297 158.205 38.1758 157.174 38.1758C156.166 38.1758 155.272 37.9297 154.493 37.4375C153.714 36.9395 153.107 36.2334 152.674 35.3193C152.246 34.3994 152.026 33.3359 152.015 32.1289V31.2061C152.015 29.9756 152.229 28.8887 152.656 27.9453C153.084 27.002 153.688 26.2812 154.467 25.7832C155.252 25.2793 156.148 25.0273 157.156 25.0273C158.182 25.0273 159.084 25.2764 159.863 25.7744C160.648 26.2666 161.252 26.9844 161.674 27.9277C162.096 28.8652 162.307 29.958 162.307 31.2061V32.0146ZM160.628 31.1885C160.628 29.6709 160.323 28.5078 159.714 27.6992C159.104 26.8848 158.252 26.4775 157.156 26.4775C156.09 26.4775 155.249 26.8848 154.634 27.6992C154.024 28.5078 153.711 29.6328 153.693 31.0742V32.0146C153.693 33.4854 154.001 34.6426 154.616 35.4863C155.237 36.3242 156.09 36.7432 157.174 36.7432C158.264 36.7432 159.107 36.3477 159.705 35.5566C160.303 34.7598 160.61 33.6201 160.628 32.1377V31.1885ZM166.121 28.4902L166.174 29.6855C166.9 28.7715 167.85 28.3145 169.021 28.3145C171.031 28.3145 172.045 29.4482 172.062 31.7158V38H170.437V31.707C170.431 31.0215 170.272 30.5146 169.962 30.1865C169.657 29.8584 169.18 29.6943 168.529 29.6943C168.002 29.6943 167.539 29.835 167.141 30.1162C166.742 30.3975 166.432 30.7666 166.209 31.2236V38H164.583V28.4902H166.121ZM178.461 38.1758C177.172 38.1758 176.123 37.7539 175.314 36.9102C174.506 36.0605 174.102 34.9268 174.102 33.5088V33.21C174.102 32.2666 174.28 31.4258 174.638 30.6875C175.001 29.9434 175.505 29.3633 176.149 28.9473C176.8 28.5254 177.503 28.3145 178.259 28.3145C179.495 28.3145 180.456 28.7217 181.142 29.5361C181.827 30.3506 182.17 31.5166 182.17 33.0342V33.7109H175.728C175.751 34.6484 176.023 35.4072 176.545 35.9873C177.072 36.5615 177.74 36.8486 178.549 36.8486C179.123 36.8486 179.609 36.7314 180.008 36.4971C180.406 36.2627 180.755 35.9521 181.054 35.5654L182.047 36.3389C181.25 37.5635 180.055 38.1758 178.461 38.1758ZM178.259 29.6504C177.603 29.6504 177.052 29.8906 176.606 30.3711C176.161 30.8457 175.886 31.5137 175.78 32.375H180.544V32.252C180.497 31.4258 180.274 30.7871 179.876 30.3359C179.478 29.8789 178.938 29.6504 178.259 29.6504ZM188.094 33.1572C188.094 32.2256 188.275 31.3877 188.639 30.6436C189.008 29.8994 189.518 29.3252 190.168 28.9209C190.824 28.5166 191.571 28.3145 192.409 28.3145C193.704 28.3145 194.75 28.7627 195.547 29.6592C196.35 30.5557 196.751 31.748 196.751 33.2363V33.3506C196.751 34.2764 196.572 35.1084 196.215 35.8467C195.863 36.5791 195.356 37.1504 194.694 37.5605C194.038 37.9707 193.282 38.1758 192.427 38.1758C191.138 38.1758 190.092 37.7275 189.289 36.8311C188.492 35.9346 188.094 34.748 188.094 33.2715V33.1572ZM189.729 33.3506C189.729 34.4053 189.972 35.252 190.458 35.8906C190.95 36.5293 191.606 36.8486 192.427 36.8486C193.253 36.8486 193.909 36.5264 194.396 35.8818C194.882 35.2314 195.125 34.3232 195.125 33.1572C195.125 32.1143 194.876 31.2705 194.378 30.626C193.886 29.9756 193.229 29.6504 192.409 29.6504C191.606 29.6504 190.959 29.9697 190.467 30.6084C189.975 31.2471 189.729 32.1611 189.729 33.3506ZM199.59 38V29.7471H198.087V28.4902H199.59V27.5146C199.59 26.4951 199.862 25.707 200.407 25.1504C200.952 24.5938 201.723 24.3154 202.719 24.3154C203.094 24.3154 203.466 24.3652 203.835 24.4648L203.747 25.7832C203.472 25.7305 203.179 25.7041 202.868 25.7041C202.341 25.7041 201.934 25.8594 201.646 26.1699C201.359 26.4746 201.216 26.9141 201.216 27.4883V28.4902H203.246V29.7471H201.216V38H199.59ZM211.719 26.1875V28.4902H213.494V29.7471H211.719V35.6445C211.719 36.0254 211.798 36.3125 211.956 36.5059C212.114 36.6934 212.384 36.7871 212.765 36.7871C212.952 36.7871 213.21 36.752 213.538 36.6816V38C213.11 38.1172 212.694 38.1758 212.29 38.1758C211.563 38.1758 211.016 37.9561 210.646 37.5166C210.277 37.0771 210.093 36.4531 210.093 35.6445V29.7471H208.361V28.4902H210.093V26.1875H211.719ZM217.027 29.6416C217.748 28.7568 218.686 28.3145 219.84 28.3145C221.85 28.3145 222.863 29.4482 222.881 31.7158V38H221.255V31.707C221.249 31.0215 221.091 30.5146 220.78 30.1865C220.476 29.8584 219.998 29.6943 219.348 29.6943C218.82 29.6943 218.357 29.835 217.959 30.1162C217.561 30.3975 217.25 30.7666 217.027 31.2236V38H215.401V24.5H217.027V29.6416ZM229.262 38.1758C227.973 38.1758 226.924 37.7539 226.115 36.9102C225.307 36.0605 224.902 34.9268 224.902 33.5088V33.21C224.902 32.2666 225.081 31.4258 225.438 30.6875C225.802 29.9434 226.306 29.3633 226.95 28.9473C227.601 28.5254 228.304 28.3145 229.06 28.3145C230.296 28.3145 231.257 28.7217 231.942 29.5361C232.628 30.3506 232.971 31.5166 232.971 33.0342V33.7109H226.528C226.552 34.6484 226.824 35.4072 227.346 35.9873C227.873 36.5615 228.541 36.8486 229.35 36.8486C229.924 36.8486 230.41 36.7314 230.809 36.4971C231.207 36.2627 231.556 35.9521 231.854 35.5654L232.848 36.3389C232.051 37.5635 230.855 38.1758 229.262 38.1758ZM229.06 29.6504C228.403 29.6504 227.853 29.8906 227.407 30.3711C226.962 30.8457 226.687 31.5137 226.581 32.375H231.345V32.252C231.298 31.4258 231.075 30.7871 230.677 30.3359C230.278 29.8789 229.739 29.6504 229.06 29.6504ZM37.6162 54.3506C37.6162 55.8037 37.2822 56.9727 36.6143 57.8574C35.9463 58.7363 35.0498 59.1758 33.9248 59.1758C32.7236 59.1758 31.7949 58.751 31.1387 57.9014L31.0596 59H29.5654V45.5H31.1914V50.5361C31.8477 49.7217 32.7529 49.3145 33.9072 49.3145C35.0615 49.3145 35.9668 49.751 36.623 50.624C37.2852 51.4971 37.6162 52.6924 37.6162 54.21V54.3506ZM35.9902 54.166C35.9902 53.0586 35.7764 52.2031 35.3486 51.5996C34.9209 50.9961 34.3057 50.6943 33.5029 50.6943C32.4307 50.6943 31.6602 51.1924 31.1914 52.1885V56.3018C31.6895 57.2979 32.4658 57.7959 33.5205 57.7959C34.2998 57.7959 34.9062 57.4941 35.3398 56.8906C35.7734 56.2871 35.9902 55.3789 35.9902 54.166ZM43.6191 59.1758C42.3301 59.1758 41.2812 58.7539 40.4727 57.9102C39.6641 57.0605 39.2598 55.9268 39.2598 54.5088V54.21C39.2598 53.2666 39.4385 52.4258 39.7959 51.6875C40.1592 50.9434 40.6631 50.3633 41.3076 49.9473C41.958 49.5254 42.6611 49.3145 43.417 49.3145C44.6533 49.3145 45.6143 49.7217 46.2998 50.5361C46.9854 51.3506 47.3281 52.5166 47.3281 54.0342V54.7109H40.8857C40.9092 55.6484 41.1816 56.4072 41.7031 56.9873C42.2305 57.5615 42.8984 57.8486 43.707 57.8486C44.2812 57.8486 44.7676 57.7314 45.166 57.4971C45.5645 57.2627 45.9131 56.9521 46.2119 56.5654L47.2051 57.3389C46.4082 58.5635 45.2129 59.1758 43.6191 59.1758ZM43.417 50.6504C42.7607 50.6504 42.21 50.8906 41.7646 51.3711C41.3193 51.8457 41.0439 52.5137 40.9385 53.375H45.7021V53.252C45.6553 52.4258 45.4326 51.7871 45.0342 51.3359C44.6357 50.8789 44.0967 50.6504 43.417 50.6504ZM54.7549 56.4775C54.7549 56.0381 54.5879 55.6982 54.2539 55.458C53.9258 55.2119 53.3486 55.001 52.5225 54.8252C51.7021 54.6494 51.0488 54.4385 50.5625 54.1924C50.082 53.9463 49.7246 53.6533 49.4902 53.3135C49.2617 52.9736 49.1475 52.5693 49.1475 52.1006C49.1475 51.3213 49.4756 50.6621 50.1318 50.123C50.7939 49.584 51.6377 49.3145 52.6631 49.3145C53.7412 49.3145 54.6143 49.5928 55.2822 50.1494C55.9561 50.7061 56.293 51.418 56.293 52.2852H54.6582C54.6582 51.8398 54.4678 51.4561 54.0869 51.1338C53.7119 50.8115 53.2373 50.6504 52.6631 50.6504C52.0713 50.6504 51.6084 50.7793 51.2744 51.0371C50.9404 51.2949 50.7734 51.6318 50.7734 52.0479C50.7734 52.4404 50.9287 52.7363 51.2393 52.9355C51.5498 53.1348 52.1094 53.3252 52.918 53.5068C53.7324 53.6885 54.3916 53.9053 54.8955 54.1572C55.3994 54.4092 55.7715 54.7139 56.0117 55.0713C56.2578 55.4229 56.3809 55.8535 56.3809 56.3633C56.3809 57.2129 56.041 57.8955 55.3613 58.4111C54.6816 58.9209 53.7998 59.1758 52.7158 59.1758C51.9541 59.1758 51.2803 59.041 50.6943 58.7715C50.1084 58.502 49.6484 58.127 49.3145 57.6465C48.9863 57.1602 48.8223 56.6357 48.8223 56.0732H50.4482C50.4775 56.6182 50.6943 57.0518 51.0986 57.374C51.5088 57.6904 52.0479 57.8486 52.7158 57.8486C53.3311 57.8486 53.8232 57.7256 54.1924 57.4795C54.5674 57.2275 54.7549 56.8936 54.7549 56.4775ZM60.7051 47.1875V49.4902H62.4805V50.7471H60.7051V56.6445C60.7051 57.0254 60.7842 57.3125 60.9424 57.5059C61.1006 57.6934 61.3701 57.7871 61.751 57.7871C61.9385 57.7871 62.1963 57.752 62.5244 57.6816V59C62.0967 59.1172 61.6807 59.1758 61.2764 59.1758C60.5498 59.1758 60.002 58.9561 59.6328 58.5166C59.2637 58.0771 59.0791 57.4531 59.0791 56.6445V50.7471H57.3477V49.4902H59.0791V47.1875H60.7051ZM71.0586 47.1875V49.4902H72.834V50.7471H71.0586V56.6445C71.0586 57.0254 71.1377 57.3125 71.2959 57.5059C71.4541 57.6934 71.7236 57.7871 72.1045 57.7871C72.292 57.7871 72.5498 57.752 72.8779 57.6816V59C72.4502 59.1172 72.0342 59.1758 71.6299 59.1758C70.9033 59.1758 70.3555 58.9561 69.9863 58.5166C69.6172 58.0771 69.4326 57.4531 69.4326 56.6445V50.7471H67.7012V49.4902H69.4326V47.1875H71.0586ZM79.3379 50.9492C79.0918 50.9082 78.8252 50.8877 78.5381 50.8877C77.4717 50.8877 76.748 51.3418 76.3672 52.25V59H74.7412V49.4902H76.3232L76.3496 50.5889C76.8828 49.7393 77.6387 49.3145 78.6172 49.3145C78.9336 49.3145 79.1738 49.3555 79.3379 49.4375V50.9492ZM86.3604 59C86.2666 58.8125 86.1904 58.4785 86.1318 57.998C85.376 58.7832 84.4736 59.1758 83.4248 59.1758C82.4873 59.1758 81.7168 58.9121 81.1133 58.3848C80.5156 57.8516 80.2168 57.1777 80.2168 56.3633C80.2168 55.373 80.5918 54.6055 81.3418 54.0605C82.0977 53.5098 83.1582 53.2344 84.5234 53.2344H86.1055V52.4873C86.1055 51.9189 85.9355 51.4678 85.5957 51.1338C85.2559 50.7939 84.7549 50.624 84.0928 50.624C83.5127 50.624 83.0264 50.7705 82.6338 51.0635C82.2412 51.3564 82.0449 51.7109 82.0449 52.127H80.4102C80.4102 51.6523 80.5771 51.1953 80.9111 50.7559C81.251 50.3105 81.708 49.959 82.2822 49.7012C82.8623 49.4434 83.498 49.3145 84.1895 49.3145C85.2852 49.3145 86.1436 49.5898 86.7646 50.1406C87.3857 50.6855 87.708 51.4385 87.7314 52.3994V56.7764C87.7314 57.6494 87.8428 58.3438 88.0654 58.8594V59H86.3604ZM83.6621 57.7607C84.1719 57.7607 84.6553 57.6289 85.1123 57.3652C85.5693 57.1016 85.9004 56.7588 86.1055 56.3369V54.3857H84.8311C82.8389 54.3857 81.8428 54.9688 81.8428 56.1348C81.8428 56.6445 82.0127 57.043 82.3525 57.3301C82.6924 57.6172 83.1289 57.7607 83.6621 57.7607ZM93.2773 56.7939L95.6328 49.4902H97.2939L93.8838 59H92.6445L89.1992 49.4902H90.8604L93.2773 56.7939ZM102.682 59.1758C101.393 59.1758 100.344 58.7539 99.5352 57.9102C98.7266 57.0605 98.3223 55.9268 98.3223 54.5088V54.21C98.3223 53.2666 98.501 52.4258 98.8584 51.6875C99.2217 50.9434 99.7256 50.3633 100.37 49.9473C101.021 49.5254 101.724 49.3145 102.479 49.3145C103.716 49.3145 104.677 49.7217 105.362 50.5361C106.048 51.3506 106.391 52.5166 106.391 54.0342V54.7109H99.9482C99.9717 55.6484 100.244 56.4072 100.766 56.9873C101.293 57.5615 101.961 57.8486 102.77 57.8486C103.344 57.8486 103.83 57.7314 104.229 57.4971C104.627 57.2627 104.976 56.9521 105.274 56.5654L106.268 57.3389C105.471 58.5635 104.275 59.1758 102.682 59.1758ZM102.479 50.6504C101.823 50.6504 101.272 50.8906 100.827 51.3711C100.382 51.8457 100.106 52.5137 100.001 53.375H104.765V53.252C104.718 52.4258 104.495 51.7871 104.097 51.3359C103.698 50.8789 103.159 50.6504 102.479 50.6504ZM110.047 59H108.421V45.5H110.047V59ZM122.993 59C122.899 58.8125 122.823 58.4785 122.765 57.998C122.009 58.7832 121.106 59.1758 120.058 59.1758C119.12 59.1758 118.35 58.9121 117.746 58.3848C117.148 57.8516 116.85 57.1777 116.85 56.3633C116.85 55.373 117.225 54.6055 117.975 54.0605C118.73 53.5098 119.791 53.2344 121.156 53.2344H122.738V52.4873C122.738 51.9189 122.568 51.4678 122.229 51.1338C121.889 50.7939 121.388 50.624 120.726 50.624C120.146 50.624 119.659 50.7705 119.267 51.0635C118.874 51.3564 118.678 51.7109 118.678 52.127H117.043C117.043 51.6523 117.21 51.1953 117.544 50.7559C117.884 50.3105 118.341 49.959 118.915 49.7012C119.495 49.4434 120.131 49.3145 120.822 49.3145C121.918 49.3145 122.776 49.5898 123.397 50.1406C124.019 50.6855 124.341 51.4385 124.364 52.3994V56.7764C124.364 57.6494 124.476 58.3438 124.698 58.8594V59H122.993ZM120.295 57.7607C120.805 57.7607 121.288 57.6289 121.745 57.3652C122.202 57.1016 122.533 56.7588 122.738 56.3369V54.3857H121.464C119.472 54.3857 118.476 54.9688 118.476 56.1348C118.476 56.6445 118.646 57.043 118.985 57.3301C119.325 57.6172 119.762 57.7607 120.295 57.7607ZM126.526 54.166C126.526 52.6836 126.869 51.5059 127.555 50.6328C128.24 49.7539 129.148 49.3145 130.279 49.3145C131.439 49.3145 132.345 49.7246 132.995 50.5449L133.074 49.4902H134.56V58.7715C134.56 60.002 134.193 60.9717 133.461 61.6807C132.734 62.3896 131.756 62.7441 130.525 62.7441C129.84 62.7441 129.169 62.5977 128.513 62.3047C127.856 62.0117 127.355 61.6104 127.01 61.1006L127.854 60.125C128.551 60.9863 129.403 61.417 130.411 61.417C131.202 61.417 131.817 61.1943 132.257 60.749C132.702 60.3037 132.925 59.6768 132.925 58.8682V58.0508C132.274 58.8008 131.387 59.1758 130.262 59.1758C129.148 59.1758 128.246 58.7275 127.555 57.8311C126.869 56.9346 126.526 55.7129 126.526 54.166ZM128.161 54.3506C128.161 55.4229 128.381 56.2666 128.82 56.8818C129.26 57.4912 129.875 57.7959 130.666 57.7959C131.691 57.7959 132.444 57.3301 132.925 56.3984V52.0566C132.427 51.1484 131.68 50.6943 130.684 50.6943C129.893 50.6943 129.274 51.002 128.829 51.6172C128.384 52.2324 128.161 53.1436 128.161 54.3506ZM140.967 59.1758C139.678 59.1758 138.629 58.7539 137.82 57.9102C137.012 57.0605 136.607 55.9268 136.607 54.5088V54.21C136.607 53.2666 136.786 52.4258 137.144 51.6875C137.507 50.9434 138.011 50.3633 138.655 49.9473C139.306 49.5254 140.009 49.3145 140.765 49.3145C142.001 49.3145 142.962 49.7217 143.647 50.5361C144.333 51.3506 144.676 52.5166 144.676 54.0342V54.7109H138.233C138.257 55.6484 138.529 56.4072 139.051 56.9873C139.578 57.5615 140.246 57.8486 141.055 57.8486C141.629 57.8486 142.115 57.7314 142.514 57.4971C142.912 57.2627 143.261 56.9521 143.56 56.5654L144.553 57.3389C143.756 58.5635 142.561 59.1758 140.967 59.1758ZM140.765 50.6504C140.108 50.6504 139.558 50.8906 139.112 51.3711C138.667 51.8457 138.392 52.5137 138.286 53.375H143.05V53.252C143.003 52.4258 142.78 51.7871 142.382 51.3359C141.983 50.8789 141.444 50.6504 140.765 50.6504ZM148.104 49.4902L148.156 50.6855C148.883 49.7715 149.832 49.3145 151.004 49.3145C153.014 49.3145 154.027 50.4482 154.045 52.7158V59H152.419V52.707C152.413 52.0215 152.255 51.5146 151.944 51.1865C151.64 50.8584 151.162 50.6943 150.512 50.6943C149.984 50.6943 149.521 50.835 149.123 51.1162C148.725 51.3975 148.414 51.7666 148.191 52.2236V59H146.565V49.4902H148.104ZM160.312 57.8486C160.892 57.8486 161.398 57.6729 161.832 57.3213C162.266 56.9697 162.506 56.5303 162.553 56.0029H164.091C164.062 56.5479 163.874 57.0664 163.528 57.5586C163.183 58.0508 162.72 58.4434 162.14 58.7363C161.565 59.0293 160.956 59.1758 160.312 59.1758C159.017 59.1758 157.985 58.7451 157.218 57.8838C156.456 57.0166 156.075 55.833 156.075 54.333V54.0605C156.075 53.1348 156.245 52.3115 156.585 51.5908C156.925 50.8701 157.411 50.3105 158.044 49.9121C158.683 49.5137 159.436 49.3145 160.303 49.3145C161.369 49.3145 162.254 49.6338 162.957 50.2725C163.666 50.9111 164.044 51.7402 164.091 52.7598H162.553C162.506 52.1445 162.271 51.6406 161.85 51.248C161.434 50.8496 160.918 50.6504 160.303 50.6504C159.477 50.6504 158.835 50.9492 158.378 51.5469C157.927 52.1387 157.701 52.9971 157.701 54.1221V54.4297C157.701 55.5254 157.927 56.3691 158.378 56.9609C158.829 57.5527 159.474 57.8486 160.312 57.8486ZM167.686 59H166.06V49.4902H167.686V59ZM165.928 46.9678C165.928 46.7041 166.007 46.4814 166.165 46.2998C166.329 46.1182 166.569 46.0273 166.886 46.0273C167.202 46.0273 167.442 46.1182 167.606 46.2998C167.771 46.4814 167.853 46.7041 167.853 46.9678C167.853 47.2314 167.771 47.4512 167.606 47.627C167.442 47.8027 167.202 47.8906 166.886 47.8906C166.569 47.8906 166.329 47.8027 166.165 47.627C166.007 47.4512 165.928 47.2314 165.928 46.9678ZM174.242 59.1758C172.953 59.1758 171.904 58.7539 171.096 57.9102C170.287 57.0605 169.883 55.9268 169.883 54.5088V54.21C169.883 53.2666 170.062 52.4258 170.419 51.6875C170.782 50.9434 171.286 50.3633 171.931 49.9473C172.581 49.5254 173.284 49.3145 174.04 49.3145C175.276 49.3145 176.237 49.7217 176.923 50.5361C177.608 51.3506 177.951 52.5166 177.951 54.0342V54.7109H171.509C171.532 55.6484 171.805 56.4072 172.326 56.9873C172.854 57.5615 173.521 57.8486 174.33 57.8486C174.904 57.8486 175.391 57.7314 175.789 57.4971C176.188 57.2627 176.536 56.9521 176.835 56.5654L177.828 57.3389C177.031 58.5635 175.836 59.1758 174.242 59.1758ZM174.04 50.6504C173.384 50.6504 172.833 50.8906 172.388 51.3711C171.942 51.8457 171.667 52.5137 171.562 53.375H176.325V53.252C176.278 52.4258 176.056 51.7871 175.657 51.3359C175.259 50.8789 174.72 50.6504 174.04 50.6504ZM185.378 56.4775C185.378 56.0381 185.211 55.6982 184.877 55.458C184.549 55.2119 183.972 55.001 183.146 54.8252C182.325 54.6494 181.672 54.4385 181.186 54.1924C180.705 53.9463 180.348 53.6533 180.113 53.3135C179.885 52.9736 179.771 52.5693 179.771 52.1006C179.771 51.3213 180.099 50.6621 180.755 50.123C181.417 49.584 182.261 49.3145 183.286 49.3145C184.364 49.3145 185.237 49.5928 185.905 50.1494C186.579 50.7061 186.916 51.418 186.916 52.2852H185.281C185.281 51.8398 185.091 51.4561 184.71 51.1338C184.335 50.8115 183.86 50.6504 183.286 50.6504C182.694 50.6504 182.231 50.7793 181.897 51.0371C181.563 51.2949 181.396 51.6318 181.396 52.0479C181.396 52.4404 181.552 52.7363 181.862 52.9355C182.173 53.1348 182.732 53.3252 183.541 53.5068C184.355 53.6885 185.015 53.9053 185.519 54.1572C186.022 54.4092 186.395 54.7139 186.635 55.0713C186.881 55.4229 187.004 55.8535 187.004 56.3633C187.004 57.2129 186.664 57.8955 185.984 58.4111C185.305 58.9209 184.423 59.1758 183.339 59.1758C182.577 59.1758 181.903 59.041 181.317 58.7715C180.731 58.502 180.271 58.127 179.938 57.6465C179.609 57.1602 179.445 56.6357 179.445 56.0732H181.071C181.101 56.6182 181.317 57.0518 181.722 57.374C182.132 57.6904 182.671 57.8486 183.339 57.8486C183.954 57.8486 184.446 57.7256 184.815 57.4795C185.19 57.2275 185.378 56.8936 185.378 56.4775ZM195.354 59H193.728V49.4902H195.354V59ZM193.596 46.9678C193.596 46.7041 193.675 46.4814 193.833 46.2998C193.997 46.1182 194.237 46.0273 194.554 46.0273C194.87 46.0273 195.11 46.1182 195.274 46.2998C195.438 46.4814 195.521 46.7041 195.521 46.9678C195.521 47.2314 195.438 47.4512 195.274 47.627C195.11 47.8027 194.87 47.8906 194.554 47.8906C194.237 47.8906 193.997 47.8027 193.833 47.627C193.675 47.4512 193.596 47.2314 193.596 46.9678ZM199.502 49.4902L199.555 50.6855C200.281 49.7715 201.23 49.3145 202.402 49.3145C204.412 49.3145 205.426 50.4482 205.443 52.7158V59H203.817V52.707C203.812 52.0215 203.653 51.5146 203.343 51.1865C203.038 50.8584 202.561 50.6943 201.91 50.6943C201.383 50.6943 200.92 50.835 200.521 51.1162C200.123 51.3975 199.812 51.7666 199.59 52.2236V59H197.964V49.4902H199.502ZM71.9287 80V67.2031H76.1123C77.501 67.2031 78.5439 67.4902 79.2412 68.0645C79.9443 68.6387 80.2959 69.4883 80.2959 70.6133C80.2959 71.2109 80.126 71.7412 79.7861 72.2041C79.4463 72.6611 78.9834 73.0156 78.3975 73.2676C79.0889 73.4609 79.6338 73.8301 80.0322 74.375C80.4365 74.9141 80.6387 75.5586 80.6387 76.3086C80.6387 77.457 80.2666 78.3594 79.5225 79.0156C78.7783 79.6719 77.7266 80 76.3672 80H71.9287ZM73.6162 74.0146V78.6201H76.4023C77.1875 78.6201 77.8057 78.418 78.2568 78.0137C78.7139 77.6035 78.9424 77.041 78.9424 76.3262C78.9424 74.7852 78.1045 74.0146 76.4287 74.0146H73.6162ZM73.6162 72.6611H76.165C76.9033 72.6611 77.4922 72.4766 77.9316 72.1074C78.377 71.7383 78.5996 71.2373 78.5996 70.6045C78.5996 69.9014 78.3945 69.3916 77.9844 69.0752C77.5742 68.7529 76.9502 68.5918 76.1123 68.5918H73.6162V72.6611ZM88.7598 80C88.666 79.8125 88.5898 79.4785 88.5312 78.998C87.7754 79.7832 86.873 80.1758 85.8242 80.1758C84.8867 80.1758 84.1162 79.9121 83.5127 79.3848C82.915 78.8516 82.6162 78.1777 82.6162 77.3633C82.6162 76.373 82.9912 75.6055 83.7412 75.0605C84.4971 74.5098 85.5576 74.2344 86.9229 74.2344H88.5049V73.4873C88.5049 72.9189 88.335 72.4678 87.9951 72.1338C87.6553 71.7939 87.1543 71.624 86.4922 71.624C85.9121 71.624 85.4258 71.7705 85.0332 72.0635C84.6406 72.3564 84.4443 72.7109 84.4443 73.127H82.8096C82.8096 72.6523 82.9766 72.1953 83.3105 71.7559C83.6504 71.3105 84.1074 70.959 84.6816 70.7012C85.2617 70.4434 85.8975 70.3145 86.5889 70.3145C87.6846 70.3145 88.543 70.5898 89.1641 71.1406C89.7852 71.6855 90.1074 72.4385 90.1309 73.3994V77.7764C90.1309 78.6494 90.2422 79.3438 90.4648 79.8594V80H88.7598ZM86.0615 78.7607C86.5713 78.7607 87.0547 78.6289 87.5117 78.3652C87.9688 78.1016 88.2998 77.7588 88.5049 77.3369V75.3857H87.2305C85.2383 75.3857 84.2422 75.9688 84.2422 77.1348C84.2422 77.6445 84.4121 78.043 84.752 78.3301C85.0918 78.6172 85.5283 78.7607 86.0615 78.7607ZM94.2178 70.4902L94.2705 71.6855C94.9971 70.7715 95.9463 70.3145 97.1182 70.3145C99.1279 70.3145 100.142 71.4482 100.159 73.7158V80H98.5332V73.707C98.5273 73.0215 98.3691 72.5146 98.0586 72.1865C97.7539 71.8584 97.2764 71.6943 96.626 71.6943C96.0986 71.6943 95.6357 71.835 95.2373 72.1162C94.8389 72.3975 94.5283 72.7666 94.3057 73.2236V80H92.6797V70.4902H94.2178ZM102.225 75.166C102.225 73.6836 102.567 72.5059 103.253 71.6328C103.938 70.7539 104.847 70.3145 105.978 70.3145C107.138 70.3145 108.043 70.7246 108.693 71.5449L108.772 70.4902H110.258V79.7715C110.258 81.002 109.892 81.9717 109.159 82.6807C108.433 83.3896 107.454 83.7441 106.224 83.7441C105.538 83.7441 104.867 83.5977 104.211 83.3047C103.555 83.0117 103.054 82.6104 102.708 82.1006L103.552 81.125C104.249 81.9863 105.102 82.417 106.109 82.417C106.9 82.417 107.516 82.1943 107.955 81.749C108.4 81.3037 108.623 80.6768 108.623 79.8682V79.0508C107.973 79.8008 107.085 80.1758 105.96 80.1758C104.847 80.1758 103.944 79.7275 103.253 78.8311C102.567 77.9346 102.225 76.7129 102.225 75.166ZM103.859 75.3506C103.859 76.4229 104.079 77.2666 104.519 77.8818C104.958 78.4912 105.573 78.7959 106.364 78.7959C107.39 78.7959 108.143 78.3301 108.623 77.3984V73.0566C108.125 72.1484 107.378 71.6943 106.382 71.6943C105.591 71.6943 104.973 72.002 104.527 72.6172C104.082 73.2324 103.859 74.1436 103.859 75.3506ZM114.485 80H112.859V66.5H114.485V80ZM122.967 80C122.873 79.8125 122.797 79.4785 122.738 78.998C121.982 79.7832 121.08 80.1758 120.031 80.1758C119.094 80.1758 118.323 79.9121 117.72 79.3848C117.122 78.8516 116.823 78.1777 116.823 77.3633C116.823 76.373 117.198 75.6055 117.948 75.0605C118.704 74.5098 119.765 74.2344 121.13 74.2344H122.712V73.4873C122.712 72.9189 122.542 72.4678 122.202 72.1338C121.862 71.7939 121.361 71.624 120.699 71.624C120.119 71.624 119.633 71.7705 119.24 72.0635C118.848 72.3564 118.651 72.7109 118.651 73.127H117.017C117.017 72.6523 117.184 72.1953 117.518 71.7559C117.857 71.3105 118.314 70.959 118.889 70.7012C119.469 70.4434 120.104 70.3145 120.796 70.3145C121.892 70.3145 122.75 70.5898 123.371 71.1406C123.992 71.6855 124.314 72.4385 124.338 73.3994V77.7764C124.338 78.6494 124.449 79.3438 124.672 79.8594V80H122.967ZM120.269 78.7607C120.778 78.7607 121.262 78.6289 121.719 78.3652C122.176 78.1016 122.507 77.7588 122.712 77.3369V75.3857H121.438C119.445 75.3857 118.449 75.9688 118.449 77.1348C118.449 77.6445 118.619 78.043 118.959 78.3301C119.299 78.6172 119.735 78.7607 120.269 78.7607ZM126.491 75.166C126.491 73.707 126.837 72.5352 127.528 71.6504C128.22 70.7598 129.125 70.3145 130.244 70.3145C131.357 70.3145 132.239 70.6953 132.89 71.457V66.5H134.516V80H133.021L132.942 78.9805C132.292 79.7773 131.387 80.1758 130.227 80.1758C129.125 80.1758 128.226 79.7246 127.528 78.8223C126.837 77.9199 126.491 76.7422 126.491 75.2891V75.166ZM128.117 75.3506C128.117 76.4287 128.34 77.2725 128.785 77.8818C129.23 78.4912 129.846 78.7959 130.631 78.7959C131.662 78.7959 132.415 78.333 132.89 77.4072V73.0391C132.403 72.1426 131.656 71.6943 130.648 71.6943C129.852 71.6943 129.23 72.002 128.785 72.6172C128.34 73.2324 128.117 74.1436 128.117 75.3506ZM140.993 80.1758C139.704 80.1758 138.655 79.7539 137.847 78.9102C137.038 78.0605 136.634 76.9268 136.634 75.5088V75.21C136.634 74.2666 136.812 73.4258 137.17 72.6875C137.533 71.9434 138.037 71.3633 138.682 70.9473C139.332 70.5254 140.035 70.3145 140.791 70.3145C142.027 70.3145 142.988 70.7217 143.674 71.5361C144.359 72.3506 144.702 73.5166 144.702 75.0342V75.7109H138.26C138.283 76.6484 138.556 77.4072 139.077 77.9873C139.604 78.5615 140.272 78.8486 141.081 78.8486C141.655 78.8486 142.142 78.7314 142.54 78.4971C142.938 78.2627 143.287 77.9521 143.586 77.5654L144.579 78.3389C143.782 79.5635 142.587 80.1758 140.993 80.1758ZM140.791 71.6504C140.135 71.6504 139.584 71.8906 139.139 72.3711C138.693 72.8457 138.418 73.5137 138.312 74.375H143.076V74.252C143.029 73.4258 142.807 72.7871 142.408 72.3359C142.01 71.8789 141.471 71.6504 140.791 71.6504ZM152.129 77.4775C152.129 77.0381 151.962 76.6982 151.628 76.458C151.3 76.2119 150.723 76.001 149.896 75.8252C149.076 75.6494 148.423 75.4385 147.937 75.1924C147.456 74.9463 147.099 74.6533 146.864 74.3135C146.636 73.9736 146.521 73.5693 146.521 73.1006C146.521 72.3213 146.85 71.6621 147.506 71.123C148.168 70.584 149.012 70.3145 150.037 70.3145C151.115 70.3145 151.988 70.5928 152.656 71.1494C153.33 71.7061 153.667 72.418 153.667 73.2852H152.032C152.032 72.8398 151.842 72.4561 151.461 72.1338C151.086 71.8115 150.611 71.6504 150.037 71.6504C149.445 71.6504 148.982 71.7793 148.648 72.0371C148.314 72.2949 148.147 72.6318 148.147 73.0479C148.147 73.4404 148.303 73.7363 148.613 73.9355C148.924 74.1348 149.483 74.3252 150.292 74.5068C151.106 74.6885 151.766 74.9053 152.27 75.1572C152.773 75.4092 153.146 75.7139 153.386 76.0713C153.632 76.4229 153.755 76.8535 153.755 77.3633C153.755 78.2129 153.415 78.8955 152.735 79.4111C152.056 79.9209 151.174 80.1758 150.09 80.1758C149.328 80.1758 148.654 80.041 148.068 79.7715C147.482 79.502 147.022 79.127 146.688 78.6465C146.36 78.1602 146.196 77.6357 146.196 77.0732H147.822C147.852 77.6182 148.068 78.0518 148.473 78.374C148.883 78.6904 149.422 78.8486 150.09 78.8486C150.705 78.8486 151.197 78.7256 151.566 78.4795C151.941 78.2275 152.129 77.8936 152.129 77.4775ZM157.499 71.6416C158.22 70.7568 159.157 70.3145 160.312 70.3145C162.321 70.3145 163.335 71.4482 163.353 73.7158V80H161.727V73.707C161.721 73.0215 161.562 72.5146 161.252 72.1865C160.947 71.8584 160.47 71.6943 159.819 71.6943C159.292 71.6943 158.829 71.835 158.431 72.1162C158.032 72.3975 157.722 72.7666 157.499 73.2236V80H155.873V66.5H157.499V71.6416Z" fill="#020202"/>
</svg>
