<svg width="236" height="86" viewBox="0 0 236 86" fill="none" xmlns="http://www.w3.org/2000/svg">
<path d="M32.9307 17H31.2432V4.20312H32.9307V17ZM37.9756 5.1875V7.49023H39.751V8.74707H37.9756V14.6445C37.9756 15.0254 38.0547 15.3125 38.2129 15.5059C38.3711 15.6934 38.6406 15.7871 39.0215 15.7871C39.209 15.7871 39.4668 15.752 39.7949 15.6816V17C39.3672 17.1172 38.9512 17.1758 38.5469 17.1758C37.8203 17.1758 37.2725 16.9561 36.9033 16.5166C36.5342 16.0771 36.3496 15.4531 36.3496 14.6445V8.74707H34.6182V7.49023H36.3496V5.1875H37.9756ZM47.8896 17H46.2637V7.49023H47.8896V17ZM46.1318 4.96777C46.1318 4.7041 46.2109 4.48145 46.3691 4.2998C46.5332 4.11816 46.7734 4.02734 47.0898 4.02734C47.4062 4.02734 47.6465 4.11816 47.8105 4.2998C47.9746 4.48145 48.0566 4.7041 48.0566 4.96777C48.0566 5.23145 47.9746 5.45117 47.8105 5.62695C47.6465 5.80273 47.4062 5.89062 47.0898 5.89062C46.7734 5.89062 46.5332 5.80273 46.3691 5.62695C46.2109 5.45117 46.1318 5.23145 46.1318 4.96777ZM56.0371 14.4775C56.0371 14.0381 55.8701 13.6982 55.5361 13.458C55.208 13.2119 54.6309 13.001 53.8047 12.8252C52.9844 12.6494 52.3311 12.4385 51.8447 12.1924C51.3643 11.9463 51.0068 11.6533 50.7725 11.3135C50.5439 10.9736 50.4297 10.5693 50.4297 10.1006C50.4297 9.32129 50.7578 8.66211 51.4141 8.12305C52.0762 7.58398 52.9199 7.31445 53.9453 7.31445C55.0234 7.31445 55.8965 7.59277 56.5645 8.14941C57.2383 8.70605 57.5752 9.41797 57.5752 10.2852H55.9404C55.9404 9.83984 55.75 9.45605 55.3691 9.13379C54.9941 8.81152 54.5195 8.65039 53.9453 8.65039C53.3535 8.65039 52.8906 8.7793 52.5566 9.03711C52.2227 9.29492 52.0557 9.63184 52.0557 10.0479C52.0557 10.4404 52.2109 10.7363 52.5215 10.9355C52.832 11.1348 53.3916 11.3252 54.2002 11.5068C55.0146 11.6885 55.6738 11.9053 56.1777 12.1572C56.6816 12.4092 57.0537 12.7139 57.2939 13.0713C57.54 13.4229 57.6631 13.8535 57.6631 14.3633C57.6631 15.2129 57.3232 15.8955 56.6436 16.4111C55.9639 16.9209 55.082 17.1758 53.998 17.1758C53.2363 17.1758 52.5625 17.041 51.9766 16.7715C51.3906 16.502 50.9307 16.127 50.5967 15.6465C50.2686 15.1602 50.1045 14.6357 50.1045 14.0732H51.7305C51.7598 14.6182 51.9766 15.0518 52.3809 15.374C52.791 15.6904 53.3301 15.8486 53.998 15.8486C54.6133 15.8486 55.1055 15.7256 55.4746 15.4795C55.8496 15.2275 56.0371 14.8936 56.0371 14.4775ZM70.1172 17C70.0234 16.8125 69.9473 16.4785 69.8887 15.998C69.1328 16.7832 68.2305 17.1758 67.1816 17.1758C66.2441 17.1758 65.4736 16.9121 64.8701 16.3848C64.2725 15.8516 63.9736 15.1777 63.9736 14.3633C63.9736 13.373 64.3486 12.6055 65.0986 12.0605C65.8545 11.5098 66.915 11.2344 68.2803 11.2344H69.8623V10.4873C69.8623 9.91895 69.6924 9.46777 69.3525 9.13379C69.0127 8.79395 68.5117 8.62402 67.8496 8.62402C67.2695 8.62402 66.7832 8.77051 66.3906 9.06348C65.998 9.35645 65.8018 9.71094 65.8018 10.127H64.167C64.167 9.65234 64.334 9.19531 64.668 8.75586C65.0078 8.31055 65.4648 7.95898 66.0391 7.70117C66.6191 7.44336 67.2549 7.31445 67.9463 7.31445C69.042 7.31445 69.9004 7.58984 70.5215 8.14062C71.1426 8.68555 71.4648 9.43848 71.4883 10.3994V14.7764C71.4883 15.6494 71.5996 16.3438 71.8223 16.8594V17H70.1172ZM67.4189 15.7607C67.9287 15.7607 68.4121 15.6289 68.8691 15.3652C69.3262 15.1016 69.6572 14.7588 69.8623 14.3369V12.3857H68.5879C66.5957 12.3857 65.5996 12.9688 65.5996 14.1348C65.5996 14.6445 65.7695 15.043 66.1094 15.3301C66.4492 15.6172 66.8857 15.7607 67.4189 15.7607ZM80.0312 7.49023L80.0752 8.54492C80.7725 7.72461 81.7129 7.31445 82.8965 7.31445C84.2266 7.31445 85.1318 7.82422 85.6123 8.84375C85.9287 8.38672 86.3389 8.01758 86.8428 7.73633C87.3525 7.45508 87.9531 7.31445 88.6445 7.31445C90.7305 7.31445 91.791 8.41895 91.8262 10.6279V17H90.2002V10.7246C90.2002 10.0449 90.0449 9.53809 89.7344 9.2041C89.4238 8.86426 88.9023 8.69434 88.1699 8.69434C87.5664 8.69434 87.0654 8.87598 86.667 9.23926C86.2686 9.59668 86.0371 10.0801 85.9727 10.6895V17H84.3379V10.7686C84.3379 9.38574 83.6611 8.69434 82.3076 8.69434C81.2412 8.69434 80.5117 9.14844 80.1191 10.0566V17H78.4932V7.49023H80.0312ZM100.158 17C100.064 16.8125 99.9883 16.4785 99.9297 15.998C99.1738 16.7832 98.2715 17.1758 97.2227 17.1758C96.2852 17.1758 95.5146 16.9121 94.9111 16.3848C94.3135 15.8516 94.0146 15.1777 94.0146 14.3633C94.0146 13.373 94.3896 12.6055 95.1396 12.0605C95.8955 11.5098 96.9561 11.2344 98.3213 11.2344H99.9033V10.4873C99.9033 9.91895 99.7334 9.46777 99.3936 9.13379C99.0537 8.79395 98.5527 8.62402 97.8906 8.62402C97.3105 8.62402 96.8242 8.77051 96.4316 9.06348C96.0391 9.35645 95.8428 9.71094 95.8428 10.127H94.208C94.208 9.65234 94.375 9.19531 94.709 8.75586C95.0488 8.31055 95.5059 7.95898 96.0801 7.70117C96.6602 7.44336 97.2959 7.31445 97.9873 7.31445C99.083 7.31445 99.9414 7.58984 100.562 8.14062C101.184 8.68555 101.506 9.43848 101.529 10.3994V14.7764C101.529 15.6494 101.641 16.3438 101.863 16.8594V17H100.158ZM97.46 15.7607C97.9697 15.7607 98.4531 15.6289 98.9102 15.3652C99.3672 15.1016 99.6982 14.7588 99.9033 14.3369V12.3857H98.6289C96.6367 12.3857 95.6406 12.9688 95.6406 14.1348C95.6406 14.6445 95.8105 15.043 96.1504 15.3301C96.4902 15.6172 96.9268 15.7607 97.46 15.7607ZM103.691 12.166C103.691 10.6836 104.034 9.50586 104.72 8.63281C105.405 7.75391 106.313 7.31445 107.444 7.31445C108.604 7.31445 109.51 7.72461 110.16 8.54492L110.239 7.49023H111.725V16.7715C111.725 18.002 111.358 18.9717 110.626 19.6807C109.899 20.3896 108.921 20.7441 107.69 20.7441C107.005 20.7441 106.334 20.5977 105.678 20.3047C105.021 20.0117 104.521 19.6104 104.175 19.1006L105.019 18.125C105.716 18.9863 106.568 19.417 107.576 19.417C108.367 19.417 108.982 19.1943 109.422 18.749C109.867 18.3037 110.09 17.6768 110.09 16.8682V16.0508C109.439 16.8008 108.552 17.1758 107.427 17.1758C106.313 17.1758 105.411 16.7275 104.72 15.8311C104.034 14.9346 103.691 13.7129 103.691 12.166ZM105.326 12.3506C105.326 13.4229 105.546 14.2666 105.985 14.8818C106.425 15.4912 107.04 15.7959 107.831 15.7959C108.856 15.7959 109.609 15.3301 110.09 14.3984V10.0566C109.592 9.14844 108.845 8.69434 107.849 8.69434C107.058 8.69434 106.439 9.00195 105.994 9.61719C105.549 10.2324 105.326 11.1436 105.326 12.3506ZM115.724 7.49023L115.776 8.68555C116.503 7.77148 117.452 7.31445 118.624 7.31445C120.634 7.31445 121.647 8.44824 121.665 10.7158V17H120.039V10.707C120.033 10.0215 119.875 9.51465 119.564 9.18652C119.26 8.8584 118.782 8.69434 118.132 8.69434C117.604 8.69434 117.142 8.83496 116.743 9.11621C116.345 9.39746 116.034 9.7666 115.812 10.2236V17H114.186V7.49023H115.724ZM125.884 17H124.258V7.49023H125.884V17ZM124.126 4.96777C124.126 4.7041 124.205 4.48145 124.363 4.2998C124.527 4.11816 124.768 4.02734 125.084 4.02734C125.4 4.02734 125.641 4.11816 125.805 4.2998C125.969 4.48145 126.051 4.7041 126.051 4.96777C126.051 5.23145 125.969 5.45117 125.805 5.62695C125.641 5.80273 125.4 5.89062 125.084 5.89062C124.768 5.89062 124.527 5.80273 124.363 5.62695C124.205 5.45117 124.126 5.23145 124.126 4.96777ZM129.039 17V8.74707H127.536V7.49023H129.039V6.68164C129.039 5.62109 129.341 4.79492 129.944 4.20312C130.554 3.61133 131.412 3.31543 132.52 3.31543C133.176 3.31543 134.005 3.49414 135.007 3.85156L134.734 5.22266C134.002 4.92969 133.305 4.7832 132.643 4.7832C131.945 4.7832 131.441 4.94141 131.131 5.25781C130.826 5.56836 130.674 6.03711 130.674 6.66406V7.49023H132.616V8.74707H130.674V17H129.039ZM135.815 17H134.181V7.49023H135.815V17ZM142.275 15.8486C142.855 15.8486 143.362 15.6729 143.796 15.3213C144.229 14.9697 144.47 14.5303 144.517 14.0029H146.055C146.025 14.5479 145.838 15.0664 145.492 15.5586C145.146 16.0508 144.684 16.4434 144.104 16.7363C143.529 17.0293 142.92 17.1758 142.275 17.1758C140.98 17.1758 139.949 16.7451 139.182 15.8838C138.42 15.0166 138.039 13.833 138.039 12.333V12.0605C138.039 11.1348 138.209 10.3115 138.549 9.59082C138.889 8.87012 139.375 8.31055 140.008 7.91211C140.646 7.51367 141.399 7.31445 142.267 7.31445C143.333 7.31445 144.218 7.63379 144.921 8.27246C145.63 8.91113 146.008 9.74023 146.055 10.7598H144.517C144.47 10.1445 144.235 9.64062 143.813 9.24805C143.397 8.84961 142.882 8.65039 142.267 8.65039C141.44 8.65039 140.799 8.94922 140.342 9.54688C139.891 10.1387 139.665 10.9971 139.665 12.1221V12.4297C139.665 13.5254 139.891 14.3691 140.342 14.9609C140.793 15.5527 141.438 15.8486 142.275 15.8486ZM151.829 17.1758C150.54 17.1758 149.491 16.7539 148.683 15.9102C147.874 15.0605 147.47 13.9268 147.47 12.5088V12.21C147.47 11.2666 147.648 10.4258 148.006 9.6875C148.369 8.94336 148.873 8.36328 149.518 7.94727C150.168 7.52539 150.871 7.31445 151.627 7.31445C152.863 7.31445 153.824 7.72168 154.51 8.53613C155.195 9.35059 155.538 10.5166 155.538 12.0342V12.7109H149.096C149.119 13.6484 149.392 14.4072 149.913 14.9873C150.44 15.5615 151.108 15.8486 151.917 15.8486C152.491 15.8486 152.978 15.7314 153.376 15.4971C153.774 15.2627 154.123 14.9521 154.422 14.5654L155.415 15.3389C154.618 16.5635 153.423 17.1758 151.829 17.1758ZM151.627 8.65039C150.971 8.65039 150.42 8.89062 149.975 9.37109C149.529 9.8457 149.254 10.5137 149.148 11.375H153.912V11.252C153.865 10.4258 153.643 9.78711 153.244 9.33594C152.846 8.87891 152.307 8.65039 151.627 8.65039ZM158.966 7.49023L159.019 8.68555C159.745 7.77148 160.694 7.31445 161.866 7.31445C163.876 7.31445 164.89 8.44824 164.907 10.7158V17H163.281V10.707C163.275 10.0215 163.117 9.51465 162.807 9.18652C162.502 8.8584 162.024 8.69434 161.374 8.69434C160.847 8.69434 160.384 8.83496 159.985 9.11621C159.587 9.39746 159.276 9.7666 159.054 10.2236V17H157.428V7.49023H158.966ZM169.565 5.1875V7.49023H171.341V8.74707H169.565V14.6445C169.565 15.0254 169.645 15.3125 169.803 15.5059C169.961 15.6934 170.23 15.7871 170.611 15.7871C170.799 15.7871 171.057 15.752 171.385 15.6816V17C170.957 17.1172 170.541 17.1758 170.137 17.1758C169.41 17.1758 168.862 16.9561 168.493 16.5166C168.124 16.0771 167.939 15.4531 167.939 14.6445V8.74707H166.208V7.49023H167.939V5.1875H169.565ZM183.584 17C183.49 16.8125 183.414 16.4785 183.355 15.998C182.6 16.7832 181.697 17.1758 180.648 17.1758C179.711 17.1758 178.94 16.9121 178.337 16.3848C177.739 15.8516 177.44 15.1777 177.44 14.3633C177.44 13.373 177.815 12.6055 178.565 12.0605C179.321 11.5098 180.382 11.2344 181.747 11.2344H183.329V10.4873C183.329 9.91895 183.159 9.46777 182.819 9.13379C182.479 8.79395 181.979 8.62402 181.316 8.62402C180.736 8.62402 180.25 8.77051 179.857 9.06348C179.465 9.35645 179.269 9.71094 179.269 10.127H177.634C177.634 9.65234 177.801 9.19531 178.135 8.75586C178.475 8.31055 178.932 7.95898 179.506 7.70117C180.086 7.44336 180.722 7.31445 181.413 7.31445C182.509 7.31445 183.367 7.58984 183.988 8.14062C184.609 8.68555 184.932 9.43848 184.955 10.3994V14.7764C184.955 15.6494 185.066 16.3438 185.289 16.8594V17H183.584ZM180.886 15.7607C181.396 15.7607 181.879 15.6289 182.336 15.3652C182.793 15.1016 183.124 14.7588 183.329 14.3369V12.3857H182.055C180.062 12.3857 179.066 12.9688 179.066 14.1348C179.066 14.6445 179.236 15.043 179.576 15.3301C179.916 15.6172 180.353 15.7607 180.886 15.7607ZM189.042 7.49023L189.095 8.68555C189.821 7.77148 190.771 7.31445 191.942 7.31445C193.952 7.31445 194.966 8.44824 194.983 10.7158V17H193.357V10.707C193.352 10.0215 193.193 9.51465 192.883 9.18652C192.578 8.8584 192.101 8.69434 191.45 8.69434C190.923 8.69434 190.46 8.83496 190.062 9.11621C189.663 9.39746 189.353 9.7666 189.13 10.2236V17H187.504V7.49023H189.042ZM197.04 12.166C197.04 10.707 197.386 9.53516 198.077 8.65039C198.769 7.75977 199.674 7.31445 200.793 7.31445C201.906 7.31445 202.788 7.69531 203.438 8.45703V3.5H205.064V17H203.57L203.491 15.9805C202.841 16.7773 201.936 17.1758 200.775 17.1758C199.674 17.1758 198.774 16.7246 198.077 15.8223C197.386 14.9199 197.04 13.7422 197.04 12.2891V12.166ZM198.666 12.3506C198.666 13.4287 198.889 14.2725 199.334 14.8818C199.779 15.4912 200.395 15.7959 201.18 15.7959C202.211 15.7959 202.964 15.333 203.438 14.4072V10.0391C202.952 9.14258 202.205 8.69434 201.197 8.69434C200.4 8.69434 199.779 9.00195 199.334 9.61719C198.889 10.2324 198.666 11.1436 198.666 12.3506ZM40.7793 33.3506C40.7793 34.8037 40.4453 35.9727 39.7773 36.8574C39.1094 37.7363 38.2129 38.1758 37.0879 38.1758C35.8867 38.1758 34.958 37.751 34.3018 36.9014L34.2227 38H32.7285V24.5H34.3545V29.5361C35.0107 28.7217 35.916 28.3145 37.0703 28.3145C38.2246 28.3145 39.1299 28.751 39.7861 29.624C40.4482 30.4971 40.7793 31.6924 40.7793 33.21V33.3506ZM39.1533 33.166C39.1533 32.0586 38.9395 31.2031 38.5117 30.5996C38.084 29.9961 37.4688 29.6943 36.666 29.6943C35.5938 29.6943 34.8232 30.1924 34.3545 31.1885V35.3018C34.8525 36.2979 35.6289 36.7959 36.6836 36.7959C37.4629 36.7959 38.0693 36.4941 38.5029 35.8906C38.9365 35.2871 39.1533 34.3789 39.1533 33.166ZM46.7822 38.1758C45.4932 38.1758 44.4443 37.7539 43.6357 36.9102C42.8271 36.0605 42.4229 34.9268 42.4229 33.5088V33.21C42.4229 32.2666 42.6016 31.4258 42.959 30.6875C43.3223 29.9434 43.8262 29.3633 44.4707 28.9473C45.1211 28.5254 45.8242 28.3145 46.5801 28.3145C47.8164 28.3145 48.7773 28.7217 49.4629 29.5361C50.1484 30.3506 50.4912 31.5166 50.4912 33.0342V33.7109H44.0488C44.0723 34.6484 44.3447 35.4072 44.8662 35.9873C45.3936 36.5615 46.0615 36.8486 46.8701 36.8486C47.4443 36.8486 47.9307 36.7314 48.3291 36.4971C48.7275 36.2627 49.0762 35.9521 49.375 35.5654L50.3682 36.3389C49.5713 37.5635 48.376 38.1758 46.7822 38.1758ZM46.5801 29.6504C45.9238 29.6504 45.373 29.8906 44.9277 30.3711C44.4824 30.8457 44.207 31.5137 44.1016 32.375H48.8652V32.252C48.8184 31.4258 48.5957 30.7871 48.1973 30.3359C47.7988 29.8789 47.2598 29.6504 46.5801 29.6504ZM58.252 38C58.1582 37.8125 58.082 37.4785 58.0234 36.998C57.2676 37.7832 56.3652 38.1758 55.3164 38.1758C54.3789 38.1758 53.6084 37.9121 53.0049 37.3848C52.4072 36.8516 52.1084 36.1777 52.1084 35.3633C52.1084 34.373 52.4834 33.6055 53.2334 33.0605C53.9893 32.5098 55.0498 32.2344 56.415 32.2344H57.9971V31.4873C57.9971 30.9189 57.8271 30.4678 57.4873 30.1338C57.1475 29.7939 56.6465 29.624 55.9844 29.624C55.4043 29.624 54.918 29.7705 54.5254 30.0635C54.1328 30.3564 53.9365 30.7109 53.9365 31.127H52.3018C52.3018 30.6523 52.4688 30.1953 52.8027 29.7559C53.1426 29.3105 53.5996 28.959 54.1738 28.7012C54.7539 28.4434 55.3896 28.3145 56.0811 28.3145C57.1768 28.3145 58.0352 28.5898 58.6562 29.1406C59.2773 29.6855 59.5996 30.4385 59.623 31.3994V35.7764C59.623 36.6494 59.7344 37.3438 59.957 37.8594V38H58.252ZM55.5537 36.7607C56.0635 36.7607 56.5469 36.6289 57.0039 36.3652C57.4609 36.1016 57.792 35.7588 57.9971 35.3369V33.3857H56.7227C54.7305 33.3857 53.7344 33.9688 53.7344 35.1348C53.7344 35.6445 53.9043 36.043 54.2441 36.3301C54.584 36.6172 55.0205 36.7607 55.5537 36.7607ZM68.043 37.0596C67.4102 37.8037 66.4814 38.1758 65.2568 38.1758C64.2432 38.1758 63.4697 37.8828 62.9365 37.2969C62.4092 36.7051 62.1426 35.832 62.1367 34.6777V28.4902H63.7627V34.6338C63.7627 36.0752 64.3486 36.7959 65.5205 36.7959C66.7627 36.7959 67.5889 36.333 67.999 35.4072V28.4902H69.625V38H68.0781L68.043 37.0596ZM74.3096 26.1875V28.4902H76.085V29.7471H74.3096V35.6445C74.3096 36.0254 74.3887 36.3125 74.5469 36.5059C74.7051 36.6934 74.9746 36.7871 75.3555 36.7871C75.543 36.7871 75.8008 36.752 76.1289 36.6816V38C75.7012 38.1172 75.2852 38.1758 74.8809 38.1758C74.1543 38.1758 73.6064 37.9561 73.2373 37.5166C72.8682 37.0771 72.6836 36.4531 72.6836 35.6445V29.7471H70.9521V28.4902H72.6836V26.1875H74.3096ZM79.7588 38H78.1328V28.4902H79.7588V38ZM78.001 25.9678C78.001 25.7041 78.0801 25.4814 78.2383 25.2998C78.4023 25.1182 78.6426 25.0273 78.959 25.0273C79.2754 25.0273 79.5156 25.1182 79.6797 25.2998C79.8438 25.4814 79.9258 25.7041 79.9258 25.9678C79.9258 26.2314 79.8438 26.4512 79.6797 26.627C79.5156 26.8027 79.2754 26.8906 78.959 26.8906C78.6426 26.8906 78.4023 26.8027 78.2383 26.627C78.0801 26.4512 78.001 26.2314 78.001 25.9678ZM83.1689 38V29.7471H81.666V28.4902H83.1689V27.5146C83.1689 26.4951 83.4414 25.707 83.9863 25.1504C84.5312 24.5938 85.3018 24.3154 86.2979 24.3154C86.6729 24.3154 87.0449 24.3652 87.4141 24.4648L87.3262 25.7832C87.0508 25.7305 86.7578 25.7041 86.4473 25.7041C85.9199 25.7041 85.5127 25.8594 85.2256 26.1699C84.9385 26.4746 84.7949 26.9141 84.7949 27.4883V28.4902H86.8252V29.7471H84.7949V38H83.1689ZM94.498 37.0596C93.8652 37.8037 92.9365 38.1758 91.7119 38.1758C90.6982 38.1758 89.9248 37.8828 89.3916 37.2969C88.8643 36.7051 88.5977 35.832 88.5918 34.6777V28.4902H90.2178V34.6338C90.2178 36.0752 90.8037 36.7959 91.9756 36.7959C93.2178 36.7959 94.0439 36.333 94.4541 35.4072V28.4902H96.0801V38H94.5332L94.498 37.0596ZM100.325 38H98.6992V24.5H100.325V38ZM111.215 36.8486C111.795 36.8486 112.302 36.6729 112.735 36.3213C113.169 35.9697 113.409 35.5303 113.456 35.0029H114.994C114.965 35.5479 114.777 36.0664 114.432 36.5586C114.086 37.0508 113.623 37.4434 113.043 37.7363C112.469 38.0293 111.859 38.1758 111.215 38.1758C109.92 38.1758 108.889 37.7451 108.121 36.8838C107.359 36.0166 106.979 34.833 106.979 33.333V33.0605C106.979 32.1348 107.148 31.3115 107.488 30.5908C107.828 29.8701 108.314 29.3105 108.947 28.9121C109.586 28.5137 110.339 28.3145 111.206 28.3145C112.272 28.3145 113.157 28.6338 113.86 29.2725C114.569 29.9111 114.947 30.7402 114.994 31.7598H113.456C113.409 31.1445 113.175 30.6406 112.753 30.248C112.337 29.8496 111.821 29.6504 111.206 29.6504C110.38 29.6504 109.738 29.9492 109.281 30.5469C108.83 31.1387 108.604 31.9971 108.604 33.1221V33.4297C108.604 34.5254 108.83 35.3691 109.281 35.9609C109.732 36.5527 110.377 36.8486 111.215 36.8486ZM116.392 33.1572C116.392 32.2256 116.573 31.3877 116.937 30.6436C117.306 29.8994 117.815 29.3252 118.466 28.9209C119.122 28.5166 119.869 28.3145 120.707 28.3145C122.002 28.3145 123.048 28.7627 123.845 29.6592C124.647 30.5557 125.049 31.748 125.049 33.2363V33.3506C125.049 34.2764 124.87 35.1084 124.513 35.8467C124.161 36.5791 123.654 37.1504 122.992 37.5605C122.336 37.9707 121.58 38.1758 120.725 38.1758C119.436 38.1758 118.39 37.7275 117.587 36.8311C116.79 35.9346 116.392 34.748 116.392 33.2715V33.1572ZM118.026 33.3506C118.026 34.4053 118.27 35.252 118.756 35.8906C119.248 36.5293 119.904 36.8486 120.725 36.8486C121.551 36.8486 122.207 36.5264 122.693 35.8818C123.18 35.2314 123.423 34.3232 123.423 33.1572C123.423 32.1143 123.174 31.2705 122.676 30.626C122.184 29.9756 121.527 29.6504 120.707 29.6504C119.904 29.6504 119.257 29.9697 118.765 30.6084C118.272 31.2471 118.026 32.1611 118.026 33.3506ZM132.959 37.0596C132.326 37.8037 131.397 38.1758 130.173 38.1758C129.159 38.1758 128.386 37.8828 127.853 37.2969C127.325 36.7051 127.059 35.832 127.053 34.6777V28.4902H128.679V34.6338C128.679 36.0752 129.265 36.7959 130.437 36.7959C131.679 36.7959 132.505 36.333 132.915 35.4072V28.4902H134.541V38H132.994L132.959 37.0596ZM138.558 28.4902L138.61 29.6855C139.337 28.7715 140.286 28.3145 141.458 28.3145C143.468 28.3145 144.481 29.4482 144.499 31.7158V38H142.873V31.707C142.867 31.0215 142.709 30.5146 142.398 30.1865C142.094 29.8584 141.616 29.6943 140.966 29.6943C140.438 29.6943 139.976 29.835 139.577 30.1162C139.179 30.3975 138.868 30.7666 138.646 31.2236V38H137.02V28.4902H138.558ZM149.157 26.1875V28.4902H150.933V29.7471H149.157V35.6445C149.157 36.0254 149.236 36.3125 149.395 36.5059C149.553 36.6934 149.822 36.7871 150.203 36.7871C150.391 36.7871 150.648 36.752 150.977 36.6816V38C150.549 38.1172 150.133 38.1758 149.729 38.1758C149.002 38.1758 148.454 37.9561 148.085 37.5166C147.716 37.0771 147.531 36.4531 147.531 35.6445V29.7471H145.8V28.4902H147.531V26.1875H149.157ZM157.437 29.9492C157.19 29.9082 156.924 29.8877 156.637 29.8877C155.57 29.8877 154.847 30.3418 154.466 31.25V38H152.84V28.4902H154.422L154.448 29.5889C154.981 28.7393 155.737 28.3145 156.716 28.3145C157.032 28.3145 157.272 28.3555 157.437 28.4375V29.9492ZM162.209 35.6182L164.424 28.4902H166.164L162.341 39.4678C161.749 41.0498 160.809 41.8408 159.52 41.8408L159.212 41.8145L158.605 41.7002V40.3818L159.045 40.417C159.596 40.417 160.023 40.3057 160.328 40.083C160.639 39.8604 160.894 39.4531 161.093 38.8613L161.453 37.8945L158.061 28.4902H159.836L162.209 35.6182ZM166.709 37.1475C166.709 36.8662 166.791 36.6318 166.955 36.4443C167.125 36.2568 167.377 36.1631 167.711 36.1631C168.045 36.1631 168.297 36.2568 168.467 36.4443C168.643 36.6318 168.73 36.8662 168.73 37.1475C168.73 37.417 168.643 37.6426 168.467 37.8242C168.297 38.0059 168.045 38.0967 167.711 38.0967C167.377 38.0967 167.125 38.0059 166.955 37.8242C166.791 37.6426 166.709 37.417 166.709 37.1475ZM180.517 26.5918H176.403V38H174.725V26.5918H170.62V25.2031H180.517V26.5918ZM183.786 29.6416C184.507 28.7568 185.444 28.3145 186.599 28.3145C188.608 28.3145 189.622 29.4482 189.64 31.7158V38H188.014V31.707C188.008 31.0215 187.85 30.5146 187.539 30.1865C187.234 29.8584 186.757 29.6943 186.106 29.6943C185.579 29.6943 185.116 29.835 184.718 30.1162C184.319 30.3975 184.009 30.7666 183.786 31.2236V38H182.16V24.5H183.786V29.6416ZM193.841 38H192.215V28.4902H193.841V38ZM192.083 25.9678C192.083 25.7041 192.162 25.4814 192.32 25.2998C192.484 25.1182 192.725 25.0273 193.041 25.0273C193.357 25.0273 193.598 25.1182 193.762 25.2998C193.926 25.4814 194.008 25.7041 194.008 25.9678C194.008 26.2314 193.926 26.4512 193.762 26.627C193.598 26.8027 193.357 26.8906 193.041 26.8906C192.725 26.8906 192.484 26.8027 192.32 26.627C192.162 26.4512 192.083 26.2314 192.083 25.9678ZM201.988 35.4775C201.988 35.0381 201.821 34.6982 201.487 34.458C201.159 34.2119 200.582 34.001 199.756 33.8252C198.936 33.6494 198.282 33.4385 197.796 33.1924C197.315 32.9463 196.958 32.6533 196.724 32.3135C196.495 31.9736 196.381 31.5693 196.381 31.1006C196.381 30.3213 196.709 29.6621 197.365 29.123C198.027 28.584 198.871 28.3145 199.896 28.3145C200.975 28.3145 201.848 28.5928 202.516 29.1494C203.189 29.7061 203.526 30.418 203.526 31.2852H201.892C201.892 30.8398 201.701 30.4561 201.32 30.1338C200.945 29.8115 200.471 29.6504 199.896 29.6504C199.305 29.6504 198.842 29.7793 198.508 30.0371C198.174 30.2949 198.007 30.6318 198.007 31.0479C198.007 31.4404 198.162 31.7363 198.473 31.9355C198.783 32.1348 199.343 32.3252 200.151 32.5068C200.966 32.6885 201.625 32.9053 202.129 33.1572C202.633 33.4092 203.005 33.7139 203.245 34.0713C203.491 34.4229 203.614 34.8535 203.614 35.3633C203.614 36.2129 203.274 36.8955 202.595 37.4111C201.915 37.9209 201.033 38.1758 199.949 38.1758C199.188 38.1758 198.514 38.041 197.928 37.7715C197.342 37.502 196.882 37.127 196.548 36.6465C196.22 36.1602 196.056 35.6357 196.056 35.0732H197.682C197.711 35.6182 197.928 36.0518 198.332 36.374C198.742 36.6904 199.281 36.8486 199.949 36.8486C200.564 36.8486 201.057 36.7256 201.426 36.4795C201.801 36.2275 201.988 35.8936 201.988 35.4775ZM8.14551 57.8486C8.72559 57.8486 9.23242 57.6729 9.66602 57.3213C10.0996 56.9697 10.3398 56.5303 10.3867 56.0029H11.9248C11.8955 56.5479 11.708 57.0664 11.3623 57.5586C11.0166 58.0508 10.5537 58.4434 9.97363 58.7363C9.39941 59.0293 8.79004 59.1758 8.14551 59.1758C6.85059 59.1758 5.81934 58.7451 5.05176 57.8838C4.29004 57.0166 3.90918 55.833 3.90918 54.333V54.0605C3.90918 53.1348 4.0791 52.3115 4.41895 51.5908C4.75879 50.8701 5.24512 50.3105 5.87793 49.9121C6.5166 49.5137 7.26953 49.3145 8.13672 49.3145C9.20312 49.3145 10.0879 49.6338 10.791 50.2725C11.5 50.9111 11.8779 51.7402 11.9248 52.7598H10.3867C10.3398 52.1445 10.1055 51.6406 9.68359 51.248C9.26758 50.8496 8.75195 50.6504 8.13672 50.6504C7.31055 50.6504 6.66895 50.9492 6.21191 51.5469C5.76074 52.1387 5.53516 52.9971 5.53516 54.1221V54.4297C5.53516 55.5254 5.76074 56.3691 6.21191 56.9609C6.66309 57.5527 7.30762 57.8486 8.14551 57.8486ZM13.3223 54.1572C13.3223 53.2256 13.5039 52.3877 13.8672 51.6436C14.2363 50.8994 14.7461 50.3252 15.3965 49.9209C16.0527 49.5166 16.7998 49.3145 17.6377 49.3145C18.9326 49.3145 19.9785 49.7627 20.7754 50.6592C21.5781 51.5557 21.9795 52.748 21.9795 54.2363V54.3506C21.9795 55.2764 21.8008 56.1084 21.4434 56.8467C21.0918 57.5791 20.585 58.1504 19.9229 58.5605C19.2666 58.9707 18.5107 59.1758 17.6553 59.1758C16.3662 59.1758 15.3203 58.7275 14.5176 57.8311C13.7207 56.9346 13.3223 55.748 13.3223 54.2715V54.1572ZM14.957 54.3506C14.957 55.4053 15.2002 56.252 15.6865 56.8906C16.1787 57.5293 16.835 57.8486 17.6553 57.8486C18.4814 57.8486 19.1377 57.5264 19.624 56.8818C20.1104 56.2314 20.3535 55.3232 20.3535 54.1572C20.3535 53.1143 20.1045 52.2705 19.6064 51.626C19.1143 50.9756 18.458 50.6504 17.6377 50.6504C16.835 50.6504 16.1875 50.9697 15.6953 51.6084C15.2031 52.2471 14.957 53.1611 14.957 54.3506ZM29.8896 58.0596C29.2568 58.8037 28.3281 59.1758 27.1035 59.1758C26.0898 59.1758 25.3164 58.8828 24.7832 58.2969C24.2559 57.7051 23.9893 56.832 23.9834 55.6777V49.4902H25.6094V55.6338C25.6094 57.0752 26.1953 57.7959 27.3672 57.7959C28.6094 57.7959 29.4355 57.333 29.8457 56.4072V49.4902H31.4717V59H29.9248L29.8896 58.0596ZM35.4883 49.4902L35.541 50.6855C36.2676 49.7715 37.2168 49.3145 38.3887 49.3145C40.3984 49.3145 41.4121 50.4482 41.4297 52.7158V59H39.8037V52.707C39.7979 52.0215 39.6396 51.5146 39.3291 51.1865C39.0244 50.8584 38.5469 50.6943 37.8965 50.6943C37.3691 50.6943 36.9062 50.835 36.5078 51.1162C36.1094 51.3975 35.7988 51.7666 35.5762 52.2236V59H33.9502V49.4902H35.4883ZM46.0879 47.1875V49.4902H47.8633V50.7471H46.0879V56.6445C46.0879 57.0254 46.167 57.3125 46.3252 57.5059C46.4834 57.6934 46.7529 57.7871 47.1338 57.7871C47.3213 57.7871 47.5791 57.752 47.9072 57.6816V59C47.4795 59.1172 47.0635 59.1758 46.6592 59.1758C45.9326 59.1758 45.3848 58.9561 45.0156 58.5166C44.6465 58.0771 44.4619 57.4531 44.4619 56.6445V50.7471H42.7305V49.4902H44.4619V47.1875H46.0879ZM54.3672 50.9492C54.1211 50.9082 53.8545 50.8877 53.5674 50.8877C52.501 50.8877 51.7773 51.3418 51.3965 52.25V59H49.7705V49.4902H51.3525L51.3789 50.5889C51.9121 49.7393 52.668 49.3145 53.6465 49.3145C53.9629 49.3145 54.2031 49.3555 54.3672 49.4375V50.9492ZM59.1396 56.6182L61.3545 49.4902H63.0947L59.2715 60.4678C58.6797 62.0498 57.7393 62.8408 56.4502 62.8408L56.1426 62.8145L55.5361 62.7002V61.3818L55.9756 61.417C56.5264 61.417 56.9541 61.3057 57.2588 61.083C57.5693 60.8604 57.8242 60.4531 58.0234 59.8613L58.3838 58.8945L54.9912 49.4902H56.7666L59.1396 56.6182ZM70.7852 59H69.1592V49.4902H70.7852V59ZM69.0273 46.9678C69.0273 46.7041 69.1064 46.4814 69.2646 46.2998C69.4287 46.1182 69.6689 46.0273 69.9854 46.0273C70.3018 46.0273 70.542 46.1182 70.7061 46.2998C70.8701 46.4814 70.9521 46.7041 70.9521 46.9678C70.9521 47.2314 70.8701 47.4512 70.7061 47.627C70.542 47.8027 70.3018 47.8906 69.9854 47.8906C69.6689 47.8906 69.4287 47.8027 69.2646 47.627C69.1064 47.4512 69.0273 47.2314 69.0273 46.9678ZM78.9326 56.4775C78.9326 56.0381 78.7656 55.6982 78.4316 55.458C78.1035 55.2119 77.5264 55.001 76.7002 54.8252C75.8799 54.6494 75.2266 54.4385 74.7402 54.1924C74.2598 53.9463 73.9023 53.6533 73.668 53.3135C73.4395 52.9736 73.3252 52.5693 73.3252 52.1006C73.3252 51.3213 73.6533 50.6621 74.3096 50.123C74.9717 49.584 75.8154 49.3145 76.8408 49.3145C77.9189 49.3145 78.792 49.5928 79.46 50.1494C80.1338 50.7061 80.4707 51.418 80.4707 52.2852H78.8359C78.8359 51.8398 78.6455 51.4561 78.2646 51.1338C77.8896 50.8115 77.415 50.6504 76.8408 50.6504C76.249 50.6504 75.7861 50.7793 75.4521 51.0371C75.1182 51.2949 74.9512 51.6318 74.9512 52.0479C74.9512 52.4404 75.1064 52.7363 75.417 52.9355C75.7275 53.1348 76.2871 53.3252 77.0957 53.5068C77.9102 53.6885 78.5693 53.9053 79.0732 54.1572C79.5771 54.4092 79.9492 54.7139 80.1895 55.0713C80.4355 55.4229 80.5586 55.8535 80.5586 56.3633C80.5586 57.2129 80.2188 57.8955 79.5391 58.4111C78.8594 58.9209 77.9775 59.1758 76.8936 59.1758C76.1318 59.1758 75.458 59.041 74.8721 58.7715C74.2861 58.502 73.8262 58.127 73.4922 57.6465C73.1641 57.1602 73 56.6357 73 56.0732H74.626C74.6553 56.6182 74.8721 57.0518 75.2764 57.374C75.6865 57.6904 76.2256 57.8486 76.8936 57.8486C77.5088 57.8486 78.001 57.7256 78.3701 57.4795C78.7451 57.2275 78.9326 56.8936 78.9326 56.4775ZM88.6709 49.4902L88.7148 50.5449C89.4121 49.7246 90.3525 49.3145 91.5361 49.3145C92.8662 49.3145 93.7715 49.8242 94.252 50.8438C94.5684 50.3867 94.9785 50.0176 95.4824 49.7363C95.9922 49.4551 96.5928 49.3145 97.2842 49.3145C99.3701 49.3145 100.431 50.4189 100.466 52.6279V59H98.8398V52.7246C98.8398 52.0449 98.6846 51.5381 98.374 51.2041C98.0635 50.8643 97.542 50.6943 96.8096 50.6943C96.2061 50.6943 95.7051 50.876 95.3066 51.2393C94.9082 51.5967 94.6768 52.0801 94.6123 52.6895V59H92.9775V52.7686C92.9775 51.3857 92.3008 50.6943 90.9473 50.6943C89.8809 50.6943 89.1514 51.1484 88.7588 52.0566V59H87.1328V49.4902H88.6709ZM102.496 54.1572C102.496 53.2256 102.678 52.3877 103.041 51.6436C103.41 50.8994 103.92 50.3252 104.57 49.9209C105.227 49.5166 105.974 49.3145 106.812 49.3145C108.106 49.3145 109.152 49.7627 109.949 50.6592C110.752 51.5557 111.153 52.748 111.153 54.2363V54.3506C111.153 55.2764 110.975 56.1084 110.617 56.8467C110.266 57.5791 109.759 58.1504 109.097 58.5605C108.44 58.9707 107.685 59.1758 106.829 59.1758C105.54 59.1758 104.494 58.7275 103.691 57.8311C102.895 56.9346 102.496 55.748 102.496 54.2715V54.1572ZM104.131 54.3506C104.131 55.4053 104.374 56.252 104.86 56.8906C105.353 57.5293 106.009 57.8486 106.829 57.8486C107.655 57.8486 108.312 57.5264 108.798 56.8818C109.284 56.2314 109.527 55.3232 109.527 54.1572C109.527 53.1143 109.278 52.2705 108.78 51.626C108.288 50.9756 107.632 50.6504 106.812 50.6504C106.009 50.6504 105.361 50.9697 104.869 51.6084C104.377 52.2471 104.131 53.1611 104.131 54.3506ZM118.729 56.4775C118.729 56.0381 118.562 55.6982 118.229 55.458C117.9 55.2119 117.323 55.001 116.497 54.8252C115.677 54.6494 115.023 54.4385 114.537 54.1924C114.057 53.9463 113.699 53.6533 113.465 53.3135C113.236 52.9736 113.122 52.5693 113.122 52.1006C113.122 51.3213 113.45 50.6621 114.106 50.123C114.769 49.584 115.612 49.3145 116.638 49.3145C117.716 49.3145 118.589 49.5928 119.257 50.1494C119.931 50.7061 120.268 51.418 120.268 52.2852H118.633C118.633 51.8398 118.442 51.4561 118.062 51.1338C117.687 50.8115 117.212 50.6504 116.638 50.6504C116.046 50.6504 115.583 50.7793 115.249 51.0371C114.915 51.2949 114.748 51.6318 114.748 52.0479C114.748 52.4404 114.903 52.7363 115.214 52.9355C115.524 53.1348 116.084 53.3252 116.893 53.5068C117.707 53.6885 118.366 53.9053 118.87 54.1572C119.374 54.4092 119.746 54.7139 119.986 55.0713C120.232 55.4229 120.355 55.8535 120.355 56.3633C120.355 57.2129 120.016 57.8955 119.336 58.4111C118.656 58.9209 117.774 59.1758 116.69 59.1758C115.929 59.1758 115.255 59.041 114.669 58.7715C114.083 58.502 113.623 58.127 113.289 57.6465C112.961 57.1602 112.797 56.6357 112.797 56.0732H114.423C114.452 56.6182 114.669 57.0518 115.073 57.374C115.483 57.6904 116.022 57.8486 116.69 57.8486C117.306 57.8486 117.798 57.7256 118.167 57.4795C118.542 57.2275 118.729 56.8936 118.729 56.4775ZM124.68 47.1875V49.4902H126.455V50.7471H124.68V56.6445C124.68 57.0254 124.759 57.3125 124.917 57.5059C125.075 57.6934 125.345 57.7871 125.726 57.7871C125.913 57.7871 126.171 57.752 126.499 57.6816V59C126.071 59.1172 125.655 59.1758 125.251 59.1758C124.524 59.1758 123.977 58.9561 123.607 58.5166C123.238 58.0771 123.054 57.4531 123.054 56.6445V50.7471H121.322V49.4902H123.054V47.1875H124.68ZM130.129 59H128.503V45.5H130.129V59ZM135.851 56.6182L138.065 49.4902H139.806L135.982 60.4678C135.391 62.0498 134.45 62.8408 133.161 62.8408L132.854 62.8145L132.247 62.7002V61.3818L132.687 61.417C133.237 61.417 133.665 61.3057 133.97 61.083C134.28 60.8604 134.535 60.4531 134.734 59.8613L135.095 58.8945L131.702 49.4902H133.478L135.851 56.6182ZM146.529 59V50.7471H145.026V49.4902H146.529V48.5146C146.529 47.4951 146.802 46.707 147.347 46.1504C147.892 45.5938 148.662 45.3154 149.658 45.3154C150.033 45.3154 150.405 45.3652 150.774 45.4648L150.687 46.7832C150.411 46.7305 150.118 46.7041 149.808 46.7041C149.28 46.7041 148.873 46.8594 148.586 47.1699C148.299 47.4746 148.155 47.9141 148.155 48.4883V49.4902H150.186V50.7471H148.155V59H146.529ZM157.858 59C157.765 58.8125 157.688 58.4785 157.63 57.998C156.874 58.7832 155.972 59.1758 154.923 59.1758C153.985 59.1758 153.215 58.9121 152.611 58.3848C152.014 57.8516 151.715 57.1777 151.715 56.3633C151.715 55.373 152.09 54.6055 152.84 54.0605C153.596 53.5098 154.656 53.2344 156.021 53.2344H157.604V52.4873C157.604 51.9189 157.434 51.4678 157.094 51.1338C156.754 50.7939 156.253 50.624 155.591 50.624C155.011 50.624 154.524 50.7705 154.132 51.0635C153.739 51.3564 153.543 51.7109 153.543 52.127H151.908C151.908 51.6523 152.075 51.1953 152.409 50.7559C152.749 50.3105 153.206 49.959 153.78 49.7012C154.36 49.4434 154.996 49.3145 155.688 49.3145C156.783 49.3145 157.642 49.5898 158.263 50.1406C158.884 50.6855 159.206 51.4385 159.229 52.3994V56.7764C159.229 57.6494 159.341 58.3438 159.563 58.8594V59H157.858ZM155.16 57.7607C155.67 57.7607 156.153 57.6289 156.61 57.3652C157.067 57.1016 157.398 56.7588 157.604 56.3369V54.3857H156.329C154.337 54.3857 153.341 54.9688 153.341 56.1348C153.341 56.6445 153.511 57.043 153.851 57.3301C154.19 57.6172 154.627 57.7607 155.16 57.7607ZM163.308 49.4902L163.352 50.5449C164.049 49.7246 164.989 49.3145 166.173 49.3145C167.503 49.3145 168.408 49.8242 168.889 50.8438C169.205 50.3867 169.615 50.0176 170.119 49.7363C170.629 49.4551 171.229 49.3145 171.921 49.3145C174.007 49.3145 175.067 50.4189 175.103 52.6279V59H173.477V52.7246C173.477 52.0449 173.321 51.5381 173.011 51.2041C172.7 50.8643 172.179 50.6943 171.446 50.6943C170.843 50.6943 170.342 50.876 169.943 51.2393C169.545 51.5967 169.313 52.0801 169.249 52.6895V59H167.614V52.7686C167.614 51.3857 166.938 50.6943 165.584 50.6943C164.518 50.6943 163.788 51.1484 163.396 52.0566V59H161.77V49.4902H163.308ZM177.133 54.1572C177.133 53.2256 177.314 52.3877 177.678 51.6436C178.047 50.8994 178.557 50.3252 179.207 49.9209C179.863 49.5166 180.61 49.3145 181.448 49.3145C182.743 49.3145 183.789 49.7627 184.586 50.6592C185.389 51.5557 185.79 52.748 185.79 54.2363V54.3506C185.79 55.2764 185.611 56.1084 185.254 56.8467C184.902 57.5791 184.396 58.1504 183.733 58.5605C183.077 58.9707 182.321 59.1758 181.466 59.1758C180.177 59.1758 179.131 58.7275 178.328 57.8311C177.531 56.9346 177.133 55.748 177.133 54.2715V54.1572ZM178.768 54.3506C178.768 55.4053 179.011 56.252 179.497 56.8906C179.989 57.5293 180.646 57.8486 181.466 57.8486C182.292 57.8486 182.948 57.5264 183.435 56.8818C183.921 56.2314 184.164 55.3232 184.164 54.1572C184.164 53.1143 183.915 52.2705 183.417 51.626C182.925 50.9756 182.269 50.6504 181.448 50.6504C180.646 50.6504 179.998 50.9697 179.506 51.6084C179.014 52.2471 178.768 53.1611 178.768 54.3506ZM193.7 58.0596C193.067 58.8037 192.139 59.1758 190.914 59.1758C189.9 59.1758 189.127 58.8828 188.594 58.2969C188.066 57.7051 187.8 56.832 187.794 55.6777V49.4902H189.42V55.6338C189.42 57.0752 190.006 57.7959 191.178 57.7959C192.42 57.7959 193.246 57.333 193.656 56.4072V49.4902H195.282V59H193.735L193.7 58.0596ZM203.298 56.4775C203.298 56.0381 203.131 55.6982 202.797 55.458C202.469 55.2119 201.892 55.001 201.065 54.8252C200.245 54.6494 199.592 54.4385 199.105 54.1924C198.625 53.9463 198.268 53.6533 198.033 53.3135C197.805 52.9736 197.69 52.5693 197.69 52.1006C197.69 51.3213 198.019 50.6621 198.675 50.123C199.337 49.584 200.181 49.3145 201.206 49.3145C202.284 49.3145 203.157 49.5928 203.825 50.1494C204.499 50.7061 204.836 51.418 204.836 52.2852H203.201C203.201 51.8398 203.011 51.4561 202.63 51.1338C202.255 50.8115 201.78 50.6504 201.206 50.6504C200.614 50.6504 200.151 50.7793 199.817 51.0371C199.483 51.2949 199.316 51.6318 199.316 52.0479C199.316 52.4404 199.472 52.7363 199.782 52.9355C200.093 53.1348 200.652 53.3252 201.461 53.5068C202.275 53.6885 202.935 53.9053 203.438 54.1572C203.942 54.4092 204.314 54.7139 204.555 55.0713C204.801 55.4229 204.924 55.8535 204.924 56.3633C204.924 57.2129 204.584 57.8955 203.904 58.4111C203.225 58.9209 202.343 59.1758 201.259 59.1758C200.497 59.1758 199.823 59.041 199.237 58.7715C198.651 58.502 198.191 58.127 197.857 57.6465C197.529 57.1602 197.365 56.6357 197.365 56.0732H198.991C199.021 56.6182 199.237 57.0518 199.642 57.374C200.052 57.6904 200.591 57.8486 201.259 57.8486C201.874 57.8486 202.366 57.7256 202.735 57.4795C203.11 57.2275 203.298 56.8936 203.298 56.4775ZM212.307 59V50.7471H210.804V49.4902H212.307V48.5146C212.307 47.4951 212.579 46.707 213.124 46.1504C213.669 45.5938 214.439 45.3154 215.436 45.3154C215.811 45.3154 216.183 45.3652 216.552 45.4648L216.464 46.7832C216.188 46.7305 215.896 46.7041 215.585 46.7041C215.058 46.7041 214.65 46.8594 214.363 47.1699C214.076 47.4746 213.933 47.9141 213.933 48.4883V49.4902H215.963V50.7471H213.933V59H212.307ZM217.334 54.1572C217.334 53.2256 217.516 52.3877 217.879 51.6436C218.248 50.8994 218.758 50.3252 219.408 49.9209C220.064 49.5166 220.812 49.3145 221.649 49.3145C222.944 49.3145 223.99 49.7627 224.787 50.6592C225.59 51.5557 225.991 52.748 225.991 54.2363V54.3506C225.991 55.2764 225.812 56.1084 225.455 56.8467C225.104 57.5791 224.597 58.1504 223.935 58.5605C223.278 58.9707 222.522 59.1758 221.667 59.1758C220.378 59.1758 219.332 58.7275 218.529 57.8311C217.732 56.9346 217.334 55.748 217.334 54.2715V54.1572ZM218.969 54.3506C218.969 55.4053 219.212 56.252 219.698 56.8906C220.19 57.5293 220.847 57.8486 221.667 57.8486C222.493 57.8486 223.149 57.5264 223.636 56.8818C224.122 56.2314 224.365 55.3232 224.365 54.1572C224.365 53.1143 224.116 52.2705 223.618 51.626C223.126 50.9756 222.47 50.6504 221.649 50.6504C220.847 50.6504 220.199 50.9697 219.707 51.6084C219.215 52.2471 218.969 53.1611 218.969 54.3506ZM232.627 50.9492C232.381 50.9082 232.114 50.8877 231.827 50.8877C230.761 50.8877 230.037 51.3418 229.656 52.25V59H228.03V49.4902H229.612L229.639 50.5889C230.172 49.7393 230.928 49.3145 231.906 49.3145C232.223 49.3145 232.463 49.3555 232.627 49.4375V50.9492ZM30.2412 68.1875V70.4902H32.0166V71.7471H30.2412V77.6445C30.2412 78.0254 30.3203 78.3125 30.4785 78.5059C30.6367 78.6934 30.9062 78.7871 31.2871 78.7871C31.4746 78.7871 31.7324 78.752 32.0605 78.6816V80C31.6328 80.1172 31.2168 80.1758 30.8125 80.1758C30.0859 80.1758 29.5381 79.9561 29.1689 79.5166C28.7998 79.0771 28.6152 78.4531 28.6152 77.6445V71.7471H26.8838V70.4902H28.6152V68.1875H30.2412ZM35.5498 71.6416C36.2705 70.7568 37.208 70.3145 38.3623 70.3145C40.3721 70.3145 41.3857 71.4482 41.4033 73.7158V80H39.7773V73.707C39.7715 73.0215 39.6133 72.5146 39.3027 72.1865C38.998 71.8584 38.5205 71.6943 37.8701 71.6943C37.3428 71.6943 36.8799 71.835 36.4814 72.1162C36.083 72.3975 35.7725 72.7666 35.5498 73.2236V80H33.9238V66.5H35.5498V71.6416ZM47.7842 80.1758C46.4951 80.1758 45.4463 79.7539 44.6377 78.9102C43.8291 78.0605 43.4248 76.9268 43.4248 75.5088V75.21C43.4248 74.2666 43.6035 73.4258 43.9609 72.6875C44.3242 71.9434 44.8281 71.3633 45.4727 70.9473C46.123 70.5254 46.8262 70.3145 47.582 70.3145C48.8184 70.3145 49.7793 70.7217 50.4648 71.5361C51.1504 72.3506 51.4932 73.5166 51.4932 75.0342V75.7109H45.0508C45.0742 76.6484 45.3467 77.4072 45.8682 77.9873C46.3955 78.5615 47.0635 78.8486 47.8721 78.8486C48.4463 78.8486 48.9326 78.7314 49.3311 78.4971C49.7295 78.2627 50.0781 77.9521 50.377 77.5654L51.3701 78.3389C50.5732 79.5635 49.3779 80.1758 47.7842 80.1758ZM47.582 71.6504C46.9258 71.6504 46.375 71.8906 45.9297 72.3711C45.4844 72.8457 45.209 73.5137 45.1035 74.375H49.8672V74.252C49.8203 73.4258 49.5977 72.7871 49.1992 72.3359C48.8008 71.8789 48.2617 71.6504 47.582 71.6504ZM59.4736 71.6416C60.1943 70.7568 61.1318 70.3145 62.2861 70.3145C64.2959 70.3145 65.3096 71.4482 65.3271 73.7158V80H63.7012V73.707C63.6953 73.0215 63.5371 72.5146 63.2266 72.1865C62.9219 71.8584 62.4443 71.6943 61.7939 71.6943C61.2666 71.6943 60.8037 71.835 60.4053 72.1162C60.0068 72.3975 59.6963 72.7666 59.4736 73.2236V80H57.8477V66.5H59.4736V71.6416ZM69.5283 80H67.9023V70.4902H69.5283V80ZM67.7705 67.9678C67.7705 67.7041 67.8496 67.4814 68.0078 67.2998C68.1719 67.1182 68.4121 67.0273 68.7285 67.0273C69.0449 67.0273 69.2852 67.1182 69.4492 67.2998C69.6133 67.4814 69.6953 67.7041 69.6953 67.9678C69.6953 68.2314 69.6133 68.4512 69.4492 68.627C69.2852 68.8027 69.0449 68.8906 68.7285 68.8906C68.4121 68.8906 68.1719 68.8027 68.0078 68.627C67.8496 68.4512 67.7705 68.2314 67.7705 67.9678ZM73.668 70.4902L73.7119 71.5449C74.4092 70.7246 75.3496 70.3145 76.5332 70.3145C77.8633 70.3145 78.7686 70.8242 79.249 71.8438C79.5654 71.3867 79.9756 71.0176 80.4795 70.7363C80.9893 70.4551 81.5898 70.3145 82.2812 70.3145C84.3672 70.3145 85.4277 71.4189 85.4629 73.6279V80H83.8369V73.7246C83.8369 73.0449 83.6816 72.5381 83.3711 72.2041C83.0605 71.8643 82.5391 71.6943 81.8066 71.6943C81.2031 71.6943 80.7021 71.876 80.3037 72.2393C79.9053 72.5967 79.6738 73.0801 79.6094 73.6895V80H77.9746V73.7686C77.9746 72.3857 77.2979 71.6943 75.9443 71.6943C74.8779 71.6943 74.1484 72.1484 73.7559 73.0566V80H72.1299V70.4902H73.668ZM89.6904 80H88.0645V66.5H89.6904V80ZM98.1719 80C98.0781 79.8125 98.002 79.4785 97.9434 78.998C97.1875 79.7832 96.2852 80.1758 95.2363 80.1758C94.2988 80.1758 93.5283 79.9121 92.9248 79.3848C92.3271 78.8516 92.0283 78.1777 92.0283 77.3633C92.0283 76.373 92.4033 75.6055 93.1533 75.0605C93.9092 74.5098 94.9697 74.2344 96.335 74.2344H97.917V73.4873C97.917 72.9189 97.7471 72.4678 97.4072 72.1338C97.0674 71.7939 96.5664 71.624 95.9043 71.624C95.3242 71.624 94.8379 71.7705 94.4453 72.0635C94.0527 72.3564 93.8564 72.7109 93.8564 73.127H92.2217C92.2217 72.6523 92.3887 72.1953 92.7227 71.7559C93.0625 71.3105 93.5195 70.959 94.0938 70.7012C94.6738 70.4434 95.3096 70.3145 96.001 70.3145C97.0967 70.3145 97.9551 70.5898 98.5762 71.1406C99.1973 71.6855 99.5195 72.4385 99.543 73.3994V77.7764C99.543 78.6494 99.6543 79.3438 99.877 79.8594V80H98.1719ZM95.4736 78.7607C95.9834 78.7607 96.4668 78.6289 96.9238 78.3652C97.3809 78.1016 97.7119 77.7588 97.917 77.3369V75.3857H96.6426C94.6504 75.3857 93.6543 75.9688 93.6543 77.1348C93.6543 77.6445 93.8242 78.043 94.1641 78.3301C94.5039 78.6172 94.9404 78.7607 95.4736 78.7607ZM105.062 77.6182L107.277 70.4902H109.018L105.194 81.4678C104.603 83.0498 103.662 83.8408 102.373 83.8408L102.065 83.8145L101.459 83.7002V82.3818L101.898 82.417C102.449 82.417 102.877 82.3057 103.182 82.083C103.492 81.8604 103.747 81.4531 103.946 80.8613L104.307 79.8945L100.914 70.4902H102.689L105.062 77.6182ZM116.207 80C116.113 79.8125 116.037 79.4785 115.979 78.998C115.223 79.7832 114.32 80.1758 113.271 80.1758C112.334 80.1758 111.563 79.9121 110.96 79.3848C110.362 78.8516 110.063 78.1777 110.063 77.3633C110.063 76.373 110.438 75.6055 111.188 75.0605C111.944 74.5098 113.005 74.2344 114.37 74.2344H115.952V73.4873C115.952 72.9189 115.782 72.4678 115.442 72.1338C115.103 71.7939 114.602 71.624 113.939 71.624C113.359 71.624 112.873 71.7705 112.48 72.0635C112.088 72.3564 111.892 72.7109 111.892 73.127H110.257C110.257 72.6523 110.424 72.1953 110.758 71.7559C111.098 71.3105 111.555 70.959 112.129 70.7012C112.709 70.4434 113.345 70.3145 114.036 70.3145C115.132 70.3145 115.99 70.5898 116.611 71.1406C117.232 71.6855 117.555 72.4385 117.578 73.3994V77.7764C117.578 78.6494 117.689 79.3438 117.912 79.8594V80H116.207ZM113.509 78.7607C114.019 78.7607 114.502 78.6289 114.959 78.3652C115.416 78.1016 115.747 77.7588 115.952 77.3369V75.3857H114.678C112.686 75.3857 111.689 75.9688 111.689 77.1348C111.689 77.6445 111.859 78.043 112.199 78.3301C112.539 78.6172 112.976 78.7607 113.509 78.7607ZM121.665 70.4902L121.718 71.6855C122.444 70.7715 123.394 70.3145 124.565 70.3145C126.575 70.3145 127.589 71.4482 127.606 73.7158V80H125.98V73.707C125.975 73.0215 125.816 72.5146 125.506 72.1865C125.201 71.8584 124.724 71.6943 124.073 71.6943C123.546 71.6943 123.083 71.835 122.685 72.1162C122.286 72.3975 121.976 72.7666 121.753 73.2236V80H120.127V70.4902H121.665ZM136.053 70.4902L136.097 71.5449C136.794 70.7246 137.734 70.3145 138.918 70.3145C140.248 70.3145 141.153 70.8242 141.634 71.8438C141.95 71.3867 142.36 71.0176 142.864 70.7363C143.374 70.4551 143.975 70.3145 144.666 70.3145C146.752 70.3145 147.812 71.4189 147.848 73.6279V80H146.222V73.7246C146.222 73.0449 146.066 72.5381 145.756 72.2041C145.445 71.8643 144.924 71.6943 144.191 71.6943C143.588 71.6943 143.087 71.876 142.688 72.2393C142.29 72.5967 142.059 73.0801 141.994 73.6895V80H140.359V73.7686C140.359 72.3857 139.683 71.6943 138.329 71.6943C137.263 71.6943 136.533 72.1484 136.141 73.0566V80H134.515V70.4902H136.053ZM149.878 75.1572C149.878 74.2256 150.06 73.3877 150.423 72.6436C150.792 71.8994 151.302 71.3252 151.952 70.9209C152.608 70.5166 153.355 70.3145 154.193 70.3145C155.488 70.3145 156.534 70.7627 157.331 71.6592C158.134 72.5557 158.535 73.748 158.535 75.2363V75.3506C158.535 76.2764 158.356 77.1084 157.999 77.8467C157.647 78.5791 157.141 79.1504 156.479 79.5605C155.822 79.9707 155.066 80.1758 154.211 80.1758C152.922 80.1758 151.876 79.7275 151.073 78.8311C150.276 77.9346 149.878 76.748 149.878 75.2715V75.1572ZM151.513 75.3506C151.513 76.4053 151.756 77.252 152.242 77.8906C152.734 78.5293 153.391 78.8486 154.211 78.8486C155.037 78.8486 155.693 78.5264 156.18 77.8818C156.666 77.2314 156.909 76.3232 156.909 75.1572C156.909 74.1143 156.66 73.2705 156.162 72.626C155.67 71.9756 155.014 71.6504 154.193 71.6504C153.391 71.6504 152.743 71.9697 152.251 72.6084C151.759 73.2471 151.513 74.1611 151.513 75.3506ZM166.445 79.0596C165.812 79.8037 164.884 80.1758 163.659 80.1758C162.646 80.1758 161.872 79.8828 161.339 79.2969C160.812 78.7051 160.545 77.832 160.539 76.6777V70.4902H162.165V76.6338C162.165 78.0752 162.751 78.7959 163.923 78.7959C165.165 78.7959 165.991 78.333 166.401 77.4072V70.4902H168.027V80H166.48L166.445 79.0596ZM172.044 70.4902L172.097 71.6855C172.823 70.7715 173.772 70.3145 174.944 70.3145C176.954 70.3145 177.968 71.4482 177.985 73.7158V80H176.359V73.707C176.354 73.0215 176.195 72.5146 175.885 72.1865C175.58 71.8584 175.103 71.6943 174.452 71.6943C173.925 71.6943 173.462 71.835 173.063 72.1162C172.665 72.3975 172.354 72.7666 172.132 73.2236V80H170.506V70.4902H172.044ZM182.644 68.1875V70.4902H184.419V71.7471H182.644V77.6445C182.644 78.0254 182.723 78.3125 182.881 78.5059C183.039 78.6934 183.309 78.7871 183.689 78.7871C183.877 78.7871 184.135 78.752 184.463 78.6816V80C184.035 80.1172 183.619 80.1758 183.215 80.1758C182.488 80.1758 181.94 79.9561 181.571 79.5166C181.202 79.0771 181.018 78.4531 181.018 77.6445V71.7471H179.286V70.4902H181.018V68.1875H182.644ZM192.197 80C192.104 79.8125 192.027 79.4785 191.969 78.998C191.213 79.7832 190.311 80.1758 189.262 80.1758C188.324 80.1758 187.554 79.9121 186.95 79.3848C186.353 78.8516 186.054 78.1777 186.054 77.3633C186.054 76.373 186.429 75.6055 187.179 75.0605C187.935 74.5098 188.995 74.2344 190.36 74.2344H191.942V73.4873C191.942 72.9189 191.772 72.4678 191.433 72.1338C191.093 71.7939 190.592 71.624 189.93 71.624C189.35 71.624 188.863 71.7705 188.471 72.0635C188.078 72.3564 187.882 72.7109 187.882 73.127H186.247C186.247 72.6523 186.414 72.1953 186.748 71.7559C187.088 71.3105 187.545 70.959 188.119 70.7012C188.699 70.4434 189.335 70.3145 190.026 70.3145C191.122 70.3145 191.98 70.5898 192.602 71.1406C193.223 71.6855 193.545 72.4385 193.568 73.3994V77.7764C193.568 78.6494 193.68 79.3438 193.902 79.8594V80H192.197ZM189.499 78.7607C190.009 78.7607 190.492 78.6289 190.949 78.3652C191.406 78.1016 191.737 77.7588 191.942 77.3369V75.3857H190.668C188.676 75.3857 187.68 75.9688 187.68 77.1348C187.68 77.6445 187.85 78.043 188.189 78.3301C188.529 78.6172 188.966 78.7607 189.499 78.7607ZM197.884 80H196.258V70.4902H197.884V80ZM196.126 67.9678C196.126 67.7041 196.205 67.4814 196.363 67.2998C196.527 67.1182 196.768 67.0273 197.084 67.0273C197.4 67.0273 197.641 67.1182 197.805 67.2998C197.969 67.4814 198.051 67.7041 198.051 67.9678C198.051 68.2314 197.969 68.4512 197.805 68.627C197.641 68.8027 197.4 68.8906 197.084 68.8906C196.768 68.8906 196.527 68.8027 196.363 68.627C196.205 68.4512 196.126 68.2314 196.126 67.9678ZM202.032 70.4902L202.085 71.6855C202.812 70.7715 203.761 70.3145 204.933 70.3145C206.942 70.3145 207.956 71.4482 207.974 73.7158V80H206.348V73.707C206.342 73.0215 206.184 72.5146 205.873 72.1865C205.568 71.8584 205.091 71.6943 204.44 71.6943C203.913 71.6943 203.45 71.835 203.052 72.1162C202.653 72.3975 202.343 72.7666 202.12 73.2236V80H200.494V70.4902H202.032Z" fill="white"/>
</svg>
