<svg width="491" height="50" viewBox="0 0 491 50" fill="none" xmlns="http://www.w3.org/2000/svg">
<path d="M150.031 33.0781C150.044 33.8464 150.09 34.4583 150.168 34.9141C150.246 35.3698 150.363 35.7279 150.52 35.9883C150.676 36.2487 150.871 36.431 151.105 36.5352C151.353 36.6393 151.659 36.7174 152.023 36.7695L152.863 36.8867V38C152.577 37.9609 152.232 37.9154 151.828 37.8633C151.49 37.8372 151.073 37.8112 150.578 37.7852C150.083 37.7461 149.51 37.7266 148.859 37.7266C148.195 37.7266 147.466 37.7461 146.672 37.7852C145.878 37.8242 144.992 37.8958 144.016 38V36.8867C144.354 36.8607 144.654 36.8346 144.914 36.8086C145.174 36.7826 145.415 36.7565 145.637 36.7305C145.858 36.7044 146.073 36.6849 146.281 36.6719C146.49 36.6589 146.711 36.6458 146.945 36.6328L146.867 16.5938H146.496L136.535 36.9258H135.617L126.867 16.5156H126.535L125.344 31.5547C125.318 31.75 125.298 31.9779 125.285 32.2383C125.272 32.4857 125.253 32.7396 125.227 33C125.214 33.2474 125.201 33.4818 125.188 33.7031C125.188 33.9245 125.188 34.1003 125.188 34.2305C125.188 34.7383 125.233 35.1484 125.324 35.4609C125.415 35.7604 125.539 36.0013 125.695 36.1836C125.865 36.3659 126.066 36.5026 126.301 36.5938C126.548 36.6719 126.828 36.7305 127.141 36.7695L127.98 36.8867V38C127.772 37.9609 127.499 37.9154 127.16 37.8633C126.874 37.8372 126.516 37.8112 126.086 37.7852C125.656 37.7461 125.142 37.7266 124.543 37.7266C123.944 37.7266 123.26 37.7461 122.492 37.7852C121.737 37.8242 120.871 37.8958 119.895 38V36.8867C120.233 36.8607 120.533 36.8346 120.793 36.8086C121.053 36.7826 121.294 36.7565 121.516 36.7305C121.737 36.7044 121.952 36.6849 122.16 36.6719C122.368 36.6589 122.59 36.6458 122.824 36.6328L125.656 10.9297L127.512 10.2852L136.945 32.082H137.219L147.512 10.7148L149.465 10.3242L150.031 33.0781ZM164.348 21.5938C163.384 21.5938 162.531 21.8086 161.789 22.2383C161.047 22.668 160.422 23.2409 159.914 23.957C159.419 24.6732 159.042 25.5 158.781 26.4375C158.521 27.362 158.391 28.3255 158.391 29.3281C158.391 30.2786 158.508 31.2227 158.742 32.1602C158.977 33.0977 159.335 33.944 159.816 34.6992C160.311 35.4414 160.936 36.0469 161.691 36.5156C162.46 36.9714 163.371 37.1992 164.426 37.1992C165.363 37.1992 166.197 37.0234 166.926 36.6719C167.655 36.3203 168.273 35.819 168.781 35.168C169.289 34.5169 169.673 33.7227 169.934 32.7852C170.207 31.8477 170.344 30.7995 170.344 29.6406C170.344 28.7812 170.227 27.8828 169.992 26.9453C169.758 25.9948 169.393 25.1224 168.898 24.3281C168.417 23.5339 167.798 22.8828 167.043 22.375C166.288 21.8542 165.389 21.5938 164.348 21.5938ZM155.52 30.3633C155.52 29.1263 155.741 27.9154 156.184 26.7305C156.626 25.5456 157.264 24.4909 158.098 23.5664C158.931 22.6419 159.947 21.8997 161.145 21.3398C162.342 20.7669 163.703 20.4805 165.227 20.4805C166.672 20.4805 167.902 20.6823 168.918 21.0859C169.934 21.4896 170.76 22.043 171.398 22.7461C172.036 23.4362 172.499 24.2435 172.785 25.168C173.085 26.0924 173.234 27.0755 173.234 28.1172C173.234 29.5234 172.987 30.8516 172.492 32.1016C171.997 33.3516 171.314 34.4453 170.441 35.3828C169.569 36.3073 168.547 37.043 167.375 37.5898C166.203 38.1237 164.94 38.3906 163.586 38.3906C162.023 38.3906 160.721 38.1693 159.68 37.7266C158.651 37.2708 157.824 36.6719 157.199 35.9297C156.587 35.1875 156.151 34.3346 155.891 33.3711C155.643 32.4076 155.52 31.4049 155.52 30.3633ZM181.672 20.4805C181.62 20.7279 181.561 21.0143 181.496 21.3398C181.444 21.6523 181.385 21.9779 181.32 22.3164C181.268 22.6549 181.216 22.9935 181.164 23.332C181.112 23.6576 181.066 23.957 181.027 24.2305C181.704 23.5404 182.362 22.9609 183 22.4922C183.638 22.0104 184.23 21.6198 184.777 21.3203C185.324 21.0208 185.812 20.806 186.242 20.6758C186.685 20.5456 187.056 20.4805 187.355 20.4805C187.72 20.4805 188.02 20.5326 188.254 20.6367C188.488 20.7279 188.671 20.8516 188.801 21.0078C188.944 21.151 189.042 21.3138 189.094 21.4961C189.159 21.6784 189.191 21.8477 189.191 22.0039C189.191 22.3815 189.087 22.7461 188.879 23.0977C188.684 23.4492 188.456 23.7617 188.195 24.0352C187.87 23.6576 187.512 23.3906 187.121 23.2344C186.73 23.0781 186.314 23 185.871 23C185.493 23 185.103 23.0586 184.699 23.1758C184.309 23.2799 183.918 23.4297 183.527 23.625C183.137 23.8203 182.746 24.0547 182.355 24.3281C181.978 24.5885 181.626 24.8815 181.301 25.207C181.223 26.5221 181.132 27.8047 181.027 29.0547C180.936 30.3047 180.891 31.6068 180.891 32.9609C180.891 33.8464 180.917 34.5625 180.969 35.1094C181.021 35.6432 181.132 36.0599 181.301 36.3594C181.47 36.6458 181.717 36.8411 182.043 36.9453C182.382 37.0365 182.837 37.082 183.41 37.082H184.289V38H183.918C182.694 38 181.6 38.0456 180.637 38.1367C179.673 38.2279 178.723 38.3971 177.785 38.6445C178.098 36.5482 178.345 34.4518 178.527 32.3555C178.71 30.2461 178.801 28.1823 178.801 26.1641C178.801 25.5391 178.762 24.9987 178.684 24.543C178.618 24.0742 178.475 23.6836 178.254 23.3711C178.033 23.0586 177.714 22.8242 177.297 22.668C176.88 22.5117 176.333 22.4336 175.656 22.4336H175.227V21.5156C175.852 21.4635 176.405 21.4245 176.887 21.3984C177.368 21.3594 177.844 21.3138 178.312 21.2617C178.794 21.1966 179.296 21.1055 179.816 20.9883C180.35 20.8711 180.969 20.7018 181.672 20.4805ZM202.277 27.7266C200.884 27.7266 199.478 27.6745 198.059 27.5703C196.639 27.4661 195.161 27.3424 193.625 27.1992C193.547 27.8112 193.508 28.3971 193.508 28.957C193.521 30.3893 193.703 31.5677 194.055 32.4922C194.406 33.4167 194.868 34.1523 195.441 34.6992C196.027 35.2331 196.691 35.6042 197.434 35.8125C198.176 36.0208 198.951 36.125 199.758 36.125C200.266 36.125 200.747 36.0924 201.203 36.0273C201.672 35.9492 202.141 35.832 202.609 35.6758C203.078 35.5195 203.553 35.3177 204.035 35.0703C204.53 34.8099 205.051 34.4909 205.598 34.1133L206.105 34.875C204.803 35.9818 203.508 36.8477 202.219 37.4727C200.943 38.0846 199.576 38.3906 198.117 38.3906C196.945 38.3906 195.891 38.1758 194.953 37.7461C194.029 37.3034 193.241 36.7174 192.59 35.9883C191.952 35.2461 191.457 34.3932 191.105 33.4297C190.767 32.4531 190.598 31.431 190.598 30.3633C190.598 28.9701 190.832 27.6745 191.301 26.4766C191.783 25.2656 192.427 24.2174 193.234 23.332C194.055 22.4466 194.999 21.75 196.066 21.2422C197.134 20.7344 198.254 20.4805 199.426 20.4805C200.611 20.4805 201.594 20.6823 202.375 21.0859C203.169 21.4766 203.801 21.9844 204.27 22.6094C204.751 23.2344 205.09 23.9245 205.285 24.6797C205.493 25.4219 205.598 26.1445 205.598 26.8477C205.598 26.9909 205.598 27.1211 205.598 27.2383C205.598 27.3555 205.585 27.4792 205.559 27.6094C204.426 27.6875 203.332 27.7266 202.277 27.7266ZM198.742 21.6328C198.078 21.6328 197.479 21.7565 196.945 22.0039C196.424 22.2513 195.956 22.5898 195.539 23.0195C195.135 23.4362 194.79 23.931 194.504 24.5039C194.23 25.0638 194.009 25.6562 193.84 26.2812C194.764 26.3073 195.539 26.3268 196.164 26.3398C196.802 26.3529 197.342 26.3594 197.785 26.3594H199.719C200.174 26.3594 200.637 26.3529 201.105 26.3398C201.574 26.3268 202.121 26.3073 202.746 26.2812V26.0859C202.746 25.3828 202.648 24.7578 202.453 24.2109C202.258 23.651 201.984 23.1823 201.633 22.8047C201.281 22.4271 200.858 22.1406 200.363 21.9453C199.868 21.737 199.328 21.6328 198.742 21.6328ZM217.102 34.9531C217.102 34.1849 217.297 33.5208 217.688 32.9609C218.091 32.401 218.605 31.9193 219.23 31.5156C219.868 31.112 220.578 30.7799 221.359 30.5195C222.141 30.2591 222.922 30.0508 223.703 29.8945C224.484 29.7383 225.22 29.6276 225.91 29.5625C226.613 29.4844 227.186 29.4323 227.629 29.4062C227.694 28.8203 227.733 28.2539 227.746 27.707C227.772 27.1602 227.785 26.6458 227.785 26.1641C227.785 25.5521 227.74 24.9661 227.648 24.4062C227.557 23.8464 227.382 23.3516 227.121 22.9219C226.861 22.4922 226.496 22.1536 226.027 21.9062C225.572 21.6458 224.973 21.5156 224.23 21.5156C223.71 21.5156 223.228 21.6133 222.785 21.8086C222.342 22.0039 221.958 22.2708 221.633 22.6094C221.32 22.9349 221.073 23.3255 220.891 23.7812C220.721 24.224 220.637 24.6992 220.637 25.207C220.637 25.4023 220.65 25.6042 220.676 25.8125C220.715 26.0078 220.767 26.2161 220.832 26.4375C220.689 26.6068 220.487 26.737 220.227 26.8281C219.979 26.9193 219.725 26.9648 219.465 26.9648C219.27 26.9648 219.081 26.9388 218.898 26.8867C218.716 26.8216 218.553 26.724 218.41 26.5938C218.267 26.4635 218.15 26.2943 218.059 26.0859C217.98 25.8776 217.941 25.6237 217.941 25.3242C217.941 24.5951 218.189 23.931 218.684 23.332C219.191 22.7331 219.823 22.2253 220.578 21.8086C221.346 21.3789 222.18 21.0534 223.078 20.832C223.977 20.5977 224.829 20.4805 225.637 20.4805C227.173 20.4805 228.371 20.832 229.23 21.5352C230.103 22.2383 230.539 23.4036 230.539 25.0312C230.539 25.7344 230.507 26.5091 230.441 27.3555C230.389 28.1888 230.324 29.0156 230.246 29.8359C230.168 30.6562 230.096 31.4375 230.031 32.1797C229.979 32.9089 229.953 33.5143 229.953 33.9961C229.953 34.8164 230.051 35.4544 230.246 35.9102C230.454 36.3659 230.767 36.5938 231.184 36.5938C231.431 36.5938 231.678 36.5221 231.926 36.3789C232.173 36.2227 232.408 36.0469 232.629 35.8516C232.85 35.6432 233.046 35.4349 233.215 35.2266C233.384 35.0052 233.521 34.8359 233.625 34.7188L234.348 35.3242C233.892 35.9622 233.469 36.4831 233.078 36.8867C232.688 37.2773 232.316 37.5898 231.965 37.8242C231.613 38.0456 231.275 38.1953 230.949 38.2734C230.624 38.3516 230.305 38.3906 229.992 38.3906C229.51 38.3906 229.094 38.293 228.742 38.0977C228.391 37.9154 228.098 37.668 227.863 37.3555C227.642 37.043 227.466 36.6849 227.336 36.2812C227.219 35.8776 227.154 35.4609 227.141 35.0312C226.88 35.4609 226.574 35.8776 226.223 36.2812C225.871 36.6849 225.461 37.043 224.992 37.3555C224.523 37.668 223.99 37.9154 223.391 38.0977C222.792 38.293 222.121 38.3906 221.379 38.3906C220.493 38.3906 219.771 38.2734 219.211 38.0391C218.651 37.8177 218.215 37.5378 217.902 37.1992C217.59 36.8477 217.375 36.4701 217.258 36.0664C217.154 35.6628 217.102 35.2917 217.102 34.9531ZM222.395 36.9648C223.228 36.9648 223.938 36.7826 224.523 36.418C225.122 36.0404 225.617 35.5456 226.008 34.9336C226.411 34.3216 226.73 33.625 226.965 32.8438C227.212 32.0495 227.395 31.2357 227.512 30.4023C227.069 30.4414 226.574 30.487 226.027 30.5391C225.48 30.5911 224.927 30.6758 224.367 30.793C223.82 30.8971 223.28 31.0469 222.746 31.2422C222.225 31.4245 221.757 31.6654 221.34 31.9648C220.936 32.2643 220.611 32.6289 220.363 33.0586C220.116 33.4753 219.992 33.9766 219.992 34.5625C219.992 35.0573 220.07 35.4609 220.227 35.7734C220.396 36.0729 220.604 36.3138 220.852 36.4961C221.099 36.6784 221.359 36.8021 221.633 36.8672C221.906 36.9323 222.16 36.9648 222.395 36.9648ZM236.203 36.5156C236.294 35.3307 236.392 34.0807 236.496 32.7656C236.6 31.4505 236.698 30.1094 236.789 28.7422C236.893 27.375 236.984 26.0013 237.062 24.6211C237.154 23.2409 237.232 21.8932 237.297 20.5781C237.362 19.25 237.414 17.974 237.453 16.75C237.492 15.526 237.512 14.3802 237.512 13.3125C237.512 12.5443 237.473 11.9193 237.395 11.4375C237.329 10.9557 237.193 10.5781 236.984 10.3047C236.776 10.0312 236.483 9.84896 236.105 9.75781C235.741 9.65365 235.266 9.60156 234.68 9.60156H233.957V8.68359C234.53 8.65755 235.064 8.625 235.559 8.58594C236.053 8.53385 236.555 8.46875 237.062 8.39062C237.583 8.3125 238.124 8.21484 238.684 8.09766C239.257 7.98047 239.908 7.83073 240.637 7.64844C240.598 8.01302 240.546 8.52083 240.48 9.17188C240.428 9.8099 240.363 10.5521 240.285 11.3984C240.22 12.2318 240.148 13.1497 240.07 14.1523C239.992 15.1419 239.914 16.1771 239.836 17.2578C239.771 18.3255 239.706 19.4258 239.641 20.5586C239.576 21.6784 239.517 22.7852 239.465 23.8789C240.22 23.2539 240.923 22.7266 241.574 22.2969C242.225 21.8672 242.837 21.5221 243.41 21.2617C243.996 20.9883 244.536 20.793 245.031 20.6758C245.526 20.5456 245.995 20.4805 246.438 20.4805C247.427 20.4805 248.293 20.6758 249.035 21.0664C249.777 21.444 250.389 21.9714 250.871 22.6484C251.366 23.3255 251.737 24.1263 251.984 25.0508C252.232 25.9753 252.355 26.9714 252.355 28.0391C252.355 29.6146 252.069 31.0404 251.496 32.3164C250.936 33.5924 250.201 34.6797 249.289 35.5781C248.378 36.4766 247.349 37.1732 246.203 37.668C245.07 38.1497 243.931 38.3906 242.785 38.3906C242.238 38.3906 241.652 38.3451 241.027 38.2539C240.415 38.1628 239.81 38.0391 239.211 37.8828C238.625 37.7135 238.065 37.5182 237.531 37.2969C237.01 37.0625 236.568 36.8021 236.203 36.5156ZM239.426 25.3242C239.374 26.1315 239.328 27.0104 239.289 27.9609C239.25 28.9115 239.217 29.849 239.191 30.7734C239.165 31.6979 239.146 32.5703 239.133 33.3906C239.12 34.1979 239.113 34.8685 239.113 35.4023C239.699 35.8841 240.415 36.2878 241.262 36.6133C242.121 36.9258 243.059 37.082 244.074 37.082C244.79 37.082 245.474 36.8932 246.125 36.5156C246.776 36.138 247.342 35.5977 247.824 34.8945C248.319 34.1914 248.71 33.3451 248.996 32.3555C249.283 31.3529 249.426 30.2331 249.426 28.9961C249.426 26.9258 249.055 25.3242 248.312 24.1914C247.57 23.0456 246.464 22.4727 244.992 22.4727C244.497 22.4727 243.977 22.5703 243.43 22.7656C242.883 22.9609 242.355 23.2018 241.848 23.4883C241.353 23.7747 240.891 24.0872 240.461 24.4258C240.031 24.7513 239.686 25.0508 239.426 25.3242ZM264.113 21.5938C263.15 21.5938 262.297 21.8086 261.555 22.2383C260.812 22.668 260.188 23.2409 259.68 23.957C259.185 24.6732 258.807 25.5 258.547 26.4375C258.286 27.362 258.156 28.3255 258.156 29.3281C258.156 30.2786 258.273 31.2227 258.508 32.1602C258.742 33.0977 259.1 33.944 259.582 34.6992C260.077 35.4414 260.702 36.0469 261.457 36.5156C262.225 36.9714 263.137 37.1992 264.191 37.1992C265.129 37.1992 265.962 37.0234 266.691 36.6719C267.421 36.3203 268.039 35.819 268.547 35.168C269.055 34.5169 269.439 33.7227 269.699 32.7852C269.973 31.8477 270.109 30.7995 270.109 29.6406C270.109 28.7812 269.992 27.8828 269.758 26.9453C269.523 25.9948 269.159 25.1224 268.664 24.3281C268.182 23.5339 267.564 22.8828 266.809 22.375C266.053 21.8542 265.155 21.5938 264.113 21.5938ZM255.285 30.3633C255.285 29.1263 255.507 27.9154 255.949 26.7305C256.392 25.5456 257.03 24.4909 257.863 23.5664C258.697 22.6419 259.712 21.8997 260.91 21.3398C262.108 20.7669 263.469 20.4805 264.992 20.4805C266.438 20.4805 267.668 20.6823 268.684 21.0859C269.699 21.4896 270.526 22.043 271.164 22.7461C271.802 23.4362 272.264 24.2435 272.551 25.168C272.85 26.0924 273 27.0755 273 28.1172C273 29.5234 272.753 30.8516 272.258 32.1016C271.763 33.3516 271.079 34.4453 270.207 35.3828C269.335 36.3073 268.312 37.043 267.141 37.5898C265.969 38.1237 264.706 38.3906 263.352 38.3906C261.789 38.3906 260.487 38.1693 259.445 37.7266C258.417 37.2708 257.59 36.6719 256.965 35.9297C256.353 35.1875 255.917 34.3346 255.656 33.3711C255.409 32.4076 255.285 31.4049 255.285 30.3633ZM274.895 21.5156C276.066 21.4766 277.219 21.3659 278.352 21.1836C279.484 21.0013 280.559 20.7669 281.574 20.4805C281.301 22.2122 281.034 23.9701 280.773 25.7539C280.513 27.5378 280.383 29.3672 280.383 31.2422C280.383 31.9714 280.428 32.6484 280.52 33.2734C280.624 33.8984 280.812 34.4453 281.086 34.9141C281.372 35.3698 281.77 35.7344 282.277 36.0078C282.785 36.2682 283.449 36.3984 284.27 36.3984C284.712 36.3984 285.181 36.3073 285.676 36.125C286.171 35.9427 286.659 35.7148 287.141 35.4414C287.622 35.1549 288.078 34.849 288.508 34.5234C288.938 34.1979 289.309 33.8919 289.621 33.6055C289.699 32.3945 289.771 31.1771 289.836 29.9531C289.901 28.7292 289.934 27.4661 289.934 26.1641C289.934 25.5521 289.901 25.0182 289.836 24.5625C289.784 24.0938 289.647 23.7031 289.426 23.3906C289.204 23.0781 288.879 22.8438 288.449 22.6875C288.033 22.5182 287.453 22.4336 286.711 22.4336H286.418V21.5156C287.811 21.4505 289.048 21.3333 290.129 21.1641C291.21 20.9948 292.238 20.7669 293.215 20.4805C293.15 20.7799 293.078 21.1966 293 21.7305C292.935 22.2643 292.863 22.8763 292.785 23.5664C292.72 24.2565 292.655 24.9987 292.59 25.793C292.525 26.5872 292.466 27.401 292.414 28.2344C292.362 29.0547 292.323 29.8685 292.297 30.6758C292.271 31.4831 292.258 32.2448 292.258 32.9609C292.258 33.5599 292.284 34.1133 292.336 34.6211C292.401 35.1289 292.538 35.5651 292.746 35.9297C292.967 36.2943 293.286 36.5807 293.703 36.7891C294.12 36.9844 294.693 37.082 295.422 37.082H295.832V38C295.064 38.026 294.374 38.0521 293.762 38.0781C293.15 38.1042 292.59 38.1367 292.082 38.1758C291.574 38.2148 291.105 38.2669 290.676 38.332C290.246 38.4102 289.829 38.5143 289.426 38.6445C289.478 38.3581 289.536 38.0456 289.602 37.707C289.667 37.3555 289.725 37.0039 289.777 36.6523C289.829 36.3008 289.875 35.9622 289.914 35.6367C289.966 35.2982 290.005 34.9922 290.031 34.7188C288.521 36.0599 287.121 37.0104 285.832 37.5703C284.556 38.1172 283.391 38.3906 282.336 38.3906C281.646 38.3906 281.021 38.2799 280.461 38.0586C279.914 37.8503 279.445 37.5247 279.055 37.082C278.664 36.6263 278.358 36.0599 278.137 35.3828C277.928 34.6927 277.824 33.8724 277.824 32.9219C277.824 32.2839 277.844 31.6068 277.883 30.8906C277.935 30.1615 277.987 29.4453 278.039 28.7422C278.091 28.026 278.137 27.3424 278.176 26.6914C278.228 26.0404 278.254 25.4609 278.254 24.9531C278.254 24.0547 278.033 23.4102 277.59 23.0195C277.16 22.6289 276.385 22.4336 275.266 22.4336H274.895V21.5156ZM300.285 20.8711C300.311 20.0117 300.337 19.1263 300.363 18.2148C300.402 17.2904 300.422 16.3268 300.422 15.3242L303.332 14.6797C303.215 15.526 303.111 16.4831 303.02 17.5508C302.941 18.6055 302.863 19.7122 302.785 20.8711C304.074 20.8711 305.168 20.832 306.066 20.7539C306.978 20.6758 307.733 20.5846 308.332 20.4805L307.453 22.3555H306.184C305.559 22.3555 304.966 22.3555 304.406 22.3555C303.846 22.3555 303.26 22.3424 302.648 22.3164C302.583 23.1888 302.525 24.0547 302.473 24.9141C302.421 25.7604 302.375 26.5807 302.336 27.375C302.297 28.1562 302.264 28.8919 302.238 29.582C302.225 30.2721 302.219 30.8776 302.219 31.3984C302.219 32.2448 302.258 32.9609 302.336 33.5469C302.427 34.1328 302.57 34.6081 302.766 34.9727C302.961 35.3372 303.221 35.6042 303.547 35.7734C303.872 35.9297 304.283 36.0078 304.777 36.0078C305.337 36.0078 305.936 35.8451 306.574 35.5195C307.212 35.181 307.772 34.6992 308.254 34.0742L308.898 34.7969C308.469 35.3047 308.026 35.7799 307.57 36.2227C307.115 36.6523 306.639 37.0299 306.145 37.3555C305.663 37.668 305.168 37.9154 304.66 38.0977C304.152 38.293 303.632 38.3906 303.098 38.3906C302.395 38.3906 301.815 38.2604 301.359 38C300.917 37.7526 300.565 37.4076 300.305 36.9648C300.044 36.5221 299.862 36.0013 299.758 35.4023C299.667 34.8034 299.621 34.1523 299.621 33.4492C299.621 32.0951 299.693 30.4935 299.836 28.6445C299.979 26.7826 300.116 24.6341 300.246 22.1992C299.699 22.1602 299.152 22.1146 298.605 22.0625C298.059 21.9974 297.466 21.9128 296.828 21.8086L296.906 20.8711H300.285ZM318.371 21.5156C319.543 21.4766 320.695 21.3659 321.828 21.1836C322.961 21.0013 324.035 20.7669 325.051 20.4805C324.777 22.2122 324.51 23.9701 324.25 25.7539C323.99 27.5378 323.859 29.3672 323.859 31.2422C323.859 31.9714 323.905 32.6484 323.996 33.2734C324.1 33.8984 324.289 34.4453 324.562 34.9141C324.849 35.3698 325.246 35.7344 325.754 36.0078C326.262 36.2682 326.926 36.3984 327.746 36.3984C328.189 36.3984 328.658 36.3073 329.152 36.125C329.647 35.9427 330.135 35.7148 330.617 35.4414C331.099 35.1549 331.555 34.849 331.984 34.5234C332.414 34.1979 332.785 33.8919 333.098 33.6055C333.176 32.3945 333.247 31.1771 333.312 29.9531C333.378 28.7292 333.41 27.4661 333.41 26.1641C333.41 25.5521 333.378 25.0182 333.312 24.5625C333.26 24.0938 333.124 23.7031 332.902 23.3906C332.681 23.0781 332.355 22.8438 331.926 22.6875C331.509 22.5182 330.93 22.4336 330.188 22.4336H329.895V21.5156C331.288 21.4505 332.525 21.3333 333.605 21.1641C334.686 20.9948 335.715 20.7669 336.691 20.4805C336.626 20.7799 336.555 21.1966 336.477 21.7305C336.411 22.2643 336.34 22.8763 336.262 23.5664C336.197 24.2565 336.132 24.9987 336.066 25.793C336.001 26.5872 335.943 27.401 335.891 28.2344C335.839 29.0547 335.799 29.8685 335.773 30.6758C335.747 31.4831 335.734 32.2448 335.734 32.9609C335.734 33.5599 335.76 34.1133 335.812 34.6211C335.878 35.1289 336.014 35.5651 336.223 35.9297C336.444 36.2943 336.763 36.5807 337.18 36.7891C337.596 36.9844 338.169 37.082 338.898 37.082H339.309V38C338.54 38.026 337.85 38.0521 337.238 38.0781C336.626 38.1042 336.066 38.1367 335.559 38.1758C335.051 38.2148 334.582 38.2669 334.152 38.332C333.723 38.4102 333.306 38.5143 332.902 38.6445C332.954 38.3581 333.013 38.0456 333.078 37.707C333.143 37.3555 333.202 37.0039 333.254 36.6523C333.306 36.3008 333.352 35.9622 333.391 35.6367C333.443 35.2982 333.482 34.9922 333.508 34.7188C331.997 36.0599 330.598 37.0104 329.309 37.5703C328.033 38.1172 326.867 38.3906 325.812 38.3906C325.122 38.3906 324.497 38.2799 323.938 38.0586C323.391 37.8503 322.922 37.5247 322.531 37.082C322.141 36.6263 321.835 36.0599 321.613 35.3828C321.405 34.6927 321.301 33.8724 321.301 32.9219C321.301 32.2839 321.32 31.6068 321.359 30.8906C321.411 30.1615 321.464 29.4453 321.516 28.7422C321.568 28.026 321.613 27.3424 321.652 26.6914C321.704 26.0404 321.73 25.4609 321.73 24.9531C321.73 24.0547 321.509 23.4102 321.066 23.0195C320.637 22.6289 319.862 22.4336 318.742 22.4336H318.371V21.5156ZM350.305 25.6758C350.344 25.4544 350.376 25.2396 350.402 25.0312C350.441 24.8099 350.461 24.6016 350.461 24.4062C350.461 23.5599 350.24 22.8828 349.797 22.375C349.367 21.8542 348.684 21.5938 347.746 21.5938C347.225 21.5938 346.757 21.6719 346.34 21.8281C345.923 21.9714 345.565 22.1732 345.266 22.4336C344.979 22.681 344.758 22.9805 344.602 23.332C344.445 23.6706 344.367 24.0286 344.367 24.4062C344.367 24.9792 344.497 25.4609 344.758 25.8516C345.031 26.2292 345.376 26.5612 345.793 26.8477C346.21 27.1341 346.672 27.3945 347.18 27.6289C347.688 27.8633 348.189 28.1107 348.684 28.3711C349.165 28.6315 349.654 28.9115 350.148 29.2109C350.656 29.4974 351.112 29.8359 351.516 30.2266C351.932 30.6172 352.264 31.0664 352.512 31.5742C352.772 32.082 352.902 32.6745 352.902 33.3516C352.902 33.9635 352.779 34.569 352.531 35.168C352.284 35.7669 351.887 36.3073 351.34 36.7891C350.793 37.2708 350.083 37.6615 349.211 37.9609C348.339 38.2474 347.284 38.3906 346.047 38.3906C345.305 38.3906 344.621 38.3255 343.996 38.1953C343.384 38.0651 342.857 37.8763 342.414 37.6289C341.971 37.3815 341.626 37.0755 341.379 36.7109C341.132 36.3464 341.008 35.9362 341.008 35.4805C341.008 34.7773 341.242 34.224 341.711 33.8203C342.18 33.4036 342.772 33.1823 343.488 33.1562V33.5273C343.488 34.7122 343.814 35.6497 344.465 36.3398C345.129 37.0169 346.008 37.3555 347.102 37.3555C347.505 37.3555 347.902 37.2904 348.293 37.1602C348.684 37.0299 349.035 36.8346 349.348 36.5742C349.66 36.3138 349.908 35.9818 350.09 35.5781C350.285 35.1615 350.383 34.6732 350.383 34.1133C350.383 33.5534 350.24 33.0651 349.953 32.6484C349.667 32.2318 349.302 31.8672 348.859 31.5547C348.43 31.2422 347.961 30.9688 347.453 30.7344C346.945 30.487 346.47 30.2526 346.027 30.0312L345.344 29.6797C344.836 29.4193 344.374 29.1589 343.957 28.8984C343.553 28.638 343.208 28.3516 342.922 28.0391C342.635 27.7135 342.414 27.3424 342.258 26.9258C342.102 26.4961 342.023 25.9883 342.023 25.4023C342.023 24.7253 342.121 24.1393 342.316 23.6445C342.525 23.1367 342.798 22.7005 343.137 22.3359C343.475 21.9714 343.866 21.6719 344.309 21.4375C344.751 21.1901 345.207 21.0013 345.676 20.8711C346.145 20.7279 346.613 20.6302 347.082 20.5781C347.551 20.513 347.98 20.4805 348.371 20.4805C348.97 20.4805 349.549 20.5391 350.109 20.6562C350.682 20.7604 351.19 20.9297 351.633 21.1641C352.076 21.3984 352.427 21.7044 352.688 22.082C352.961 22.4596 353.098 22.9154 353.098 23.4492C353.098 23.7357 353.039 24.0156 352.922 24.2891C352.805 24.5495 352.629 24.7839 352.395 24.9922C352.173 25.2005 351.887 25.3698 351.535 25.5C351.184 25.6172 350.773 25.6758 350.305 25.6758ZM368.645 27.3555L368.566 29.6016H357.531L357.609 27.3555H368.645Z" fill="white"/>
</svg>
