<svg width="86" height="30" viewBox="0 0 86 30" fill="none" xmlns="http://www.w3.org/2000/svg">
<path d="M20.2539 4.9375L25.832 18.8594L31.4102 4.9375H34.3281V22H32.0781V15.3555L32.2891 8.18359L26.6875 22H24.9648L19.375 8.21875L19.5977 15.3555V22H17.3477V4.9375H20.2539ZM37.3867 15.543C37.3867 14.3008 37.6289 13.1836 38.1133 12.1914C38.6055 11.1992 39.2852 10.4336 40.1523 9.89453C41.0273 9.35547 42.0234 9.08594 43.1406 9.08594C44.8672 9.08594 46.2617 9.68359 47.3242 10.8789C48.3945 12.0742 48.9297 13.6641 48.9297 15.6484V15.8008C48.9297 17.0352 48.6914 18.1445 48.2148 19.1289C47.7461 20.1055 47.0703 20.8672 46.1875 21.4141C45.3125 21.9609 44.3047 22.2344 43.1641 22.2344C41.4453 22.2344 40.0508 21.6367 38.9805 20.4414C37.918 19.2461 37.3867 17.6641 37.3867 15.6953V15.543ZM39.5664 15.8008C39.5664 17.207 39.8906 18.3359 40.5391 19.1875C41.1953 20.0391 42.0703 20.4648 43.1641 20.4648C44.2656 20.4648 45.1406 20.0352 45.7891 19.1758C46.4375 18.3086 46.7617 17.0977 46.7617 15.543C46.7617 14.1523 46.4297 13.0273 45.7656 12.168C45.1094 11.3008 44.2344 10.8672 43.1406 10.8672C42.0703 10.8672 41.207 11.293 40.5508 12.1445C39.8945 12.9961 39.5664 14.2148 39.5664 15.8008ZM57.7773 11.2656C57.4492 11.2109 57.0938 11.1836 56.7109 11.1836C55.2891 11.1836 54.3242 11.7891 53.8164 13V22H51.6484V9.32031H53.7578L53.793 10.7852C54.5039 9.65234 55.5117 9.08594 56.8164 9.08594C57.2383 9.08594 57.5586 9.14062 57.7773 9.25V11.2656ZM64.8086 22.2344C63.0898 22.2344 61.6914 21.6719 60.6133 20.5469C59.5352 19.4141 58.9961 17.9023 58.9961 16.0117V15.6133C58.9961 14.3555 59.2344 13.2344 59.7109 12.25C60.1953 11.2578 60.8672 10.4844 61.7266 9.92969C62.5938 9.36719 63.5312 9.08594 64.5391 9.08594C66.1875 9.08594 67.4688 9.62891 68.3828 10.7148C69.2969 11.8008 69.7539 13.3555 69.7539 15.3789V16.2812H61.1641C61.1953 17.5312 61.5586 18.543 62.2539 19.3164C62.957 20.082 63.8477 20.4648 64.9258 20.4648C65.6914 20.4648 66.3398 20.3086 66.8711 19.9961C67.4023 19.6836 67.8672 19.2695 68.2656 18.7539L69.5898 19.7852C68.5273 21.418 66.9336 22.2344 64.8086 22.2344ZM64.5391 10.8672C63.6641 10.8672 62.9297 11.1875 62.3359 11.8281C61.7422 12.4609 61.375 13.3516 61.2344 14.5H67.5859V14.3359C67.5234 13.2344 67.2266 12.3828 66.6953 11.7812C66.1641 11.1719 65.4453 10.8672 64.5391 10.8672Z" fill="white"/>
</svg>
