<svg width="235" height="41" viewBox="0 0 235 41" fill="none" xmlns="http://www.w3.org/2000/svg">
<path d="M84.2969 8.5625L93.5938 31.7656L102.891 8.5625H107.754V37H104.004V25.9258L104.355 13.9727L95.0195 37H92.1484L82.832 14.0312L83.2031 25.9258V37H79.4531V8.5625H84.2969ZM124.023 19.1094C123.477 19.0182 122.884 18.9727 122.246 18.9727C119.876 18.9727 118.268 19.9818 117.422 22V37H113.809V15.8672H117.324L117.383 18.3086C118.568 16.4206 120.247 15.4766 122.422 15.4766C123.125 15.4766 123.659 15.5677 124.023 15.75V19.1094ZM125.02 35.1055C125.02 34.4805 125.202 33.9596 125.566 33.543C125.944 33.1263 126.504 32.918 127.246 32.918C127.988 32.918 128.548 33.1263 128.926 33.543C129.316 33.9596 129.512 34.4805 129.512 35.1055C129.512 35.7044 129.316 36.2057 128.926 36.6094C128.548 37.013 127.988 37.2148 127.246 37.2148C126.504 37.2148 125.944 37.013 125.566 36.6094C125.202 36.2057 125.02 35.7044 125.02 35.1055ZM151.758 29.5781H139.844L137.168 37H133.301L144.16 8.5625H147.441L158.32 37H154.473L151.758 29.5781ZM140.977 26.4922H150.645L145.801 13.1914L140.977 26.4922Z" fill="black"/>
</svg>
