<svg width="235" height="41" viewBox="0 0 235 41" fill="none" xmlns="http://www.w3.org/2000/svg">
<path d="M84.8828 8.5625L94.1797 31.7656L103.477 8.5625H108.34V37H104.59V25.9258L104.941 13.9727L95.6055 37H92.7344L83.418 14.0312L83.7891 25.9258V37H80.0391V8.5625H84.8828ZM124.609 19.1094C124.062 19.0182 123.47 18.9727 122.832 18.9727C120.462 18.9727 118.854 19.9818 118.008 22V37H114.395V15.8672H117.91L117.969 18.3086C119.154 16.4206 120.833 15.4766 123.008 15.4766C123.711 15.4766 124.245 15.5677 124.609 15.75V19.1094ZM125.605 35.1055C125.605 34.4805 125.788 33.9596 126.152 33.543C126.53 33.1263 127.09 32.918 127.832 32.918C128.574 32.918 129.134 33.1263 129.512 33.543C129.902 33.9596 130.098 34.4805 130.098 35.1055C130.098 35.7044 129.902 36.2057 129.512 36.6094C129.134 37.013 128.574 37.2148 127.832 37.2148C127.09 37.2148 126.53 37.013 126.152 36.6094C125.788 36.2057 125.605 35.7044 125.605 35.1055ZM136.641 37V8.5625H145.938C149.023 8.5625 151.341 9.20052 152.891 10.4766C154.453 11.7526 155.234 13.6406 155.234 16.1406C155.234 17.4688 154.857 18.6471 154.102 19.6758C153.346 20.6914 152.318 21.4792 151.016 22.0391C152.552 22.4688 153.763 23.2891 154.648 24.5C155.547 25.6979 155.996 27.1302 155.996 28.7969C155.996 31.349 155.169 33.3542 153.516 34.8125C151.862 36.2708 149.525 37 146.504 37H136.641ZM140.391 23.6992V33.9336H146.582C148.327 33.9336 149.701 33.4844 150.703 32.5859C151.719 31.6745 152.227 30.4245 152.227 28.8359C152.227 25.4115 150.365 23.6992 146.641 23.6992H140.391ZM140.391 20.6914H146.055C147.695 20.6914 149.004 20.2812 149.98 19.4609C150.97 18.6406 151.465 17.5273 151.465 16.1211C151.465 14.5586 151.009 13.4258 150.098 12.7227C149.186 12.0065 147.799 11.6484 145.938 11.6484H140.391V20.6914Z" fill="black"/>
</svg>
