<svg width="235" height="41" viewBox="0 0 235 41" fill="none" xmlns="http://www.w3.org/2000/svg">
<path d="M84.3164 8.5625L93.6133 31.7656L102.91 8.5625H107.773V37H104.023V25.9258L104.375 13.9727L95.0391 37H92.168L82.8516 14.0312L83.2227 25.9258V37H79.4727V8.5625H84.3164ZM124.043 19.1094C123.496 19.0182 122.904 18.9727 122.266 18.9727C119.896 18.9727 118.288 19.9818 117.441 22V37H113.828V15.8672H117.344L117.402 18.3086C118.587 16.4206 120.267 15.4766 122.441 15.4766C123.145 15.4766 123.678 15.5677 124.043 15.75V19.1094ZM125.039 35.1055C125.039 34.4805 125.221 33.9596 125.586 33.543C125.964 33.1263 126.523 32.918 127.266 32.918C128.008 32.918 128.568 33.1263 128.945 33.543C129.336 33.9596 129.531 34.4805 129.531 35.1055C129.531 35.7044 129.336 36.2057 128.945 36.6094C128.568 37.013 128.008 37.2148 127.266 37.2148C126.523 37.2148 125.964 37.013 125.586 36.6094C125.221 36.2057 125.039 35.7044 125.039 35.1055ZM156.992 27.9766C156.641 30.9844 155.527 33.3086 153.652 34.9492C151.79 36.5768 149.31 37.3906 146.211 37.3906C142.852 37.3906 140.156 36.1862 138.125 33.7773C136.107 31.3685 135.098 28.1458 135.098 24.1094V21.375C135.098 18.7318 135.566 16.4076 136.504 14.4023C137.454 12.3971 138.796 10.8607 140.527 9.79297C142.259 8.71224 144.264 8.17188 146.543 8.17188C149.564 8.17188 151.986 9.01823 153.809 10.7109C155.632 12.3906 156.693 14.7214 156.992 17.7031H153.223C152.897 15.4375 152.188 13.7969 151.094 12.7812C150.013 11.7656 148.496 11.2578 146.543 11.2578C144.147 11.2578 142.266 12.1432 140.898 13.9141C139.544 15.6849 138.867 18.2044 138.867 21.4727V24.2266C138.867 27.3125 139.512 29.7669 140.801 31.5898C142.09 33.4128 143.893 34.3242 146.211 34.3242C148.294 34.3242 149.889 33.8555 150.996 32.918C152.116 31.9674 152.858 30.3203 153.223 27.9766H156.992Z" fill="black"/>
</svg>
