<svg width="235" height="41" viewBox="0 0 235 41" fill="none" xmlns="http://www.w3.org/2000/svg">
<path d="M84.2188 8.5625L93.5156 31.7656L102.812 8.5625H107.676V37H103.926V25.9258L104.277 13.9727L94.9414 37H92.0703L82.7539 14.0312L83.125 25.9258V37H79.375V8.5625H84.2188ZM123.945 19.1094C123.398 19.0182 122.806 18.9727 122.168 18.9727C119.798 18.9727 118.19 19.9818 117.344 22V37H113.73V15.8672H117.246L117.305 18.3086C118.49 16.4206 120.169 15.4766 122.344 15.4766C123.047 15.4766 123.581 15.5677 123.945 15.75V19.1094ZM124.941 35.1055C124.941 34.4805 125.124 33.9596 125.488 33.543C125.866 33.1263 126.426 32.918 127.168 32.918C127.91 32.918 128.47 33.1263 128.848 33.543C129.238 33.9596 129.434 34.4805 129.434 35.1055C129.434 35.7044 129.238 36.2057 128.848 36.6094C128.47 37.013 127.91 37.2148 127.168 37.2148C126.426 37.2148 125.866 37.013 125.488 36.6094C125.124 36.2057 124.941 35.7044 124.941 35.1055ZM135.977 37V8.5625H144.004C146.478 8.5625 148.665 9.10938 150.566 10.2031C152.467 11.2969 153.932 12.8529 154.961 14.8711C156.003 16.8893 156.53 19.207 156.543 21.8242V23.6406C156.543 26.3229 156.022 28.6732 154.98 30.6914C153.952 32.7096 152.474 34.2591 150.547 35.3398C148.633 36.4206 146.4 36.974 143.848 37H135.977ZM139.727 11.6484V33.9336H143.672C146.562 33.9336 148.809 33.0352 150.41 31.2383C152.025 29.4414 152.832 26.8828 152.832 23.5625V21.9023C152.832 18.6732 152.07 16.1667 150.547 14.3828C149.036 12.5859 146.888 11.6745 144.102 11.6484H139.727Z" fill="black"/>
</svg>
