<svg width="235" height="46" viewBox="0 0 235 46" fill="none" xmlns="http://www.w3.org/2000/svg">
<path d="M90.8203 37H87.0508L72.7344 15.0859V37H68.9648V8.5625H72.7344L87.0898 30.5742V8.5625H90.8203V37ZM105.684 37.3906C102.819 37.3906 100.488 36.4531 98.6914 34.5781C96.8945 32.6901 95.9961 30.1706 95.9961 27.0195V26.3555C95.9961 24.2591 96.3932 22.3906 97.1875 20.75C97.9948 19.0964 99.1146 17.8073 100.547 16.8828C101.992 15.9453 103.555 15.4766 105.234 15.4766C107.982 15.4766 110.117 16.3815 111.641 18.1914C113.164 20.0013 113.926 22.5924 113.926 25.9648V27.4688H99.6094C99.6615 29.5521 100.267 31.2383 101.426 32.5273C102.598 33.8034 104.082 34.4414 105.879 34.4414C107.155 34.4414 108.236 34.181 109.121 33.6602C110.007 33.1393 110.781 32.4492 111.445 31.5898L113.652 33.3086C111.882 36.0299 109.225 37.3906 105.684 37.3906ZM105.234 18.4453C103.776 18.4453 102.552 18.9792 101.562 20.0469C100.573 21.1016 99.9609 22.5859 99.7266 24.5H110.312V24.2266C110.208 22.3906 109.714 20.9714 108.828 19.9688C107.943 18.9531 106.745 18.4453 105.234 18.4453ZM135.977 26.668C135.977 29.8841 135.241 32.4753 133.77 34.4414C132.298 36.4076 130.306 37.3906 127.793 37.3906C125.228 37.3906 123.21 36.5768 121.738 34.9492V45.125H118.125V15.8672H121.426L121.602 18.2109C123.073 16.388 125.117 15.4766 127.734 15.4766C130.273 15.4766 132.279 16.4336 133.75 18.3477C135.234 20.2617 135.977 22.9245 135.977 26.3359V26.668ZM132.363 26.2578C132.363 23.875 131.855 21.9935 130.84 20.6133C129.824 19.2331 128.431 18.543 126.66 18.543C124.473 18.543 122.832 19.513 121.738 21.4531V31.5508C122.819 33.4779 124.473 34.4414 126.699 34.4414C128.431 34.4414 129.805 33.7578 130.82 32.3906C131.849 31.0104 132.363 28.9661 132.363 26.2578ZM153.633 37C153.424 36.5833 153.255 35.8411 153.125 34.7734C151.445 36.5182 149.44 37.3906 147.109 37.3906C145.026 37.3906 143.314 36.8047 141.973 35.6328C140.645 34.4479 139.98 32.9505 139.98 31.1406C139.98 28.9401 140.814 27.2344 142.48 26.0234C144.16 24.7995 146.517 24.1875 149.551 24.1875H153.066V22.5273C153.066 21.2643 152.689 20.2617 151.934 19.5195C151.178 18.7643 150.065 18.3867 148.594 18.3867C147.305 18.3867 146.224 18.7122 145.352 19.3633C144.479 20.0143 144.043 20.8021 144.043 21.7266H140.41C140.41 20.6719 140.781 19.6562 141.523 18.6797C142.279 17.6901 143.294 16.9089 144.57 16.3359C145.859 15.763 147.272 15.4766 148.809 15.4766C151.243 15.4766 153.151 16.0885 154.531 17.3125C155.911 18.5234 156.628 20.1966 156.68 22.332V32.0586C156.68 33.9987 156.927 35.5417 157.422 36.6875V37H153.633ZM147.637 34.2461C148.77 34.2461 149.844 33.9531 150.859 33.3672C151.875 32.7812 152.611 32.0195 153.066 31.082V26.7461H150.234C145.807 26.7461 143.594 28.0417 143.594 30.6328C143.594 31.7656 143.971 32.651 144.727 33.2891C145.482 33.9271 146.452 34.2461 147.637 34.2461ZM166.27 37H162.656V7H166.27V37Z" fill="white"/>
</svg>
