<svg width="532" height="66" viewBox="0 0 532 66" fill="none" xmlns="http://www.w3.org/2000/svg">
<path d="M46.6953 34.209C47.3984 34.209 48.0547 34.1035 48.6641 33.8926C49.2852 33.6699 49.8242 33.3535 50.2812 32.9434C50.7383 32.5332 51.0957 32.0352 51.3535 31.4492C51.623 30.8516 51.7578 30.1777 51.7578 29.4277C51.7578 28.7129 51.5879 28.0625 51.248 27.4766C50.9199 26.8789 50.498 26.3281 49.9824 25.8242C49.4785 25.3203 48.9277 24.8457 48.3301 24.4004C47.7324 23.9551 47.1641 23.5156 46.625 23.082C46.1094 22.6836 45.541 22.25 44.9199 21.7812C44.2988 21.3008 43.7129 20.7734 43.1621 20.1992C42.623 19.625 42.166 18.9922 41.791 18.3008C41.4277 17.6094 41.2461 16.8418 41.2461 15.998C41.2461 15.5762 41.2871 15.1367 41.3691 14.6797C41.4512 14.2109 41.5918 13.7598 41.791 13.3262C42.002 12.8809 42.2715 12.4648 42.5996 12.0781C42.9395 11.6797 43.3613 11.334 43.8652 11.041C44.3691 10.7363 44.9609 10.4961 45.6406 10.3203C46.3203 10.1445 47.1113 10.0566 48.0137 10.0566C49.1621 10.0566 50.2695 10.1504 51.3359 10.3379C52.4023 10.5137 53.3223 10.7188 54.0957 10.9531L53.709 16.2441H52.707V15.7695C52.707 15.3242 52.6602 14.8437 52.5664 14.3281C52.4727 13.8008 52.2676 13.3203 51.9512 12.8867C51.6348 12.4414 51.1719 12.0723 50.5625 11.7793C49.9648 11.4863 49.1562 11.3398 48.1367 11.3398C47.5273 11.3398 46.9707 11.4277 46.4668 11.6035C45.9746 11.7676 45.5527 12.0078 45.2012 12.3242C44.8496 12.6289 44.5742 13.0039 44.375 13.4492C44.1875 13.8945 44.0938 14.3926 44.0938 14.9434C44.0938 15.6699 44.2344 16.3145 44.5156 16.877C44.8086 17.4277 45.1777 17.9258 45.623 18.3711C46.0801 18.8164 46.584 19.2324 47.1348 19.6191C47.6855 19.9941 48.2188 20.3691 48.7344 20.7441C49.5078 21.3066 50.2461 21.8691 50.9492 22.4316C51.6641 22.9824 52.291 23.5684 52.8301 24.1895C53.3691 24.7988 53.7969 25.4551 54.1133 26.1582C54.4414 26.8613 54.6055 27.6348 54.6055 28.4785C54.6055 29.4629 54.3828 30.3828 53.9375 31.2383C53.4922 32.0938 52.8945 32.8379 52.1445 33.4707C51.4062 34.1035 50.5566 34.6016 49.5957 34.9648C48.6348 35.3281 47.6445 35.5098 46.625 35.5098C45.3828 35.5098 44.1992 35.4102 43.0742 35.2109C41.9492 35.0117 40.9707 34.7832 40.1387 34.5254L40.5605 28.9531H41.6504V29.5684C41.6504 30.0605 41.709 30.582 41.8262 31.1328C41.9434 31.6719 42.1777 32.1699 42.5293 32.627C42.8926 33.084 43.4023 33.4648 44.0586 33.7695C44.7266 34.0625 45.6055 34.209 46.6953 34.209ZM68.1934 25.7539C66.9395 25.7539 65.6738 25.707 64.3965 25.6133C63.1191 25.5195 61.7891 25.4082 60.4062 25.2793C60.3359 25.8301 60.3008 26.3574 60.3008 26.8613C60.3125 28.1504 60.4766 29.2109 60.793 30.043C61.1094 30.875 61.5254 31.5371 62.041 32.0293C62.5684 32.5098 63.166 32.8438 63.834 33.0312C64.502 33.2188 65.1992 33.3125 65.9258 33.3125C66.3828 33.3125 66.8164 33.2832 67.2266 33.2246C67.6484 33.1543 68.0703 33.0488 68.4922 32.9082C68.9141 32.7676 69.3418 32.5859 69.7754 32.3633C70.2207 32.1289 70.6895 31.8418 71.1816 31.502L71.6387 32.1875C70.4668 33.1836 69.3008 33.9629 68.1406 34.5254C66.9922 35.0762 65.7617 35.3516 64.4492 35.3516C63.3945 35.3516 62.4453 35.1582 61.6016 34.7715C60.7695 34.373 60.0605 33.8457 59.4746 33.1895C58.9004 32.5215 58.4551 31.7539 58.1387 30.8867C57.834 30.0078 57.6816 29.0879 57.6816 28.127C57.6816 26.873 57.8926 25.707 58.3145 24.6289C58.748 23.5391 59.3281 22.5957 60.0547 21.7988C60.793 21.002 61.6426 20.375 62.6035 19.918C63.5645 19.4609 64.5723 19.2324 65.627 19.2324C66.6934 19.2324 67.5781 19.4141 68.2812 19.7773C68.9961 20.1289 69.5645 20.5859 69.9863 21.1484C70.4199 21.7109 70.7246 22.332 70.9004 23.0117C71.0879 23.6797 71.1816 24.3301 71.1816 24.9629C71.1816 25.0918 71.1816 25.209 71.1816 25.3145C71.1816 25.4199 71.1699 25.5312 71.1465 25.6484C70.127 25.7188 69.1426 25.7539 68.1934 25.7539ZM65.0117 20.2695C64.4141 20.2695 63.875 20.3809 63.3945 20.6035C62.9258 20.8262 62.5039 21.1309 62.1289 21.5176C61.7656 21.8926 61.4551 22.3379 61.1973 22.8535C60.9512 23.3574 60.752 23.8906 60.5996 24.4531C61.4316 24.4766 62.1289 24.4941 62.6914 24.5059C63.2656 24.5176 63.752 24.5234 64.1504 24.5234H65.8906C66.3008 24.5234 66.7168 24.5176 67.1387 24.5059C67.5605 24.4941 68.0527 24.4766 68.6152 24.4531V24.2773C68.6152 23.6445 68.5273 23.082 68.3516 22.5898C68.1758 22.0859 67.9297 21.6641 67.6133 21.3242C67.2969 20.9844 66.916 20.7266 66.4707 20.5508C66.0254 20.3633 65.5391 20.2695 65.0117 20.2695ZM84.5059 25.7539C83.252 25.7539 81.9863 25.707 80.709 25.6133C79.4316 25.5195 78.1016 25.4082 76.7188 25.2793C76.6484 25.8301 76.6133 26.3574 76.6133 26.8613C76.625 28.1504 76.7891 29.2109 77.1055 30.043C77.4219 30.875 77.8379 31.5371 78.3535 32.0293C78.8809 32.5098 79.4785 32.8438 80.1465 33.0312C80.8145 33.2188 81.5117 33.3125 82.2383 33.3125C82.6953 33.3125 83.1289 33.2832 83.5391 33.2246C83.9609 33.1543 84.3828 33.0488 84.8047 32.9082C85.2266 32.7676 85.6543 32.5859 86.0879 32.3633C86.5332 32.1289 87.002 31.8418 87.4941 31.502L87.9512 32.1875C86.7793 33.1836 85.6133 33.9629 84.4531 34.5254C83.3047 35.0762 82.0742 35.3516 80.7617 35.3516C79.707 35.3516 78.7578 35.1582 77.9141 34.7715C77.082 34.373 76.373 33.8457 75.7871 33.1895C75.2129 32.5215 74.7676 31.7539 74.4512 30.8867C74.1465 30.0078 73.9941 29.0879 73.9941 28.127C73.9941 26.873 74.2051 25.707 74.627 24.6289C75.0605 23.5391 75.6406 22.5957 76.3672 21.7988C77.1055 21.002 77.9551 20.375 78.916 19.918C79.877 19.4609 80.8848 19.2324 81.9395 19.2324C83.0059 19.2324 83.8906 19.4141 84.5938 19.7773C85.3086 20.1289 85.877 20.5859 86.2988 21.1484C86.7324 21.7109 87.0371 22.332 87.2129 23.0117C87.4004 23.6797 87.4941 24.3301 87.4941 24.9629C87.4941 25.0918 87.4941 25.209 87.4941 25.3145C87.4941 25.4199 87.4824 25.5312 87.459 25.6484C86.4395 25.7188 85.4551 25.7539 84.5059 25.7539ZM81.3242 20.2695C80.7266 20.2695 80.1875 20.3809 79.707 20.6035C79.2383 20.8262 78.8164 21.1309 78.4414 21.5176C78.0781 21.8926 77.7676 22.3379 77.5098 22.8535C77.2637 23.3574 77.0645 23.8906 76.9121 24.4531C77.7441 24.4766 78.4414 24.4941 79.0039 24.5059C79.5781 24.5176 80.0645 24.5234 80.4629 24.5234H82.2031C82.6133 24.5234 83.0293 24.5176 83.4512 24.5059C83.873 24.4941 84.3652 24.4766 84.9277 24.4531V24.2773C84.9277 23.6445 84.8398 23.082 84.6641 22.5898C84.4883 22.0859 84.2422 21.6641 83.9258 21.3242C83.6094 20.9844 83.2285 20.7266 82.7832 20.5508C82.3379 20.3633 81.8516 20.2695 81.3242 20.2695ZM101.732 22.502C101.732 24.0254 101.938 25.4902 102.348 26.8965C102.77 28.3027 103.373 29.5508 104.158 30.6406C104.955 31.7188 105.928 32.5859 107.076 33.2422C108.225 33.8867 109.531 34.209 110.996 34.209C112.402 34.209 113.639 33.9277 114.705 33.3652C115.783 32.8027 116.68 32.0352 117.395 31.0625C118.109 30.0781 118.648 28.9355 119.012 27.6348C119.375 26.3223 119.557 24.916 119.557 23.416C119.557 21.7285 119.34 20.1523 118.906 18.6875C118.484 17.2109 117.887 15.9277 117.113 14.8379C116.34 13.748 115.414 12.8926 114.336 12.2715C113.27 11.6504 112.098 11.3398 110.82 11.3398C110.152 11.3398 109.467 11.416 108.764 11.5684C108.061 11.709 107.369 11.9551 106.689 12.3066C106.021 12.6465 105.383 13.0977 104.773 13.6602C104.176 14.2227 103.648 14.9199 103.191 15.752C102.746 16.5723 102.389 17.5391 102.119 18.6523C101.861 19.7656 101.732 21.0488 101.732 22.502ZM98.498 22.8711C98.498 21.0312 98.8145 19.3262 99.4473 17.7559C100.08 16.1855 100.971 14.832 102.119 13.6953C103.268 12.5586 104.645 11.668 106.25 11.0234C107.867 10.3789 109.654 10.0566 111.611 10.0566C112.807 10.0566 113.914 10.2207 114.934 10.5488C115.953 10.8652 116.879 11.3105 117.711 11.8848C118.543 12.4473 119.281 13.1152 119.926 13.8887C120.57 14.6621 121.109 15.5 121.543 16.4023C121.988 17.293 122.322 18.2363 122.545 19.2324C122.768 20.2285 122.879 21.2246 122.879 22.2207C122.879 24.1777 122.562 25.9707 121.93 27.5996C121.297 29.2168 120.436 30.6172 119.346 31.8008C118.256 32.9727 116.99 33.8867 115.549 34.543C114.107 35.1875 112.578 35.5098 110.961 35.5098C109.566 35.5098 108.289 35.3398 107.129 35C105.98 34.6719 104.943 34.2148 104.018 33.6289C103.092 33.0312 102.283 32.334 101.592 31.5371C100.9 30.7285 100.326 29.8555 99.8691 28.918C99.4121 27.9805 99.0664 27.002 98.832 25.9824C98.6094 24.9512 98.498 23.9141 98.498 22.8711ZM124.725 20.1641C125.779 20.1289 126.816 20.0293 127.836 19.8652C128.855 19.7012 129.822 19.4902 130.736 19.2324C130.49 20.791 130.25 22.373 130.016 23.9785C129.781 25.584 129.664 27.2305 129.664 28.918C129.664 29.5742 129.705 30.1836 129.787 30.7461C129.881 31.3086 130.051 31.8008 130.297 32.2227C130.555 32.6328 130.912 32.9609 131.369 33.207C131.826 33.4414 132.424 33.5586 133.162 33.5586C133.561 33.5586 133.982 33.4766 134.428 33.3125C134.873 33.1484 135.312 32.9434 135.746 32.6973C136.18 32.4395 136.59 32.1641 136.977 31.8711C137.363 31.5781 137.697 31.3027 137.979 31.0449C138.049 29.9551 138.113 28.8594 138.172 27.7578C138.23 26.6562 138.26 25.5195 138.26 24.3477C138.26 23.7969 138.23 23.3164 138.172 22.9062C138.125 22.4844 138.002 22.1328 137.803 21.8516C137.604 21.5703 137.311 21.3594 136.924 21.2188C136.549 21.0664 136.027 20.9902 135.359 20.9902H135.096V20.1641C136.35 20.1055 137.463 20 138.436 19.8477C139.408 19.6953 140.334 19.4902 141.213 19.2324C141.154 19.502 141.09 19.877 141.02 20.3574C140.961 20.8379 140.896 21.3887 140.826 22.0098C140.768 22.6309 140.709 23.2988 140.65 24.0137C140.592 24.7285 140.539 25.4609 140.492 26.2109C140.445 26.9492 140.41 27.6816 140.387 28.4082C140.363 29.1348 140.352 29.8203 140.352 30.4648C140.352 31.0039 140.375 31.502 140.422 31.959C140.48 32.416 140.604 32.8086 140.791 33.1367C140.99 33.4648 141.277 33.7227 141.652 33.9102C142.027 34.0859 142.543 34.1738 143.199 34.1738H143.568V35C142.877 35.0234 142.256 35.0469 141.705 35.0703C141.154 35.0938 140.65 35.123 140.193 35.1582C139.736 35.1934 139.314 35.2402 138.928 35.2988C138.541 35.3691 138.166 35.4629 137.803 35.5801C137.85 35.3223 137.902 35.041 137.961 34.7363C138.02 34.4199 138.072 34.1035 138.119 33.7871C138.166 33.4707 138.207 33.166 138.242 32.873C138.289 32.5684 138.324 32.293 138.348 32.0469C136.988 33.2539 135.729 34.1094 134.568 34.6133C133.42 35.1055 132.371 35.3516 131.422 35.3516C130.801 35.3516 130.238 35.252 129.734 35.0527C129.242 34.8652 128.82 34.5723 128.469 34.1738C128.117 33.7637 127.842 33.2539 127.643 32.6445C127.455 32.0234 127.361 31.2852 127.361 30.4297C127.361 29.8555 127.379 29.2461 127.414 28.6016C127.461 27.9453 127.508 27.3008 127.555 26.668C127.602 26.0234 127.643 25.4082 127.678 24.8223C127.725 24.2363 127.748 23.7148 127.748 23.2578C127.748 22.4492 127.549 21.8691 127.15 21.5176C126.764 21.166 126.066 20.9902 125.059 20.9902H124.725V20.1641ZM150.23 19.2324C150.184 19.4551 150.131 19.7129 150.072 20.0059C150.025 20.2871 149.973 20.5801 149.914 20.8848C149.867 21.1895 149.82 21.4941 149.773 21.7988C149.727 22.0918 149.686 22.3613 149.65 22.6074C150.26 21.9863 150.852 21.4648 151.426 21.043C152 20.6094 152.533 20.2578 153.025 19.9883C153.518 19.7188 153.957 19.5254 154.344 19.4082C154.742 19.291 155.076 19.2324 155.346 19.2324C155.674 19.2324 155.943 19.2793 156.154 19.373C156.365 19.4551 156.529 19.5664 156.646 19.707C156.775 19.8359 156.863 19.9824 156.91 20.1465C156.969 20.3105 156.998 20.4629 156.998 20.6035C156.998 20.9434 156.904 21.2715 156.717 21.5879C156.541 21.9043 156.336 22.1855 156.102 22.4316C155.809 22.0918 155.486 21.8516 155.135 21.7109C154.783 21.5703 154.408 21.5 154.01 21.5C153.67 21.5 153.318 21.5527 152.955 21.6582C152.604 21.752 152.252 21.8867 151.9 22.0625C151.549 22.2383 151.197 22.4492 150.846 22.6953C150.506 22.9297 150.189 23.1934 149.896 23.4863C149.826 24.6699 149.744 25.8242 149.65 26.9492C149.568 28.0742 149.527 29.2461 149.527 30.4648C149.527 31.2617 149.551 31.9062 149.598 32.3984C149.645 32.8789 149.744 33.2539 149.896 33.5234C150.049 33.7812 150.271 33.957 150.564 34.0508C150.869 34.1328 151.279 34.1738 151.795 34.1738H152.586V35H152.252C151.15 35 150.166 35.041 149.299 35.123C148.432 35.2051 147.576 35.3574 146.732 35.5801C147.014 33.6934 147.236 31.8066 147.4 29.9199C147.564 28.0215 147.646 26.1641 147.646 24.3477C147.646 23.7852 147.611 23.2988 147.541 22.8887C147.482 22.4668 147.354 22.1152 147.154 21.834C146.955 21.5527 146.668 21.3418 146.293 21.2012C145.918 21.0605 145.426 20.9902 144.816 20.9902H144.43V20.1641C144.992 20.1172 145.49 20.082 145.924 20.0586C146.357 20.0234 146.785 19.9824 147.207 19.9355C147.641 19.877 148.092 19.7949 148.561 19.6895C149.041 19.584 149.598 19.4316 150.23 19.2324ZM180.975 11.3398C179.51 11.3398 178.098 11.5801 176.738 12.0605C175.391 12.541 174.195 13.25 173.152 14.1875C172.121 15.1133 171.295 16.2617 170.674 17.6328C170.053 18.9922 169.742 20.5566 169.742 22.3262C169.742 23.6504 169.906 24.8574 170.234 25.9473C170.562 27.0371 171.008 28.0156 171.57 28.8828C172.133 29.75 172.789 30.5059 173.539 31.1504C174.301 31.7949 175.109 32.334 175.965 32.7676C176.832 33.1895 177.723 33.5059 178.637 33.7168C179.562 33.9277 180.471 34.0332 181.361 34.0332C181.924 34.0332 182.439 34.0156 182.908 33.9805C183.377 33.9453 183.846 33.8867 184.314 33.8047C184.795 33.7109 185.293 33.5938 185.809 33.4531C186.324 33.3008 186.904 33.1191 187.549 32.9082L187.883 33.9277C187.262 34.2324 186.594 34.4844 185.879 34.6836C185.176 34.8828 184.479 35.041 183.787 35.1582C183.096 35.2871 182.428 35.375 181.783 35.4219C181.15 35.4805 180.588 35.5098 180.096 35.5098C178.818 35.5098 177.594 35.3691 176.422 35.0879C175.25 34.8184 174.16 34.4316 173.152 33.9277C172.145 33.4238 171.225 32.8086 170.393 32.082C169.572 31.3555 168.869 30.541 168.283 29.6387C167.697 28.7246 167.246 27.7402 166.93 26.6855C166.613 25.6191 166.455 24.4883 166.455 23.293C166.455 22.0039 166.613 20.7852 166.93 19.6367C167.246 18.4766 167.697 17.4102 168.283 16.4375C168.881 15.4531 169.602 14.5684 170.445 13.7832C171.301 12.9863 172.256 12.3125 173.311 11.7617C174.377 11.2109 175.531 10.7891 176.773 10.4961C178.027 10.2031 179.352 10.0566 180.746 10.0566C182.516 10.0566 184.057 10.1621 185.369 10.373C186.682 10.5723 187.842 10.8008 188.85 11.0586L188.34 16.9297H187.268V16.6484C187.268 16.0508 187.191 15.4414 187.039 14.8203C186.898 14.1875 186.605 13.6133 186.16 13.0977C185.715 12.582 185.076 12.1602 184.244 11.832C183.424 11.5039 182.334 11.3398 180.975 11.3398ZM189.799 20.1641C190.854 20.1289 191.891 20.0293 192.91 19.8652C193.93 19.7012 194.896 19.4902 195.811 19.2324C195.564 20.791 195.324 22.373 195.09 23.9785C194.855 25.584 194.738 27.2305 194.738 28.918C194.738 29.5742 194.779 30.1836 194.861 30.7461C194.955 31.3086 195.125 31.8008 195.371 32.2227C195.629 32.6328 195.986 32.9609 196.443 33.207C196.9 33.4414 197.498 33.5586 198.236 33.5586C198.635 33.5586 199.057 33.4766 199.502 33.3125C199.947 33.1484 200.387 32.9434 200.82 32.6973C201.254 32.4395 201.664 32.1641 202.051 31.8711C202.438 31.5781 202.771 31.3027 203.053 31.0449C203.123 29.9551 203.188 28.8594 203.246 27.7578C203.305 26.6562 203.334 25.5195 203.334 24.3477C203.334 23.7969 203.305 23.3164 203.246 22.9062C203.199 22.4844 203.076 22.1328 202.877 21.8516C202.678 21.5703 202.385 21.3594 201.998 21.2188C201.623 21.0664 201.102 20.9902 200.434 20.9902H200.17V20.1641C201.424 20.1055 202.537 20 203.51 19.8477C204.482 19.6953 205.408 19.4902 206.287 19.2324C206.229 19.502 206.164 19.877 206.094 20.3574C206.035 20.8379 205.971 21.3887 205.9 22.0098C205.842 22.6309 205.783 23.2988 205.725 24.0137C205.666 24.7285 205.613 25.4609 205.566 26.2109C205.52 26.9492 205.484 27.6816 205.461 28.4082C205.438 29.1348 205.426 29.8203 205.426 30.4648C205.426 31.0039 205.449 31.502 205.496 31.959C205.555 32.416 205.678 32.8086 205.865 33.1367C206.064 33.4648 206.352 33.7227 206.727 33.9102C207.102 34.0859 207.617 34.1738 208.273 34.1738H208.643V35C207.951 35.0234 207.33 35.0469 206.779 35.0703C206.229 35.0938 205.725 35.123 205.268 35.1582C204.811 35.1934 204.389 35.2402 204.002 35.2988C203.615 35.3691 203.24 35.4629 202.877 35.5801C202.924 35.3223 202.977 35.041 203.035 34.7363C203.094 34.4199 203.146 34.1035 203.193 33.7871C203.24 33.4707 203.281 33.166 203.316 32.873C203.363 32.5684 203.398 32.293 203.422 32.0469C202.062 33.2539 200.803 34.1094 199.643 34.6133C198.494 35.1055 197.445 35.3516 196.496 35.3516C195.875 35.3516 195.312 35.252 194.809 35.0527C194.316 34.8652 193.895 34.5723 193.543 34.1738C193.191 33.7637 192.916 33.2539 192.717 32.6445C192.529 32.0234 192.436 31.2852 192.436 30.4297C192.436 29.8555 192.453 29.2461 192.488 28.6016C192.535 27.9453 192.582 27.3008 192.629 26.668C192.676 26.0234 192.717 25.4082 192.752 24.8223C192.799 24.2363 192.822 23.7148 192.822 23.2578C192.822 22.4492 192.623 21.8691 192.225 21.5176C191.838 21.166 191.141 20.9902 190.133 20.9902H189.799V20.1641ZM218.539 23.9082C218.574 23.709 218.604 23.5156 218.627 23.3281C218.662 23.1289 218.68 22.9414 218.68 22.7656C218.68 22.0039 218.48 21.3945 218.082 20.9375C217.695 20.4688 217.08 20.2344 216.236 20.2344C215.768 20.2344 215.346 20.3047 214.971 20.4453C214.596 20.5742 214.273 20.7559 214.004 20.9902C213.746 21.2129 213.547 21.4824 213.406 21.7988C213.266 22.1035 213.195 22.4258 213.195 22.7656C213.195 23.2812 213.312 23.7148 213.547 24.0664C213.793 24.4062 214.104 24.7051 214.479 24.9629C214.854 25.2207 215.27 25.4551 215.727 25.666C216.184 25.877 216.635 26.0996 217.08 26.334C217.514 26.5684 217.953 26.8203 218.398 27.0898C218.855 27.3477 219.266 27.6523 219.629 28.0039C220.004 28.3555 220.303 28.7598 220.525 29.2168C220.76 29.6738 220.877 30.207 220.877 30.8164C220.877 31.3672 220.766 31.9121 220.543 32.4512C220.32 32.9902 219.963 33.4766 219.471 33.9102C218.979 34.3438 218.34 34.6953 217.555 34.9648C216.77 35.2227 215.82 35.3516 214.707 35.3516C214.039 35.3516 213.424 35.293 212.861 35.1758C212.311 35.0586 211.836 34.8887 211.438 34.666C211.039 34.4434 210.729 34.168 210.506 33.8398C210.283 33.5117 210.172 33.1426 210.172 32.7324C210.172 32.0996 210.383 31.6016 210.805 31.2383C211.227 30.8633 211.76 30.6641 212.404 30.6406V30.9746C212.404 32.041 212.697 32.8848 213.283 33.5059C213.881 34.1152 214.672 34.4199 215.656 34.4199C216.02 34.4199 216.377 34.3613 216.729 34.2441C217.08 34.127 217.396 33.9512 217.678 33.7168C217.959 33.4824 218.182 33.1836 218.346 32.8203C218.521 32.4453 218.609 32.0059 218.609 31.502C218.609 30.998 218.48 30.5586 218.223 30.1836C217.965 29.8086 217.637 29.4805 217.238 29.1992C216.852 28.918 216.43 28.6719 215.973 28.4609C215.516 28.2383 215.088 28.0273 214.689 27.8281L214.074 27.5117C213.617 27.2773 213.201 27.043 212.826 26.8086C212.463 26.5742 212.152 26.3164 211.895 26.0352C211.637 25.7422 211.438 25.4082 211.297 25.0332C211.156 24.6465 211.086 24.1895 211.086 23.6621C211.086 23.0527 211.174 22.5254 211.35 22.0801C211.537 21.623 211.783 21.2305 212.088 20.9023C212.393 20.5742 212.744 20.3047 213.143 20.0938C213.541 19.8711 213.951 19.7012 214.373 19.584C214.795 19.4551 215.217 19.3672 215.639 19.3203C216.061 19.2617 216.447 19.2324 216.799 19.2324C217.338 19.2324 217.859 19.2852 218.363 19.3906C218.879 19.4844 219.336 19.6367 219.734 19.8477C220.133 20.0586 220.449 20.334 220.684 20.6738C220.93 21.0137 221.053 21.4238 221.053 21.9043C221.053 22.1621 221 22.4141 220.895 22.6602C220.789 22.8945 220.631 23.1055 220.42 23.293C220.221 23.4805 219.963 23.6328 219.646 23.75C219.33 23.8555 218.961 23.9082 218.539 23.9082ZM226.256 19.584C226.279 18.8105 226.303 18.0137 226.326 17.1934C226.361 16.3613 226.379 15.4941 226.379 14.5918L228.998 14.0117C228.893 14.7734 228.799 15.6348 228.717 16.5957C228.646 17.5449 228.576 18.541 228.506 19.584C229.666 19.584 230.65 19.5488 231.459 19.4785C232.279 19.4082 232.959 19.3262 233.498 19.2324L232.707 20.9199H231.564C231.002 20.9199 230.469 20.9199 229.965 20.9199C229.461 20.9199 228.934 20.9082 228.383 20.8848C228.324 21.6699 228.271 22.4492 228.225 23.2227C228.178 23.9844 228.137 24.7227 228.102 25.4375C228.066 26.1406 228.037 26.8027 228.014 27.4238C228.002 28.0449 227.996 28.5898 227.996 29.0586C227.996 29.8203 228.031 30.4648 228.102 30.9922C228.184 31.5195 228.312 31.9473 228.488 32.2754C228.664 32.6035 228.898 32.8438 229.191 32.9961C229.484 33.1367 229.854 33.207 230.299 33.207C230.803 33.207 231.342 33.0605 231.916 32.7676C232.49 32.4629 232.994 32.0293 233.428 31.4668L234.008 32.1172C233.621 32.5742 233.223 33.002 232.812 33.4004C232.402 33.7871 231.975 34.127 231.529 34.4199C231.096 34.7012 230.65 34.9238 230.193 35.0879C229.736 35.2637 229.268 35.3516 228.787 35.3516C228.154 35.3516 227.633 35.2344 227.223 35C226.824 34.7773 226.508 34.4668 226.273 34.0684C226.039 33.6699 225.875 33.2012 225.781 32.6621C225.699 32.123 225.658 31.5371 225.658 30.9043C225.658 29.6855 225.723 28.2441 225.852 26.5801C225.98 24.9043 226.104 22.9707 226.221 20.7793C225.729 20.7441 225.236 20.7031 224.744 20.6562C224.252 20.5977 223.719 20.5215 223.145 20.4277L223.215 19.584H226.256ZM243.588 20.2344C242.721 20.2344 241.953 20.4277 241.285 20.8145C240.617 21.2012 240.055 21.7168 239.598 22.3613C239.152 23.0059 238.812 23.75 238.578 24.5938C238.344 25.4258 238.227 26.293 238.227 27.1953C238.227 28.0508 238.332 28.9004 238.543 29.7441C238.754 30.5879 239.076 31.3496 239.51 32.0293C239.955 32.6973 240.518 33.2422 241.197 33.6641C241.889 34.0742 242.709 34.2793 243.658 34.2793C244.502 34.2793 245.252 34.1211 245.908 33.8047C246.564 33.4883 247.121 33.0371 247.578 32.4512C248.035 31.8652 248.381 31.1504 248.615 30.3066C248.861 29.4629 248.984 28.5195 248.984 27.4766C248.984 26.7031 248.879 25.8945 248.668 25.0508C248.457 24.1953 248.129 23.4102 247.684 22.6953C247.25 21.9805 246.693 21.3945 246.014 20.9375C245.334 20.4688 244.525 20.2344 243.588 20.2344ZM235.643 28.127C235.643 27.0137 235.842 25.9238 236.24 24.8574C236.639 23.791 237.213 22.8418 237.963 22.0098C238.713 21.1777 239.627 20.5098 240.705 20.0059C241.783 19.4902 243.008 19.2324 244.379 19.2324C245.68 19.2324 246.787 19.4141 247.701 19.7773C248.615 20.1406 249.359 20.6387 249.934 21.2715C250.508 21.8926 250.924 22.6191 251.182 23.4512C251.451 24.2832 251.586 25.168 251.586 26.1055C251.586 27.3711 251.363 28.5664 250.918 29.6914C250.473 30.8164 249.857 31.8008 249.072 32.6445C248.287 33.4766 247.367 34.1387 246.312 34.6309C245.258 35.1113 244.121 35.3516 242.902 35.3516C241.496 35.3516 240.324 35.1523 239.387 34.7539C238.461 34.3438 237.717 33.8047 237.154 33.1367C236.604 32.4688 236.211 31.7012 235.977 30.834C235.754 29.9668 235.643 29.0645 235.643 28.127ZM280.836 35C280.227 35.0234 279.658 35.041 279.131 35.0527C278.604 35.0762 278.1 35.1055 277.619 35.1406C277.139 35.1758 276.67 35.2227 276.213 35.2812C275.768 35.3516 275.316 35.4512 274.859 35.5801C274.965 34.9004 275.076 34.1328 275.193 33.2773C275.311 32.4219 275.416 31.5605 275.51 30.6934C275.604 29.8145 275.68 28.959 275.738 28.127C275.797 27.2949 275.826 26.5625 275.826 25.9297C275.826 25.3203 275.785 24.7227 275.703 24.1367C275.621 23.5508 275.475 23.0293 275.264 22.5723C275.053 22.1035 274.76 21.7285 274.385 21.4473C274.01 21.166 273.523 21.0254 272.926 21.0254C272.527 21.0254 272.135 21.1016 271.748 21.2539C271.361 21.4062 270.986 21.5996 270.623 21.834C270.26 22.0566 269.914 22.3145 269.586 22.6074C269.258 22.8887 268.953 23.1582 268.672 23.416V23.9434C268.672 24.5996 268.643 25.2852 268.584 26C268.537 26.7148 268.479 27.4238 268.408 28.127C268.35 28.8184 268.291 29.4922 268.232 30.1484C268.186 30.793 268.162 31.3789 268.162 31.9062C268.162 32.3633 268.197 32.7383 268.268 33.0312C268.35 33.3242 268.473 33.5586 268.637 33.7344C268.812 33.8984 269.035 34.0156 269.305 34.0859C269.574 34.1445 269.902 34.1738 270.289 34.1738H271.256V35C270.646 35.0234 270.078 35.041 269.551 35.0527C269.023 35.0762 268.52 35.1055 268.039 35.1406C267.559 35.1758 267.09 35.2227 266.633 35.2812C266.188 35.3516 265.736 35.4512 265.279 35.5801C265.385 34.9004 265.496 34.1328 265.613 33.2773C265.73 32.4219 265.836 31.5605 265.93 30.6934C266.035 29.8145 266.117 28.959 266.176 28.127C266.234 27.2949 266.264 26.5625 266.264 25.9297C266.264 25.3203 266.223 24.7227 266.141 24.1367C266.07 23.5508 265.924 23.0293 265.701 22.5723C265.49 22.1035 265.191 21.7285 264.805 21.4473C264.43 21.166 263.943 21.0254 263.346 21.0254C262.936 21.0254 262.525 21.1074 262.115 21.2715C261.717 21.4355 261.33 21.6465 260.955 21.9043C260.592 22.1504 260.24 22.4258 259.9 22.7305C259.561 23.0234 259.244 23.2988 258.951 23.5566C258.904 24.1191 258.863 24.7109 258.828 25.332C258.793 25.9414 258.758 26.5508 258.723 27.1602C258.699 27.7695 258.676 28.3613 258.652 28.9355C258.641 29.5098 258.635 30.043 258.635 30.5352C258.635 31.2969 258.652 31.9121 258.688 32.3809C258.723 32.8496 258.811 33.2188 258.951 33.4883C259.092 33.7578 259.303 33.9395 259.584 34.0332C259.877 34.127 260.275 34.1738 260.779 34.1738H261.693V35H261.359C260.258 35 259.25 35.041 258.336 35.123C257.434 35.2051 256.561 35.3574 255.717 35.5801C255.986 33.8691 256.197 32.1113 256.35 30.3066C256.502 28.4902 256.578 26.6328 256.578 24.7344C256.578 24.2773 256.555 23.8262 256.508 23.3809C256.473 22.9355 256.361 22.543 256.174 22.2031C255.986 21.8516 255.699 21.5703 255.312 21.3594C254.926 21.1367 254.387 21.0254 253.695 21.0254H253.379V20.1641C253.906 20.1406 254.387 20.1172 254.82 20.0938C255.266 20.0586 255.705 20.0117 256.139 19.9531C256.584 19.8828 257.047 19.7949 257.527 19.6895C258.008 19.5723 258.553 19.4199 259.162 19.2324C259.057 19.7598 258.945 20.3223 258.828 20.9199C258.723 21.5059 258.641 22.0449 258.582 22.5371C259.18 21.9863 259.736 21.5059 260.252 21.0957C260.779 20.6855 261.289 20.3457 261.781 20.0762C262.285 19.7949 262.789 19.584 263.293 19.4434C263.797 19.3027 264.33 19.2324 264.893 19.2324C265.209 19.2324 265.549 19.2734 265.912 19.3555C266.275 19.4375 266.627 19.5898 266.967 19.8125C267.307 20.0234 267.611 20.3281 267.881 20.7266C268.15 21.1133 268.355 21.623 268.496 22.2559C269.059 21.752 269.586 21.3125 270.078 20.9375C270.57 20.5508 271.051 20.2344 271.52 19.9883C272 19.7305 272.48 19.543 272.961 19.4258C273.441 19.2969 273.957 19.2324 274.508 19.2324C274.871 19.2324 275.27 19.291 275.703 19.4082C276.137 19.5137 276.541 19.7363 276.916 20.0762C277.291 20.416 277.607 20.8965 277.865 21.5176C278.123 22.127 278.252 22.9355 278.252 23.9434C278.252 24.5996 278.223 25.2852 278.164 26C278.117 26.7148 278.059 27.4238 277.988 28.127C277.93 28.8184 277.871 29.4922 277.812 30.1484C277.766 30.793 277.742 31.3789 277.742 31.9062C277.742 32.3633 277.777 32.7383 277.848 33.0312C277.93 33.3242 278.053 33.5586 278.217 33.7344C278.393 33.8984 278.615 34.0156 278.885 34.0859C279.154 34.1445 279.482 34.1738 279.869 34.1738H280.836V35ZM293.053 25.7539C291.799 25.7539 290.533 25.707 289.256 25.6133C287.979 25.5195 286.648 25.4082 285.266 25.2793C285.195 25.8301 285.16 26.3574 285.16 26.8613C285.172 28.1504 285.336 29.2109 285.652 30.043C285.969 30.875 286.385 31.5371 286.9 32.0293C287.428 32.5098 288.025 32.8438 288.693 33.0312C289.361 33.2188 290.059 33.3125 290.785 33.3125C291.242 33.3125 291.676 33.2832 292.086 33.2246C292.508 33.1543 292.93 33.0488 293.352 32.9082C293.773 32.7676 294.201 32.5859 294.635 32.3633C295.08 32.1289 295.549 31.8418 296.041 31.502L296.498 32.1875C295.326 33.1836 294.16 33.9629 293 34.5254C291.852 35.0762 290.621 35.3516 289.309 35.3516C288.254 35.3516 287.305 35.1582 286.461 34.7715C285.629 34.373 284.92 33.8457 284.334 33.1895C283.76 32.5215 283.314 31.7539 282.998 30.8867C282.693 30.0078 282.541 29.0879 282.541 28.127C282.541 26.873 282.752 25.707 283.174 24.6289C283.607 23.5391 284.188 22.5957 284.914 21.7988C285.652 21.002 286.502 20.375 287.463 19.918C288.424 19.4609 289.432 19.2324 290.486 19.2324C291.553 19.2324 292.438 19.4141 293.141 19.7773C293.855 20.1289 294.424 20.5859 294.846 21.1484C295.279 21.7109 295.584 22.332 295.76 23.0117C295.947 23.6797 296.041 24.3301 296.041 24.9629C296.041 25.0918 296.041 25.209 296.041 25.3145C296.041 25.4199 296.029 25.5312 296.006 25.6484C294.986 25.7188 294.002 25.7539 293.053 25.7539ZM289.871 20.2695C289.273 20.2695 288.734 20.3809 288.254 20.6035C287.785 20.8262 287.363 21.1309 286.988 21.5176C286.625 21.8926 286.314 22.3379 286.057 22.8535C285.811 23.3574 285.611 23.8906 285.459 24.4531C286.291 24.4766 286.988 24.4941 287.551 24.5059C288.125 24.5176 288.611 24.5234 289.01 24.5234H290.75C291.16 24.5234 291.576 24.5176 291.998 24.5059C292.42 24.4941 292.912 24.4766 293.475 24.4531V24.2773C293.475 23.6445 293.387 23.082 293.211 22.5898C293.035 22.0859 292.789 21.6641 292.473 21.3242C292.156 20.9844 291.775 20.7266 291.33 20.5508C290.885 20.3633 290.398 20.2695 289.871 20.2695ZM303.828 19.2324C303.781 19.4551 303.729 19.7129 303.67 20.0059C303.623 20.2871 303.57 20.5801 303.512 20.8848C303.465 21.1895 303.418 21.4941 303.371 21.7988C303.324 22.0918 303.283 22.3613 303.248 22.6074C303.857 21.9863 304.449 21.4648 305.023 21.043C305.598 20.6094 306.131 20.2578 306.623 19.9883C307.115 19.7188 307.555 19.5254 307.941 19.4082C308.34 19.291 308.674 19.2324 308.943 19.2324C309.271 19.2324 309.541 19.2793 309.752 19.373C309.963 19.4551 310.127 19.5664 310.244 19.707C310.373 19.8359 310.461 19.9824 310.508 20.1465C310.566 20.3105 310.596 20.4629 310.596 20.6035C310.596 20.9434 310.502 21.2715 310.314 21.5879C310.139 21.9043 309.934 22.1855 309.699 22.4316C309.406 22.0918 309.084 21.8516 308.732 21.7109C308.381 21.5703 308.006 21.5 307.607 21.5C307.268 21.5 306.916 21.5527 306.553 21.6582C306.201 21.752 305.85 21.8867 305.498 22.0625C305.146 22.2383 304.795 22.4492 304.443 22.6953C304.104 22.9297 303.787 23.1934 303.494 23.4863C303.424 24.6699 303.342 25.8242 303.248 26.9492C303.166 28.0742 303.125 29.2461 303.125 30.4648C303.125 31.2617 303.148 31.9062 303.195 32.3984C303.242 32.8789 303.342 33.2539 303.494 33.5234C303.646 33.7812 303.869 33.957 304.162 34.0508C304.467 34.1328 304.877 34.1738 305.393 34.1738H306.184V35H305.85C304.748 35 303.764 35.041 302.896 35.123C302.029 35.2051 301.174 35.3574 300.33 35.5801C300.611 33.6934 300.834 31.8066 300.998 29.9199C301.162 28.0215 301.244 26.1641 301.244 24.3477C301.244 23.7852 301.209 23.2988 301.139 22.8887C301.08 22.4668 300.951 22.1152 300.752 21.834C300.553 21.5527 300.266 21.3418 299.891 21.2012C299.516 21.0605 299.023 20.9902 298.414 20.9902H298.027V20.1641C298.59 20.1172 299.088 20.082 299.521 20.0586C299.955 20.0234 300.383 19.9824 300.805 19.9355C301.238 19.877 301.689 19.7949 302.158 19.6895C302.639 19.584 303.195 19.4316 303.828 19.2324ZM320.07 23.9082C320.105 23.709 320.135 23.5156 320.158 23.3281C320.193 23.1289 320.211 22.9414 320.211 22.7656C320.211 22.0039 320.012 21.3945 319.613 20.9375C319.227 20.4688 318.611 20.2344 317.768 20.2344C317.299 20.2344 316.877 20.3047 316.502 20.4453C316.127 20.5742 315.805 20.7559 315.535 20.9902C315.277 21.2129 315.078 21.4824 314.938 21.7988C314.797 22.1035 314.727 22.4258 314.727 22.7656C314.727 23.2812 314.844 23.7148 315.078 24.0664C315.324 24.4062 315.635 24.7051 316.01 24.9629C316.385 25.2207 316.801 25.4551 317.258 25.666C317.715 25.877 318.166 26.0996 318.611 26.334C319.045 26.5684 319.484 26.8203 319.93 27.0898C320.387 27.3477 320.797 27.6523 321.16 28.0039C321.535 28.3555 321.834 28.7598 322.057 29.2168C322.291 29.6738 322.408 30.207 322.408 30.8164C322.408 31.3672 322.297 31.9121 322.074 32.4512C321.852 32.9902 321.494 33.4766 321.002 33.9102C320.51 34.3438 319.871 34.6953 319.086 34.9648C318.301 35.2227 317.352 35.3516 316.238 35.3516C315.57 35.3516 314.955 35.293 314.393 35.1758C313.842 35.0586 313.367 34.8887 312.969 34.666C312.57 34.4434 312.26 34.168 312.037 33.8398C311.814 33.5117 311.703 33.1426 311.703 32.7324C311.703 32.0996 311.914 31.6016 312.336 31.2383C312.758 30.8633 313.291 30.6641 313.936 30.6406V30.9746C313.936 32.041 314.229 32.8848 314.814 33.5059C315.412 34.1152 316.203 34.4199 317.188 34.4199C317.551 34.4199 317.908 34.3613 318.26 34.2441C318.611 34.127 318.928 33.9512 319.209 33.7168C319.49 33.4824 319.713 33.1836 319.877 32.8203C320.053 32.4453 320.141 32.0059 320.141 31.502C320.141 30.998 320.012 30.5586 319.754 30.1836C319.496 29.8086 319.168 29.4805 318.77 29.1992C318.383 28.918 317.961 28.6719 317.504 28.4609C317.047 28.2383 316.619 28.0273 316.221 27.8281L315.605 27.5117C315.148 27.2773 314.732 27.043 314.357 26.8086C313.994 26.5742 313.684 26.3164 313.426 26.0352C313.168 25.7422 312.969 25.4082 312.828 25.0332C312.688 24.6465 312.617 24.1895 312.617 23.6621C312.617 23.0527 312.705 22.5254 312.881 22.0801C313.068 21.623 313.314 21.2305 313.619 20.9023C313.924 20.5742 314.275 20.3047 314.674 20.0938C315.072 19.8711 315.482 19.7012 315.904 19.584C316.326 19.4551 316.748 19.3672 317.17 19.3203C317.592 19.2617 317.979 19.2324 318.33 19.2324C318.869 19.2324 319.391 19.2852 319.895 19.3906C320.41 19.4844 320.867 19.6367 321.266 19.8477C321.664 20.0586 321.98 20.334 322.215 20.6738C322.461 21.0137 322.584 21.4238 322.584 21.9043C322.584 22.1621 322.531 22.4141 322.426 22.6602C322.32 22.8945 322.162 23.1055 321.951 23.293C321.752 23.4805 321.494 23.6328 321.178 23.75C320.861 23.8555 320.492 23.9082 320.07 23.9082ZM339.283 11.709C339.236 13.2793 339.184 14.832 339.125 16.3672C339.078 17.9023 339.031 19.373 338.984 20.7793C338.938 22.1738 338.891 23.4746 338.844 24.6816C338.809 25.8887 338.773 26.9609 338.738 27.8984C338.703 28.8242 338.674 29.5859 338.65 30.1836C338.639 30.7812 338.633 31.1621 338.633 31.3262C338.633 31.8418 338.668 32.2578 338.738 32.5742C338.82 32.8789 338.932 33.125 339.072 33.3125C339.225 33.4883 339.412 33.6172 339.635 33.6992C339.857 33.7812 340.109 33.8457 340.391 33.8926L341.146 33.998V35C340.889 34.9648 340.578 34.9238 340.215 34.877C339.91 34.8535 339.535 34.8301 339.09 34.8066C338.645 34.7715 338.129 34.7539 337.543 34.7539C336.945 34.7539 336.289 34.7715 335.574 34.8066C334.859 34.8418 334.068 34.9062 333.201 35V33.998C333.506 33.9746 333.77 33.9512 333.992 33.9277C334.227 33.9043 334.443 33.8809 334.643 33.8574C334.842 33.834 335.035 33.8164 335.223 33.8047C335.41 33.793 335.609 33.7812 335.82 33.7695C335.855 32.2109 335.896 30.6699 335.943 29.1465C336.002 27.623 336.055 26.1641 336.102 24.7695C336.148 23.375 336.195 22.0742 336.242 20.8672C336.289 19.6602 336.324 18.5938 336.348 17.668C336.383 16.7422 336.412 15.9805 336.436 15.3828C336.459 14.7852 336.471 14.3984 336.471 14.2227C336.471 13.7187 336.436 13.3086 336.365 12.9922C336.295 12.6758 336.189 12.4297 336.049 12.2539C335.908 12.0664 335.727 11.9375 335.504 11.8672C335.293 11.7852 335.041 11.7207 334.748 11.6738L333.992 11.5684V10.5488C334.32 10.5957 334.672 10.6426 335.047 10.6895C335.363 10.7246 335.721 10.7539 336.119 10.7773C336.529 10.8008 336.945 10.8125 337.367 10.8125C337.766 10.8125 338.146 10.7891 338.51 10.7422C338.885 10.6953 339.277 10.6484 339.688 10.6016C340.098 10.543 340.543 10.4902 341.023 10.4434C341.504 10.3965 342.061 10.373 342.693 10.373C344.029 10.373 345.184 10.5605 346.156 10.9355C347.129 11.2988 347.926 11.791 348.547 12.4121C349.18 13.0332 349.643 13.7539 349.936 14.5742C350.24 15.3945 350.393 16.2617 350.393 17.1758C350.393 18.2422 350.182 19.2324 349.76 20.1465C349.35 21.0605 348.787 21.8574 348.072 22.5371C347.369 23.2051 346.537 23.7324 345.576 24.1191C344.627 24.5059 343.619 24.6992 342.553 24.6992C342.189 24.6992 341.861 24.6875 341.568 24.6641C341.287 24.6289 341.041 24.582 340.83 24.5234L340.865 23.416C341.252 23.4863 341.645 23.5215 342.043 23.5215C342.863 23.5215 343.613 23.375 344.293 23.082C344.973 22.7773 345.559 22.3613 346.051 21.834C346.543 21.2949 346.924 20.6562 347.193 19.918C347.463 19.1797 347.598 18.377 347.598 17.5098C347.598 15.6348 347.07 14.1699 346.016 13.1152C344.973 12.0605 343.396 11.5332 341.287 11.5332C340.889 11.5332 340.531 11.5508 340.215 11.5859C339.898 11.6094 339.588 11.6504 339.283 11.709ZM357.406 19.2324C357.359 19.4551 357.307 19.7129 357.248 20.0059C357.201 20.2871 357.148 20.5801 357.09 20.8848C357.043 21.1895 356.996 21.4941 356.949 21.7988C356.902 22.0918 356.861 22.3613 356.826 22.6074C357.436 21.9863 358.027 21.4648 358.602 21.043C359.176 20.6094 359.709 20.2578 360.201 19.9883C360.693 19.7188 361.133 19.5254 361.52 19.4082C361.918 19.291 362.252 19.2324 362.521 19.2324C362.85 19.2324 363.119 19.2793 363.33 19.373C363.541 19.4551 363.705 19.5664 363.822 19.707C363.951 19.8359 364.039 19.9824 364.086 20.1465C364.145 20.3105 364.174 20.4629 364.174 20.6035C364.174 20.9434 364.08 21.2715 363.893 21.5879C363.717 21.9043 363.512 22.1855 363.277 22.4316C362.984 22.0918 362.662 21.8516 362.311 21.7109C361.959 21.5703 361.584 21.5 361.186 21.5C360.846 21.5 360.494 21.5527 360.131 21.6582C359.779 21.752 359.428 21.8867 359.076 22.0625C358.725 22.2383 358.373 22.4492 358.021 22.6953C357.682 22.9297 357.365 23.1934 357.072 23.4863C357.002 24.6699 356.92 25.8242 356.826 26.9492C356.744 28.0742 356.703 29.2461 356.703 30.4648C356.703 31.2617 356.727 31.9062 356.773 32.3984C356.82 32.8789 356.92 33.2539 357.072 33.5234C357.225 33.7812 357.447 33.957 357.74 34.0508C358.045 34.1328 358.455 34.1738 358.971 34.1738H359.762V35H359.428C358.326 35 357.342 35.041 356.475 35.123C355.607 35.2051 354.752 35.3574 353.908 35.5801C354.189 33.6934 354.412 31.8066 354.576 29.9199C354.74 28.0215 354.822 26.1641 354.822 24.3477C354.822 23.7852 354.787 23.2988 354.717 22.8887C354.658 22.4668 354.529 22.1152 354.33 21.834C354.131 21.5527 353.844 21.3418 353.469 21.2012C353.094 21.0605 352.602 20.9902 351.992 20.9902H351.605V20.1641C352.168 20.1172 352.666 20.082 353.1 20.0586C353.533 20.0234 353.961 19.9824 354.383 19.9355C354.816 19.877 355.268 19.7949 355.736 19.6895C356.217 19.584 356.773 19.4316 357.406 19.2324ZM375.951 25.7539C374.697 25.7539 373.432 25.707 372.154 25.6133C370.877 25.5195 369.547 25.4082 368.164 25.2793C368.094 25.8301 368.059 26.3574 368.059 26.8613C368.07 28.1504 368.234 29.2109 368.551 30.043C368.867 30.875 369.283 31.5371 369.799 32.0293C370.326 32.5098 370.924 32.8438 371.592 33.0312C372.26 33.2188 372.957 33.3125 373.684 33.3125C374.141 33.3125 374.574 33.2832 374.984 33.2246C375.406 33.1543 375.828 33.0488 376.25 32.9082C376.672 32.7676 377.1 32.5859 377.533 32.3633C377.979 32.1289 378.447 31.8418 378.939 31.502L379.396 32.1875C378.225 33.1836 377.059 33.9629 375.898 34.5254C374.75 35.0762 373.52 35.3516 372.207 35.3516C371.152 35.3516 370.203 35.1582 369.359 34.7715C368.527 34.373 367.818 33.8457 367.232 33.1895C366.658 32.5215 366.213 31.7539 365.896 30.8867C365.592 30.0078 365.439 29.0879 365.439 28.127C365.439 26.873 365.65 25.707 366.072 24.6289C366.506 23.5391 367.086 22.5957 367.812 21.7988C368.551 21.002 369.4 20.375 370.361 19.918C371.322 19.4609 372.33 19.2324 373.385 19.2324C374.451 19.2324 375.336 19.4141 376.039 19.7773C376.754 20.1289 377.322 20.5859 377.744 21.1484C378.178 21.7109 378.482 22.332 378.658 23.0117C378.846 23.6797 378.939 24.3301 378.939 24.9629C378.939 25.0918 378.939 25.209 378.939 25.3145C378.939 25.4199 378.928 25.5312 378.904 25.6484C377.885 25.7188 376.9 25.7539 375.951 25.7539ZM372.77 20.2695C372.172 20.2695 371.633 20.3809 371.152 20.6035C370.684 20.8262 370.262 21.1309 369.887 21.5176C369.523 21.8926 369.213 22.3379 368.955 22.8535C368.709 23.3574 368.51 23.8906 368.357 24.4531C369.189 24.4766 369.887 24.4941 370.449 24.5059C371.023 24.5176 371.51 24.5234 371.908 24.5234H373.648C374.059 24.5234 374.475 24.5176 374.896 24.5059C375.318 24.4941 375.811 24.4766 376.373 24.4531V24.2773C376.373 23.6445 376.285 23.082 376.109 22.5898C375.934 22.0859 375.688 21.6641 375.371 21.3242C375.055 20.9844 374.674 20.7266 374.229 20.5508C373.783 20.3633 373.297 20.2695 372.77 20.2695ZM385.268 19.2324C385.385 20.0762 385.531 20.873 385.707 21.623C385.883 22.3613 386.1 23.1465 386.357 23.9785L388.871 32.1523H389.24C389.592 31.5664 389.973 30.8926 390.383 30.1309C390.793 29.3574 391.174 28.543 391.525 27.6875C391.877 26.832 392.17 25.9648 392.404 25.0859C392.639 24.1953 392.756 23.3457 392.756 22.5371C392.756 22.0098 392.697 21.5117 392.58 21.043C392.463 20.5742 392.27 20.1406 392 19.7422C392.223 19.6133 392.475 19.4961 392.756 19.3906C393.049 19.2852 393.336 19.2324 393.617 19.2324C394.25 19.2324 394.701 19.4258 394.971 19.8125C395.252 20.1875 395.393 20.7031 395.393 21.3594C395.393 21.957 395.275 22.6191 395.041 23.3457C394.818 24.0605 394.52 24.8105 394.145 25.5957C393.781 26.3809 393.365 27.1836 392.896 28.0039C392.428 28.8242 391.953 29.6387 391.473 30.4473C390.992 31.2441 390.523 32.0176 390.066 32.7676C389.609 33.5176 389.211 34.2148 388.871 34.8594L387.605 35.3516L383.545 23.3281C383.416 22.9414 383.281 22.6016 383.141 22.3086C383.012 22.0156 382.848 21.7754 382.648 21.5879C382.449 21.3887 382.203 21.2422 381.91 21.1484C381.617 21.043 381.248 20.9902 380.803 20.9902H380.557V20.1641C381.072 20.1523 381.518 20.123 381.893 20.0762C382.279 20.0176 382.643 19.9473 382.982 19.8652C383.322 19.7832 383.668 19.6895 384.02 19.584C384.383 19.4785 384.799 19.3613 385.268 19.2324ZM402.705 19.2324C402.564 20.1582 402.441 21.1016 402.336 22.0625C402.23 23.0234 402.137 23.9844 402.055 24.9453C401.984 25.8945 401.932 26.8379 401.896 27.7754C401.861 28.7012 401.844 29.5977 401.844 30.4648C401.844 31.2617 401.867 31.9062 401.914 32.3984C401.961 32.8789 402.061 33.2539 402.213 33.5234C402.365 33.7812 402.588 33.957 402.881 34.0508C403.186 34.1328 403.596 34.1738 404.111 34.1738H404.902V35H404.621C403.52 35 402.523 35.041 401.633 35.123C400.754 35.2051 399.893 35.3574 399.049 35.5801C399.33 33.6816 399.541 31.7891 399.682 29.9023C399.834 28.0156 399.91 26.1641 399.91 24.3477C399.91 23.7852 399.875 23.2988 399.805 22.8887C399.746 22.4668 399.617 22.1152 399.418 21.834C399.219 21.5527 398.932 21.3418 398.557 21.2012C398.182 21.0605 397.684 20.9902 397.062 20.9902H396.693V20.1641C397.877 20.1289 398.955 20.0234 399.928 19.8477C400.9 19.6719 401.826 19.4668 402.705 19.2324ZM401.352 15.084C400.871 15.084 400.467 14.9375 400.139 14.6445C399.811 14.3398 399.646 13.877 399.646 13.2559C399.646 12.9863 399.688 12.7344 399.77 12.5C399.852 12.2539 399.969 12.043 400.121 11.8672C400.285 11.6797 400.479 11.5332 400.701 11.4277C400.924 11.3223 401.176 11.2695 401.457 11.2695C401.902 11.2695 402.289 11.4277 402.617 11.7441C402.945 12.0605 403.109 12.5176 403.109 13.1152C403.109 13.373 403.068 13.625 402.986 13.8711C402.904 14.1055 402.787 14.3164 402.635 14.5039C402.494 14.6797 402.312 14.8203 402.09 14.9258C401.879 15.0312 401.633 15.084 401.352 15.084ZM417.26 25.7539C416.006 25.7539 414.74 25.707 413.463 25.6133C412.186 25.5195 410.855 25.4082 409.473 25.2793C409.402 25.8301 409.367 26.3574 409.367 26.8613C409.379 28.1504 409.543 29.2109 409.859 30.043C410.176 30.875 410.592 31.5371 411.107 32.0293C411.635 32.5098 412.232 32.8438 412.9 33.0312C413.568 33.2188 414.266 33.3125 414.992 33.3125C415.449 33.3125 415.883 33.2832 416.293 33.2246C416.715 33.1543 417.137 33.0488 417.559 32.9082C417.98 32.7676 418.408 32.5859 418.842 32.3633C419.287 32.1289 419.756 31.8418 420.248 31.502L420.705 32.1875C419.533 33.1836 418.367 33.9629 417.207 34.5254C416.059 35.0762 414.828 35.3516 413.516 35.3516C412.461 35.3516 411.512 35.1582 410.668 34.7715C409.836 34.373 409.127 33.8457 408.541 33.1895C407.967 32.5215 407.521 31.7539 407.205 30.8867C406.9 30.0078 406.748 29.0879 406.748 28.127C406.748 26.873 406.959 25.707 407.381 24.6289C407.814 23.5391 408.395 22.5957 409.121 21.7988C409.859 21.002 410.709 20.375 411.67 19.918C412.631 19.4609 413.639 19.2324 414.693 19.2324C415.76 19.2324 416.645 19.4141 417.348 19.7773C418.062 20.1289 418.631 20.5859 419.053 21.1484C419.486 21.7109 419.791 22.332 419.967 23.0117C420.154 23.6797 420.248 24.3301 420.248 24.9629C420.248 25.0918 420.248 25.209 420.248 25.3145C420.248 25.4199 420.236 25.5312 420.213 25.6484C419.193 25.7188 418.209 25.7539 417.26 25.7539ZM414.078 20.2695C413.48 20.2695 412.941 20.3809 412.461 20.6035C411.992 20.8262 411.57 21.1309 411.195 21.5176C410.832 21.8926 410.521 22.3379 410.264 22.8535C410.018 23.3574 409.818 23.8906 409.666 24.4531C410.498 24.4766 411.195 24.4941 411.758 24.5059C412.332 24.5176 412.818 24.5234 413.217 24.5234H414.957C415.367 24.5234 415.783 24.5176 416.205 24.5059C416.627 24.4941 417.119 24.4766 417.682 24.4531V24.2773C417.682 23.6445 417.594 23.082 417.418 22.5898C417.242 22.0859 416.996 21.6641 416.68 21.3242C416.363 20.9844 415.982 20.7266 415.537 20.5508C415.092 20.3633 414.605 20.2695 414.078 20.2695ZM424.924 23.3281C424.818 22.9297 424.695 22.584 424.555 22.291C424.426 21.998 424.256 21.7578 424.045 21.5703C423.846 21.3711 423.594 21.2246 423.289 21.1309C422.996 21.0371 422.627 20.9902 422.182 20.9902H421.936V20.1641C422.451 20.1523 422.896 20.123 423.271 20.0762C423.646 20.0176 423.998 19.9473 424.326 19.8652C424.666 19.7832 425.006 19.6895 425.346 19.584C425.686 19.4785 426.078 19.3613 426.523 19.2324C426.605 19.6543 426.723 20.1875 426.875 20.832C427.027 21.4766 427.227 22.291 427.473 23.2754C427.719 24.2598 428.018 25.4434 428.369 26.8262C428.721 28.1973 429.143 29.832 429.635 31.7305H429.916L434.223 19.584H435.506L439.109 31.8359H439.391C439.684 31.3203 440.012 30.7109 440.375 30.0078C440.738 29.293 441.072 28.5371 441.377 27.7402C441.682 26.9434 441.939 26.123 442.15 25.2793C442.361 24.4355 442.467 23.6211 442.467 22.8359C442.467 22.2383 442.391 21.6758 442.238 21.1484C442.086 20.6211 441.846 20.1523 441.518 19.7422C441.705 19.5898 441.939 19.4668 442.221 19.373C442.502 19.2793 442.783 19.2324 443.064 19.2324C443.697 19.2324 444.184 19.4258 444.523 19.8125C444.875 20.1992 445.051 20.7734 445.051 21.5352C445.051 22.1328 444.945 22.7891 444.734 23.5039C444.535 24.207 444.266 24.9453 443.926 25.7188C443.598 26.4922 443.217 27.2832 442.783 28.0918C442.35 28.9004 441.904 29.7031 441.447 30.5C441.002 31.2852 440.562 32.0469 440.129 32.7852C439.695 33.5234 439.309 34.2148 438.969 34.8594L437.773 35.3516L434.328 23.4863H434.029L429.934 34.8594L428.316 35.3516L424.924 23.3281ZM472.402 24.2773L456.986 32.082L456.195 30.5352L469.994 23.5566L456.195 16.5254L456.986 14.9785L472.402 22.8008V24.2773ZM492.125 24.2773L476.709 32.082L475.918 30.5352L489.717 23.5566L475.918 16.5254L476.709 14.9785L492.125 22.8008V24.2773Z" fill="white"/>
</svg>
