<svg width="169" height="21" viewBox="0 0 169 21" fill="none" xmlns="http://www.w3.org/2000/svg">
<path d="M14.2676 4.12695H11.0684V13H9.7627V4.12695H6.57031V3.04688H14.2676V4.12695ZM16.8105 6.49902C17.3711 5.81087 18.1003 5.4668 18.998 5.4668C20.5612 5.4668 21.3496 6.34863 21.3633 8.1123V13H20.0986V8.10547C20.0941 7.57227 19.971 7.17806 19.7295 6.92285C19.4925 6.66764 19.1211 6.54004 18.6152 6.54004C18.2051 6.54004 17.8451 6.64941 17.5352 6.86816C17.2253 7.08691 16.9837 7.37402 16.8105 7.72949V13H15.5459V2.5H16.8105V6.49902ZM24.6309 13H23.3662V5.60352H24.6309V13ZM23.2637 3.6416C23.2637 3.43652 23.3252 3.26335 23.4482 3.12207C23.5758 2.98079 23.7627 2.91016 24.0088 2.91016C24.2549 2.91016 24.4417 2.98079 24.5693 3.12207C24.6969 3.26335 24.7607 3.43652 24.7607 3.6416C24.7607 3.84668 24.6969 4.01758 24.5693 4.1543C24.4417 4.29102 24.2549 4.35938 24.0088 4.35938C23.7627 4.35938 23.5758 4.29102 23.4482 4.1543C23.3252 4.01758 23.2637 3.84668 23.2637 3.6416ZM30.9678 11.0381C30.9678 10.6963 30.8379 10.432 30.5781 10.2451C30.3229 10.0537 29.874 9.88965 29.2314 9.75293C28.5934 9.61621 28.0853 9.45215 27.707 9.26074C27.3333 9.06934 27.0553 8.84147 26.873 8.57715C26.6953 8.31283 26.6064 7.99837 26.6064 7.63379C26.6064 7.02767 26.8617 6.51497 27.3721 6.0957C27.887 5.67643 28.5433 5.4668 29.3408 5.4668C30.1794 5.4668 30.8584 5.68327 31.3779 6.11621C31.902 6.54915 32.1641 7.10286 32.1641 7.77734H30.8926C30.8926 7.43099 30.7445 7.13249 30.4482 6.88184C30.1566 6.63118 29.7874 6.50586 29.3408 6.50586C28.8805 6.50586 28.5205 6.60612 28.2607 6.80664C28.001 7.00716 27.8711 7.26921 27.8711 7.59277C27.8711 7.89811 27.9919 8.12826 28.2334 8.2832C28.4749 8.43815 28.9102 8.58626 29.5391 8.72754C30.1725 8.86882 30.6852 9.03743 31.0771 9.2334C31.4691 9.42936 31.7585 9.66634 31.9453 9.94434C32.1367 10.2178 32.2324 10.5527 32.2324 10.9492C32.2324 11.61 31.9681 12.141 31.4395 12.542C30.9108 12.9385 30.2249 13.1367 29.3818 13.1367C28.7894 13.1367 28.2653 13.0319 27.8096 12.8223C27.3538 12.6126 26.9961 12.321 26.7363 11.9473C26.4811 11.569 26.3535 11.1611 26.3535 10.7236H27.6182C27.641 11.1475 27.8096 11.4847 28.124 11.7354C28.443 11.9814 28.8623 12.1045 29.3818 12.1045C29.8604 12.1045 30.2432 12.0088 30.5303 11.8174C30.8219 11.6214 30.9678 11.3617 30.9678 11.0381ZM41.9189 13C41.846 12.8542 41.7868 12.5944 41.7412 12.2207C41.1533 12.8314 40.4515 13.1367 39.6357 13.1367C38.9066 13.1367 38.3073 12.9316 37.8379 12.5215C37.373 12.1068 37.1406 11.5827 37.1406 10.9492C37.1406 10.179 37.4323 9.58203 38.0156 9.1582C38.6035 8.72982 39.4284 8.51562 40.4902 8.51562H41.7207V7.93457C41.7207 7.49251 41.5885 7.1416 41.3242 6.88184C41.0599 6.61751 40.6702 6.48535 40.1553 6.48535C39.7041 6.48535 39.3258 6.59928 39.0205 6.82715C38.7152 7.05501 38.5625 7.33073 38.5625 7.6543H37.291C37.291 7.28516 37.4209 6.92969 37.6807 6.58789C37.945 6.24154 38.3005 5.9681 38.7471 5.76758C39.1982 5.56706 39.6927 5.4668 40.2305 5.4668C41.0827 5.4668 41.7503 5.68099 42.2334 6.10938C42.7165 6.5332 42.9671 7.11882 42.9854 7.86621V11.2705C42.9854 11.9495 43.0719 12.4896 43.2451 12.8906V13H41.9189ZM39.8203 12.0361C40.2168 12.0361 40.5928 11.9336 40.9482 11.7285C41.3037 11.5234 41.5612 11.2568 41.7207 10.9287V9.41113H40.7295C39.18 9.41113 38.4053 9.86458 38.4053 10.7715C38.4053 11.168 38.5374 11.4779 38.8018 11.7012C39.0661 11.9245 39.4056 12.0361 39.8203 12.0361ZM55.2422 4.12695H52.043V13H50.7373V4.12695H47.5449V3.04688H55.2422V4.12695ZM59.5762 6.73828C59.3848 6.70638 59.1774 6.69043 58.9541 6.69043C58.1247 6.69043 57.5618 7.04362 57.2656 7.75V13H56.001V5.60352H57.2314L57.252 6.45801C57.6667 5.7972 58.2546 5.4668 59.0156 5.4668C59.2617 5.4668 59.4486 5.4987 59.5762 5.5625V6.73828ZM65.0381 13C64.9652 12.8542 64.9059 12.5944 64.8604 12.2207C64.2725 12.8314 63.5706 13.1367 62.7549 13.1367C62.0257 13.1367 61.4264 12.9316 60.957 12.5215C60.4922 12.1068 60.2598 11.5827 60.2598 10.9492C60.2598 10.179 60.5514 9.58203 61.1348 9.1582C61.7227 8.72982 62.5475 8.51562 63.6094 8.51562H64.8398V7.93457C64.8398 7.49251 64.7077 7.1416 64.4434 6.88184C64.179 6.61751 63.7894 6.48535 63.2744 6.48535C62.8232 6.48535 62.445 6.59928 62.1396 6.82715C61.8343 7.05501 61.6816 7.33073 61.6816 7.6543H60.4102C60.4102 7.28516 60.54 6.92969 60.7998 6.58789C61.0641 6.24154 61.4196 5.9681 61.8662 5.76758C62.3174 5.56706 62.8118 5.4668 63.3496 5.4668C64.2018 5.4668 64.8695 5.68099 65.3525 6.10938C65.8356 6.5332 66.0863 7.11882 66.1045 7.86621V11.2705C66.1045 11.9495 66.1911 12.4896 66.3643 12.8906V13H65.0381ZM62.9395 12.0361C63.3359 12.0361 63.7119 11.9336 64.0674 11.7285C64.4229 11.5234 64.6803 11.2568 64.8398 10.9287V9.41113H63.8486C62.2992 9.41113 61.5244 9.86458 61.5244 10.7715C61.5244 11.168 61.6566 11.4779 61.9209 11.7012C62.1852 11.9245 62.5247 12.0361 62.9395 12.0361ZM70.418 11.2842L72.25 5.60352H73.542L70.8896 13H69.9258L67.2461 5.60352H68.5381L70.418 11.2842ZM77.7324 13.1367C76.7298 13.1367 75.9141 12.8086 75.2852 12.1523C74.6562 11.4915 74.3418 10.6097 74.3418 9.50684V9.27441C74.3418 8.54069 74.4808 7.88672 74.7588 7.3125C75.0413 6.73372 75.4333 6.28255 75.9346 5.95898C76.4404 5.63086 76.9873 5.4668 77.5752 5.4668C78.5368 5.4668 79.2842 5.78353 79.8174 6.41699C80.3506 7.05046 80.6172 7.95736 80.6172 9.1377V9.66406H75.6064C75.6247 10.3932 75.8366 10.9834 76.2422 11.4346C76.6523 11.8812 77.1719 12.1045 77.8008 12.1045C78.2474 12.1045 78.6257 12.0133 78.9355 11.8311C79.2454 11.6488 79.5166 11.4072 79.749 11.1064L80.5215 11.708C79.9017 12.6605 78.972 13.1367 77.7324 13.1367ZM77.5752 6.50586C77.0648 6.50586 76.6364 6.69271 76.29 7.06641C75.9437 7.43555 75.7295 7.95508 75.6475 8.625H79.3525V8.5293C79.3161 7.88672 79.1429 7.38997 78.833 7.03906C78.5231 6.68359 78.1038 6.50586 77.5752 6.50586ZM83.4609 13H82.1963V2.5H83.4609V13ZM96.5107 11.6943C96.1735 12.1774 95.7018 12.5397 95.0957 12.7812C94.4941 13.0182 93.7923 13.1367 92.9902 13.1367C92.179 13.1367 91.459 12.9476 90.8301 12.5693C90.2012 12.1865 89.7135 11.6442 89.3672 10.9424C89.0254 10.2406 88.8499 9.42708 88.8408 8.50195V7.63379C88.8408 6.13444 89.1895 4.97233 89.8867 4.14746C90.5885 3.32259 91.5729 2.91016 92.8398 2.91016C93.8789 2.91016 94.7152 3.17676 95.3486 3.70996C95.9821 4.23861 96.3695 4.99056 96.5107 5.96582H95.1982C94.9521 4.64876 94.1683 3.99023 92.8467 3.99023C91.9671 3.99023 91.2995 4.30013 90.8438 4.91992C90.3926 5.53516 90.1647 6.42839 90.1602 7.59961V8.41309C90.1602 9.52962 90.4154 10.4183 90.9258 11.0791C91.4362 11.7354 92.1266 12.0635 92.9971 12.0635C93.4893 12.0635 93.9199 12.0088 94.2891 11.8994C94.6582 11.79 94.9635 11.6055 95.2051 11.3457V9.11035H92.9014V8.04395H96.5107V11.6943ZM103.073 12.2686C102.581 12.8473 101.859 13.1367 100.906 13.1367C100.118 13.1367 99.5163 12.9089 99.1016 12.4531C98.6914 11.9928 98.484 11.3138 98.4795 10.416V5.60352H99.7441V10.3818C99.7441 11.5029 100.2 12.0635 101.111 12.0635C102.077 12.0635 102.72 11.7035 103.039 10.9834V5.60352H104.304V13H103.101L103.073 12.2686ZM107.605 13H106.341V5.60352H107.605V13ZM106.238 3.6416C106.238 3.43652 106.3 3.26335 106.423 3.12207C106.55 2.98079 106.737 2.91016 106.983 2.91016C107.229 2.91016 107.416 2.98079 107.544 3.12207C107.672 3.26335 107.735 3.43652 107.735 3.6416C107.735 3.84668 107.672 4.01758 107.544 4.1543C107.416 4.29102 107.229 4.35938 106.983 4.35938C106.737 4.35938 106.55 4.29102 106.423 4.1543C106.3 4.01758 106.238 3.84668 106.238 3.6416ZM109.328 9.24023C109.328 8.10547 109.597 7.19401 110.135 6.50586C110.673 5.81315 111.377 5.4668 112.247 5.4668C113.113 5.4668 113.799 5.76302 114.305 6.35547V2.5H115.569V13H114.407L114.346 12.207C113.84 12.8268 113.136 13.1367 112.233 13.1367C111.377 13.1367 110.677 12.7858 110.135 12.084C109.597 11.3822 109.328 10.4661 109.328 9.33594V9.24023ZM110.593 9.38379C110.593 10.2223 110.766 10.8786 111.112 11.3525C111.459 11.8265 111.937 12.0635 112.548 12.0635C113.35 12.0635 113.936 11.7035 114.305 10.9834V7.58594C113.926 6.88867 113.345 6.54004 112.562 6.54004C111.942 6.54004 111.459 6.7793 111.112 7.25781C110.766 7.73633 110.593 8.44499 110.593 9.38379ZM118.912 13H117.647V5.60352H118.912V13ZM117.545 3.6416C117.545 3.43652 117.606 3.26335 117.729 3.12207C117.857 2.98079 118.044 2.91016 118.29 2.91016C118.536 2.91016 118.723 2.98079 118.851 3.12207C118.978 3.26335 119.042 3.43652 119.042 3.6416C119.042 3.84668 118.978 4.01758 118.851 4.1543C118.723 4.29102 118.536 4.35938 118.29 4.35938C118.044 4.35938 117.857 4.29102 117.729 4.1543C117.606 4.01758 117.545 3.84668 117.545 3.6416ZM122.139 5.60352L122.18 6.5332C122.745 5.82227 123.483 5.4668 124.395 5.4668C125.958 5.4668 126.746 6.34863 126.76 8.1123V13H125.495V8.10547C125.491 7.57227 125.368 7.17806 125.126 6.92285C124.889 6.66764 124.518 6.54004 124.012 6.54004C123.602 6.54004 123.242 6.64941 122.932 6.86816C122.622 7.08691 122.38 7.37402 122.207 7.72949V13H120.942V5.60352H122.139ZM128.366 9.24023C128.366 8.08724 128.633 7.17122 129.166 6.49219C129.699 5.80859 130.406 5.4668 131.285 5.4668C132.188 5.4668 132.892 5.78581 133.397 6.42383L133.459 5.60352H134.614V12.8223C134.614 13.7793 134.329 14.5335 133.76 15.085C133.195 15.6364 132.434 15.9121 131.477 15.9121C130.943 15.9121 130.422 15.7982 129.911 15.5703C129.401 15.3424 129.011 15.0303 128.742 14.6338L129.398 13.875C129.941 14.5449 130.604 14.8799 131.388 14.8799C132.003 14.8799 132.481 14.7067 132.823 14.3604C133.17 14.014 133.343 13.5264 133.343 12.8975V12.2617C132.837 12.8451 132.146 13.1367 131.271 13.1367C130.406 13.1367 129.704 12.7881 129.166 12.0908C128.633 11.3936 128.366 10.4434 128.366 9.24023ZM129.638 9.38379C129.638 10.2178 129.809 10.874 130.15 11.3525C130.492 11.8265 130.971 12.0635 131.586 12.0635C132.383 12.0635 132.969 11.7012 133.343 10.9766V7.59961C132.955 6.89323 132.374 6.54004 131.6 6.54004C130.984 6.54004 130.504 6.7793 130.157 7.25781C129.811 7.73633 129.638 8.44499 129.638 9.38379ZM143.132 8.56348C142.006 8.23991 141.186 7.84342 140.671 7.37402C140.16 6.90007 139.905 6.31673 139.905 5.62402C139.905 4.84017 140.217 4.19303 140.842 3.68262C141.471 3.16764 142.286 2.91016 143.289 2.91016C143.973 2.91016 144.581 3.04232 145.114 3.30664C145.652 3.57096 146.067 3.93555 146.358 4.40039C146.655 4.86523 146.803 5.37337 146.803 5.9248H145.483C145.483 5.32324 145.292 4.85156 144.909 4.50977C144.526 4.16341 143.986 3.99023 143.289 3.99023C142.642 3.99023 142.136 4.13379 141.771 4.4209C141.411 4.70345 141.231 5.09766 141.231 5.60352C141.231 6.00911 141.402 6.35319 141.744 6.63574C142.09 6.91374 142.676 7.16895 143.501 7.40137C144.33 7.63379 144.978 7.89128 145.442 8.17383C145.912 8.45182 146.258 8.77767 146.481 9.15137C146.709 9.52507 146.823 9.96484 146.823 10.4707C146.823 11.2773 146.509 11.9245 145.88 12.4121C145.251 12.8952 144.41 13.1367 143.357 13.1367C142.674 13.1367 142.036 13.0068 141.443 12.7471C140.851 12.4827 140.393 12.1227 140.069 11.667C139.75 11.2113 139.591 10.694 139.591 10.1152H140.91C140.91 10.7168 141.131 11.193 141.573 11.5439C142.02 11.8903 142.615 12.0635 143.357 12.0635C144.05 12.0635 144.581 11.9222 144.95 11.6396C145.319 11.3571 145.504 10.972 145.504 10.4844C145.504 9.99674 145.333 9.62077 144.991 9.35645C144.649 9.08757 144.03 8.82324 143.132 8.56348ZM149.688 13H148.423V5.60352H149.688V13ZM148.32 3.6416C148.32 3.43652 148.382 3.26335 148.505 3.12207C148.632 2.98079 148.819 2.91016 149.065 2.91016C149.312 2.91016 149.498 2.98079 149.626 3.12207C149.754 3.26335 149.817 3.43652 149.817 3.6416C149.817 3.84668 149.754 4.01758 149.626 4.1543C149.498 4.29102 149.312 4.35938 149.065 4.35938C148.819 4.35938 148.632 4.29102 148.505 4.1543C148.382 4.01758 148.32 3.84668 148.32 3.6416ZM153.434 3.8125V5.60352H154.814V6.58105H153.434V11.168C153.434 11.4642 153.495 11.6875 153.618 11.8379C153.741 11.9837 153.951 12.0566 154.247 12.0566C154.393 12.0566 154.593 12.0293 154.849 11.9746V13C154.516 13.0911 154.192 13.1367 153.878 13.1367C153.313 13.1367 152.887 12.9658 152.6 12.624C152.312 12.2822 152.169 11.7969 152.169 11.168V6.58105H150.822V5.60352H152.169V3.8125H153.434ZM159.367 13.1367C158.365 13.1367 157.549 12.8086 156.92 12.1523C156.291 11.4915 155.977 10.6097 155.977 9.50684V9.27441C155.977 8.54069 156.116 7.88672 156.394 7.3125C156.676 6.73372 157.068 6.28255 157.569 5.95898C158.075 5.63086 158.622 5.4668 159.21 5.4668C160.172 5.4668 160.919 5.78353 161.452 6.41699C161.985 7.05046 162.252 7.95736 162.252 9.1377V9.66406H157.241C157.259 10.3932 157.471 10.9834 157.877 11.4346C158.287 11.8812 158.807 12.1045 159.436 12.1045C159.882 12.1045 160.26 12.0133 160.57 11.8311C160.88 11.6488 161.151 11.4072 161.384 11.1064L162.156 11.708C161.536 12.6605 160.607 13.1367 159.367 13.1367ZM159.21 6.50586C158.7 6.50586 158.271 6.69271 157.925 7.06641C157.578 7.43555 157.364 7.95508 157.282 8.625H160.987V8.5293C160.951 7.88672 160.778 7.38997 160.468 7.03906C160.158 6.68359 159.739 6.50586 159.21 6.50586Z" fill="white"/>
</svg>
