<svg width="491" height="50" viewBox="0 0 491 50" fill="none" xmlns="http://www.w3.org/2000/svg">
<path d="M100.734 11.6484H91.5938V37H87.8633V11.6484H78.7422V8.5625H100.734V11.6484ZM113.117 19.1094C112.57 19.0182 111.978 18.9727 111.34 18.9727C108.97 18.9727 107.362 19.9818 106.516 22V37H102.902V15.8672H106.418L106.477 18.3086C107.661 16.4206 109.341 15.4766 111.516 15.4766C112.219 15.4766 112.753 15.5677 113.117 15.75V19.1094ZM128.723 37C128.514 36.5833 128.345 35.8411 128.215 34.7734C126.535 36.5182 124.53 37.3906 122.199 37.3906C120.116 37.3906 118.404 36.8047 117.062 35.6328C115.734 34.4479 115.07 32.9505 115.07 31.1406C115.07 28.9401 115.904 27.2344 117.57 26.0234C119.25 24.7995 121.607 24.1875 124.641 24.1875H128.156V22.5273C128.156 21.2643 127.779 20.2617 127.023 19.5195C126.268 18.7643 125.155 18.3867 123.684 18.3867C122.395 18.3867 121.314 18.7122 120.441 19.3633C119.569 20.0143 119.133 20.8021 119.133 21.7266H115.5C115.5 20.6719 115.871 19.6562 116.613 18.6797C117.368 17.6901 118.384 16.9089 119.66 16.3359C120.949 15.763 122.362 15.4766 123.898 15.4766C126.333 15.4766 128.241 16.0885 129.621 17.3125C131.001 18.5234 131.717 20.1966 131.77 22.332V32.0586C131.77 33.9987 132.017 35.5417 132.512 36.6875V37H128.723ZM122.727 34.2461C123.859 34.2461 124.934 33.9531 125.949 33.3672C126.965 32.7812 127.701 32.0195 128.156 31.082V26.7461H125.324C120.897 26.7461 118.684 28.0417 118.684 30.6328C118.684 31.7656 119.061 32.651 119.816 33.2891C120.572 33.9271 121.542 34.2461 122.727 34.2461ZM144.094 32.0977L149.328 15.8672H153.02L145.441 37H142.688L135.031 15.8672H138.723L144.094 32.0977ZM164.992 37.3906C162.128 37.3906 159.797 36.4531 158 34.5781C156.203 32.6901 155.305 30.1706 155.305 27.0195V26.3555C155.305 24.2591 155.702 22.3906 156.496 20.75C157.303 19.0964 158.423 17.8073 159.855 16.8828C161.301 15.9453 162.863 15.4766 164.543 15.4766C167.29 15.4766 169.426 16.3815 170.949 18.1914C172.473 20.0013 173.234 22.5924 173.234 25.9648V27.4688H158.918C158.97 29.5521 159.576 31.2383 160.734 32.5273C161.906 33.8034 163.391 34.4414 165.188 34.4414C166.464 34.4414 167.544 34.181 168.43 33.6602C169.315 33.1393 170.09 32.4492 170.754 31.5898L172.961 33.3086C171.19 36.0299 168.534 37.3906 164.992 37.3906ZM164.543 18.4453C163.085 18.4453 161.861 18.9792 160.871 20.0469C159.882 21.1016 159.27 22.5859 159.035 24.5H169.621V24.2266C169.517 22.3906 169.022 20.9714 168.137 19.9688C167.251 18.9531 166.053 18.4453 164.543 18.4453ZM181.359 37H177.746V7H181.359V37ZM197.648 37V8.5625H206.945C210.031 8.5625 212.349 9.20052 213.898 10.4766C215.461 11.7526 216.242 13.6406 216.242 16.1406C216.242 17.4688 215.865 18.6471 215.109 19.6758C214.354 20.6914 213.326 21.4792 212.023 22.0391C213.56 22.4688 214.771 23.2891 215.656 24.5C216.555 25.6979 217.004 27.1302 217.004 28.7969C217.004 31.349 216.177 33.3542 214.523 34.8125C212.87 36.2708 210.533 37 207.512 37H197.648ZM201.398 23.6992V33.9336H207.59C209.335 33.9336 210.708 33.4844 211.711 32.5859C212.727 31.6745 213.234 30.4245 213.234 28.8359C213.234 25.4115 211.372 23.6992 207.648 23.6992H201.398ZM201.398 20.6914H207.062C208.703 20.6914 210.012 20.2812 210.988 19.4609C211.978 18.6406 212.473 17.5273 212.473 16.1211C212.473 14.5586 212.017 13.4258 211.105 12.7227C210.194 12.0065 208.807 11.6484 206.945 11.6484H201.398V20.6914ZM225.93 37H222.316V7H225.93V37ZM230.773 26.2383C230.773 24.168 231.177 22.306 231.984 20.6523C232.805 18.9987 233.938 17.7227 235.383 16.8242C236.841 15.9258 238.501 15.4766 240.363 15.4766C243.241 15.4766 245.565 16.4727 247.336 18.4648C249.12 20.457 250.012 23.1068 250.012 26.4141V26.668C250.012 28.7253 249.615 30.5742 248.82 32.2148C248.039 33.8424 246.913 35.112 245.441 36.0234C243.983 36.9349 242.303 37.3906 240.402 37.3906C237.538 37.3906 235.214 36.3945 233.43 34.4023C231.659 32.4102 230.773 29.7734 230.773 26.4922V26.2383ZM234.406 26.668C234.406 29.0117 234.947 30.8932 236.027 32.3125C237.121 33.7318 238.579 34.4414 240.402 34.4414C242.238 34.4414 243.697 33.7253 244.777 32.293C245.858 30.8477 246.398 28.8294 246.398 26.2383C246.398 23.9206 245.845 22.0456 244.738 20.6133C243.645 19.168 242.186 18.4453 240.363 18.4453C238.579 18.4453 237.141 19.1549 236.047 20.5742C234.953 21.9935 234.406 24.0247 234.406 26.668ZM253.684 26.2578C253.684 22.9635 254.445 20.3464 255.969 18.4062C257.492 16.4531 259.51 15.4766 262.023 15.4766C264.602 15.4766 266.613 16.388 268.059 18.2109L268.234 15.8672H271.535V36.4922C271.535 39.2266 270.721 41.3815 269.094 42.957C267.479 44.5326 265.305 45.3203 262.57 45.3203C261.047 45.3203 259.556 44.9948 258.098 44.3438C256.639 43.6927 255.526 42.8008 254.758 41.668L256.633 39.5C258.182 41.4141 260.077 42.3711 262.316 42.3711C264.074 42.3711 265.441 41.8763 266.418 40.8867C267.408 39.8971 267.902 38.5039 267.902 36.707V34.8906C266.457 36.5573 264.484 37.3906 261.984 37.3906C259.51 37.3906 257.505 36.3945 255.969 34.4023C254.445 32.4102 253.684 29.6953 253.684 26.2578ZM257.316 26.668C257.316 29.0508 257.805 30.9258 258.781 32.293C259.758 33.6471 261.125 34.3242 262.883 34.3242C265.161 34.3242 266.835 33.2891 267.902 31.2188V21.5703C266.796 19.5521 265.135 18.543 262.922 18.543C261.164 18.543 259.79 19.2266 258.801 20.5938C257.811 21.9609 257.316 23.9857 257.316 26.668ZM276.145 26.2578C276.145 22.9635 276.906 20.3464 278.43 18.4062C279.953 16.4531 281.971 15.4766 284.484 15.4766C287.062 15.4766 289.074 16.388 290.52 18.2109L290.695 15.8672H293.996V36.4922C293.996 39.2266 293.182 41.3815 291.555 42.957C289.94 44.5326 287.766 45.3203 285.031 45.3203C283.508 45.3203 282.017 44.9948 280.559 44.3438C279.1 43.6927 277.987 42.8008 277.219 41.668L279.094 39.5C280.643 41.4141 282.538 42.3711 284.777 42.3711C286.535 42.3711 287.902 41.8763 288.879 40.8867C289.868 39.8971 290.363 38.5039 290.363 36.707V34.8906C288.918 36.5573 286.945 37.3906 284.445 37.3906C281.971 37.3906 279.966 36.3945 278.43 34.4023C276.906 32.4102 276.145 29.6953 276.145 26.2578ZM279.777 26.668C279.777 29.0508 280.266 30.9258 281.242 32.293C282.219 33.6471 283.586 34.3242 285.344 34.3242C287.622 34.3242 289.296 33.2891 290.363 31.2188V21.5703C289.257 19.5521 287.596 18.543 285.383 18.543C283.625 18.543 282.251 19.2266 281.262 20.5938C280.272 21.9609 279.777 23.9857 279.777 26.668ZM308.234 37.3906C305.37 37.3906 303.039 36.4531 301.242 34.5781C299.445 32.6901 298.547 30.1706 298.547 27.0195V26.3555C298.547 24.2591 298.944 22.3906 299.738 20.75C300.546 19.0964 301.665 17.8073 303.098 16.8828C304.543 15.9453 306.105 15.4766 307.785 15.4766C310.533 15.4766 312.668 16.3815 314.191 18.1914C315.715 20.0013 316.477 22.5924 316.477 25.9648V27.4688H302.16C302.212 29.5521 302.818 31.2383 303.977 32.5273C305.148 33.8034 306.633 34.4414 308.43 34.4414C309.706 34.4414 310.786 34.181 311.672 33.6602C312.557 33.1393 313.332 32.4492 313.996 31.5898L316.203 33.3086C314.432 36.0299 311.776 37.3906 308.234 37.3906ZM307.785 18.4453C306.327 18.4453 305.103 18.9792 304.113 20.0469C303.124 21.1016 302.512 22.5859 302.277 24.5H312.863V24.2266C312.759 22.3906 312.264 20.9714 311.379 19.9688C310.493 18.9531 309.296 18.4453 307.785 18.4453ZM330.891 19.1094C330.344 19.0182 329.751 18.9727 329.113 18.9727C326.743 18.9727 325.135 19.9818 324.289 22V37H320.676V15.8672H324.191L324.25 18.3086C325.435 16.4206 327.115 15.4766 329.289 15.4766C329.992 15.4766 330.526 15.5677 330.891 15.75V19.1094ZM346.535 31.3945C346.535 30.418 346.164 29.6628 345.422 29.1289C344.693 28.582 343.41 28.1133 341.574 27.7227C339.751 27.332 338.299 26.8633 337.219 26.3164C336.151 25.7695 335.357 25.1185 334.836 24.3633C334.328 23.6081 334.074 22.7096 334.074 21.668C334.074 19.9362 334.803 18.4714 336.262 17.2734C337.733 16.0755 339.608 15.4766 341.887 15.4766C344.283 15.4766 346.223 16.0951 347.707 17.332C349.204 18.569 349.953 20.151 349.953 22.0781H346.32C346.32 21.0885 345.897 20.2357 345.051 19.5195C344.217 18.8034 343.163 18.4453 341.887 18.4453C340.572 18.4453 339.543 18.7318 338.801 19.3047C338.059 19.8776 337.688 20.6263 337.688 21.5508C337.688 22.4232 338.033 23.0807 338.723 23.5234C339.413 23.9661 340.656 24.3893 342.453 24.793C344.263 25.1966 345.728 25.6784 346.848 26.2383C347.967 26.7982 348.794 27.4753 349.328 28.2695C349.875 29.0508 350.148 30.0078 350.148 31.1406C350.148 33.0286 349.393 34.5456 347.883 35.6914C346.372 36.8242 344.413 37.3906 342.004 37.3906C340.311 37.3906 338.814 37.0911 337.512 36.4922C336.21 35.8932 335.188 35.0599 334.445 33.9922C333.716 32.9115 333.352 31.7461 333.352 30.4961H336.965C337.03 31.707 337.512 32.6706 338.41 33.3867C339.322 34.0898 340.52 34.4414 342.004 34.4414C343.371 34.4414 344.465 34.168 345.285 33.6211C346.118 33.0612 346.535 32.319 346.535 31.3945ZM365.344 37V8.5625H374.641C377.727 8.5625 380.044 9.20052 381.594 10.4766C383.156 11.7526 383.938 13.6406 383.938 16.1406C383.938 17.4688 383.56 18.6471 382.805 19.6758C382.049 20.6914 381.021 21.4792 379.719 22.0391C381.255 22.4688 382.466 23.2891 383.352 24.5C384.25 25.6979 384.699 27.1302 384.699 28.7969C384.699 31.349 383.872 33.3542 382.219 34.8125C380.565 36.2708 378.228 37 375.207 37H365.344ZM369.094 23.6992V33.9336H375.285C377.03 33.9336 378.404 33.4844 379.406 32.5859C380.422 31.6745 380.93 30.4245 380.93 28.8359C380.93 25.4115 379.068 23.6992 375.344 23.6992H369.094ZM369.094 20.6914H374.758C376.398 20.6914 377.707 20.2812 378.684 19.4609C379.673 18.6406 380.168 17.5273 380.168 16.1211C380.168 14.5586 379.712 13.4258 378.801 12.7227C377.889 12.0065 376.503 11.6484 374.641 11.6484H369.094V20.6914ZM390.266 37V8.5625H398.293C400.767 8.5625 402.954 9.10938 404.855 10.2031C406.757 11.2969 408.221 12.8529 409.25 14.8711C410.292 16.8893 410.819 19.207 410.832 21.8242V23.6406C410.832 26.3229 410.311 28.6732 409.27 30.6914C408.241 32.7096 406.763 34.2591 404.836 35.3398C402.922 36.4206 400.689 36.974 398.137 37H390.266ZM394.016 11.6484V33.9336H397.961C400.852 33.9336 403.098 33.0352 404.699 31.2383C406.314 29.4414 407.121 26.8828 407.121 23.5625V21.9023C407.121 18.6732 406.359 16.1667 404.836 14.3828C403.326 12.5859 401.177 11.6745 398.391 11.6484H394.016Z" fill="white"/>
</svg>
